G04 #@! TF.GenerationSoftware,KiCad,Pcbnew,5.0.2+dfsg1-1*
G04 #@! TF.CreationDate,2019-11-26T12:32:40+03:00*
G04 #@! TF.ProjectId,clmt,636c6d74-2e6b-4696-9361-645f70636258,rev?*
G04 #@! TF.SameCoordinates,Original*
G04 #@! TF.FileFunction,Legend,Bot*
G04 #@! TF.FilePolarity,Positive*
%FSLAX46Y46*%
G04 Gerber Fmt 4.6, Leading zero omitted, Abs format (unit mm)*
G04 Created by KiCad (PCBNEW 5.0.2+dfsg1-1) date Вт 26 ноя 2019 12:32:40*
%MOMM*%
%LPD*%
G01*
G04 APERTURE LIST*
%ADD10C,0.120000*%
%ADD11C,0.150000*%
G04 APERTURE END LIST*
D10*
G04 #@! TO.C,C3*
X115564775Y-49075000D02*
X115564775Y-49575000D01*
X115814775Y-49325000D02*
X115314775Y-49325000D01*
X110409000Y-50516000D02*
X110409000Y-51084000D01*
X110449000Y-50282000D02*
X110449000Y-51318000D01*
X110489000Y-50123000D02*
X110489000Y-51477000D01*
X110529000Y-49995000D02*
X110529000Y-51605000D01*
X110569000Y-49885000D02*
X110569000Y-51715000D01*
X110609000Y-49789000D02*
X110609000Y-51811000D01*
X110649000Y-49702000D02*
X110649000Y-51898000D01*
X110689000Y-49622000D02*
X110689000Y-51978000D01*
X110729000Y-51840000D02*
X110729000Y-52051000D01*
X110729000Y-49549000D02*
X110729000Y-49760000D01*
X110769000Y-51840000D02*
X110769000Y-52119000D01*
X110769000Y-49481000D02*
X110769000Y-49760000D01*
X110809000Y-51840000D02*
X110809000Y-52183000D01*
X110809000Y-49417000D02*
X110809000Y-49760000D01*
X110849000Y-51840000D02*
X110849000Y-52243000D01*
X110849000Y-49357000D02*
X110849000Y-49760000D01*
X110889000Y-51840000D02*
X110889000Y-52300000D01*
X110889000Y-49300000D02*
X110889000Y-49760000D01*
X110929000Y-51840000D02*
X110929000Y-52354000D01*
X110929000Y-49246000D02*
X110929000Y-49760000D01*
X110969000Y-51840000D02*
X110969000Y-52405000D01*
X110969000Y-49195000D02*
X110969000Y-49760000D01*
X111009000Y-51840000D02*
X111009000Y-52453000D01*
X111009000Y-49147000D02*
X111009000Y-49760000D01*
X111049000Y-51840000D02*
X111049000Y-52499000D01*
X111049000Y-49101000D02*
X111049000Y-49760000D01*
X111089000Y-51840000D02*
X111089000Y-52543000D01*
X111089000Y-49057000D02*
X111089000Y-49760000D01*
X111129000Y-51840000D02*
X111129000Y-52585000D01*
X111129000Y-49015000D02*
X111129000Y-49760000D01*
X111169000Y-51840000D02*
X111169000Y-52626000D01*
X111169000Y-48974000D02*
X111169000Y-49760000D01*
X111209000Y-51840000D02*
X111209000Y-52664000D01*
X111209000Y-48936000D02*
X111209000Y-49760000D01*
X111249000Y-51840000D02*
X111249000Y-52701000D01*
X111249000Y-48899000D02*
X111249000Y-49760000D01*
X111289000Y-51840000D02*
X111289000Y-52737000D01*
X111289000Y-48863000D02*
X111289000Y-49760000D01*
X111329000Y-51840000D02*
X111329000Y-52771000D01*
X111329000Y-48829000D02*
X111329000Y-49760000D01*
X111369000Y-51840000D02*
X111369000Y-52804000D01*
X111369000Y-48796000D02*
X111369000Y-49760000D01*
X111409000Y-51840000D02*
X111409000Y-52835000D01*
X111409000Y-48765000D02*
X111409000Y-49760000D01*
X111449000Y-51840000D02*
X111449000Y-52865000D01*
X111449000Y-48735000D02*
X111449000Y-49760000D01*
X111489000Y-51840000D02*
X111489000Y-52895000D01*
X111489000Y-48705000D02*
X111489000Y-49760000D01*
X111529000Y-51840000D02*
X111529000Y-52922000D01*
X111529000Y-48678000D02*
X111529000Y-49760000D01*
X111569000Y-51840000D02*
X111569000Y-52949000D01*
X111569000Y-48651000D02*
X111569000Y-49760000D01*
X111609000Y-51840000D02*
X111609000Y-52975000D01*
X111609000Y-48625000D02*
X111609000Y-49760000D01*
X111649000Y-51840000D02*
X111649000Y-53000000D01*
X111649000Y-48600000D02*
X111649000Y-49760000D01*
X111689000Y-51840000D02*
X111689000Y-53024000D01*
X111689000Y-48576000D02*
X111689000Y-49760000D01*
X111729000Y-51840000D02*
X111729000Y-53047000D01*
X111729000Y-48553000D02*
X111729000Y-49760000D01*
X111769000Y-51840000D02*
X111769000Y-53068000D01*
X111769000Y-48532000D02*
X111769000Y-49760000D01*
X111809000Y-51840000D02*
X111809000Y-53090000D01*
X111809000Y-48510000D02*
X111809000Y-49760000D01*
X111849000Y-51840000D02*
X111849000Y-53110000D01*
X111849000Y-48490000D02*
X111849000Y-49760000D01*
X111889000Y-51840000D02*
X111889000Y-53129000D01*
X111889000Y-48471000D02*
X111889000Y-49760000D01*
X111929000Y-51840000D02*
X111929000Y-53148000D01*
X111929000Y-48452000D02*
X111929000Y-49760000D01*
X111969000Y-51840000D02*
X111969000Y-53165000D01*
X111969000Y-48435000D02*
X111969000Y-49760000D01*
X112009000Y-51840000D02*
X112009000Y-53182000D01*
X112009000Y-48418000D02*
X112009000Y-49760000D01*
X112049000Y-51840000D02*
X112049000Y-53198000D01*
X112049000Y-48402000D02*
X112049000Y-49760000D01*
X112089000Y-51840000D02*
X112089000Y-53214000D01*
X112089000Y-48386000D02*
X112089000Y-49760000D01*
X112129000Y-51840000D02*
X112129000Y-53228000D01*
X112129000Y-48372000D02*
X112129000Y-49760000D01*
X112169000Y-51840000D02*
X112169000Y-53242000D01*
X112169000Y-48358000D02*
X112169000Y-49760000D01*
X112209000Y-51840000D02*
X112209000Y-53255000D01*
X112209000Y-48345000D02*
X112209000Y-49760000D01*
X112249000Y-51840000D02*
X112249000Y-53268000D01*
X112249000Y-48332000D02*
X112249000Y-49760000D01*
X112289000Y-51840000D02*
X112289000Y-53280000D01*
X112289000Y-48320000D02*
X112289000Y-49760000D01*
X112330000Y-51840000D02*
X112330000Y-53291000D01*
X112330000Y-48309000D02*
X112330000Y-49760000D01*
X112370000Y-51840000D02*
X112370000Y-53301000D01*
X112370000Y-48299000D02*
X112370000Y-49760000D01*
X112410000Y-51840000D02*
X112410000Y-53311000D01*
X112410000Y-48289000D02*
X112410000Y-49760000D01*
X112450000Y-51840000D02*
X112450000Y-53320000D01*
X112450000Y-48280000D02*
X112450000Y-49760000D01*
X112490000Y-51840000D02*
X112490000Y-53328000D01*
X112490000Y-48272000D02*
X112490000Y-49760000D01*
X112530000Y-51840000D02*
X112530000Y-53336000D01*
X112530000Y-48264000D02*
X112530000Y-49760000D01*
X112570000Y-51840000D02*
X112570000Y-53343000D01*
X112570000Y-48257000D02*
X112570000Y-49760000D01*
X112610000Y-51840000D02*
X112610000Y-53350000D01*
X112610000Y-48250000D02*
X112610000Y-49760000D01*
X112650000Y-51840000D02*
X112650000Y-53356000D01*
X112650000Y-48244000D02*
X112650000Y-49760000D01*
X112690000Y-51840000D02*
X112690000Y-53361000D01*
X112690000Y-48239000D02*
X112690000Y-49760000D01*
X112730000Y-51840000D02*
X112730000Y-53365000D01*
X112730000Y-48235000D02*
X112730000Y-49760000D01*
X112770000Y-51840000D02*
X112770000Y-53369000D01*
X112770000Y-48231000D02*
X112770000Y-49760000D01*
X112810000Y-48227000D02*
X112810000Y-53373000D01*
X112850000Y-48224000D02*
X112850000Y-53376000D01*
X112890000Y-48222000D02*
X112890000Y-53378000D01*
X112930000Y-48221000D02*
X112930000Y-53379000D01*
X112970000Y-48220000D02*
X112970000Y-53380000D01*
X113010000Y-48220000D02*
X113010000Y-53380000D01*
X115630000Y-50800000D02*
G75*
G03X115630000Y-50800000I-2620000J0D01*
G01*
G04 #@! TO.C,C8*
X135330000Y-43163748D02*
X135330000Y-43686252D01*
X133910000Y-43163748D02*
X133910000Y-43686252D01*
G04 #@! TO.C,R7*
X133044000Y-43686252D02*
X133044000Y-43163748D01*
X131624000Y-43686252D02*
X131624000Y-43163748D01*
G04 #@! TO.C,C3*
D11*
X113176666Y-47407142D02*
X113224285Y-47454761D01*
X113367142Y-47502380D01*
X113462380Y-47502380D01*
X113605238Y-47454761D01*
X113700476Y-47359523D01*
X113748095Y-47264285D01*
X113795714Y-47073809D01*
X113795714Y-46930952D01*
X113748095Y-46740476D01*
X113700476Y-46645238D01*
X113605238Y-46550000D01*
X113462380Y-46502380D01*
X113367142Y-46502380D01*
X113224285Y-46550000D01*
X113176666Y-46597619D01*
X112843333Y-46502380D02*
X112224285Y-46502380D01*
X112557619Y-46883333D01*
X112414761Y-46883333D01*
X112319523Y-46930952D01*
X112271904Y-46978571D01*
X112224285Y-47073809D01*
X112224285Y-47311904D01*
X112271904Y-47407142D01*
X112319523Y-47454761D01*
X112414761Y-47502380D01*
X112700476Y-47502380D01*
X112795714Y-47454761D01*
X112843333Y-47407142D01*
G04 #@! TO.C,C8*
X136501142Y-43258333D02*
X136548761Y-43210714D01*
X136596380Y-43067857D01*
X136596380Y-42972619D01*
X136548761Y-42829761D01*
X136453523Y-42734523D01*
X136358285Y-42686904D01*
X136167809Y-42639285D01*
X136024952Y-42639285D01*
X135834476Y-42686904D01*
X135739238Y-42734523D01*
X135644000Y-42829761D01*
X135596380Y-42972619D01*
X135596380Y-43067857D01*
X135644000Y-43210714D01*
X135691619Y-43258333D01*
X136024952Y-43829761D02*
X135977333Y-43734523D01*
X135929714Y-43686904D01*
X135834476Y-43639285D01*
X135786857Y-43639285D01*
X135691619Y-43686904D01*
X135644000Y-43734523D01*
X135596380Y-43829761D01*
X135596380Y-44020238D01*
X135644000Y-44115476D01*
X135691619Y-44163095D01*
X135786857Y-44210714D01*
X135834476Y-44210714D01*
X135929714Y-44163095D01*
X135977333Y-44115476D01*
X136024952Y-44020238D01*
X136024952Y-43829761D01*
X136072571Y-43734523D01*
X136120190Y-43686904D01*
X136215428Y-43639285D01*
X136405904Y-43639285D01*
X136501142Y-43686904D01*
X136548761Y-43734523D01*
X136596380Y-43829761D01*
X136596380Y-44020238D01*
X136548761Y-44115476D01*
X136501142Y-44163095D01*
X136405904Y-44210714D01*
X136215428Y-44210714D01*
X136120190Y-44163095D01*
X136072571Y-44115476D01*
X136024952Y-44020238D01*
G04 #@! TO.C,R7*
X131516380Y-43267333D02*
X131040190Y-42934000D01*
X131516380Y-42695904D02*
X130516380Y-42695904D01*
X130516380Y-43076857D01*
X130564000Y-43172095D01*
X130611619Y-43219714D01*
X130706857Y-43267333D01*
X130849714Y-43267333D01*
X130944952Y-43219714D01*
X130992571Y-43172095D01*
X131040190Y-43076857D01*
X131040190Y-42695904D01*
X130516380Y-43600666D02*
X130516380Y-44267333D01*
X131516380Y-43838761D01*
G04 #@! TD*
M02*
