G04 #@! TF.GenerationSoftware,KiCad,Pcbnew,5.0.2+dfsg1-1*
G04 #@! TF.CreationDate,2019-11-26T12:32:40+03:00*
G04 #@! TF.ProjectId,clmt,636c6d74-2e6b-4696-9361-645f70636258,rev?*
G04 #@! TF.SameCoordinates,Original*
G04 #@! TF.FileFunction,Copper,L1,Top*
G04 #@! TF.FilePolarity,Positive*
%FSLAX46Y46*%
G04 Gerber Fmt 4.6, Leading zero omitted, Abs format (unit mm)*
G04 Created by KiCad (PCBNEW 5.0.2+dfsg1-1) date Вт 26 ноя 2019 12:32:40*
%MOMM*%
%LPD*%
G01*
G04 APERTURE LIST*
G04 #@! TA.AperFunction,Conductor*
%ADD10C,0.100000*%
G04 #@! TD*
G04 #@! TA.AperFunction,SMDPad,CuDef*
%ADD11C,1.150000*%
G04 #@! TD*
G04 #@! TA.AperFunction,ComponentPad*
%ADD12C,1.600000*%
G04 #@! TD*
G04 #@! TA.AperFunction,ComponentPad*
%ADD13R,1.600000X1.600000*%
G04 #@! TD*
G04 #@! TA.AperFunction,ComponentPad*
%ADD14R,1.700000X1.700000*%
G04 #@! TD*
G04 #@! TA.AperFunction,ComponentPad*
%ADD15O,1.700000X1.700000*%
G04 #@! TD*
G04 #@! TA.AperFunction,SMDPad,CuDef*
%ADD16R,0.900000X0.800000*%
G04 #@! TD*
G04 #@! TA.AperFunction,SMDPad,CuDef*
%ADD17R,0.550000X1.600000*%
G04 #@! TD*
G04 #@! TA.AperFunction,SMDPad,CuDef*
%ADD18R,1.600000X0.550000*%
G04 #@! TD*
G04 #@! TA.AperFunction,SMDPad,CuDef*
%ADD19R,1.700000X1.300000*%
G04 #@! TD*
G04 #@! TA.AperFunction,SMDPad,CuDef*
%ADD20C,1.700000*%
G04 #@! TD*
G04 #@! TA.AperFunction,ViaPad*
%ADD21C,0.800000*%
G04 #@! TD*
G04 #@! TA.AperFunction,Conductor*
%ADD22C,0.250000*%
G04 #@! TD*
G04 #@! TA.AperFunction,Conductor*
%ADD23C,0.500000*%
G04 #@! TD*
G04 APERTURE END LIST*
D10*
G04 #@! TO.N,GND*
G04 #@! TO.C,C4*
G36*
X124680505Y-53020204D02*
X124704773Y-53023804D01*
X124728572Y-53029765D01*
X124751671Y-53038030D01*
X124773850Y-53048520D01*
X124794893Y-53061132D01*
X124814599Y-53075747D01*
X124832777Y-53092223D01*
X124849253Y-53110401D01*
X124863868Y-53130107D01*
X124876480Y-53151150D01*
X124886970Y-53173329D01*
X124895235Y-53196428D01*
X124901196Y-53220227D01*
X124904796Y-53244495D01*
X124906000Y-53268999D01*
X124906000Y-53919001D01*
X124904796Y-53943505D01*
X124901196Y-53967773D01*
X124895235Y-53991572D01*
X124886970Y-54014671D01*
X124876480Y-54036850D01*
X124863868Y-54057893D01*
X124849253Y-54077599D01*
X124832777Y-54095777D01*
X124814599Y-54112253D01*
X124794893Y-54126868D01*
X124773850Y-54139480D01*
X124751671Y-54149970D01*
X124728572Y-54158235D01*
X124704773Y-54164196D01*
X124680505Y-54167796D01*
X124656001Y-54169000D01*
X123755999Y-54169000D01*
X123731495Y-54167796D01*
X123707227Y-54164196D01*
X123683428Y-54158235D01*
X123660329Y-54149970D01*
X123638150Y-54139480D01*
X123617107Y-54126868D01*
X123597401Y-54112253D01*
X123579223Y-54095777D01*
X123562747Y-54077599D01*
X123548132Y-54057893D01*
X123535520Y-54036850D01*
X123525030Y-54014671D01*
X123516765Y-53991572D01*
X123510804Y-53967773D01*
X123507204Y-53943505D01*
X123506000Y-53919001D01*
X123506000Y-53268999D01*
X123507204Y-53244495D01*
X123510804Y-53220227D01*
X123516765Y-53196428D01*
X123525030Y-53173329D01*
X123535520Y-53151150D01*
X123548132Y-53130107D01*
X123562747Y-53110401D01*
X123579223Y-53092223D01*
X123597401Y-53075747D01*
X123617107Y-53061132D01*
X123638150Y-53048520D01*
X123660329Y-53038030D01*
X123683428Y-53029765D01*
X123707227Y-53023804D01*
X123731495Y-53020204D01*
X123755999Y-53019000D01*
X124656001Y-53019000D01*
X124680505Y-53020204D01*
X124680505Y-53020204D01*
G37*
D11*
G04 #@! TD*
G04 #@! TO.P,C4,2*
G04 #@! TO.N,GND*
X124206000Y-53594000D03*
D10*
G04 #@! TO.N,Net-(C4-Pad1)*
G04 #@! TO.C,C4*
G36*
X124680505Y-50970204D02*
X124704773Y-50973804D01*
X124728572Y-50979765D01*
X124751671Y-50988030D01*
X124773850Y-50998520D01*
X124794893Y-51011132D01*
X124814599Y-51025747D01*
X124832777Y-51042223D01*
X124849253Y-51060401D01*
X124863868Y-51080107D01*
X124876480Y-51101150D01*
X124886970Y-51123329D01*
X124895235Y-51146428D01*
X124901196Y-51170227D01*
X124904796Y-51194495D01*
X124906000Y-51218999D01*
X124906000Y-51869001D01*
X124904796Y-51893505D01*
X124901196Y-51917773D01*
X124895235Y-51941572D01*
X124886970Y-51964671D01*
X124876480Y-51986850D01*
X124863868Y-52007893D01*
X124849253Y-52027599D01*
X124832777Y-52045777D01*
X124814599Y-52062253D01*
X124794893Y-52076868D01*
X124773850Y-52089480D01*
X124751671Y-52099970D01*
X124728572Y-52108235D01*
X124704773Y-52114196D01*
X124680505Y-52117796D01*
X124656001Y-52119000D01*
X123755999Y-52119000D01*
X123731495Y-52117796D01*
X123707227Y-52114196D01*
X123683428Y-52108235D01*
X123660329Y-52099970D01*
X123638150Y-52089480D01*
X123617107Y-52076868D01*
X123597401Y-52062253D01*
X123579223Y-52045777D01*
X123562747Y-52027599D01*
X123548132Y-52007893D01*
X123535520Y-51986850D01*
X123525030Y-51964671D01*
X123516765Y-51941572D01*
X123510804Y-51917773D01*
X123507204Y-51893505D01*
X123506000Y-51869001D01*
X123506000Y-51218999D01*
X123507204Y-51194495D01*
X123510804Y-51170227D01*
X123516765Y-51146428D01*
X123525030Y-51123329D01*
X123535520Y-51101150D01*
X123548132Y-51080107D01*
X123562747Y-51060401D01*
X123579223Y-51042223D01*
X123597401Y-51025747D01*
X123617107Y-51011132D01*
X123638150Y-50998520D01*
X123660329Y-50988030D01*
X123683428Y-50979765D01*
X123707227Y-50973804D01*
X123731495Y-50970204D01*
X123755999Y-50969000D01*
X124656001Y-50969000D01*
X124680505Y-50970204D01*
X124680505Y-50970204D01*
G37*
D11*
G04 #@! TD*
G04 #@! TO.P,C4,1*
G04 #@! TO.N,Net-(C4-Pad1)*
X124206000Y-51544000D03*
D10*
G04 #@! TO.N,Net-(J11-Pad1)*
G04 #@! TO.C,R13*
G36*
X125950505Y-35730204D02*
X125974773Y-35733804D01*
X125998572Y-35739765D01*
X126021671Y-35748030D01*
X126043850Y-35758520D01*
X126064893Y-35771132D01*
X126084599Y-35785747D01*
X126102777Y-35802223D01*
X126119253Y-35820401D01*
X126133868Y-35840107D01*
X126146480Y-35861150D01*
X126156970Y-35883329D01*
X126165235Y-35906428D01*
X126171196Y-35930227D01*
X126174796Y-35954495D01*
X126176000Y-35978999D01*
X126176000Y-36629001D01*
X126174796Y-36653505D01*
X126171196Y-36677773D01*
X126165235Y-36701572D01*
X126156970Y-36724671D01*
X126146480Y-36746850D01*
X126133868Y-36767893D01*
X126119253Y-36787599D01*
X126102777Y-36805777D01*
X126084599Y-36822253D01*
X126064893Y-36836868D01*
X126043850Y-36849480D01*
X126021671Y-36859970D01*
X125998572Y-36868235D01*
X125974773Y-36874196D01*
X125950505Y-36877796D01*
X125926001Y-36879000D01*
X125025999Y-36879000D01*
X125001495Y-36877796D01*
X124977227Y-36874196D01*
X124953428Y-36868235D01*
X124930329Y-36859970D01*
X124908150Y-36849480D01*
X124887107Y-36836868D01*
X124867401Y-36822253D01*
X124849223Y-36805777D01*
X124832747Y-36787599D01*
X124818132Y-36767893D01*
X124805520Y-36746850D01*
X124795030Y-36724671D01*
X124786765Y-36701572D01*
X124780804Y-36677773D01*
X124777204Y-36653505D01*
X124776000Y-36629001D01*
X124776000Y-35978999D01*
X124777204Y-35954495D01*
X124780804Y-35930227D01*
X124786765Y-35906428D01*
X124795030Y-35883329D01*
X124805520Y-35861150D01*
X124818132Y-35840107D01*
X124832747Y-35820401D01*
X124849223Y-35802223D01*
X124867401Y-35785747D01*
X124887107Y-35771132D01*
X124908150Y-35758520D01*
X124930329Y-35748030D01*
X124953428Y-35739765D01*
X124977227Y-35733804D01*
X125001495Y-35730204D01*
X125025999Y-35729000D01*
X125926001Y-35729000D01*
X125950505Y-35730204D01*
X125950505Y-35730204D01*
G37*
D11*
G04 #@! TD*
G04 #@! TO.P,R13,1*
G04 #@! TO.N,Net-(J11-Pad1)*
X125476000Y-36304000D03*
D10*
G04 #@! TO.N,Net-(R13-Pad2)*
G04 #@! TO.C,R13*
G36*
X125950505Y-37780204D02*
X125974773Y-37783804D01*
X125998572Y-37789765D01*
X126021671Y-37798030D01*
X126043850Y-37808520D01*
X126064893Y-37821132D01*
X126084599Y-37835747D01*
X126102777Y-37852223D01*
X126119253Y-37870401D01*
X126133868Y-37890107D01*
X126146480Y-37911150D01*
X126156970Y-37933329D01*
X126165235Y-37956428D01*
X126171196Y-37980227D01*
X126174796Y-38004495D01*
X126176000Y-38028999D01*
X126176000Y-38679001D01*
X126174796Y-38703505D01*
X126171196Y-38727773D01*
X126165235Y-38751572D01*
X126156970Y-38774671D01*
X126146480Y-38796850D01*
X126133868Y-38817893D01*
X126119253Y-38837599D01*
X126102777Y-38855777D01*
X126084599Y-38872253D01*
X126064893Y-38886868D01*
X126043850Y-38899480D01*
X126021671Y-38909970D01*
X125998572Y-38918235D01*
X125974773Y-38924196D01*
X125950505Y-38927796D01*
X125926001Y-38929000D01*
X125025999Y-38929000D01*
X125001495Y-38927796D01*
X124977227Y-38924196D01*
X124953428Y-38918235D01*
X124930329Y-38909970D01*
X124908150Y-38899480D01*
X124887107Y-38886868D01*
X124867401Y-38872253D01*
X124849223Y-38855777D01*
X124832747Y-38837599D01*
X124818132Y-38817893D01*
X124805520Y-38796850D01*
X124795030Y-38774671D01*
X124786765Y-38751572D01*
X124780804Y-38727773D01*
X124777204Y-38703505D01*
X124776000Y-38679001D01*
X124776000Y-38028999D01*
X124777204Y-38004495D01*
X124780804Y-37980227D01*
X124786765Y-37956428D01*
X124795030Y-37933329D01*
X124805520Y-37911150D01*
X124818132Y-37890107D01*
X124832747Y-37870401D01*
X124849223Y-37852223D01*
X124867401Y-37835747D01*
X124887107Y-37821132D01*
X124908150Y-37808520D01*
X124930329Y-37798030D01*
X124953428Y-37789765D01*
X124977227Y-37783804D01*
X125001495Y-37780204D01*
X125025999Y-37779000D01*
X125926001Y-37779000D01*
X125950505Y-37780204D01*
X125950505Y-37780204D01*
G37*
D11*
G04 #@! TD*
G04 #@! TO.P,R13,2*
G04 #@! TO.N,Net-(R13-Pad2)*
X125476000Y-38354000D03*
D10*
G04 #@! TO.N,GND*
G04 #@! TO.C,C1*
G36*
X130669505Y-57467204D02*
X130693773Y-57470804D01*
X130717572Y-57476765D01*
X130740671Y-57485030D01*
X130762850Y-57495520D01*
X130783893Y-57508132D01*
X130803599Y-57522747D01*
X130821777Y-57539223D01*
X130838253Y-57557401D01*
X130852868Y-57577107D01*
X130865480Y-57598150D01*
X130875970Y-57620329D01*
X130884235Y-57643428D01*
X130890196Y-57667227D01*
X130893796Y-57691495D01*
X130895000Y-57715999D01*
X130895000Y-58616001D01*
X130893796Y-58640505D01*
X130890196Y-58664773D01*
X130884235Y-58688572D01*
X130875970Y-58711671D01*
X130865480Y-58733850D01*
X130852868Y-58754893D01*
X130838253Y-58774599D01*
X130821777Y-58792777D01*
X130803599Y-58809253D01*
X130783893Y-58823868D01*
X130762850Y-58836480D01*
X130740671Y-58846970D01*
X130717572Y-58855235D01*
X130693773Y-58861196D01*
X130669505Y-58864796D01*
X130645001Y-58866000D01*
X129994999Y-58866000D01*
X129970495Y-58864796D01*
X129946227Y-58861196D01*
X129922428Y-58855235D01*
X129899329Y-58846970D01*
X129877150Y-58836480D01*
X129856107Y-58823868D01*
X129836401Y-58809253D01*
X129818223Y-58792777D01*
X129801747Y-58774599D01*
X129787132Y-58754893D01*
X129774520Y-58733850D01*
X129764030Y-58711671D01*
X129755765Y-58688572D01*
X129749804Y-58664773D01*
X129746204Y-58640505D01*
X129745000Y-58616001D01*
X129745000Y-57715999D01*
X129746204Y-57691495D01*
X129749804Y-57667227D01*
X129755765Y-57643428D01*
X129764030Y-57620329D01*
X129774520Y-57598150D01*
X129787132Y-57577107D01*
X129801747Y-57557401D01*
X129818223Y-57539223D01*
X129836401Y-57522747D01*
X129856107Y-57508132D01*
X129877150Y-57495520D01*
X129899329Y-57485030D01*
X129922428Y-57476765D01*
X129946227Y-57470804D01*
X129970495Y-57467204D01*
X129994999Y-57466000D01*
X130645001Y-57466000D01*
X130669505Y-57467204D01*
X130669505Y-57467204D01*
G37*
D11*
G04 #@! TD*
G04 #@! TO.P,C1,1*
G04 #@! TO.N,GND*
X130320000Y-58166000D03*
D10*
G04 #@! TO.N,Net-(C1-Pad2)*
G04 #@! TO.C,C1*
G36*
X128619505Y-57467204D02*
X128643773Y-57470804D01*
X128667572Y-57476765D01*
X128690671Y-57485030D01*
X128712850Y-57495520D01*
X128733893Y-57508132D01*
X128753599Y-57522747D01*
X128771777Y-57539223D01*
X128788253Y-57557401D01*
X128802868Y-57577107D01*
X128815480Y-57598150D01*
X128825970Y-57620329D01*
X128834235Y-57643428D01*
X128840196Y-57667227D01*
X128843796Y-57691495D01*
X128845000Y-57715999D01*
X128845000Y-58616001D01*
X128843796Y-58640505D01*
X128840196Y-58664773D01*
X128834235Y-58688572D01*
X128825970Y-58711671D01*
X128815480Y-58733850D01*
X128802868Y-58754893D01*
X128788253Y-58774599D01*
X128771777Y-58792777D01*
X128753599Y-58809253D01*
X128733893Y-58823868D01*
X128712850Y-58836480D01*
X128690671Y-58846970D01*
X128667572Y-58855235D01*
X128643773Y-58861196D01*
X128619505Y-58864796D01*
X128595001Y-58866000D01*
X127944999Y-58866000D01*
X127920495Y-58864796D01*
X127896227Y-58861196D01*
X127872428Y-58855235D01*
X127849329Y-58846970D01*
X127827150Y-58836480D01*
X127806107Y-58823868D01*
X127786401Y-58809253D01*
X127768223Y-58792777D01*
X127751747Y-58774599D01*
X127737132Y-58754893D01*
X127724520Y-58733850D01*
X127714030Y-58711671D01*
X127705765Y-58688572D01*
X127699804Y-58664773D01*
X127696204Y-58640505D01*
X127695000Y-58616001D01*
X127695000Y-57715999D01*
X127696204Y-57691495D01*
X127699804Y-57667227D01*
X127705765Y-57643428D01*
X127714030Y-57620329D01*
X127724520Y-57598150D01*
X127737132Y-57577107D01*
X127751747Y-57557401D01*
X127768223Y-57539223D01*
X127786401Y-57522747D01*
X127806107Y-57508132D01*
X127827150Y-57495520D01*
X127849329Y-57485030D01*
X127872428Y-57476765D01*
X127896227Y-57470804D01*
X127920495Y-57467204D01*
X127944999Y-57466000D01*
X128595001Y-57466000D01*
X128619505Y-57467204D01*
X128619505Y-57467204D01*
G37*
D11*
G04 #@! TD*
G04 #@! TO.P,C1,2*
G04 #@! TO.N,Net-(C1-Pad2)*
X128270000Y-58166000D03*
D12*
G04 #@! TO.P,C3,2*
G04 #@! TO.N,GND*
X111760000Y-50800000D03*
D13*
G04 #@! TO.P,C3,1*
G04 #@! TO.N,VCC*
X114260000Y-50800000D03*
G04 #@! TD*
D10*
G04 #@! TO.N,GND*
G04 #@! TO.C,C5*
G36*
X117822505Y-54036204D02*
X117846773Y-54039804D01*
X117870572Y-54045765D01*
X117893671Y-54054030D01*
X117915850Y-54064520D01*
X117936893Y-54077132D01*
X117956599Y-54091747D01*
X117974777Y-54108223D01*
X117991253Y-54126401D01*
X118005868Y-54146107D01*
X118018480Y-54167150D01*
X118028970Y-54189329D01*
X118037235Y-54212428D01*
X118043196Y-54236227D01*
X118046796Y-54260495D01*
X118048000Y-54284999D01*
X118048000Y-54935001D01*
X118046796Y-54959505D01*
X118043196Y-54983773D01*
X118037235Y-55007572D01*
X118028970Y-55030671D01*
X118018480Y-55052850D01*
X118005868Y-55073893D01*
X117991253Y-55093599D01*
X117974777Y-55111777D01*
X117956599Y-55128253D01*
X117936893Y-55142868D01*
X117915850Y-55155480D01*
X117893671Y-55165970D01*
X117870572Y-55174235D01*
X117846773Y-55180196D01*
X117822505Y-55183796D01*
X117798001Y-55185000D01*
X116897999Y-55185000D01*
X116873495Y-55183796D01*
X116849227Y-55180196D01*
X116825428Y-55174235D01*
X116802329Y-55165970D01*
X116780150Y-55155480D01*
X116759107Y-55142868D01*
X116739401Y-55128253D01*
X116721223Y-55111777D01*
X116704747Y-55093599D01*
X116690132Y-55073893D01*
X116677520Y-55052850D01*
X116667030Y-55030671D01*
X116658765Y-55007572D01*
X116652804Y-54983773D01*
X116649204Y-54959505D01*
X116648000Y-54935001D01*
X116648000Y-54284999D01*
X116649204Y-54260495D01*
X116652804Y-54236227D01*
X116658765Y-54212428D01*
X116667030Y-54189329D01*
X116677520Y-54167150D01*
X116690132Y-54146107D01*
X116704747Y-54126401D01*
X116721223Y-54108223D01*
X116739401Y-54091747D01*
X116759107Y-54077132D01*
X116780150Y-54064520D01*
X116802329Y-54054030D01*
X116825428Y-54045765D01*
X116849227Y-54039804D01*
X116873495Y-54036204D01*
X116897999Y-54035000D01*
X117798001Y-54035000D01*
X117822505Y-54036204D01*
X117822505Y-54036204D01*
G37*
D11*
G04 #@! TD*
G04 #@! TO.P,C5,2*
G04 #@! TO.N,GND*
X117348000Y-54610000D03*
D10*
G04 #@! TO.N,Net-(C5-Pad1)*
G04 #@! TO.C,C5*
G36*
X117822505Y-56086204D02*
X117846773Y-56089804D01*
X117870572Y-56095765D01*
X117893671Y-56104030D01*
X117915850Y-56114520D01*
X117936893Y-56127132D01*
X117956599Y-56141747D01*
X117974777Y-56158223D01*
X117991253Y-56176401D01*
X118005868Y-56196107D01*
X118018480Y-56217150D01*
X118028970Y-56239329D01*
X118037235Y-56262428D01*
X118043196Y-56286227D01*
X118046796Y-56310495D01*
X118048000Y-56334999D01*
X118048000Y-56985001D01*
X118046796Y-57009505D01*
X118043196Y-57033773D01*
X118037235Y-57057572D01*
X118028970Y-57080671D01*
X118018480Y-57102850D01*
X118005868Y-57123893D01*
X117991253Y-57143599D01*
X117974777Y-57161777D01*
X117956599Y-57178253D01*
X117936893Y-57192868D01*
X117915850Y-57205480D01*
X117893671Y-57215970D01*
X117870572Y-57224235D01*
X117846773Y-57230196D01*
X117822505Y-57233796D01*
X117798001Y-57235000D01*
X116897999Y-57235000D01*
X116873495Y-57233796D01*
X116849227Y-57230196D01*
X116825428Y-57224235D01*
X116802329Y-57215970D01*
X116780150Y-57205480D01*
X116759107Y-57192868D01*
X116739401Y-57178253D01*
X116721223Y-57161777D01*
X116704747Y-57143599D01*
X116690132Y-57123893D01*
X116677520Y-57102850D01*
X116667030Y-57080671D01*
X116658765Y-57057572D01*
X116652804Y-57033773D01*
X116649204Y-57009505D01*
X116648000Y-56985001D01*
X116648000Y-56334999D01*
X116649204Y-56310495D01*
X116652804Y-56286227D01*
X116658765Y-56262428D01*
X116667030Y-56239329D01*
X116677520Y-56217150D01*
X116690132Y-56196107D01*
X116704747Y-56176401D01*
X116721223Y-56158223D01*
X116739401Y-56141747D01*
X116759107Y-56127132D01*
X116780150Y-56114520D01*
X116802329Y-56104030D01*
X116825428Y-56095765D01*
X116849227Y-56089804D01*
X116873495Y-56086204D01*
X116897999Y-56085000D01*
X117798001Y-56085000D01*
X117822505Y-56086204D01*
X117822505Y-56086204D01*
G37*
D11*
G04 #@! TD*
G04 #@! TO.P,C5,1*
G04 #@! TO.N,Net-(C5-Pad1)*
X117348000Y-56660000D03*
D10*
G04 #@! TO.N,Net-(C6-Pad1)*
G04 #@! TO.C,C6*
G36*
X130776505Y-53901204D02*
X130800773Y-53904804D01*
X130824572Y-53910765D01*
X130847671Y-53919030D01*
X130869850Y-53929520D01*
X130890893Y-53942132D01*
X130910599Y-53956747D01*
X130928777Y-53973223D01*
X130945253Y-53991401D01*
X130959868Y-54011107D01*
X130972480Y-54032150D01*
X130982970Y-54054329D01*
X130991235Y-54077428D01*
X130997196Y-54101227D01*
X131000796Y-54125495D01*
X131002000Y-54149999D01*
X131002000Y-54800001D01*
X131000796Y-54824505D01*
X130997196Y-54848773D01*
X130991235Y-54872572D01*
X130982970Y-54895671D01*
X130972480Y-54917850D01*
X130959868Y-54938893D01*
X130945253Y-54958599D01*
X130928777Y-54976777D01*
X130910599Y-54993253D01*
X130890893Y-55007868D01*
X130869850Y-55020480D01*
X130847671Y-55030970D01*
X130824572Y-55039235D01*
X130800773Y-55045196D01*
X130776505Y-55048796D01*
X130752001Y-55050000D01*
X129851999Y-55050000D01*
X129827495Y-55048796D01*
X129803227Y-55045196D01*
X129779428Y-55039235D01*
X129756329Y-55030970D01*
X129734150Y-55020480D01*
X129713107Y-55007868D01*
X129693401Y-54993253D01*
X129675223Y-54976777D01*
X129658747Y-54958599D01*
X129644132Y-54938893D01*
X129631520Y-54917850D01*
X129621030Y-54895671D01*
X129612765Y-54872572D01*
X129606804Y-54848773D01*
X129603204Y-54824505D01*
X129602000Y-54800001D01*
X129602000Y-54149999D01*
X129603204Y-54125495D01*
X129606804Y-54101227D01*
X129612765Y-54077428D01*
X129621030Y-54054329D01*
X129631520Y-54032150D01*
X129644132Y-54011107D01*
X129658747Y-53991401D01*
X129675223Y-53973223D01*
X129693401Y-53956747D01*
X129713107Y-53942132D01*
X129734150Y-53929520D01*
X129756329Y-53919030D01*
X129779428Y-53910765D01*
X129803227Y-53904804D01*
X129827495Y-53901204D01*
X129851999Y-53900000D01*
X130752001Y-53900000D01*
X130776505Y-53901204D01*
X130776505Y-53901204D01*
G37*
D11*
G04 #@! TD*
G04 #@! TO.P,C6,1*
G04 #@! TO.N,Net-(C6-Pad1)*
X130302000Y-54475000D03*
D10*
G04 #@! TO.N,GND*
G04 #@! TO.C,C6*
G36*
X130776505Y-55951204D02*
X130800773Y-55954804D01*
X130824572Y-55960765D01*
X130847671Y-55969030D01*
X130869850Y-55979520D01*
X130890893Y-55992132D01*
X130910599Y-56006747D01*
X130928777Y-56023223D01*
X130945253Y-56041401D01*
X130959868Y-56061107D01*
X130972480Y-56082150D01*
X130982970Y-56104329D01*
X130991235Y-56127428D01*
X130997196Y-56151227D01*
X131000796Y-56175495D01*
X131002000Y-56199999D01*
X131002000Y-56850001D01*
X131000796Y-56874505D01*
X130997196Y-56898773D01*
X130991235Y-56922572D01*
X130982970Y-56945671D01*
X130972480Y-56967850D01*
X130959868Y-56988893D01*
X130945253Y-57008599D01*
X130928777Y-57026777D01*
X130910599Y-57043253D01*
X130890893Y-57057868D01*
X130869850Y-57070480D01*
X130847671Y-57080970D01*
X130824572Y-57089235D01*
X130800773Y-57095196D01*
X130776505Y-57098796D01*
X130752001Y-57100000D01*
X129851999Y-57100000D01*
X129827495Y-57098796D01*
X129803227Y-57095196D01*
X129779428Y-57089235D01*
X129756329Y-57080970D01*
X129734150Y-57070480D01*
X129713107Y-57057868D01*
X129693401Y-57043253D01*
X129675223Y-57026777D01*
X129658747Y-57008599D01*
X129644132Y-56988893D01*
X129631520Y-56967850D01*
X129621030Y-56945671D01*
X129612765Y-56922572D01*
X129606804Y-56898773D01*
X129603204Y-56874505D01*
X129602000Y-56850001D01*
X129602000Y-56199999D01*
X129603204Y-56175495D01*
X129606804Y-56151227D01*
X129612765Y-56127428D01*
X129621030Y-56104329D01*
X129631520Y-56082150D01*
X129644132Y-56061107D01*
X129658747Y-56041401D01*
X129675223Y-56023223D01*
X129693401Y-56006747D01*
X129713107Y-55992132D01*
X129734150Y-55979520D01*
X129756329Y-55969030D01*
X129779428Y-55960765D01*
X129803227Y-55954804D01*
X129827495Y-55951204D01*
X129851999Y-55950000D01*
X130752001Y-55950000D01*
X130776505Y-55951204D01*
X130776505Y-55951204D01*
G37*
D11*
G04 #@! TD*
G04 #@! TO.P,C6,2*
G04 #@! TO.N,GND*
X130302000Y-56525000D03*
D10*
G04 #@! TO.N,Net-(C7-Pad1)*
G04 #@! TO.C,C7*
G36*
X122140505Y-50970204D02*
X122164773Y-50973804D01*
X122188572Y-50979765D01*
X122211671Y-50988030D01*
X122233850Y-50998520D01*
X122254893Y-51011132D01*
X122274599Y-51025747D01*
X122292777Y-51042223D01*
X122309253Y-51060401D01*
X122323868Y-51080107D01*
X122336480Y-51101150D01*
X122346970Y-51123329D01*
X122355235Y-51146428D01*
X122361196Y-51170227D01*
X122364796Y-51194495D01*
X122366000Y-51218999D01*
X122366000Y-51869001D01*
X122364796Y-51893505D01*
X122361196Y-51917773D01*
X122355235Y-51941572D01*
X122346970Y-51964671D01*
X122336480Y-51986850D01*
X122323868Y-52007893D01*
X122309253Y-52027599D01*
X122292777Y-52045777D01*
X122274599Y-52062253D01*
X122254893Y-52076868D01*
X122233850Y-52089480D01*
X122211671Y-52099970D01*
X122188572Y-52108235D01*
X122164773Y-52114196D01*
X122140505Y-52117796D01*
X122116001Y-52119000D01*
X121215999Y-52119000D01*
X121191495Y-52117796D01*
X121167227Y-52114196D01*
X121143428Y-52108235D01*
X121120329Y-52099970D01*
X121098150Y-52089480D01*
X121077107Y-52076868D01*
X121057401Y-52062253D01*
X121039223Y-52045777D01*
X121022747Y-52027599D01*
X121008132Y-52007893D01*
X120995520Y-51986850D01*
X120985030Y-51964671D01*
X120976765Y-51941572D01*
X120970804Y-51917773D01*
X120967204Y-51893505D01*
X120966000Y-51869001D01*
X120966000Y-51218999D01*
X120967204Y-51194495D01*
X120970804Y-51170227D01*
X120976765Y-51146428D01*
X120985030Y-51123329D01*
X120995520Y-51101150D01*
X121008132Y-51080107D01*
X121022747Y-51060401D01*
X121039223Y-51042223D01*
X121057401Y-51025747D01*
X121077107Y-51011132D01*
X121098150Y-50998520D01*
X121120329Y-50988030D01*
X121143428Y-50979765D01*
X121167227Y-50973804D01*
X121191495Y-50970204D01*
X121215999Y-50969000D01*
X122116001Y-50969000D01*
X122140505Y-50970204D01*
X122140505Y-50970204D01*
G37*
D11*
G04 #@! TD*
G04 #@! TO.P,C7,1*
G04 #@! TO.N,Net-(C7-Pad1)*
X121666000Y-51544000D03*
D10*
G04 #@! TO.N,GND*
G04 #@! TO.C,C7*
G36*
X122140505Y-53020204D02*
X122164773Y-53023804D01*
X122188572Y-53029765D01*
X122211671Y-53038030D01*
X122233850Y-53048520D01*
X122254893Y-53061132D01*
X122274599Y-53075747D01*
X122292777Y-53092223D01*
X122309253Y-53110401D01*
X122323868Y-53130107D01*
X122336480Y-53151150D01*
X122346970Y-53173329D01*
X122355235Y-53196428D01*
X122361196Y-53220227D01*
X122364796Y-53244495D01*
X122366000Y-53268999D01*
X122366000Y-53919001D01*
X122364796Y-53943505D01*
X122361196Y-53967773D01*
X122355235Y-53991572D01*
X122346970Y-54014671D01*
X122336480Y-54036850D01*
X122323868Y-54057893D01*
X122309253Y-54077599D01*
X122292777Y-54095777D01*
X122274599Y-54112253D01*
X122254893Y-54126868D01*
X122233850Y-54139480D01*
X122211671Y-54149970D01*
X122188572Y-54158235D01*
X122164773Y-54164196D01*
X122140505Y-54167796D01*
X122116001Y-54169000D01*
X121215999Y-54169000D01*
X121191495Y-54167796D01*
X121167227Y-54164196D01*
X121143428Y-54158235D01*
X121120329Y-54149970D01*
X121098150Y-54139480D01*
X121077107Y-54126868D01*
X121057401Y-54112253D01*
X121039223Y-54095777D01*
X121022747Y-54077599D01*
X121008132Y-54057893D01*
X120995520Y-54036850D01*
X120985030Y-54014671D01*
X120976765Y-53991572D01*
X120970804Y-53967773D01*
X120967204Y-53943505D01*
X120966000Y-53919001D01*
X120966000Y-53268999D01*
X120967204Y-53244495D01*
X120970804Y-53220227D01*
X120976765Y-53196428D01*
X120985030Y-53173329D01*
X120995520Y-53151150D01*
X121008132Y-53130107D01*
X121022747Y-53110401D01*
X121039223Y-53092223D01*
X121057401Y-53075747D01*
X121077107Y-53061132D01*
X121098150Y-53048520D01*
X121120329Y-53038030D01*
X121143428Y-53029765D01*
X121167227Y-53023804D01*
X121191495Y-53020204D01*
X121215999Y-53019000D01*
X122116001Y-53019000D01*
X122140505Y-53020204D01*
X122140505Y-53020204D01*
G37*
D11*
G04 #@! TD*
G04 #@! TO.P,C7,2*
G04 #@! TO.N,GND*
X121666000Y-53594000D03*
D14*
G04 #@! TO.P,J1,1*
G04 #@! TO.N,Net-(J1-Pad1)*
X109220000Y-54610000D03*
D15*
G04 #@! TO.P,J1,2*
G04 #@! TO.N,Net-(J1-Pad2)*
X109220000Y-57150000D03*
G04 #@! TD*
D14*
G04 #@! TO.P,J2,1*
G04 #@! TO.N,Net-(J2-Pad1)*
X138430000Y-57150000D03*
D15*
G04 #@! TO.P,J2,2*
G04 #@! TO.N,Net-(J2-Pad2)*
X138430000Y-54610000D03*
G04 #@! TD*
G04 #@! TO.P,J3,2*
G04 #@! TO.N,Net-(D1-Pad2)*
X109220000Y-48260000D03*
D14*
G04 #@! TO.P,J3,1*
G04 #@! TO.N,GND*
X109220000Y-50800000D03*
G04 #@! TD*
G04 #@! TO.P,J5,1*
G04 #@! TO.N,Net-(J5-Pad1)*
X138430000Y-52070000D03*
G04 #@! TD*
G04 #@! TO.P,J6,1*
G04 #@! TO.N,Net-(J6-Pad1)*
X120650000Y-36500000D03*
G04 #@! TD*
G04 #@! TO.P,J7,1*
G04 #@! TO.N,Net-(J7-Pad1)*
X129540000Y-36500000D03*
G04 #@! TD*
G04 #@! TO.P,J8,1*
G04 #@! TO.N,Net-(J4-Pad1)*
X128270000Y-60960000D03*
D15*
G04 #@! TO.P,J8,2*
G04 #@! TO.N,Net-(J8-Pad2)*
X130810000Y-60960000D03*
G04 #@! TO.P,J8,3*
G04 #@! TO.N,Net-(J4-Pad4)*
X133350000Y-60960000D03*
G04 #@! TO.P,J8,4*
G04 #@! TO.N,GND*
X135890000Y-60960000D03*
G04 #@! TO.P,J8,5*
G04 #@! TO.N,VCC*
X138430000Y-60960000D03*
G04 #@! TD*
D14*
G04 #@! TO.P,J10,1*
G04 #@! TO.N,Net-(J10-Pad1)*
X138430000Y-36830000D03*
D15*
G04 #@! TO.P,J10,2*
G04 #@! TO.N,Net-(J10-Pad2)*
X138430000Y-39370000D03*
G04 #@! TO.P,J10,3*
G04 #@! TO.N,Net-(J10-Pad3)*
X138430000Y-41910000D03*
G04 #@! TO.P,J10,4*
G04 #@! TO.N,Net-(J10-Pad4)*
X138430000Y-44450000D03*
G04 #@! TD*
D14*
G04 #@! TO.P,J11,1*
G04 #@! TO.N,Net-(J11-Pad1)*
X123190000Y-36500000D03*
G04 #@! TD*
G04 #@! TO.P,J12,1*
G04 #@! TO.N,Net-(J12-Pad1)*
X138430000Y-48260000D03*
G04 #@! TD*
G04 #@! TO.P,J13,1*
G04 #@! TO.N,Net-(J13-Pad1)*
X112395000Y-36830000D03*
G04 #@! TD*
D15*
G04 #@! TO.P,J14,4*
G04 #@! TO.N,Net-(J14-Pad4)*
X109220000Y-36830000D03*
G04 #@! TO.P,J14,3*
G04 #@! TO.N,Net-(J14-Pad3)*
X109220000Y-39370000D03*
G04 #@! TO.P,J14,2*
G04 #@! TO.N,Net-(J14-Pad2)*
X109220000Y-41910000D03*
D14*
G04 #@! TO.P,J14,1*
G04 #@! TO.N,Net-(J14-Pad1)*
X109220000Y-44450000D03*
G04 #@! TD*
D10*
G04 #@! TO.N,VCC*
G04 #@! TO.C,L1*
G36*
X118441505Y-49593204D02*
X118465773Y-49596804D01*
X118489572Y-49602765D01*
X118512671Y-49611030D01*
X118534850Y-49621520D01*
X118555893Y-49634132D01*
X118575599Y-49648747D01*
X118593777Y-49665223D01*
X118610253Y-49683401D01*
X118624868Y-49703107D01*
X118637480Y-49724150D01*
X118647970Y-49746329D01*
X118656235Y-49769428D01*
X118662196Y-49793227D01*
X118665796Y-49817495D01*
X118667000Y-49841999D01*
X118667000Y-50742001D01*
X118665796Y-50766505D01*
X118662196Y-50790773D01*
X118656235Y-50814572D01*
X118647970Y-50837671D01*
X118637480Y-50859850D01*
X118624868Y-50880893D01*
X118610253Y-50900599D01*
X118593777Y-50918777D01*
X118575599Y-50935253D01*
X118555893Y-50949868D01*
X118534850Y-50962480D01*
X118512671Y-50972970D01*
X118489572Y-50981235D01*
X118465773Y-50987196D01*
X118441505Y-50990796D01*
X118417001Y-50992000D01*
X117766999Y-50992000D01*
X117742495Y-50990796D01*
X117718227Y-50987196D01*
X117694428Y-50981235D01*
X117671329Y-50972970D01*
X117649150Y-50962480D01*
X117628107Y-50949868D01*
X117608401Y-50935253D01*
X117590223Y-50918777D01*
X117573747Y-50900599D01*
X117559132Y-50880893D01*
X117546520Y-50859850D01*
X117536030Y-50837671D01*
X117527765Y-50814572D01*
X117521804Y-50790773D01*
X117518204Y-50766505D01*
X117517000Y-50742001D01*
X117517000Y-49841999D01*
X117518204Y-49817495D01*
X117521804Y-49793227D01*
X117527765Y-49769428D01*
X117536030Y-49746329D01*
X117546520Y-49724150D01*
X117559132Y-49703107D01*
X117573747Y-49683401D01*
X117590223Y-49665223D01*
X117608401Y-49648747D01*
X117628107Y-49634132D01*
X117649150Y-49621520D01*
X117671329Y-49611030D01*
X117694428Y-49602765D01*
X117718227Y-49596804D01*
X117742495Y-49593204D01*
X117766999Y-49592000D01*
X118417001Y-49592000D01*
X118441505Y-49593204D01*
X118441505Y-49593204D01*
G37*
D11*
G04 #@! TD*
G04 #@! TO.P,L1,1*
G04 #@! TO.N,VCC*
X118092000Y-50292000D03*
D10*
G04 #@! TO.N,Net-(C7-Pad1)*
G04 #@! TO.C,L1*
G36*
X120491505Y-49593204D02*
X120515773Y-49596804D01*
X120539572Y-49602765D01*
X120562671Y-49611030D01*
X120584850Y-49621520D01*
X120605893Y-49634132D01*
X120625599Y-49648747D01*
X120643777Y-49665223D01*
X120660253Y-49683401D01*
X120674868Y-49703107D01*
X120687480Y-49724150D01*
X120697970Y-49746329D01*
X120706235Y-49769428D01*
X120712196Y-49793227D01*
X120715796Y-49817495D01*
X120717000Y-49841999D01*
X120717000Y-50742001D01*
X120715796Y-50766505D01*
X120712196Y-50790773D01*
X120706235Y-50814572D01*
X120697970Y-50837671D01*
X120687480Y-50859850D01*
X120674868Y-50880893D01*
X120660253Y-50900599D01*
X120643777Y-50918777D01*
X120625599Y-50935253D01*
X120605893Y-50949868D01*
X120584850Y-50962480D01*
X120562671Y-50972970D01*
X120539572Y-50981235D01*
X120515773Y-50987196D01*
X120491505Y-50990796D01*
X120467001Y-50992000D01*
X119816999Y-50992000D01*
X119792495Y-50990796D01*
X119768227Y-50987196D01*
X119744428Y-50981235D01*
X119721329Y-50972970D01*
X119699150Y-50962480D01*
X119678107Y-50949868D01*
X119658401Y-50935253D01*
X119640223Y-50918777D01*
X119623747Y-50900599D01*
X119609132Y-50880893D01*
X119596520Y-50859850D01*
X119586030Y-50837671D01*
X119577765Y-50814572D01*
X119571804Y-50790773D01*
X119568204Y-50766505D01*
X119567000Y-50742001D01*
X119567000Y-49841999D01*
X119568204Y-49817495D01*
X119571804Y-49793227D01*
X119577765Y-49769428D01*
X119586030Y-49746329D01*
X119596520Y-49724150D01*
X119609132Y-49703107D01*
X119623747Y-49683401D01*
X119640223Y-49665223D01*
X119658401Y-49648747D01*
X119678107Y-49634132D01*
X119699150Y-49621520D01*
X119721329Y-49611030D01*
X119744428Y-49602765D01*
X119768227Y-49596804D01*
X119792495Y-49593204D01*
X119816999Y-49592000D01*
X120467001Y-49592000D01*
X120491505Y-49593204D01*
X120491505Y-49593204D01*
G37*
D11*
G04 #@! TD*
G04 #@! TO.P,L1,2*
G04 #@! TO.N,Net-(C7-Pad1)*
X120142000Y-50292000D03*
D16*
G04 #@! TO.P,Q1,1*
G04 #@! TO.N,Net-(Q1-Pad1)*
X116205000Y-38095000D03*
G04 #@! TO.P,Q1,2*
G04 #@! TO.N,GND*
X116205000Y-36195000D03*
G04 #@! TO.P,Q1,3*
G04 #@! TO.N,Net-(J13-Pad1)*
X114205000Y-37145000D03*
G04 #@! TD*
D10*
G04 #@! TO.N,Net-(J1-Pad2)*
G04 #@! TO.C,R1*
G36*
X111570505Y-56451204D02*
X111594773Y-56454804D01*
X111618572Y-56460765D01*
X111641671Y-56469030D01*
X111663850Y-56479520D01*
X111684893Y-56492132D01*
X111704599Y-56506747D01*
X111722777Y-56523223D01*
X111739253Y-56541401D01*
X111753868Y-56561107D01*
X111766480Y-56582150D01*
X111776970Y-56604329D01*
X111785235Y-56627428D01*
X111791196Y-56651227D01*
X111794796Y-56675495D01*
X111796000Y-56699999D01*
X111796000Y-57600001D01*
X111794796Y-57624505D01*
X111791196Y-57648773D01*
X111785235Y-57672572D01*
X111776970Y-57695671D01*
X111766480Y-57717850D01*
X111753868Y-57738893D01*
X111739253Y-57758599D01*
X111722777Y-57776777D01*
X111704599Y-57793253D01*
X111684893Y-57807868D01*
X111663850Y-57820480D01*
X111641671Y-57830970D01*
X111618572Y-57839235D01*
X111594773Y-57845196D01*
X111570505Y-57848796D01*
X111546001Y-57850000D01*
X110895999Y-57850000D01*
X110871495Y-57848796D01*
X110847227Y-57845196D01*
X110823428Y-57839235D01*
X110800329Y-57830970D01*
X110778150Y-57820480D01*
X110757107Y-57807868D01*
X110737401Y-57793253D01*
X110719223Y-57776777D01*
X110702747Y-57758599D01*
X110688132Y-57738893D01*
X110675520Y-57717850D01*
X110665030Y-57695671D01*
X110656765Y-57672572D01*
X110650804Y-57648773D01*
X110647204Y-57624505D01*
X110646000Y-57600001D01*
X110646000Y-56699999D01*
X110647204Y-56675495D01*
X110650804Y-56651227D01*
X110656765Y-56627428D01*
X110665030Y-56604329D01*
X110675520Y-56582150D01*
X110688132Y-56561107D01*
X110702747Y-56541401D01*
X110719223Y-56523223D01*
X110737401Y-56506747D01*
X110757107Y-56492132D01*
X110778150Y-56479520D01*
X110800329Y-56469030D01*
X110823428Y-56460765D01*
X110847227Y-56454804D01*
X110871495Y-56451204D01*
X110895999Y-56450000D01*
X111546001Y-56450000D01*
X111570505Y-56451204D01*
X111570505Y-56451204D01*
G37*
D11*
G04 #@! TD*
G04 #@! TO.P,R1,1*
G04 #@! TO.N,Net-(J1-Pad2)*
X111221000Y-57150000D03*
D10*
G04 #@! TO.N,Net-(C5-Pad1)*
G04 #@! TO.C,R1*
G36*
X113620505Y-56451204D02*
X113644773Y-56454804D01*
X113668572Y-56460765D01*
X113691671Y-56469030D01*
X113713850Y-56479520D01*
X113734893Y-56492132D01*
X113754599Y-56506747D01*
X113772777Y-56523223D01*
X113789253Y-56541401D01*
X113803868Y-56561107D01*
X113816480Y-56582150D01*
X113826970Y-56604329D01*
X113835235Y-56627428D01*
X113841196Y-56651227D01*
X113844796Y-56675495D01*
X113846000Y-56699999D01*
X113846000Y-57600001D01*
X113844796Y-57624505D01*
X113841196Y-57648773D01*
X113835235Y-57672572D01*
X113826970Y-57695671D01*
X113816480Y-57717850D01*
X113803868Y-57738893D01*
X113789253Y-57758599D01*
X113772777Y-57776777D01*
X113754599Y-57793253D01*
X113734893Y-57807868D01*
X113713850Y-57820480D01*
X113691671Y-57830970D01*
X113668572Y-57839235D01*
X113644773Y-57845196D01*
X113620505Y-57848796D01*
X113596001Y-57850000D01*
X112945999Y-57850000D01*
X112921495Y-57848796D01*
X112897227Y-57845196D01*
X112873428Y-57839235D01*
X112850329Y-57830970D01*
X112828150Y-57820480D01*
X112807107Y-57807868D01*
X112787401Y-57793253D01*
X112769223Y-57776777D01*
X112752747Y-57758599D01*
X112738132Y-57738893D01*
X112725520Y-57717850D01*
X112715030Y-57695671D01*
X112706765Y-57672572D01*
X112700804Y-57648773D01*
X112697204Y-57624505D01*
X112696000Y-57600001D01*
X112696000Y-56699999D01*
X112697204Y-56675495D01*
X112700804Y-56651227D01*
X112706765Y-56627428D01*
X112715030Y-56604329D01*
X112725520Y-56582150D01*
X112738132Y-56561107D01*
X112752747Y-56541401D01*
X112769223Y-56523223D01*
X112787401Y-56506747D01*
X112807107Y-56492132D01*
X112828150Y-56479520D01*
X112850329Y-56469030D01*
X112873428Y-56460765D01*
X112897227Y-56454804D01*
X112921495Y-56451204D01*
X112945999Y-56450000D01*
X113596001Y-56450000D01*
X113620505Y-56451204D01*
X113620505Y-56451204D01*
G37*
D11*
G04 #@! TD*
G04 #@! TO.P,R1,2*
G04 #@! TO.N,Net-(C5-Pad1)*
X113271000Y-57150000D03*
D10*
G04 #@! TO.N,GND*
G04 #@! TO.C,R2*
G36*
X113645505Y-53911204D02*
X113669773Y-53914804D01*
X113693572Y-53920765D01*
X113716671Y-53929030D01*
X113738850Y-53939520D01*
X113759893Y-53952132D01*
X113779599Y-53966747D01*
X113797777Y-53983223D01*
X113814253Y-54001401D01*
X113828868Y-54021107D01*
X113841480Y-54042150D01*
X113851970Y-54064329D01*
X113860235Y-54087428D01*
X113866196Y-54111227D01*
X113869796Y-54135495D01*
X113871000Y-54159999D01*
X113871000Y-55060001D01*
X113869796Y-55084505D01*
X113866196Y-55108773D01*
X113860235Y-55132572D01*
X113851970Y-55155671D01*
X113841480Y-55177850D01*
X113828868Y-55198893D01*
X113814253Y-55218599D01*
X113797777Y-55236777D01*
X113779599Y-55253253D01*
X113759893Y-55267868D01*
X113738850Y-55280480D01*
X113716671Y-55290970D01*
X113693572Y-55299235D01*
X113669773Y-55305196D01*
X113645505Y-55308796D01*
X113621001Y-55310000D01*
X112970999Y-55310000D01*
X112946495Y-55308796D01*
X112922227Y-55305196D01*
X112898428Y-55299235D01*
X112875329Y-55290970D01*
X112853150Y-55280480D01*
X112832107Y-55267868D01*
X112812401Y-55253253D01*
X112794223Y-55236777D01*
X112777747Y-55218599D01*
X112763132Y-55198893D01*
X112750520Y-55177850D01*
X112740030Y-55155671D01*
X112731765Y-55132572D01*
X112725804Y-55108773D01*
X112722204Y-55084505D01*
X112721000Y-55060001D01*
X112721000Y-54159999D01*
X112722204Y-54135495D01*
X112725804Y-54111227D01*
X112731765Y-54087428D01*
X112740030Y-54064329D01*
X112750520Y-54042150D01*
X112763132Y-54021107D01*
X112777747Y-54001401D01*
X112794223Y-53983223D01*
X112812401Y-53966747D01*
X112832107Y-53952132D01*
X112853150Y-53939520D01*
X112875329Y-53929030D01*
X112898428Y-53920765D01*
X112922227Y-53914804D01*
X112946495Y-53911204D01*
X112970999Y-53910000D01*
X113621001Y-53910000D01*
X113645505Y-53911204D01*
X113645505Y-53911204D01*
G37*
D11*
G04 #@! TD*
G04 #@! TO.P,R2,2*
G04 #@! TO.N,GND*
X113296000Y-54610000D03*
D10*
G04 #@! TO.N,Net-(J1-Pad1)*
G04 #@! TO.C,R2*
G36*
X111595505Y-53911204D02*
X111619773Y-53914804D01*
X111643572Y-53920765D01*
X111666671Y-53929030D01*
X111688850Y-53939520D01*
X111709893Y-53952132D01*
X111729599Y-53966747D01*
X111747777Y-53983223D01*
X111764253Y-54001401D01*
X111778868Y-54021107D01*
X111791480Y-54042150D01*
X111801970Y-54064329D01*
X111810235Y-54087428D01*
X111816196Y-54111227D01*
X111819796Y-54135495D01*
X111821000Y-54159999D01*
X111821000Y-55060001D01*
X111819796Y-55084505D01*
X111816196Y-55108773D01*
X111810235Y-55132572D01*
X111801970Y-55155671D01*
X111791480Y-55177850D01*
X111778868Y-55198893D01*
X111764253Y-55218599D01*
X111747777Y-55236777D01*
X111729599Y-55253253D01*
X111709893Y-55267868D01*
X111688850Y-55280480D01*
X111666671Y-55290970D01*
X111643572Y-55299235D01*
X111619773Y-55305196D01*
X111595505Y-55308796D01*
X111571001Y-55310000D01*
X110920999Y-55310000D01*
X110896495Y-55308796D01*
X110872227Y-55305196D01*
X110848428Y-55299235D01*
X110825329Y-55290970D01*
X110803150Y-55280480D01*
X110782107Y-55267868D01*
X110762401Y-55253253D01*
X110744223Y-55236777D01*
X110727747Y-55218599D01*
X110713132Y-55198893D01*
X110700520Y-55177850D01*
X110690030Y-55155671D01*
X110681765Y-55132572D01*
X110675804Y-55108773D01*
X110672204Y-55084505D01*
X110671000Y-55060001D01*
X110671000Y-54159999D01*
X110672204Y-54135495D01*
X110675804Y-54111227D01*
X110681765Y-54087428D01*
X110690030Y-54064329D01*
X110700520Y-54042150D01*
X110713132Y-54021107D01*
X110727747Y-54001401D01*
X110744223Y-53983223D01*
X110762401Y-53966747D01*
X110782107Y-53952132D01*
X110803150Y-53939520D01*
X110825329Y-53929030D01*
X110848428Y-53920765D01*
X110872227Y-53914804D01*
X110896495Y-53911204D01*
X110920999Y-53910000D01*
X111571001Y-53910000D01*
X111595505Y-53911204D01*
X111595505Y-53911204D01*
G37*
D11*
G04 #@! TD*
G04 #@! TO.P,R2,1*
G04 #@! TO.N,Net-(J1-Pad1)*
X111246000Y-54610000D03*
D10*
G04 #@! TO.N,Net-(C6-Pad1)*
G04 #@! TO.C,R3*
G36*
X134697505Y-53911204D02*
X134721773Y-53914804D01*
X134745572Y-53920765D01*
X134768671Y-53929030D01*
X134790850Y-53939520D01*
X134811893Y-53952132D01*
X134831599Y-53966747D01*
X134849777Y-53983223D01*
X134866253Y-54001401D01*
X134880868Y-54021107D01*
X134893480Y-54042150D01*
X134903970Y-54064329D01*
X134912235Y-54087428D01*
X134918196Y-54111227D01*
X134921796Y-54135495D01*
X134923000Y-54159999D01*
X134923000Y-55060001D01*
X134921796Y-55084505D01*
X134918196Y-55108773D01*
X134912235Y-55132572D01*
X134903970Y-55155671D01*
X134893480Y-55177850D01*
X134880868Y-55198893D01*
X134866253Y-55218599D01*
X134849777Y-55236777D01*
X134831599Y-55253253D01*
X134811893Y-55267868D01*
X134790850Y-55280480D01*
X134768671Y-55290970D01*
X134745572Y-55299235D01*
X134721773Y-55305196D01*
X134697505Y-55308796D01*
X134673001Y-55310000D01*
X134022999Y-55310000D01*
X133998495Y-55308796D01*
X133974227Y-55305196D01*
X133950428Y-55299235D01*
X133927329Y-55290970D01*
X133905150Y-55280480D01*
X133884107Y-55267868D01*
X133864401Y-55253253D01*
X133846223Y-55236777D01*
X133829747Y-55218599D01*
X133815132Y-55198893D01*
X133802520Y-55177850D01*
X133792030Y-55155671D01*
X133783765Y-55132572D01*
X133777804Y-55108773D01*
X133774204Y-55084505D01*
X133773000Y-55060001D01*
X133773000Y-54159999D01*
X133774204Y-54135495D01*
X133777804Y-54111227D01*
X133783765Y-54087428D01*
X133792030Y-54064329D01*
X133802520Y-54042150D01*
X133815132Y-54021107D01*
X133829747Y-54001401D01*
X133846223Y-53983223D01*
X133864401Y-53966747D01*
X133884107Y-53952132D01*
X133905150Y-53939520D01*
X133927329Y-53929030D01*
X133950428Y-53920765D01*
X133974227Y-53914804D01*
X133998495Y-53911204D01*
X134022999Y-53910000D01*
X134673001Y-53910000D01*
X134697505Y-53911204D01*
X134697505Y-53911204D01*
G37*
D11*
G04 #@! TD*
G04 #@! TO.P,R3,2*
G04 #@! TO.N,Net-(C6-Pad1)*
X134348000Y-54610000D03*
D10*
G04 #@! TO.N,Net-(J2-Pad2)*
G04 #@! TO.C,R3*
G36*
X136747505Y-53911204D02*
X136771773Y-53914804D01*
X136795572Y-53920765D01*
X136818671Y-53929030D01*
X136840850Y-53939520D01*
X136861893Y-53952132D01*
X136881599Y-53966747D01*
X136899777Y-53983223D01*
X136916253Y-54001401D01*
X136930868Y-54021107D01*
X136943480Y-54042150D01*
X136953970Y-54064329D01*
X136962235Y-54087428D01*
X136968196Y-54111227D01*
X136971796Y-54135495D01*
X136973000Y-54159999D01*
X136973000Y-55060001D01*
X136971796Y-55084505D01*
X136968196Y-55108773D01*
X136962235Y-55132572D01*
X136953970Y-55155671D01*
X136943480Y-55177850D01*
X136930868Y-55198893D01*
X136916253Y-55218599D01*
X136899777Y-55236777D01*
X136881599Y-55253253D01*
X136861893Y-55267868D01*
X136840850Y-55280480D01*
X136818671Y-55290970D01*
X136795572Y-55299235D01*
X136771773Y-55305196D01*
X136747505Y-55308796D01*
X136723001Y-55310000D01*
X136072999Y-55310000D01*
X136048495Y-55308796D01*
X136024227Y-55305196D01*
X136000428Y-55299235D01*
X135977329Y-55290970D01*
X135955150Y-55280480D01*
X135934107Y-55267868D01*
X135914401Y-55253253D01*
X135896223Y-55236777D01*
X135879747Y-55218599D01*
X135865132Y-55198893D01*
X135852520Y-55177850D01*
X135842030Y-55155671D01*
X135833765Y-55132572D01*
X135827804Y-55108773D01*
X135824204Y-55084505D01*
X135823000Y-55060001D01*
X135823000Y-54159999D01*
X135824204Y-54135495D01*
X135827804Y-54111227D01*
X135833765Y-54087428D01*
X135842030Y-54064329D01*
X135852520Y-54042150D01*
X135865132Y-54021107D01*
X135879747Y-54001401D01*
X135896223Y-53983223D01*
X135914401Y-53966747D01*
X135934107Y-53952132D01*
X135955150Y-53939520D01*
X135977329Y-53929030D01*
X136000428Y-53920765D01*
X136024227Y-53914804D01*
X136048495Y-53911204D01*
X136072999Y-53910000D01*
X136723001Y-53910000D01*
X136747505Y-53911204D01*
X136747505Y-53911204D01*
G37*
D11*
G04 #@! TD*
G04 #@! TO.P,R3,1*
G04 #@! TO.N,Net-(J2-Pad2)*
X136398000Y-54610000D03*
D10*
G04 #@! TO.N,GND*
G04 #@! TO.C,R4*
G36*
X134697505Y-56451204D02*
X134721773Y-56454804D01*
X134745572Y-56460765D01*
X134768671Y-56469030D01*
X134790850Y-56479520D01*
X134811893Y-56492132D01*
X134831599Y-56506747D01*
X134849777Y-56523223D01*
X134866253Y-56541401D01*
X134880868Y-56561107D01*
X134893480Y-56582150D01*
X134903970Y-56604329D01*
X134912235Y-56627428D01*
X134918196Y-56651227D01*
X134921796Y-56675495D01*
X134923000Y-56699999D01*
X134923000Y-57600001D01*
X134921796Y-57624505D01*
X134918196Y-57648773D01*
X134912235Y-57672572D01*
X134903970Y-57695671D01*
X134893480Y-57717850D01*
X134880868Y-57738893D01*
X134866253Y-57758599D01*
X134849777Y-57776777D01*
X134831599Y-57793253D01*
X134811893Y-57807868D01*
X134790850Y-57820480D01*
X134768671Y-57830970D01*
X134745572Y-57839235D01*
X134721773Y-57845196D01*
X134697505Y-57848796D01*
X134673001Y-57850000D01*
X134022999Y-57850000D01*
X133998495Y-57848796D01*
X133974227Y-57845196D01*
X133950428Y-57839235D01*
X133927329Y-57830970D01*
X133905150Y-57820480D01*
X133884107Y-57807868D01*
X133864401Y-57793253D01*
X133846223Y-57776777D01*
X133829747Y-57758599D01*
X133815132Y-57738893D01*
X133802520Y-57717850D01*
X133792030Y-57695671D01*
X133783765Y-57672572D01*
X133777804Y-57648773D01*
X133774204Y-57624505D01*
X133773000Y-57600001D01*
X133773000Y-56699999D01*
X133774204Y-56675495D01*
X133777804Y-56651227D01*
X133783765Y-56627428D01*
X133792030Y-56604329D01*
X133802520Y-56582150D01*
X133815132Y-56561107D01*
X133829747Y-56541401D01*
X133846223Y-56523223D01*
X133864401Y-56506747D01*
X133884107Y-56492132D01*
X133905150Y-56479520D01*
X133927329Y-56469030D01*
X133950428Y-56460765D01*
X133974227Y-56454804D01*
X133998495Y-56451204D01*
X134022999Y-56450000D01*
X134673001Y-56450000D01*
X134697505Y-56451204D01*
X134697505Y-56451204D01*
G37*
D11*
G04 #@! TD*
G04 #@! TO.P,R4,2*
G04 #@! TO.N,GND*
X134348000Y-57150000D03*
D10*
G04 #@! TO.N,Net-(J2-Pad1)*
G04 #@! TO.C,R4*
G36*
X136747505Y-56451204D02*
X136771773Y-56454804D01*
X136795572Y-56460765D01*
X136818671Y-56469030D01*
X136840850Y-56479520D01*
X136861893Y-56492132D01*
X136881599Y-56506747D01*
X136899777Y-56523223D01*
X136916253Y-56541401D01*
X136930868Y-56561107D01*
X136943480Y-56582150D01*
X136953970Y-56604329D01*
X136962235Y-56627428D01*
X136968196Y-56651227D01*
X136971796Y-56675495D01*
X136973000Y-56699999D01*
X136973000Y-57600001D01*
X136971796Y-57624505D01*
X136968196Y-57648773D01*
X136962235Y-57672572D01*
X136953970Y-57695671D01*
X136943480Y-57717850D01*
X136930868Y-57738893D01*
X136916253Y-57758599D01*
X136899777Y-57776777D01*
X136881599Y-57793253D01*
X136861893Y-57807868D01*
X136840850Y-57820480D01*
X136818671Y-57830970D01*
X136795572Y-57839235D01*
X136771773Y-57845196D01*
X136747505Y-57848796D01*
X136723001Y-57850000D01*
X136072999Y-57850000D01*
X136048495Y-57848796D01*
X136024227Y-57845196D01*
X136000428Y-57839235D01*
X135977329Y-57830970D01*
X135955150Y-57820480D01*
X135934107Y-57807868D01*
X135914401Y-57793253D01*
X135896223Y-57776777D01*
X135879747Y-57758599D01*
X135865132Y-57738893D01*
X135852520Y-57717850D01*
X135842030Y-57695671D01*
X135833765Y-57672572D01*
X135827804Y-57648773D01*
X135824204Y-57624505D01*
X135823000Y-57600001D01*
X135823000Y-56699999D01*
X135824204Y-56675495D01*
X135827804Y-56651227D01*
X135833765Y-56627428D01*
X135842030Y-56604329D01*
X135852520Y-56582150D01*
X135865132Y-56561107D01*
X135879747Y-56541401D01*
X135896223Y-56523223D01*
X135914401Y-56506747D01*
X135934107Y-56492132D01*
X135955150Y-56479520D01*
X135977329Y-56469030D01*
X136000428Y-56460765D01*
X136024227Y-56454804D01*
X136048495Y-56451204D01*
X136072999Y-56450000D01*
X136723001Y-56450000D01*
X136747505Y-56451204D01*
X136747505Y-56451204D01*
G37*
D11*
G04 #@! TD*
G04 #@! TO.P,R4,1*
G04 #@! TO.N,Net-(J2-Pad1)*
X136398000Y-57150000D03*
D10*
G04 #@! TO.N,Net-(C1-Pad2)*
G04 #@! TO.C,R5*
G36*
X128744505Y-56086204D02*
X128768773Y-56089804D01*
X128792572Y-56095765D01*
X128815671Y-56104030D01*
X128837850Y-56114520D01*
X128858893Y-56127132D01*
X128878599Y-56141747D01*
X128896777Y-56158223D01*
X128913253Y-56176401D01*
X128927868Y-56196107D01*
X128940480Y-56217150D01*
X128950970Y-56239329D01*
X128959235Y-56262428D01*
X128965196Y-56286227D01*
X128968796Y-56310495D01*
X128970000Y-56334999D01*
X128970000Y-56985001D01*
X128968796Y-57009505D01*
X128965196Y-57033773D01*
X128959235Y-57057572D01*
X128950970Y-57080671D01*
X128940480Y-57102850D01*
X128927868Y-57123893D01*
X128913253Y-57143599D01*
X128896777Y-57161777D01*
X128878599Y-57178253D01*
X128858893Y-57192868D01*
X128837850Y-57205480D01*
X128815671Y-57215970D01*
X128792572Y-57224235D01*
X128768773Y-57230196D01*
X128744505Y-57233796D01*
X128720001Y-57235000D01*
X127819999Y-57235000D01*
X127795495Y-57233796D01*
X127771227Y-57230196D01*
X127747428Y-57224235D01*
X127724329Y-57215970D01*
X127702150Y-57205480D01*
X127681107Y-57192868D01*
X127661401Y-57178253D01*
X127643223Y-57161777D01*
X127626747Y-57143599D01*
X127612132Y-57123893D01*
X127599520Y-57102850D01*
X127589030Y-57080671D01*
X127580765Y-57057572D01*
X127574804Y-57033773D01*
X127571204Y-57009505D01*
X127570000Y-56985001D01*
X127570000Y-56334999D01*
X127571204Y-56310495D01*
X127574804Y-56286227D01*
X127580765Y-56262428D01*
X127589030Y-56239329D01*
X127599520Y-56217150D01*
X127612132Y-56196107D01*
X127626747Y-56176401D01*
X127643223Y-56158223D01*
X127661401Y-56141747D01*
X127681107Y-56127132D01*
X127702150Y-56114520D01*
X127724329Y-56104030D01*
X127747428Y-56095765D01*
X127771227Y-56089804D01*
X127795495Y-56086204D01*
X127819999Y-56085000D01*
X128720001Y-56085000D01*
X128744505Y-56086204D01*
X128744505Y-56086204D01*
G37*
D11*
G04 #@! TD*
G04 #@! TO.P,R5,1*
G04 #@! TO.N,Net-(C1-Pad2)*
X128270000Y-56660000D03*
D10*
G04 #@! TO.N,Net-(C6-Pad1)*
G04 #@! TO.C,R5*
G36*
X128744505Y-54036204D02*
X128768773Y-54039804D01*
X128792572Y-54045765D01*
X128815671Y-54054030D01*
X128837850Y-54064520D01*
X128858893Y-54077132D01*
X128878599Y-54091747D01*
X128896777Y-54108223D01*
X128913253Y-54126401D01*
X128927868Y-54146107D01*
X128940480Y-54167150D01*
X128950970Y-54189329D01*
X128959235Y-54212428D01*
X128965196Y-54236227D01*
X128968796Y-54260495D01*
X128970000Y-54284999D01*
X128970000Y-54935001D01*
X128968796Y-54959505D01*
X128965196Y-54983773D01*
X128959235Y-55007572D01*
X128950970Y-55030671D01*
X128940480Y-55052850D01*
X128927868Y-55073893D01*
X128913253Y-55093599D01*
X128896777Y-55111777D01*
X128878599Y-55128253D01*
X128858893Y-55142868D01*
X128837850Y-55155480D01*
X128815671Y-55165970D01*
X128792572Y-55174235D01*
X128768773Y-55180196D01*
X128744505Y-55183796D01*
X128720001Y-55185000D01*
X127819999Y-55185000D01*
X127795495Y-55183796D01*
X127771227Y-55180196D01*
X127747428Y-55174235D01*
X127724329Y-55165970D01*
X127702150Y-55155480D01*
X127681107Y-55142868D01*
X127661401Y-55128253D01*
X127643223Y-55111777D01*
X127626747Y-55093599D01*
X127612132Y-55073893D01*
X127599520Y-55052850D01*
X127589030Y-55030671D01*
X127580765Y-55007572D01*
X127574804Y-54983773D01*
X127571204Y-54959505D01*
X127570000Y-54935001D01*
X127570000Y-54284999D01*
X127571204Y-54260495D01*
X127574804Y-54236227D01*
X127580765Y-54212428D01*
X127589030Y-54189329D01*
X127599520Y-54167150D01*
X127612132Y-54146107D01*
X127626747Y-54126401D01*
X127643223Y-54108223D01*
X127661401Y-54091747D01*
X127681107Y-54077132D01*
X127702150Y-54064520D01*
X127724329Y-54054030D01*
X127747428Y-54045765D01*
X127771227Y-54039804D01*
X127795495Y-54036204D01*
X127819999Y-54035000D01*
X128720001Y-54035000D01*
X128744505Y-54036204D01*
X128744505Y-54036204D01*
G37*
D11*
G04 #@! TD*
G04 #@! TO.P,R5,2*
G04 #@! TO.N,Net-(C6-Pad1)*
X128270000Y-54610000D03*
D10*
G04 #@! TO.N,Net-(C5-Pad1)*
G04 #@! TO.C,R6*
G36*
X124047505Y-54927204D02*
X124071773Y-54930804D01*
X124095572Y-54936765D01*
X124118671Y-54945030D01*
X124140850Y-54955520D01*
X124161893Y-54968132D01*
X124181599Y-54982747D01*
X124199777Y-54999223D01*
X124216253Y-55017401D01*
X124230868Y-55037107D01*
X124243480Y-55058150D01*
X124253970Y-55080329D01*
X124262235Y-55103428D01*
X124268196Y-55127227D01*
X124271796Y-55151495D01*
X124273000Y-55175999D01*
X124273000Y-56076001D01*
X124271796Y-56100505D01*
X124268196Y-56124773D01*
X124262235Y-56148572D01*
X124253970Y-56171671D01*
X124243480Y-56193850D01*
X124230868Y-56214893D01*
X124216253Y-56234599D01*
X124199777Y-56252777D01*
X124181599Y-56269253D01*
X124161893Y-56283868D01*
X124140850Y-56296480D01*
X124118671Y-56306970D01*
X124095572Y-56315235D01*
X124071773Y-56321196D01*
X124047505Y-56324796D01*
X124023001Y-56326000D01*
X123372999Y-56326000D01*
X123348495Y-56324796D01*
X123324227Y-56321196D01*
X123300428Y-56315235D01*
X123277329Y-56306970D01*
X123255150Y-56296480D01*
X123234107Y-56283868D01*
X123214401Y-56269253D01*
X123196223Y-56252777D01*
X123179747Y-56234599D01*
X123165132Y-56214893D01*
X123152520Y-56193850D01*
X123142030Y-56171671D01*
X123133765Y-56148572D01*
X123127804Y-56124773D01*
X123124204Y-56100505D01*
X123123000Y-56076001D01*
X123123000Y-55175999D01*
X123124204Y-55151495D01*
X123127804Y-55127227D01*
X123133765Y-55103428D01*
X123142030Y-55080329D01*
X123152520Y-55058150D01*
X123165132Y-55037107D01*
X123179747Y-55017401D01*
X123196223Y-54999223D01*
X123214401Y-54982747D01*
X123234107Y-54968132D01*
X123255150Y-54955520D01*
X123277329Y-54945030D01*
X123300428Y-54936765D01*
X123324227Y-54930804D01*
X123348495Y-54927204D01*
X123372999Y-54926000D01*
X124023001Y-54926000D01*
X124047505Y-54927204D01*
X124047505Y-54927204D01*
G37*
D11*
G04 #@! TD*
G04 #@! TO.P,R6,2*
G04 #@! TO.N,Net-(C5-Pad1)*
X123698000Y-55626000D03*
D10*
G04 #@! TO.N,Net-(C1-Pad2)*
G04 #@! TO.C,R6*
G36*
X126097505Y-54927204D02*
X126121773Y-54930804D01*
X126145572Y-54936765D01*
X126168671Y-54945030D01*
X126190850Y-54955520D01*
X126211893Y-54968132D01*
X126231599Y-54982747D01*
X126249777Y-54999223D01*
X126266253Y-55017401D01*
X126280868Y-55037107D01*
X126293480Y-55058150D01*
X126303970Y-55080329D01*
X126312235Y-55103428D01*
X126318196Y-55127227D01*
X126321796Y-55151495D01*
X126323000Y-55175999D01*
X126323000Y-56076001D01*
X126321796Y-56100505D01*
X126318196Y-56124773D01*
X126312235Y-56148572D01*
X126303970Y-56171671D01*
X126293480Y-56193850D01*
X126280868Y-56214893D01*
X126266253Y-56234599D01*
X126249777Y-56252777D01*
X126231599Y-56269253D01*
X126211893Y-56283868D01*
X126190850Y-56296480D01*
X126168671Y-56306970D01*
X126145572Y-56315235D01*
X126121773Y-56321196D01*
X126097505Y-56324796D01*
X126073001Y-56326000D01*
X125422999Y-56326000D01*
X125398495Y-56324796D01*
X125374227Y-56321196D01*
X125350428Y-56315235D01*
X125327329Y-56306970D01*
X125305150Y-56296480D01*
X125284107Y-56283868D01*
X125264401Y-56269253D01*
X125246223Y-56252777D01*
X125229747Y-56234599D01*
X125215132Y-56214893D01*
X125202520Y-56193850D01*
X125192030Y-56171671D01*
X125183765Y-56148572D01*
X125177804Y-56124773D01*
X125174204Y-56100505D01*
X125173000Y-56076001D01*
X125173000Y-55175999D01*
X125174204Y-55151495D01*
X125177804Y-55127227D01*
X125183765Y-55103428D01*
X125192030Y-55080329D01*
X125202520Y-55058150D01*
X125215132Y-55037107D01*
X125229747Y-55017401D01*
X125246223Y-54999223D01*
X125264401Y-54982747D01*
X125284107Y-54968132D01*
X125305150Y-54955520D01*
X125327329Y-54945030D01*
X125350428Y-54936765D01*
X125374227Y-54930804D01*
X125398495Y-54927204D01*
X125422999Y-54926000D01*
X126073001Y-54926000D01*
X126097505Y-54927204D01*
X126097505Y-54927204D01*
G37*
D11*
G04 #@! TD*
G04 #@! TO.P,R6,1*
G04 #@! TO.N,Net-(C1-Pad2)*
X125748000Y-55626000D03*
D10*
G04 #@! TO.N,Net-(R8-Pad2)*
G04 #@! TO.C,R8*
G36*
X131141505Y-40576204D02*
X131165773Y-40579804D01*
X131189572Y-40585765D01*
X131212671Y-40594030D01*
X131234850Y-40604520D01*
X131255893Y-40617132D01*
X131275599Y-40631747D01*
X131293777Y-40648223D01*
X131310253Y-40666401D01*
X131324868Y-40686107D01*
X131337480Y-40707150D01*
X131347970Y-40729329D01*
X131356235Y-40752428D01*
X131362196Y-40776227D01*
X131365796Y-40800495D01*
X131367000Y-40824999D01*
X131367000Y-41725001D01*
X131365796Y-41749505D01*
X131362196Y-41773773D01*
X131356235Y-41797572D01*
X131347970Y-41820671D01*
X131337480Y-41842850D01*
X131324868Y-41863893D01*
X131310253Y-41883599D01*
X131293777Y-41901777D01*
X131275599Y-41918253D01*
X131255893Y-41932868D01*
X131234850Y-41945480D01*
X131212671Y-41955970D01*
X131189572Y-41964235D01*
X131165773Y-41970196D01*
X131141505Y-41973796D01*
X131117001Y-41975000D01*
X130466999Y-41975000D01*
X130442495Y-41973796D01*
X130418227Y-41970196D01*
X130394428Y-41964235D01*
X130371329Y-41955970D01*
X130349150Y-41945480D01*
X130328107Y-41932868D01*
X130308401Y-41918253D01*
X130290223Y-41901777D01*
X130273747Y-41883599D01*
X130259132Y-41863893D01*
X130246520Y-41842850D01*
X130236030Y-41820671D01*
X130227765Y-41797572D01*
X130221804Y-41773773D01*
X130218204Y-41749505D01*
X130217000Y-41725001D01*
X130217000Y-40824999D01*
X130218204Y-40800495D01*
X130221804Y-40776227D01*
X130227765Y-40752428D01*
X130236030Y-40729329D01*
X130246520Y-40707150D01*
X130259132Y-40686107D01*
X130273747Y-40666401D01*
X130290223Y-40648223D01*
X130308401Y-40631747D01*
X130328107Y-40617132D01*
X130349150Y-40604520D01*
X130371329Y-40594030D01*
X130394428Y-40585765D01*
X130418227Y-40579804D01*
X130442495Y-40576204D01*
X130466999Y-40575000D01*
X131117001Y-40575000D01*
X131141505Y-40576204D01*
X131141505Y-40576204D01*
G37*
D11*
G04 #@! TD*
G04 #@! TO.P,R8,2*
G04 #@! TO.N,Net-(R8-Pad2)*
X130792000Y-41275000D03*
D10*
G04 #@! TO.N,Net-(J10-Pad2)*
G04 #@! TO.C,R8*
G36*
X133191505Y-40576204D02*
X133215773Y-40579804D01*
X133239572Y-40585765D01*
X133262671Y-40594030D01*
X133284850Y-40604520D01*
X133305893Y-40617132D01*
X133325599Y-40631747D01*
X133343777Y-40648223D01*
X133360253Y-40666401D01*
X133374868Y-40686107D01*
X133387480Y-40707150D01*
X133397970Y-40729329D01*
X133406235Y-40752428D01*
X133412196Y-40776227D01*
X133415796Y-40800495D01*
X133417000Y-40824999D01*
X133417000Y-41725001D01*
X133415796Y-41749505D01*
X133412196Y-41773773D01*
X133406235Y-41797572D01*
X133397970Y-41820671D01*
X133387480Y-41842850D01*
X133374868Y-41863893D01*
X133360253Y-41883599D01*
X133343777Y-41901777D01*
X133325599Y-41918253D01*
X133305893Y-41932868D01*
X133284850Y-41945480D01*
X133262671Y-41955970D01*
X133239572Y-41964235D01*
X133215773Y-41970196D01*
X133191505Y-41973796D01*
X133167001Y-41975000D01*
X132516999Y-41975000D01*
X132492495Y-41973796D01*
X132468227Y-41970196D01*
X132444428Y-41964235D01*
X132421329Y-41955970D01*
X132399150Y-41945480D01*
X132378107Y-41932868D01*
X132358401Y-41918253D01*
X132340223Y-41901777D01*
X132323747Y-41883599D01*
X132309132Y-41863893D01*
X132296520Y-41842850D01*
X132286030Y-41820671D01*
X132277765Y-41797572D01*
X132271804Y-41773773D01*
X132268204Y-41749505D01*
X132267000Y-41725001D01*
X132267000Y-40824999D01*
X132268204Y-40800495D01*
X132271804Y-40776227D01*
X132277765Y-40752428D01*
X132286030Y-40729329D01*
X132296520Y-40707150D01*
X132309132Y-40686107D01*
X132323747Y-40666401D01*
X132340223Y-40648223D01*
X132358401Y-40631747D01*
X132378107Y-40617132D01*
X132399150Y-40604520D01*
X132421329Y-40594030D01*
X132444428Y-40585765D01*
X132468227Y-40579804D01*
X132492495Y-40576204D01*
X132516999Y-40575000D01*
X133167001Y-40575000D01*
X133191505Y-40576204D01*
X133191505Y-40576204D01*
G37*
D11*
G04 #@! TD*
G04 #@! TO.P,R8,1*
G04 #@! TO.N,Net-(J10-Pad2)*
X132842000Y-41275000D03*
D10*
G04 #@! TO.N,Net-(J14-Pad2)*
G04 #@! TO.C,R9*
G36*
X116427505Y-43751204D02*
X116451773Y-43754804D01*
X116475572Y-43760765D01*
X116498671Y-43769030D01*
X116520850Y-43779520D01*
X116541893Y-43792132D01*
X116561599Y-43806747D01*
X116579777Y-43823223D01*
X116596253Y-43841401D01*
X116610868Y-43861107D01*
X116623480Y-43882150D01*
X116633970Y-43904329D01*
X116642235Y-43927428D01*
X116648196Y-43951227D01*
X116651796Y-43975495D01*
X116653000Y-43999999D01*
X116653000Y-44900001D01*
X116651796Y-44924505D01*
X116648196Y-44948773D01*
X116642235Y-44972572D01*
X116633970Y-44995671D01*
X116623480Y-45017850D01*
X116610868Y-45038893D01*
X116596253Y-45058599D01*
X116579777Y-45076777D01*
X116561599Y-45093253D01*
X116541893Y-45107868D01*
X116520850Y-45120480D01*
X116498671Y-45130970D01*
X116475572Y-45139235D01*
X116451773Y-45145196D01*
X116427505Y-45148796D01*
X116403001Y-45150000D01*
X115752999Y-45150000D01*
X115728495Y-45148796D01*
X115704227Y-45145196D01*
X115680428Y-45139235D01*
X115657329Y-45130970D01*
X115635150Y-45120480D01*
X115614107Y-45107868D01*
X115594401Y-45093253D01*
X115576223Y-45076777D01*
X115559747Y-45058599D01*
X115545132Y-45038893D01*
X115532520Y-45017850D01*
X115522030Y-44995671D01*
X115513765Y-44972572D01*
X115507804Y-44948773D01*
X115504204Y-44924505D01*
X115503000Y-44900001D01*
X115503000Y-43999999D01*
X115504204Y-43975495D01*
X115507804Y-43951227D01*
X115513765Y-43927428D01*
X115522030Y-43904329D01*
X115532520Y-43882150D01*
X115545132Y-43861107D01*
X115559747Y-43841401D01*
X115576223Y-43823223D01*
X115594401Y-43806747D01*
X115614107Y-43792132D01*
X115635150Y-43779520D01*
X115657329Y-43769030D01*
X115680428Y-43760765D01*
X115704227Y-43754804D01*
X115728495Y-43751204D01*
X115752999Y-43750000D01*
X116403001Y-43750000D01*
X116427505Y-43751204D01*
X116427505Y-43751204D01*
G37*
D11*
G04 #@! TD*
G04 #@! TO.P,R9,1*
G04 #@! TO.N,Net-(J14-Pad2)*
X116078000Y-44450000D03*
D10*
G04 #@! TO.N,Net-(R9-Pad2)*
G04 #@! TO.C,R9*
G36*
X118477505Y-43751204D02*
X118501773Y-43754804D01*
X118525572Y-43760765D01*
X118548671Y-43769030D01*
X118570850Y-43779520D01*
X118591893Y-43792132D01*
X118611599Y-43806747D01*
X118629777Y-43823223D01*
X118646253Y-43841401D01*
X118660868Y-43861107D01*
X118673480Y-43882150D01*
X118683970Y-43904329D01*
X118692235Y-43927428D01*
X118698196Y-43951227D01*
X118701796Y-43975495D01*
X118703000Y-43999999D01*
X118703000Y-44900001D01*
X118701796Y-44924505D01*
X118698196Y-44948773D01*
X118692235Y-44972572D01*
X118683970Y-44995671D01*
X118673480Y-45017850D01*
X118660868Y-45038893D01*
X118646253Y-45058599D01*
X118629777Y-45076777D01*
X118611599Y-45093253D01*
X118591893Y-45107868D01*
X118570850Y-45120480D01*
X118548671Y-45130970D01*
X118525572Y-45139235D01*
X118501773Y-45145196D01*
X118477505Y-45148796D01*
X118453001Y-45150000D01*
X117802999Y-45150000D01*
X117778495Y-45148796D01*
X117754227Y-45145196D01*
X117730428Y-45139235D01*
X117707329Y-45130970D01*
X117685150Y-45120480D01*
X117664107Y-45107868D01*
X117644401Y-45093253D01*
X117626223Y-45076777D01*
X117609747Y-45058599D01*
X117595132Y-45038893D01*
X117582520Y-45017850D01*
X117572030Y-44995671D01*
X117563765Y-44972572D01*
X117557804Y-44948773D01*
X117554204Y-44924505D01*
X117553000Y-44900001D01*
X117553000Y-43999999D01*
X117554204Y-43975495D01*
X117557804Y-43951227D01*
X117563765Y-43927428D01*
X117572030Y-43904329D01*
X117582520Y-43882150D01*
X117595132Y-43861107D01*
X117609747Y-43841401D01*
X117626223Y-43823223D01*
X117644401Y-43806747D01*
X117664107Y-43792132D01*
X117685150Y-43779520D01*
X117707329Y-43769030D01*
X117730428Y-43760765D01*
X117754227Y-43754804D01*
X117778495Y-43751204D01*
X117802999Y-43750000D01*
X118453001Y-43750000D01*
X118477505Y-43751204D01*
X118477505Y-43751204D01*
G37*
D11*
G04 #@! TD*
G04 #@! TO.P,R9,2*
G04 #@! TO.N,Net-(R9-Pad2)*
X118128000Y-44450000D03*
D10*
G04 #@! TO.N,Net-(J12-Pad1)*
G04 #@! TO.C,R10*
G36*
X136239505Y-45275204D02*
X136263773Y-45278804D01*
X136287572Y-45284765D01*
X136310671Y-45293030D01*
X136332850Y-45303520D01*
X136353893Y-45316132D01*
X136373599Y-45330747D01*
X136391777Y-45347223D01*
X136408253Y-45365401D01*
X136422868Y-45385107D01*
X136435480Y-45406150D01*
X136445970Y-45428329D01*
X136454235Y-45451428D01*
X136460196Y-45475227D01*
X136463796Y-45499495D01*
X136465000Y-45523999D01*
X136465000Y-46424001D01*
X136463796Y-46448505D01*
X136460196Y-46472773D01*
X136454235Y-46496572D01*
X136445970Y-46519671D01*
X136435480Y-46541850D01*
X136422868Y-46562893D01*
X136408253Y-46582599D01*
X136391777Y-46600777D01*
X136373599Y-46617253D01*
X136353893Y-46631868D01*
X136332850Y-46644480D01*
X136310671Y-46654970D01*
X136287572Y-46663235D01*
X136263773Y-46669196D01*
X136239505Y-46672796D01*
X136215001Y-46674000D01*
X135564999Y-46674000D01*
X135540495Y-46672796D01*
X135516227Y-46669196D01*
X135492428Y-46663235D01*
X135469329Y-46654970D01*
X135447150Y-46644480D01*
X135426107Y-46631868D01*
X135406401Y-46617253D01*
X135388223Y-46600777D01*
X135371747Y-46582599D01*
X135357132Y-46562893D01*
X135344520Y-46541850D01*
X135334030Y-46519671D01*
X135325765Y-46496572D01*
X135319804Y-46472773D01*
X135316204Y-46448505D01*
X135315000Y-46424001D01*
X135315000Y-45523999D01*
X135316204Y-45499495D01*
X135319804Y-45475227D01*
X135325765Y-45451428D01*
X135334030Y-45428329D01*
X135344520Y-45406150D01*
X135357132Y-45385107D01*
X135371747Y-45365401D01*
X135388223Y-45347223D01*
X135406401Y-45330747D01*
X135426107Y-45316132D01*
X135447150Y-45303520D01*
X135469329Y-45293030D01*
X135492428Y-45284765D01*
X135516227Y-45278804D01*
X135540495Y-45275204D01*
X135564999Y-45274000D01*
X136215001Y-45274000D01*
X136239505Y-45275204D01*
X136239505Y-45275204D01*
G37*
D11*
G04 #@! TD*
G04 #@! TO.P,R10,1*
G04 #@! TO.N,Net-(J12-Pad1)*
X135890000Y-45974000D03*
D10*
G04 #@! TO.N,Net-(R10-Pad2)*
G04 #@! TO.C,R10*
G36*
X134189505Y-45275204D02*
X134213773Y-45278804D01*
X134237572Y-45284765D01*
X134260671Y-45293030D01*
X134282850Y-45303520D01*
X134303893Y-45316132D01*
X134323599Y-45330747D01*
X134341777Y-45347223D01*
X134358253Y-45365401D01*
X134372868Y-45385107D01*
X134385480Y-45406150D01*
X134395970Y-45428329D01*
X134404235Y-45451428D01*
X134410196Y-45475227D01*
X134413796Y-45499495D01*
X134415000Y-45523999D01*
X134415000Y-46424001D01*
X134413796Y-46448505D01*
X134410196Y-46472773D01*
X134404235Y-46496572D01*
X134395970Y-46519671D01*
X134385480Y-46541850D01*
X134372868Y-46562893D01*
X134358253Y-46582599D01*
X134341777Y-46600777D01*
X134323599Y-46617253D01*
X134303893Y-46631868D01*
X134282850Y-46644480D01*
X134260671Y-46654970D01*
X134237572Y-46663235D01*
X134213773Y-46669196D01*
X134189505Y-46672796D01*
X134165001Y-46674000D01*
X133514999Y-46674000D01*
X133490495Y-46672796D01*
X133466227Y-46669196D01*
X133442428Y-46663235D01*
X133419329Y-46654970D01*
X133397150Y-46644480D01*
X133376107Y-46631868D01*
X133356401Y-46617253D01*
X133338223Y-46600777D01*
X133321747Y-46582599D01*
X133307132Y-46562893D01*
X133294520Y-46541850D01*
X133284030Y-46519671D01*
X133275765Y-46496572D01*
X133269804Y-46472773D01*
X133266204Y-46448505D01*
X133265000Y-46424001D01*
X133265000Y-45523999D01*
X133266204Y-45499495D01*
X133269804Y-45475227D01*
X133275765Y-45451428D01*
X133284030Y-45428329D01*
X133294520Y-45406150D01*
X133307132Y-45385107D01*
X133321747Y-45365401D01*
X133338223Y-45347223D01*
X133356401Y-45330747D01*
X133376107Y-45316132D01*
X133397150Y-45303520D01*
X133419329Y-45293030D01*
X133442428Y-45284765D01*
X133466227Y-45278804D01*
X133490495Y-45275204D01*
X133514999Y-45274000D01*
X134165001Y-45274000D01*
X134189505Y-45275204D01*
X134189505Y-45275204D01*
G37*
D11*
G04 #@! TD*
G04 #@! TO.P,R10,2*
G04 #@! TO.N,Net-(R10-Pad2)*
X133840000Y-45974000D03*
D10*
G04 #@! TO.N,GND*
G04 #@! TO.C,R11*
G36*
X114395505Y-43751204D02*
X114419773Y-43754804D01*
X114443572Y-43760765D01*
X114466671Y-43769030D01*
X114488850Y-43779520D01*
X114509893Y-43792132D01*
X114529599Y-43806747D01*
X114547777Y-43823223D01*
X114564253Y-43841401D01*
X114578868Y-43861107D01*
X114591480Y-43882150D01*
X114601970Y-43904329D01*
X114610235Y-43927428D01*
X114616196Y-43951227D01*
X114619796Y-43975495D01*
X114621000Y-43999999D01*
X114621000Y-44900001D01*
X114619796Y-44924505D01*
X114616196Y-44948773D01*
X114610235Y-44972572D01*
X114601970Y-44995671D01*
X114591480Y-45017850D01*
X114578868Y-45038893D01*
X114564253Y-45058599D01*
X114547777Y-45076777D01*
X114529599Y-45093253D01*
X114509893Y-45107868D01*
X114488850Y-45120480D01*
X114466671Y-45130970D01*
X114443572Y-45139235D01*
X114419773Y-45145196D01*
X114395505Y-45148796D01*
X114371001Y-45150000D01*
X113720999Y-45150000D01*
X113696495Y-45148796D01*
X113672227Y-45145196D01*
X113648428Y-45139235D01*
X113625329Y-45130970D01*
X113603150Y-45120480D01*
X113582107Y-45107868D01*
X113562401Y-45093253D01*
X113544223Y-45076777D01*
X113527747Y-45058599D01*
X113513132Y-45038893D01*
X113500520Y-45017850D01*
X113490030Y-44995671D01*
X113481765Y-44972572D01*
X113475804Y-44948773D01*
X113472204Y-44924505D01*
X113471000Y-44900001D01*
X113471000Y-43999999D01*
X113472204Y-43975495D01*
X113475804Y-43951227D01*
X113481765Y-43927428D01*
X113490030Y-43904329D01*
X113500520Y-43882150D01*
X113513132Y-43861107D01*
X113527747Y-43841401D01*
X113544223Y-43823223D01*
X113562401Y-43806747D01*
X113582107Y-43792132D01*
X113603150Y-43779520D01*
X113625329Y-43769030D01*
X113648428Y-43760765D01*
X113672227Y-43754804D01*
X113696495Y-43751204D01*
X113720999Y-43750000D01*
X114371001Y-43750000D01*
X114395505Y-43751204D01*
X114395505Y-43751204D01*
G37*
D11*
G04 #@! TD*
G04 #@! TO.P,R11,1*
G04 #@! TO.N,GND*
X114046000Y-44450000D03*
D10*
G04 #@! TO.N,Net-(J14-Pad2)*
G04 #@! TO.C,R11*
G36*
X112345505Y-43751204D02*
X112369773Y-43754804D01*
X112393572Y-43760765D01*
X112416671Y-43769030D01*
X112438850Y-43779520D01*
X112459893Y-43792132D01*
X112479599Y-43806747D01*
X112497777Y-43823223D01*
X112514253Y-43841401D01*
X112528868Y-43861107D01*
X112541480Y-43882150D01*
X112551970Y-43904329D01*
X112560235Y-43927428D01*
X112566196Y-43951227D01*
X112569796Y-43975495D01*
X112571000Y-43999999D01*
X112571000Y-44900001D01*
X112569796Y-44924505D01*
X112566196Y-44948773D01*
X112560235Y-44972572D01*
X112551970Y-44995671D01*
X112541480Y-45017850D01*
X112528868Y-45038893D01*
X112514253Y-45058599D01*
X112497777Y-45076777D01*
X112479599Y-45093253D01*
X112459893Y-45107868D01*
X112438850Y-45120480D01*
X112416671Y-45130970D01*
X112393572Y-45139235D01*
X112369773Y-45145196D01*
X112345505Y-45148796D01*
X112321001Y-45150000D01*
X111670999Y-45150000D01*
X111646495Y-45148796D01*
X111622227Y-45145196D01*
X111598428Y-45139235D01*
X111575329Y-45130970D01*
X111553150Y-45120480D01*
X111532107Y-45107868D01*
X111512401Y-45093253D01*
X111494223Y-45076777D01*
X111477747Y-45058599D01*
X111463132Y-45038893D01*
X111450520Y-45017850D01*
X111440030Y-44995671D01*
X111431765Y-44972572D01*
X111425804Y-44948773D01*
X111422204Y-44924505D01*
X111421000Y-44900001D01*
X111421000Y-43999999D01*
X111422204Y-43975495D01*
X111425804Y-43951227D01*
X111431765Y-43927428D01*
X111440030Y-43904329D01*
X111450520Y-43882150D01*
X111463132Y-43861107D01*
X111477747Y-43841401D01*
X111494223Y-43823223D01*
X111512401Y-43806747D01*
X111532107Y-43792132D01*
X111553150Y-43779520D01*
X111575329Y-43769030D01*
X111598428Y-43760765D01*
X111622227Y-43754804D01*
X111646495Y-43751204D01*
X111670999Y-43750000D01*
X112321001Y-43750000D01*
X112345505Y-43751204D01*
X112345505Y-43751204D01*
G37*
D11*
G04 #@! TD*
G04 #@! TO.P,R11,2*
G04 #@! TO.N,Net-(J14-Pad2)*
X111996000Y-44450000D03*
D10*
G04 #@! TO.N,Net-(R12-Pad2)*
G04 #@! TO.C,R12*
G36*
X133189505Y-37671204D02*
X133213773Y-37674804D01*
X133237572Y-37680765D01*
X133260671Y-37689030D01*
X133282850Y-37699520D01*
X133303893Y-37712132D01*
X133323599Y-37726747D01*
X133341777Y-37743223D01*
X133358253Y-37761401D01*
X133372868Y-37781107D01*
X133385480Y-37802150D01*
X133395970Y-37824329D01*
X133404235Y-37847428D01*
X133410196Y-37871227D01*
X133413796Y-37895495D01*
X133415000Y-37919999D01*
X133415000Y-38570001D01*
X133413796Y-38594505D01*
X133410196Y-38618773D01*
X133404235Y-38642572D01*
X133395970Y-38665671D01*
X133385480Y-38687850D01*
X133372868Y-38708893D01*
X133358253Y-38728599D01*
X133341777Y-38746777D01*
X133323599Y-38763253D01*
X133303893Y-38777868D01*
X133282850Y-38790480D01*
X133260671Y-38800970D01*
X133237572Y-38809235D01*
X133213773Y-38815196D01*
X133189505Y-38818796D01*
X133165001Y-38820000D01*
X132264999Y-38820000D01*
X132240495Y-38818796D01*
X132216227Y-38815196D01*
X132192428Y-38809235D01*
X132169329Y-38800970D01*
X132147150Y-38790480D01*
X132126107Y-38777868D01*
X132106401Y-38763253D01*
X132088223Y-38746777D01*
X132071747Y-38728599D01*
X132057132Y-38708893D01*
X132044520Y-38687850D01*
X132034030Y-38665671D01*
X132025765Y-38642572D01*
X132019804Y-38618773D01*
X132016204Y-38594505D01*
X132015000Y-38570001D01*
X132015000Y-37919999D01*
X132016204Y-37895495D01*
X132019804Y-37871227D01*
X132025765Y-37847428D01*
X132034030Y-37824329D01*
X132044520Y-37802150D01*
X132057132Y-37781107D01*
X132071747Y-37761401D01*
X132088223Y-37743223D01*
X132106401Y-37726747D01*
X132126107Y-37712132D01*
X132147150Y-37699520D01*
X132169329Y-37689030D01*
X132192428Y-37680765D01*
X132216227Y-37674804D01*
X132240495Y-37671204D01*
X132264999Y-37670000D01*
X133165001Y-37670000D01*
X133189505Y-37671204D01*
X133189505Y-37671204D01*
G37*
D11*
G04 #@! TD*
G04 #@! TO.P,R12,2*
G04 #@! TO.N,Net-(R12-Pad2)*
X132715000Y-38245000D03*
D10*
G04 #@! TO.N,Net-(J10-Pad1)*
G04 #@! TO.C,R12*
G36*
X133189505Y-35621204D02*
X133213773Y-35624804D01*
X133237572Y-35630765D01*
X133260671Y-35639030D01*
X133282850Y-35649520D01*
X133303893Y-35662132D01*
X133323599Y-35676747D01*
X133341777Y-35693223D01*
X133358253Y-35711401D01*
X133372868Y-35731107D01*
X133385480Y-35752150D01*
X133395970Y-35774329D01*
X133404235Y-35797428D01*
X133410196Y-35821227D01*
X133413796Y-35845495D01*
X133415000Y-35869999D01*
X133415000Y-36520001D01*
X133413796Y-36544505D01*
X133410196Y-36568773D01*
X133404235Y-36592572D01*
X133395970Y-36615671D01*
X133385480Y-36637850D01*
X133372868Y-36658893D01*
X133358253Y-36678599D01*
X133341777Y-36696777D01*
X133323599Y-36713253D01*
X133303893Y-36727868D01*
X133282850Y-36740480D01*
X133260671Y-36750970D01*
X133237572Y-36759235D01*
X133213773Y-36765196D01*
X133189505Y-36768796D01*
X133165001Y-36770000D01*
X132264999Y-36770000D01*
X132240495Y-36768796D01*
X132216227Y-36765196D01*
X132192428Y-36759235D01*
X132169329Y-36750970D01*
X132147150Y-36740480D01*
X132126107Y-36727868D01*
X132106401Y-36713253D01*
X132088223Y-36696777D01*
X132071747Y-36678599D01*
X132057132Y-36658893D01*
X132044520Y-36637850D01*
X132034030Y-36615671D01*
X132025765Y-36592572D01*
X132019804Y-36568773D01*
X132016204Y-36544505D01*
X132015000Y-36520001D01*
X132015000Y-35869999D01*
X132016204Y-35845495D01*
X132019804Y-35821227D01*
X132025765Y-35797428D01*
X132034030Y-35774329D01*
X132044520Y-35752150D01*
X132057132Y-35731107D01*
X132071747Y-35711401D01*
X132088223Y-35693223D01*
X132106401Y-35676747D01*
X132126107Y-35662132D01*
X132147150Y-35649520D01*
X132169329Y-35639030D01*
X132192428Y-35630765D01*
X132216227Y-35624804D01*
X132240495Y-35621204D01*
X132264999Y-35620000D01*
X133165001Y-35620000D01*
X133189505Y-35621204D01*
X133189505Y-35621204D01*
G37*
D11*
G04 #@! TD*
G04 #@! TO.P,R12,1*
G04 #@! TO.N,Net-(J10-Pad1)*
X132715000Y-36195000D03*
D10*
G04 #@! TO.N,Net-(J10-Pad1)*
G04 #@! TO.C,R14*
G36*
X135729505Y-35621204D02*
X135753773Y-35624804D01*
X135777572Y-35630765D01*
X135800671Y-35639030D01*
X135822850Y-35649520D01*
X135843893Y-35662132D01*
X135863599Y-35676747D01*
X135881777Y-35693223D01*
X135898253Y-35711401D01*
X135912868Y-35731107D01*
X135925480Y-35752150D01*
X135935970Y-35774329D01*
X135944235Y-35797428D01*
X135950196Y-35821227D01*
X135953796Y-35845495D01*
X135955000Y-35869999D01*
X135955000Y-36520001D01*
X135953796Y-36544505D01*
X135950196Y-36568773D01*
X135944235Y-36592572D01*
X135935970Y-36615671D01*
X135925480Y-36637850D01*
X135912868Y-36658893D01*
X135898253Y-36678599D01*
X135881777Y-36696777D01*
X135863599Y-36713253D01*
X135843893Y-36727868D01*
X135822850Y-36740480D01*
X135800671Y-36750970D01*
X135777572Y-36759235D01*
X135753773Y-36765196D01*
X135729505Y-36768796D01*
X135705001Y-36770000D01*
X134804999Y-36770000D01*
X134780495Y-36768796D01*
X134756227Y-36765196D01*
X134732428Y-36759235D01*
X134709329Y-36750970D01*
X134687150Y-36740480D01*
X134666107Y-36727868D01*
X134646401Y-36713253D01*
X134628223Y-36696777D01*
X134611747Y-36678599D01*
X134597132Y-36658893D01*
X134584520Y-36637850D01*
X134574030Y-36615671D01*
X134565765Y-36592572D01*
X134559804Y-36568773D01*
X134556204Y-36544505D01*
X134555000Y-36520001D01*
X134555000Y-35869999D01*
X134556204Y-35845495D01*
X134559804Y-35821227D01*
X134565765Y-35797428D01*
X134574030Y-35774329D01*
X134584520Y-35752150D01*
X134597132Y-35731107D01*
X134611747Y-35711401D01*
X134628223Y-35693223D01*
X134646401Y-35676747D01*
X134666107Y-35662132D01*
X134687150Y-35649520D01*
X134709329Y-35639030D01*
X134732428Y-35630765D01*
X134756227Y-35624804D01*
X134780495Y-35621204D01*
X134804999Y-35620000D01*
X135705001Y-35620000D01*
X135729505Y-35621204D01*
X135729505Y-35621204D01*
G37*
D11*
G04 #@! TD*
G04 #@! TO.P,R14,1*
G04 #@! TO.N,Net-(J10-Pad1)*
X135255000Y-36195000D03*
D10*
G04 #@! TO.N,GND*
G04 #@! TO.C,R14*
G36*
X135729505Y-37671204D02*
X135753773Y-37674804D01*
X135777572Y-37680765D01*
X135800671Y-37689030D01*
X135822850Y-37699520D01*
X135843893Y-37712132D01*
X135863599Y-37726747D01*
X135881777Y-37743223D01*
X135898253Y-37761401D01*
X135912868Y-37781107D01*
X135925480Y-37802150D01*
X135935970Y-37824329D01*
X135944235Y-37847428D01*
X135950196Y-37871227D01*
X135953796Y-37895495D01*
X135955000Y-37919999D01*
X135955000Y-38570001D01*
X135953796Y-38594505D01*
X135950196Y-38618773D01*
X135944235Y-38642572D01*
X135935970Y-38665671D01*
X135925480Y-38687850D01*
X135912868Y-38708893D01*
X135898253Y-38728599D01*
X135881777Y-38746777D01*
X135863599Y-38763253D01*
X135843893Y-38777868D01*
X135822850Y-38790480D01*
X135800671Y-38800970D01*
X135777572Y-38809235D01*
X135753773Y-38815196D01*
X135729505Y-38818796D01*
X135705001Y-38820000D01*
X134804999Y-38820000D01*
X134780495Y-38818796D01*
X134756227Y-38815196D01*
X134732428Y-38809235D01*
X134709329Y-38800970D01*
X134687150Y-38790480D01*
X134666107Y-38777868D01*
X134646401Y-38763253D01*
X134628223Y-38746777D01*
X134611747Y-38728599D01*
X134597132Y-38708893D01*
X134584520Y-38687850D01*
X134574030Y-38665671D01*
X134565765Y-38642572D01*
X134559804Y-38618773D01*
X134556204Y-38594505D01*
X134555000Y-38570001D01*
X134555000Y-37919999D01*
X134556204Y-37895495D01*
X134559804Y-37871227D01*
X134565765Y-37847428D01*
X134574030Y-37824329D01*
X134584520Y-37802150D01*
X134597132Y-37781107D01*
X134611747Y-37761401D01*
X134628223Y-37743223D01*
X134646401Y-37726747D01*
X134666107Y-37712132D01*
X134687150Y-37699520D01*
X134709329Y-37689030D01*
X134732428Y-37680765D01*
X134756227Y-37674804D01*
X134780495Y-37671204D01*
X134804999Y-37670000D01*
X135705001Y-37670000D01*
X135729505Y-37671204D01*
X135729505Y-37671204D01*
G37*
D11*
G04 #@! TD*
G04 #@! TO.P,R14,2*
G04 #@! TO.N,GND*
X135255000Y-38245000D03*
D10*
G04 #@! TO.N,GND*
G04 #@! TO.C,R15*
G36*
X135094505Y-39431204D02*
X135118773Y-39434804D01*
X135142572Y-39440765D01*
X135165671Y-39449030D01*
X135187850Y-39459520D01*
X135208893Y-39472132D01*
X135228599Y-39486747D01*
X135246777Y-39503223D01*
X135263253Y-39521401D01*
X135277868Y-39541107D01*
X135290480Y-39562150D01*
X135300970Y-39584329D01*
X135309235Y-39607428D01*
X135315196Y-39631227D01*
X135318796Y-39655495D01*
X135320000Y-39679999D01*
X135320000Y-40330001D01*
X135318796Y-40354505D01*
X135315196Y-40378773D01*
X135309235Y-40402572D01*
X135300970Y-40425671D01*
X135290480Y-40447850D01*
X135277868Y-40468893D01*
X135263253Y-40488599D01*
X135246777Y-40506777D01*
X135228599Y-40523253D01*
X135208893Y-40537868D01*
X135187850Y-40550480D01*
X135165671Y-40560970D01*
X135142572Y-40569235D01*
X135118773Y-40575196D01*
X135094505Y-40578796D01*
X135070001Y-40580000D01*
X134169999Y-40580000D01*
X134145495Y-40578796D01*
X134121227Y-40575196D01*
X134097428Y-40569235D01*
X134074329Y-40560970D01*
X134052150Y-40550480D01*
X134031107Y-40537868D01*
X134011401Y-40523253D01*
X133993223Y-40506777D01*
X133976747Y-40488599D01*
X133962132Y-40468893D01*
X133949520Y-40447850D01*
X133939030Y-40425671D01*
X133930765Y-40402572D01*
X133924804Y-40378773D01*
X133921204Y-40354505D01*
X133920000Y-40330001D01*
X133920000Y-39679999D01*
X133921204Y-39655495D01*
X133924804Y-39631227D01*
X133930765Y-39607428D01*
X133939030Y-39584329D01*
X133949520Y-39562150D01*
X133962132Y-39541107D01*
X133976747Y-39521401D01*
X133993223Y-39503223D01*
X134011401Y-39486747D01*
X134031107Y-39472132D01*
X134052150Y-39459520D01*
X134074329Y-39449030D01*
X134097428Y-39440765D01*
X134121227Y-39434804D01*
X134145495Y-39431204D01*
X134169999Y-39430000D01*
X135070001Y-39430000D01*
X135094505Y-39431204D01*
X135094505Y-39431204D01*
G37*
D11*
G04 #@! TD*
G04 #@! TO.P,R15,1*
G04 #@! TO.N,GND*
X134620000Y-40005000D03*
D10*
G04 #@! TO.N,Net-(J10-Pad2)*
G04 #@! TO.C,R15*
G36*
X135094505Y-41481204D02*
X135118773Y-41484804D01*
X135142572Y-41490765D01*
X135165671Y-41499030D01*
X135187850Y-41509520D01*
X135208893Y-41522132D01*
X135228599Y-41536747D01*
X135246777Y-41553223D01*
X135263253Y-41571401D01*
X135277868Y-41591107D01*
X135290480Y-41612150D01*
X135300970Y-41634329D01*
X135309235Y-41657428D01*
X135315196Y-41681227D01*
X135318796Y-41705495D01*
X135320000Y-41729999D01*
X135320000Y-42380001D01*
X135318796Y-42404505D01*
X135315196Y-42428773D01*
X135309235Y-42452572D01*
X135300970Y-42475671D01*
X135290480Y-42497850D01*
X135277868Y-42518893D01*
X135263253Y-42538599D01*
X135246777Y-42556777D01*
X135228599Y-42573253D01*
X135208893Y-42587868D01*
X135187850Y-42600480D01*
X135165671Y-42610970D01*
X135142572Y-42619235D01*
X135118773Y-42625196D01*
X135094505Y-42628796D01*
X135070001Y-42630000D01*
X134169999Y-42630000D01*
X134145495Y-42628796D01*
X134121227Y-42625196D01*
X134097428Y-42619235D01*
X134074329Y-42610970D01*
X134052150Y-42600480D01*
X134031107Y-42587868D01*
X134011401Y-42573253D01*
X133993223Y-42556777D01*
X133976747Y-42538599D01*
X133962132Y-42518893D01*
X133949520Y-42497850D01*
X133939030Y-42475671D01*
X133930765Y-42452572D01*
X133924804Y-42428773D01*
X133921204Y-42404505D01*
X133920000Y-42380001D01*
X133920000Y-41729999D01*
X133921204Y-41705495D01*
X133924804Y-41681227D01*
X133930765Y-41657428D01*
X133939030Y-41634329D01*
X133949520Y-41612150D01*
X133962132Y-41591107D01*
X133976747Y-41571401D01*
X133993223Y-41553223D01*
X134011401Y-41536747D01*
X134031107Y-41522132D01*
X134052150Y-41509520D01*
X134074329Y-41499030D01*
X134097428Y-41490765D01*
X134121227Y-41484804D01*
X134145495Y-41481204D01*
X134169999Y-41480000D01*
X135070001Y-41480000D01*
X135094505Y-41481204D01*
X135094505Y-41481204D01*
G37*
D11*
G04 #@! TD*
G04 #@! TO.P,R15,2*
G04 #@! TO.N,Net-(J10-Pad2)*
X134620000Y-42055000D03*
D10*
G04 #@! TO.N,Net-(R16-Pad2)*
G04 #@! TO.C,R16*
G36*
X118584505Y-39576204D02*
X118608773Y-39579804D01*
X118632572Y-39585765D01*
X118655671Y-39594030D01*
X118677850Y-39604520D01*
X118698893Y-39617132D01*
X118718599Y-39631747D01*
X118736777Y-39648223D01*
X118753253Y-39666401D01*
X118767868Y-39686107D01*
X118780480Y-39707150D01*
X118790970Y-39729329D01*
X118799235Y-39752428D01*
X118805196Y-39776227D01*
X118808796Y-39800495D01*
X118810000Y-39824999D01*
X118810000Y-40475001D01*
X118808796Y-40499505D01*
X118805196Y-40523773D01*
X118799235Y-40547572D01*
X118790970Y-40570671D01*
X118780480Y-40592850D01*
X118767868Y-40613893D01*
X118753253Y-40633599D01*
X118736777Y-40651777D01*
X118718599Y-40668253D01*
X118698893Y-40682868D01*
X118677850Y-40695480D01*
X118655671Y-40705970D01*
X118632572Y-40714235D01*
X118608773Y-40720196D01*
X118584505Y-40723796D01*
X118560001Y-40725000D01*
X117659999Y-40725000D01*
X117635495Y-40723796D01*
X117611227Y-40720196D01*
X117587428Y-40714235D01*
X117564329Y-40705970D01*
X117542150Y-40695480D01*
X117521107Y-40682868D01*
X117501401Y-40668253D01*
X117483223Y-40651777D01*
X117466747Y-40633599D01*
X117452132Y-40613893D01*
X117439520Y-40592850D01*
X117429030Y-40570671D01*
X117420765Y-40547572D01*
X117414804Y-40523773D01*
X117411204Y-40499505D01*
X117410000Y-40475001D01*
X117410000Y-39824999D01*
X117411204Y-39800495D01*
X117414804Y-39776227D01*
X117420765Y-39752428D01*
X117429030Y-39729329D01*
X117439520Y-39707150D01*
X117452132Y-39686107D01*
X117466747Y-39666401D01*
X117483223Y-39648223D01*
X117501401Y-39631747D01*
X117521107Y-39617132D01*
X117542150Y-39604520D01*
X117564329Y-39594030D01*
X117587428Y-39585765D01*
X117611227Y-39579804D01*
X117635495Y-39576204D01*
X117659999Y-39575000D01*
X118560001Y-39575000D01*
X118584505Y-39576204D01*
X118584505Y-39576204D01*
G37*
D11*
G04 #@! TD*
G04 #@! TO.P,R16,2*
G04 #@! TO.N,Net-(R16-Pad2)*
X118110000Y-40150000D03*
D10*
G04 #@! TO.N,Net-(Q1-Pad1)*
G04 #@! TO.C,R16*
G36*
X118584505Y-37526204D02*
X118608773Y-37529804D01*
X118632572Y-37535765D01*
X118655671Y-37544030D01*
X118677850Y-37554520D01*
X118698893Y-37567132D01*
X118718599Y-37581747D01*
X118736777Y-37598223D01*
X118753253Y-37616401D01*
X118767868Y-37636107D01*
X118780480Y-37657150D01*
X118790970Y-37679329D01*
X118799235Y-37702428D01*
X118805196Y-37726227D01*
X118808796Y-37750495D01*
X118810000Y-37774999D01*
X118810000Y-38425001D01*
X118808796Y-38449505D01*
X118805196Y-38473773D01*
X118799235Y-38497572D01*
X118790970Y-38520671D01*
X118780480Y-38542850D01*
X118767868Y-38563893D01*
X118753253Y-38583599D01*
X118736777Y-38601777D01*
X118718599Y-38618253D01*
X118698893Y-38632868D01*
X118677850Y-38645480D01*
X118655671Y-38655970D01*
X118632572Y-38664235D01*
X118608773Y-38670196D01*
X118584505Y-38673796D01*
X118560001Y-38675000D01*
X117659999Y-38675000D01*
X117635495Y-38673796D01*
X117611227Y-38670196D01*
X117587428Y-38664235D01*
X117564329Y-38655970D01*
X117542150Y-38645480D01*
X117521107Y-38632868D01*
X117501401Y-38618253D01*
X117483223Y-38601777D01*
X117466747Y-38583599D01*
X117452132Y-38563893D01*
X117439520Y-38542850D01*
X117429030Y-38520671D01*
X117420765Y-38497572D01*
X117414804Y-38473773D01*
X117411204Y-38449505D01*
X117410000Y-38425001D01*
X117410000Y-37774999D01*
X117411204Y-37750495D01*
X117414804Y-37726227D01*
X117420765Y-37702428D01*
X117429030Y-37679329D01*
X117439520Y-37657150D01*
X117452132Y-37636107D01*
X117466747Y-37616401D01*
X117483223Y-37598223D01*
X117501401Y-37581747D01*
X117521107Y-37567132D01*
X117542150Y-37554520D01*
X117564329Y-37544030D01*
X117587428Y-37535765D01*
X117611227Y-37529804D01*
X117635495Y-37526204D01*
X117659999Y-37525000D01*
X118560001Y-37525000D01*
X118584505Y-37526204D01*
X118584505Y-37526204D01*
G37*
D11*
G04 #@! TD*
G04 #@! TO.P,R16,1*
G04 #@! TO.N,Net-(Q1-Pad1)*
X118110000Y-38100000D03*
D10*
G04 #@! TO.N,Net-(R17-Pad2)*
G04 #@! TO.C,R17*
G36*
X114349505Y-39941204D02*
X114373773Y-39944804D01*
X114397572Y-39950765D01*
X114420671Y-39959030D01*
X114442850Y-39969520D01*
X114463893Y-39982132D01*
X114483599Y-39996747D01*
X114501777Y-40013223D01*
X114518253Y-40031401D01*
X114532868Y-40051107D01*
X114545480Y-40072150D01*
X114555970Y-40094329D01*
X114564235Y-40117428D01*
X114570196Y-40141227D01*
X114573796Y-40165495D01*
X114575000Y-40189999D01*
X114575000Y-41090001D01*
X114573796Y-41114505D01*
X114570196Y-41138773D01*
X114564235Y-41162572D01*
X114555970Y-41185671D01*
X114545480Y-41207850D01*
X114532868Y-41228893D01*
X114518253Y-41248599D01*
X114501777Y-41266777D01*
X114483599Y-41283253D01*
X114463893Y-41297868D01*
X114442850Y-41310480D01*
X114420671Y-41320970D01*
X114397572Y-41329235D01*
X114373773Y-41335196D01*
X114349505Y-41338796D01*
X114325001Y-41340000D01*
X113674999Y-41340000D01*
X113650495Y-41338796D01*
X113626227Y-41335196D01*
X113602428Y-41329235D01*
X113579329Y-41320970D01*
X113557150Y-41310480D01*
X113536107Y-41297868D01*
X113516401Y-41283253D01*
X113498223Y-41266777D01*
X113481747Y-41248599D01*
X113467132Y-41228893D01*
X113454520Y-41207850D01*
X113444030Y-41185671D01*
X113435765Y-41162572D01*
X113429804Y-41138773D01*
X113426204Y-41114505D01*
X113425000Y-41090001D01*
X113425000Y-40189999D01*
X113426204Y-40165495D01*
X113429804Y-40141227D01*
X113435765Y-40117428D01*
X113444030Y-40094329D01*
X113454520Y-40072150D01*
X113467132Y-40051107D01*
X113481747Y-40031401D01*
X113498223Y-40013223D01*
X113516401Y-39996747D01*
X113536107Y-39982132D01*
X113557150Y-39969520D01*
X113579329Y-39959030D01*
X113602428Y-39950765D01*
X113626227Y-39944804D01*
X113650495Y-39941204D01*
X113674999Y-39940000D01*
X114325001Y-39940000D01*
X114349505Y-39941204D01*
X114349505Y-39941204D01*
G37*
D11*
G04 #@! TD*
G04 #@! TO.P,R17,2*
G04 #@! TO.N,Net-(R17-Pad2)*
X114000000Y-40640000D03*
D10*
G04 #@! TO.N,Net-(J14-Pad3)*
G04 #@! TO.C,R17*
G36*
X112299505Y-39941204D02*
X112323773Y-39944804D01*
X112347572Y-39950765D01*
X112370671Y-39959030D01*
X112392850Y-39969520D01*
X112413893Y-39982132D01*
X112433599Y-39996747D01*
X112451777Y-40013223D01*
X112468253Y-40031401D01*
X112482868Y-40051107D01*
X112495480Y-40072150D01*
X112505970Y-40094329D01*
X112514235Y-40117428D01*
X112520196Y-40141227D01*
X112523796Y-40165495D01*
X112525000Y-40189999D01*
X112525000Y-41090001D01*
X112523796Y-41114505D01*
X112520196Y-41138773D01*
X112514235Y-41162572D01*
X112505970Y-41185671D01*
X112495480Y-41207850D01*
X112482868Y-41228893D01*
X112468253Y-41248599D01*
X112451777Y-41266777D01*
X112433599Y-41283253D01*
X112413893Y-41297868D01*
X112392850Y-41310480D01*
X112370671Y-41320970D01*
X112347572Y-41329235D01*
X112323773Y-41335196D01*
X112299505Y-41338796D01*
X112275001Y-41340000D01*
X111624999Y-41340000D01*
X111600495Y-41338796D01*
X111576227Y-41335196D01*
X111552428Y-41329235D01*
X111529329Y-41320970D01*
X111507150Y-41310480D01*
X111486107Y-41297868D01*
X111466401Y-41283253D01*
X111448223Y-41266777D01*
X111431747Y-41248599D01*
X111417132Y-41228893D01*
X111404520Y-41207850D01*
X111394030Y-41185671D01*
X111385765Y-41162572D01*
X111379804Y-41138773D01*
X111376204Y-41114505D01*
X111375000Y-41090001D01*
X111375000Y-40189999D01*
X111376204Y-40165495D01*
X111379804Y-40141227D01*
X111385765Y-40117428D01*
X111394030Y-40094329D01*
X111404520Y-40072150D01*
X111417132Y-40051107D01*
X111431747Y-40031401D01*
X111448223Y-40013223D01*
X111466401Y-39996747D01*
X111486107Y-39982132D01*
X111507150Y-39969520D01*
X111529329Y-39959030D01*
X111552428Y-39950765D01*
X111576227Y-39944804D01*
X111600495Y-39941204D01*
X111624999Y-39940000D01*
X112275001Y-39940000D01*
X112299505Y-39941204D01*
X112299505Y-39941204D01*
G37*
D11*
G04 #@! TD*
G04 #@! TO.P,R17,1*
G04 #@! TO.N,Net-(J14-Pad3)*
X111950000Y-40640000D03*
D10*
G04 #@! TO.N,GND*
G04 #@! TO.C,R18*
G36*
X114903505Y-41973204D02*
X114927773Y-41976804D01*
X114951572Y-41982765D01*
X114974671Y-41991030D01*
X114996850Y-42001520D01*
X115017893Y-42014132D01*
X115037599Y-42028747D01*
X115055777Y-42045223D01*
X115072253Y-42063401D01*
X115086868Y-42083107D01*
X115099480Y-42104150D01*
X115109970Y-42126329D01*
X115118235Y-42149428D01*
X115124196Y-42173227D01*
X115127796Y-42197495D01*
X115129000Y-42221999D01*
X115129000Y-43122001D01*
X115127796Y-43146505D01*
X115124196Y-43170773D01*
X115118235Y-43194572D01*
X115109970Y-43217671D01*
X115099480Y-43239850D01*
X115086868Y-43260893D01*
X115072253Y-43280599D01*
X115055777Y-43298777D01*
X115037599Y-43315253D01*
X115017893Y-43329868D01*
X114996850Y-43342480D01*
X114974671Y-43352970D01*
X114951572Y-43361235D01*
X114927773Y-43367196D01*
X114903505Y-43370796D01*
X114879001Y-43372000D01*
X114228999Y-43372000D01*
X114204495Y-43370796D01*
X114180227Y-43367196D01*
X114156428Y-43361235D01*
X114133329Y-43352970D01*
X114111150Y-43342480D01*
X114090107Y-43329868D01*
X114070401Y-43315253D01*
X114052223Y-43298777D01*
X114035747Y-43280599D01*
X114021132Y-43260893D01*
X114008520Y-43239850D01*
X113998030Y-43217671D01*
X113989765Y-43194572D01*
X113983804Y-43170773D01*
X113980204Y-43146505D01*
X113979000Y-43122001D01*
X113979000Y-42221999D01*
X113980204Y-42197495D01*
X113983804Y-42173227D01*
X113989765Y-42149428D01*
X113998030Y-42126329D01*
X114008520Y-42104150D01*
X114021132Y-42083107D01*
X114035747Y-42063401D01*
X114052223Y-42045223D01*
X114070401Y-42028747D01*
X114090107Y-42014132D01*
X114111150Y-42001520D01*
X114133329Y-41991030D01*
X114156428Y-41982765D01*
X114180227Y-41976804D01*
X114204495Y-41973204D01*
X114228999Y-41972000D01*
X114879001Y-41972000D01*
X114903505Y-41973204D01*
X114903505Y-41973204D01*
G37*
D11*
G04 #@! TD*
G04 #@! TO.P,R18,2*
G04 #@! TO.N,GND*
X114554000Y-42672000D03*
D10*
G04 #@! TO.N,Net-(J14-Pad3)*
G04 #@! TO.C,R18*
G36*
X112853505Y-41973204D02*
X112877773Y-41976804D01*
X112901572Y-41982765D01*
X112924671Y-41991030D01*
X112946850Y-42001520D01*
X112967893Y-42014132D01*
X112987599Y-42028747D01*
X113005777Y-42045223D01*
X113022253Y-42063401D01*
X113036868Y-42083107D01*
X113049480Y-42104150D01*
X113059970Y-42126329D01*
X113068235Y-42149428D01*
X113074196Y-42173227D01*
X113077796Y-42197495D01*
X113079000Y-42221999D01*
X113079000Y-43122001D01*
X113077796Y-43146505D01*
X113074196Y-43170773D01*
X113068235Y-43194572D01*
X113059970Y-43217671D01*
X113049480Y-43239850D01*
X113036868Y-43260893D01*
X113022253Y-43280599D01*
X113005777Y-43298777D01*
X112987599Y-43315253D01*
X112967893Y-43329868D01*
X112946850Y-43342480D01*
X112924671Y-43352970D01*
X112901572Y-43361235D01*
X112877773Y-43367196D01*
X112853505Y-43370796D01*
X112829001Y-43372000D01*
X112178999Y-43372000D01*
X112154495Y-43370796D01*
X112130227Y-43367196D01*
X112106428Y-43361235D01*
X112083329Y-43352970D01*
X112061150Y-43342480D01*
X112040107Y-43329868D01*
X112020401Y-43315253D01*
X112002223Y-43298777D01*
X111985747Y-43280599D01*
X111971132Y-43260893D01*
X111958520Y-43239850D01*
X111948030Y-43217671D01*
X111939765Y-43194572D01*
X111933804Y-43170773D01*
X111930204Y-43146505D01*
X111929000Y-43122001D01*
X111929000Y-42221999D01*
X111930204Y-42197495D01*
X111933804Y-42173227D01*
X111939765Y-42149428D01*
X111948030Y-42126329D01*
X111958520Y-42104150D01*
X111971132Y-42083107D01*
X111985747Y-42063401D01*
X112002223Y-42045223D01*
X112020401Y-42028747D01*
X112040107Y-42014132D01*
X112061150Y-42001520D01*
X112083329Y-41991030D01*
X112106428Y-41982765D01*
X112130227Y-41976804D01*
X112154495Y-41973204D01*
X112178999Y-41972000D01*
X112829001Y-41972000D01*
X112853505Y-41973204D01*
X112853505Y-41973204D01*
G37*
D11*
G04 #@! TD*
G04 #@! TO.P,R18,1*
G04 #@! TO.N,Net-(J14-Pad3)*
X112504000Y-42672000D03*
D17*
G04 #@! TO.P,U2,1*
G04 #@! TO.N,Net-(R12-Pad2)*
X127530000Y-40750000D03*
G04 #@! TO.P,U2,2*
G04 #@! TO.N,Net-(J7-Pad1)*
X126730000Y-40750000D03*
G04 #@! TO.P,U2,3*
G04 #@! TO.N,GND*
X125930000Y-40750000D03*
G04 #@! TO.P,U2,4*
G04 #@! TO.N,VCC*
X125130000Y-40750000D03*
G04 #@! TO.P,U2,5*
G04 #@! TO.N,GND*
X124330000Y-40750000D03*
G04 #@! TO.P,U2,6*
G04 #@! TO.N,VCC*
X123530000Y-40750000D03*
G04 #@! TO.P,U2,7*
G04 #@! TO.N,Net-(R13-Pad2)*
X122730000Y-40750000D03*
G04 #@! TO.P,U2,8*
G04 #@! TO.N,Net-(J6-Pad1)*
X121930000Y-40750000D03*
D18*
G04 #@! TO.P,U2,9*
G04 #@! TO.N,Net-(R16-Pad2)*
X120480000Y-42200000D03*
G04 #@! TO.P,U2,10*
G04 #@! TO.N,Net-(J14-Pad4)*
X120480000Y-43000000D03*
G04 #@! TO.P,U2,11*
G04 #@! TO.N,Net-(R17-Pad2)*
X120480000Y-43800000D03*
G04 #@! TO.P,U2,12*
G04 #@! TO.N,Net-(R9-Pad2)*
X120480000Y-44600000D03*
G04 #@! TO.P,U2,13*
G04 #@! TO.N,Net-(J14-Pad1)*
X120480000Y-45400000D03*
G04 #@! TO.P,U2,14*
G04 #@! TO.N,Net-(J8-Pad2)*
X120480000Y-46200000D03*
G04 #@! TO.P,U2,15*
G04 #@! TO.N,Net-(J4-Pad1)*
X120480000Y-47000000D03*
G04 #@! TO.P,U2,16*
G04 #@! TO.N,Net-(J4-Pad2)*
X120480000Y-47800000D03*
D17*
G04 #@! TO.P,U2,17*
G04 #@! TO.N,Net-(J4-Pad4)*
X121930000Y-49250000D03*
G04 #@! TO.P,U2,18*
G04 #@! TO.N,Net-(C7-Pad1)*
X122730000Y-49250000D03*
G04 #@! TO.P,U2,19*
G04 #@! TO.N,Net-(C5-Pad1)*
X123530000Y-49250000D03*
G04 #@! TO.P,U2,20*
G04 #@! TO.N,Net-(C4-Pad1)*
X124330000Y-49250000D03*
G04 #@! TO.P,U2,21*
G04 #@! TO.N,GND*
X125130000Y-49250000D03*
G04 #@! TO.P,U2,22*
G04 #@! TO.N,Net-(C6-Pad1)*
X125930000Y-49250000D03*
G04 #@! TO.P,U2,23*
G04 #@! TO.N,Net-(R20-Pad2)*
X126730000Y-49250000D03*
G04 #@! TO.P,U2,24*
G04 #@! TO.N,Net-(R21-Pad2)*
X127530000Y-49250000D03*
D18*
G04 #@! TO.P,U2,25*
G04 #@! TO.N,Net-(J16-Pad1)*
X128980000Y-47800000D03*
G04 #@! TO.P,U2,26*
G04 #@! TO.N,Net-(J5-Pad1)*
X128980000Y-47000000D03*
G04 #@! TO.P,U2,27*
G04 #@! TO.N,Net-(R10-Pad2)*
X128980000Y-46200000D03*
G04 #@! TO.P,U2,28*
G04 #@! TO.N,Net-(J10-Pad4)*
X128980000Y-45400000D03*
G04 #@! TO.P,U2,29*
G04 #@! TO.N,Net-(C8-Pad2)*
X128980000Y-44600000D03*
G04 #@! TO.P,U2,30*
G04 #@! TO.N,Net-(J10-Pad3)*
X128980000Y-43800000D03*
G04 #@! TO.P,U2,31*
G04 #@! TO.N,/TXD*
X128980000Y-43000000D03*
G04 #@! TO.P,U2,32*
G04 #@! TO.N,Net-(R8-Pad2)*
X128980000Y-42200000D03*
G04 #@! TD*
D19*
G04 #@! TO.P,D2,1*
G04 #@! TO.N,Net-(C5-Pad1)*
X115246000Y-58110000D03*
G04 #@! TO.P,D2,2*
G04 #@! TO.N,GND*
X115246000Y-54610000D03*
G04 #@! TD*
G04 #@! TO.P,D3,1*
G04 #@! TO.N,Net-(C6-Pad1)*
X132500000Y-53650000D03*
G04 #@! TO.P,D3,2*
G04 #@! TO.N,GND*
X132500000Y-57150000D03*
G04 #@! TD*
D14*
G04 #@! TO.P,J4,1*
G04 #@! TO.N,Net-(J4-Pad1)*
X124460000Y-60960000D03*
D15*
G04 #@! TO.P,J4,2*
G04 #@! TO.N,Net-(J4-Pad2)*
X121920000Y-60960000D03*
G04 #@! TO.P,J4,3*
G04 #@! TO.N,GND*
X119380000Y-60960000D03*
G04 #@! TO.P,J4,4*
G04 #@! TO.N,Net-(J4-Pad4)*
X116840000Y-60960000D03*
G04 #@! TO.P,J4,5*
G04 #@! TO.N,VCC*
X114300000Y-60960000D03*
G04 #@! TO.P,J4,6*
G04 #@! TO.N,Net-(C8-Pad2)*
X111760000Y-60960000D03*
G04 #@! TO.P,J4,7*
G04 #@! TO.N,/TXD*
X109220000Y-60960000D03*
G04 #@! TD*
D14*
G04 #@! TO.P,J9,1*
G04 #@! TO.N,Net-(J9-Pad1)*
X131318000Y-51562000D03*
G04 #@! TD*
G04 #@! TO.P,J15,1*
G04 #@! TO.N,Net-(J15-Pad1)*
X134874000Y-51562000D03*
G04 #@! TD*
G04 #@! TO.P,J16,1*
G04 #@! TO.N,Net-(J16-Pad1)*
X131318000Y-48514000D03*
G04 #@! TD*
D16*
G04 #@! TO.P,D4,2*
G04 #@! TO.N,GND*
X120110000Y-54036000D03*
G04 #@! TO.P,D4,*
G04 #@! TO.N,*
X120110000Y-52136000D03*
G04 #@! TO.P,D4,1*
G04 #@! TO.N,Net-(C1-Pad2)*
X118110000Y-53086000D03*
G04 #@! TD*
D10*
G04 #@! TO.N,VCC*
G04 #@! TO.C,R19*
G36*
X116806505Y-50226204D02*
X116830773Y-50229804D01*
X116854572Y-50235765D01*
X116877671Y-50244030D01*
X116899850Y-50254520D01*
X116920893Y-50267132D01*
X116940599Y-50281747D01*
X116958777Y-50298223D01*
X116975253Y-50316401D01*
X116989868Y-50336107D01*
X117002480Y-50357150D01*
X117012970Y-50379329D01*
X117021235Y-50402428D01*
X117027196Y-50426227D01*
X117030796Y-50450495D01*
X117032000Y-50474999D01*
X117032000Y-51125001D01*
X117030796Y-51149505D01*
X117027196Y-51173773D01*
X117021235Y-51197572D01*
X117012970Y-51220671D01*
X117002480Y-51242850D01*
X116989868Y-51263893D01*
X116975253Y-51283599D01*
X116958777Y-51301777D01*
X116940599Y-51318253D01*
X116920893Y-51332868D01*
X116899850Y-51345480D01*
X116877671Y-51355970D01*
X116854572Y-51364235D01*
X116830773Y-51370196D01*
X116806505Y-51373796D01*
X116782001Y-51375000D01*
X115881999Y-51375000D01*
X115857495Y-51373796D01*
X115833227Y-51370196D01*
X115809428Y-51364235D01*
X115786329Y-51355970D01*
X115764150Y-51345480D01*
X115743107Y-51332868D01*
X115723401Y-51318253D01*
X115705223Y-51301777D01*
X115688747Y-51283599D01*
X115674132Y-51263893D01*
X115661520Y-51242850D01*
X115651030Y-51220671D01*
X115642765Y-51197572D01*
X115636804Y-51173773D01*
X115633204Y-51149505D01*
X115632000Y-51125001D01*
X115632000Y-50474999D01*
X115633204Y-50450495D01*
X115636804Y-50426227D01*
X115642765Y-50402428D01*
X115651030Y-50379329D01*
X115661520Y-50357150D01*
X115674132Y-50336107D01*
X115688747Y-50316401D01*
X115705223Y-50298223D01*
X115723401Y-50281747D01*
X115743107Y-50267132D01*
X115764150Y-50254520D01*
X115786329Y-50244030D01*
X115809428Y-50235765D01*
X115833227Y-50229804D01*
X115857495Y-50226204D01*
X115881999Y-50225000D01*
X116782001Y-50225000D01*
X116806505Y-50226204D01*
X116806505Y-50226204D01*
G37*
D11*
G04 #@! TD*
G04 #@! TO.P,R19,1*
G04 #@! TO.N,VCC*
X116332000Y-50800000D03*
D10*
G04 #@! TO.N,Net-(C1-Pad2)*
G04 #@! TO.C,R19*
G36*
X116806505Y-52276204D02*
X116830773Y-52279804D01*
X116854572Y-52285765D01*
X116877671Y-52294030D01*
X116899850Y-52304520D01*
X116920893Y-52317132D01*
X116940599Y-52331747D01*
X116958777Y-52348223D01*
X116975253Y-52366401D01*
X116989868Y-52386107D01*
X117002480Y-52407150D01*
X117012970Y-52429329D01*
X117021235Y-52452428D01*
X117027196Y-52476227D01*
X117030796Y-52500495D01*
X117032000Y-52524999D01*
X117032000Y-53175001D01*
X117030796Y-53199505D01*
X117027196Y-53223773D01*
X117021235Y-53247572D01*
X117012970Y-53270671D01*
X117002480Y-53292850D01*
X116989868Y-53313893D01*
X116975253Y-53333599D01*
X116958777Y-53351777D01*
X116940599Y-53368253D01*
X116920893Y-53382868D01*
X116899850Y-53395480D01*
X116877671Y-53405970D01*
X116854572Y-53414235D01*
X116830773Y-53420196D01*
X116806505Y-53423796D01*
X116782001Y-53425000D01*
X115881999Y-53425000D01*
X115857495Y-53423796D01*
X115833227Y-53420196D01*
X115809428Y-53414235D01*
X115786329Y-53405970D01*
X115764150Y-53395480D01*
X115743107Y-53382868D01*
X115723401Y-53368253D01*
X115705223Y-53351777D01*
X115688747Y-53333599D01*
X115674132Y-53313893D01*
X115661520Y-53292850D01*
X115651030Y-53270671D01*
X115642765Y-53247572D01*
X115636804Y-53223773D01*
X115633204Y-53199505D01*
X115632000Y-53175001D01*
X115632000Y-52524999D01*
X115633204Y-52500495D01*
X115636804Y-52476227D01*
X115642765Y-52452428D01*
X115651030Y-52429329D01*
X115661520Y-52407150D01*
X115674132Y-52386107D01*
X115688747Y-52366401D01*
X115705223Y-52348223D01*
X115723401Y-52331747D01*
X115743107Y-52317132D01*
X115764150Y-52304520D01*
X115786329Y-52294030D01*
X115809428Y-52285765D01*
X115833227Y-52279804D01*
X115857495Y-52276204D01*
X115881999Y-52275000D01*
X116782001Y-52275000D01*
X116806505Y-52276204D01*
X116806505Y-52276204D01*
G37*
D11*
G04 #@! TD*
G04 #@! TO.P,R19,2*
G04 #@! TO.N,Net-(C1-Pad2)*
X116332000Y-52850000D03*
D10*
G04 #@! TO.N,VCC*
G04 #@! TO.C,D1*
G36*
X116426504Y-46986204D02*
X116450773Y-46989804D01*
X116474571Y-46995765D01*
X116497671Y-47004030D01*
X116519849Y-47014520D01*
X116540893Y-47027133D01*
X116560598Y-47041747D01*
X116578777Y-47058223D01*
X116595253Y-47076402D01*
X116609867Y-47096107D01*
X116622480Y-47117151D01*
X116632970Y-47139329D01*
X116641235Y-47162429D01*
X116647196Y-47186227D01*
X116650796Y-47210496D01*
X116652000Y-47235000D01*
X116652000Y-49285000D01*
X116650796Y-49309504D01*
X116647196Y-49333773D01*
X116641235Y-49357571D01*
X116632970Y-49380671D01*
X116622480Y-49402849D01*
X116609867Y-49423893D01*
X116595253Y-49443598D01*
X116578777Y-49461777D01*
X116560598Y-49478253D01*
X116540893Y-49492867D01*
X116519849Y-49505480D01*
X116497671Y-49515970D01*
X116474571Y-49524235D01*
X116450773Y-49530196D01*
X116426504Y-49533796D01*
X116402000Y-49535000D01*
X115202000Y-49535000D01*
X115177496Y-49533796D01*
X115153227Y-49530196D01*
X115129429Y-49524235D01*
X115106329Y-49515970D01*
X115084151Y-49505480D01*
X115063107Y-49492867D01*
X115043402Y-49478253D01*
X115025223Y-49461777D01*
X115008747Y-49443598D01*
X114994133Y-49423893D01*
X114981520Y-49402849D01*
X114971030Y-49380671D01*
X114962765Y-49357571D01*
X114956804Y-49333773D01*
X114953204Y-49309504D01*
X114952000Y-49285000D01*
X114952000Y-47235000D01*
X114953204Y-47210496D01*
X114956804Y-47186227D01*
X114962765Y-47162429D01*
X114971030Y-47139329D01*
X114981520Y-47117151D01*
X114994133Y-47096107D01*
X115008747Y-47076402D01*
X115025223Y-47058223D01*
X115043402Y-47041747D01*
X115063107Y-47027133D01*
X115084151Y-47014520D01*
X115106329Y-47004030D01*
X115129429Y-46995765D01*
X115153227Y-46989804D01*
X115177496Y-46986204D01*
X115202000Y-46985000D01*
X116402000Y-46985000D01*
X116426504Y-46986204D01*
X116426504Y-46986204D01*
G37*
D20*
G04 #@! TD*
G04 #@! TO.P,D1,1*
G04 #@! TO.N,VCC*
X115802000Y-48260000D03*
D10*
G04 #@! TO.N,Net-(D1-Pad2)*
G04 #@! TO.C,D1*
G36*
X111876504Y-46986204D02*
X111900773Y-46989804D01*
X111924571Y-46995765D01*
X111947671Y-47004030D01*
X111969849Y-47014520D01*
X111990893Y-47027133D01*
X112010598Y-47041747D01*
X112028777Y-47058223D01*
X112045253Y-47076402D01*
X112059867Y-47096107D01*
X112072480Y-47117151D01*
X112082970Y-47139329D01*
X112091235Y-47162429D01*
X112097196Y-47186227D01*
X112100796Y-47210496D01*
X112102000Y-47235000D01*
X112102000Y-49285000D01*
X112100796Y-49309504D01*
X112097196Y-49333773D01*
X112091235Y-49357571D01*
X112082970Y-49380671D01*
X112072480Y-49402849D01*
X112059867Y-49423893D01*
X112045253Y-49443598D01*
X112028777Y-49461777D01*
X112010598Y-49478253D01*
X111990893Y-49492867D01*
X111969849Y-49505480D01*
X111947671Y-49515970D01*
X111924571Y-49524235D01*
X111900773Y-49530196D01*
X111876504Y-49533796D01*
X111852000Y-49535000D01*
X110652000Y-49535000D01*
X110627496Y-49533796D01*
X110603227Y-49530196D01*
X110579429Y-49524235D01*
X110556329Y-49515970D01*
X110534151Y-49505480D01*
X110513107Y-49492867D01*
X110493402Y-49478253D01*
X110475223Y-49461777D01*
X110458747Y-49443598D01*
X110444133Y-49423893D01*
X110431520Y-49402849D01*
X110421030Y-49380671D01*
X110412765Y-49357571D01*
X110406804Y-49333773D01*
X110403204Y-49309504D01*
X110402000Y-49285000D01*
X110402000Y-47235000D01*
X110403204Y-47210496D01*
X110406804Y-47186227D01*
X110412765Y-47162429D01*
X110421030Y-47139329D01*
X110431520Y-47117151D01*
X110444133Y-47096107D01*
X110458747Y-47076402D01*
X110475223Y-47058223D01*
X110493402Y-47041747D01*
X110513107Y-47027133D01*
X110534151Y-47014520D01*
X110556329Y-47004030D01*
X110579429Y-46995765D01*
X110603227Y-46989804D01*
X110627496Y-46986204D01*
X110652000Y-46985000D01*
X111852000Y-46985000D01*
X111876504Y-46986204D01*
X111876504Y-46986204D01*
G37*
D20*
G04 #@! TD*
G04 #@! TO.P,D1,2*
G04 #@! TO.N,Net-(D1-Pad2)*
X111252000Y-48260000D03*
D10*
G04 #@! TO.N,Net-(R20-Pad2)*
G04 #@! TO.C,R20*
G36*
X127839505Y-50863204D02*
X127863773Y-50866804D01*
X127887572Y-50872765D01*
X127910671Y-50881030D01*
X127932850Y-50891520D01*
X127953893Y-50904132D01*
X127973599Y-50918747D01*
X127991777Y-50935223D01*
X128008253Y-50953401D01*
X128022868Y-50973107D01*
X128035480Y-50994150D01*
X128045970Y-51016329D01*
X128054235Y-51039428D01*
X128060196Y-51063227D01*
X128063796Y-51087495D01*
X128065000Y-51111999D01*
X128065000Y-52012001D01*
X128063796Y-52036505D01*
X128060196Y-52060773D01*
X128054235Y-52084572D01*
X128045970Y-52107671D01*
X128035480Y-52129850D01*
X128022868Y-52150893D01*
X128008253Y-52170599D01*
X127991777Y-52188777D01*
X127973599Y-52205253D01*
X127953893Y-52219868D01*
X127932850Y-52232480D01*
X127910671Y-52242970D01*
X127887572Y-52251235D01*
X127863773Y-52257196D01*
X127839505Y-52260796D01*
X127815001Y-52262000D01*
X127164999Y-52262000D01*
X127140495Y-52260796D01*
X127116227Y-52257196D01*
X127092428Y-52251235D01*
X127069329Y-52242970D01*
X127047150Y-52232480D01*
X127026107Y-52219868D01*
X127006401Y-52205253D01*
X126988223Y-52188777D01*
X126971747Y-52170599D01*
X126957132Y-52150893D01*
X126944520Y-52129850D01*
X126934030Y-52107671D01*
X126925765Y-52084572D01*
X126919804Y-52060773D01*
X126916204Y-52036505D01*
X126915000Y-52012001D01*
X126915000Y-51111999D01*
X126916204Y-51087495D01*
X126919804Y-51063227D01*
X126925765Y-51039428D01*
X126934030Y-51016329D01*
X126944520Y-50994150D01*
X126957132Y-50973107D01*
X126971747Y-50953401D01*
X126988223Y-50935223D01*
X127006401Y-50918747D01*
X127026107Y-50904132D01*
X127047150Y-50891520D01*
X127069329Y-50881030D01*
X127092428Y-50872765D01*
X127116227Y-50866804D01*
X127140495Y-50863204D01*
X127164999Y-50862000D01*
X127815001Y-50862000D01*
X127839505Y-50863204D01*
X127839505Y-50863204D01*
G37*
D11*
G04 #@! TD*
G04 #@! TO.P,R20,2*
G04 #@! TO.N,Net-(R20-Pad2)*
X127490000Y-51562000D03*
D10*
G04 #@! TO.N,Net-(J9-Pad1)*
G04 #@! TO.C,R20*
G36*
X129889505Y-50863204D02*
X129913773Y-50866804D01*
X129937572Y-50872765D01*
X129960671Y-50881030D01*
X129982850Y-50891520D01*
X130003893Y-50904132D01*
X130023599Y-50918747D01*
X130041777Y-50935223D01*
X130058253Y-50953401D01*
X130072868Y-50973107D01*
X130085480Y-50994150D01*
X130095970Y-51016329D01*
X130104235Y-51039428D01*
X130110196Y-51063227D01*
X130113796Y-51087495D01*
X130115000Y-51111999D01*
X130115000Y-52012001D01*
X130113796Y-52036505D01*
X130110196Y-52060773D01*
X130104235Y-52084572D01*
X130095970Y-52107671D01*
X130085480Y-52129850D01*
X130072868Y-52150893D01*
X130058253Y-52170599D01*
X130041777Y-52188777D01*
X130023599Y-52205253D01*
X130003893Y-52219868D01*
X129982850Y-52232480D01*
X129960671Y-52242970D01*
X129937572Y-52251235D01*
X129913773Y-52257196D01*
X129889505Y-52260796D01*
X129865001Y-52262000D01*
X129214999Y-52262000D01*
X129190495Y-52260796D01*
X129166227Y-52257196D01*
X129142428Y-52251235D01*
X129119329Y-52242970D01*
X129097150Y-52232480D01*
X129076107Y-52219868D01*
X129056401Y-52205253D01*
X129038223Y-52188777D01*
X129021747Y-52170599D01*
X129007132Y-52150893D01*
X128994520Y-52129850D01*
X128984030Y-52107671D01*
X128975765Y-52084572D01*
X128969804Y-52060773D01*
X128966204Y-52036505D01*
X128965000Y-52012001D01*
X128965000Y-51111999D01*
X128966204Y-51087495D01*
X128969804Y-51063227D01*
X128975765Y-51039428D01*
X128984030Y-51016329D01*
X128994520Y-50994150D01*
X129007132Y-50973107D01*
X129021747Y-50953401D01*
X129038223Y-50935223D01*
X129056401Y-50918747D01*
X129076107Y-50904132D01*
X129097150Y-50891520D01*
X129119329Y-50881030D01*
X129142428Y-50872765D01*
X129166227Y-50866804D01*
X129190495Y-50863204D01*
X129214999Y-50862000D01*
X129865001Y-50862000D01*
X129889505Y-50863204D01*
X129889505Y-50863204D01*
G37*
D11*
G04 #@! TD*
G04 #@! TO.P,R20,1*
G04 #@! TO.N,Net-(J9-Pad1)*
X129540000Y-51562000D03*
D10*
G04 #@! TO.N,Net-(J15-Pad1)*
G04 #@! TO.C,R21*
G36*
X135731505Y-48831204D02*
X135755773Y-48834804D01*
X135779572Y-48840765D01*
X135802671Y-48849030D01*
X135824850Y-48859520D01*
X135845893Y-48872132D01*
X135865599Y-48886747D01*
X135883777Y-48903223D01*
X135900253Y-48921401D01*
X135914868Y-48941107D01*
X135927480Y-48962150D01*
X135937970Y-48984329D01*
X135946235Y-49007428D01*
X135952196Y-49031227D01*
X135955796Y-49055495D01*
X135957000Y-49079999D01*
X135957000Y-49980001D01*
X135955796Y-50004505D01*
X135952196Y-50028773D01*
X135946235Y-50052572D01*
X135937970Y-50075671D01*
X135927480Y-50097850D01*
X135914868Y-50118893D01*
X135900253Y-50138599D01*
X135883777Y-50156777D01*
X135865599Y-50173253D01*
X135845893Y-50187868D01*
X135824850Y-50200480D01*
X135802671Y-50210970D01*
X135779572Y-50219235D01*
X135755773Y-50225196D01*
X135731505Y-50228796D01*
X135707001Y-50230000D01*
X135056999Y-50230000D01*
X135032495Y-50228796D01*
X135008227Y-50225196D01*
X134984428Y-50219235D01*
X134961329Y-50210970D01*
X134939150Y-50200480D01*
X134918107Y-50187868D01*
X134898401Y-50173253D01*
X134880223Y-50156777D01*
X134863747Y-50138599D01*
X134849132Y-50118893D01*
X134836520Y-50097850D01*
X134826030Y-50075671D01*
X134817765Y-50052572D01*
X134811804Y-50028773D01*
X134808204Y-50004505D01*
X134807000Y-49980001D01*
X134807000Y-49079999D01*
X134808204Y-49055495D01*
X134811804Y-49031227D01*
X134817765Y-49007428D01*
X134826030Y-48984329D01*
X134836520Y-48962150D01*
X134849132Y-48941107D01*
X134863747Y-48921401D01*
X134880223Y-48903223D01*
X134898401Y-48886747D01*
X134918107Y-48872132D01*
X134939150Y-48859520D01*
X134961329Y-48849030D01*
X134984428Y-48840765D01*
X135008227Y-48834804D01*
X135032495Y-48831204D01*
X135056999Y-48830000D01*
X135707001Y-48830000D01*
X135731505Y-48831204D01*
X135731505Y-48831204D01*
G37*
D11*
G04 #@! TD*
G04 #@! TO.P,R21,1*
G04 #@! TO.N,Net-(J15-Pad1)*
X135382000Y-49530000D03*
D10*
G04 #@! TO.N,Net-(R21-Pad2)*
G04 #@! TO.C,R21*
G36*
X133681505Y-48831204D02*
X133705773Y-48834804D01*
X133729572Y-48840765D01*
X133752671Y-48849030D01*
X133774850Y-48859520D01*
X133795893Y-48872132D01*
X133815599Y-48886747D01*
X133833777Y-48903223D01*
X133850253Y-48921401D01*
X133864868Y-48941107D01*
X133877480Y-48962150D01*
X133887970Y-48984329D01*
X133896235Y-49007428D01*
X133902196Y-49031227D01*
X133905796Y-49055495D01*
X133907000Y-49079999D01*
X133907000Y-49980001D01*
X133905796Y-50004505D01*
X133902196Y-50028773D01*
X133896235Y-50052572D01*
X133887970Y-50075671D01*
X133877480Y-50097850D01*
X133864868Y-50118893D01*
X133850253Y-50138599D01*
X133833777Y-50156777D01*
X133815599Y-50173253D01*
X133795893Y-50187868D01*
X133774850Y-50200480D01*
X133752671Y-50210970D01*
X133729572Y-50219235D01*
X133705773Y-50225196D01*
X133681505Y-50228796D01*
X133657001Y-50230000D01*
X133006999Y-50230000D01*
X132982495Y-50228796D01*
X132958227Y-50225196D01*
X132934428Y-50219235D01*
X132911329Y-50210970D01*
X132889150Y-50200480D01*
X132868107Y-50187868D01*
X132848401Y-50173253D01*
X132830223Y-50156777D01*
X132813747Y-50138599D01*
X132799132Y-50118893D01*
X132786520Y-50097850D01*
X132776030Y-50075671D01*
X132767765Y-50052572D01*
X132761804Y-50028773D01*
X132758204Y-50004505D01*
X132757000Y-49980001D01*
X132757000Y-49079999D01*
X132758204Y-49055495D01*
X132761804Y-49031227D01*
X132767765Y-49007428D01*
X132776030Y-48984329D01*
X132786520Y-48962150D01*
X132799132Y-48941107D01*
X132813747Y-48921401D01*
X132830223Y-48903223D01*
X132848401Y-48886747D01*
X132868107Y-48872132D01*
X132889150Y-48859520D01*
X132911329Y-48849030D01*
X132934428Y-48840765D01*
X132958227Y-48834804D01*
X132982495Y-48831204D01*
X133006999Y-48830000D01*
X133657001Y-48830000D01*
X133681505Y-48831204D01*
X133681505Y-48831204D01*
G37*
D11*
G04 #@! TD*
G04 #@! TO.P,R21,2*
G04 #@! TO.N,Net-(R21-Pad2)*
X133332000Y-49530000D03*
D21*
G04 #@! TO.N,GND*
X134620000Y-40386000D03*
X117602000Y-36322000D03*
X127254000Y-46228000D03*
X114046000Y-43688000D03*
G04 #@! TO.N,VCC*
X116586000Y-50546000D03*
X123190000Y-42418000D03*
G04 #@! TO.N,Net-(C8-Pad2)*
X134620000Y-43942000D03*
X127254000Y-44704000D03*
G04 #@! TO.N,Net-(J4-Pad4)*
X121666000Y-50038000D03*
X121666000Y-58166000D03*
G04 #@! TO.N,Net-(J4-Pad2)*
X122682000Y-47752000D03*
G04 #@! TO.N,Net-(J4-Pad1)*
X123952000Y-47244000D03*
G04 #@! TO.N,/TXD*
X127254000Y-43180000D03*
X117602000Y-58420000D03*
G04 #@! TO.N,Net-(J8-Pad2)*
X122654000Y-46200000D03*
G04 #@! TO.N,Net-(C1-Pad2)*
X119126000Y-53086000D03*
X119126000Y-56896000D03*
G04 #@! TD*
D22*
G04 #@! TO.N,GND*
X124330000Y-40750000D02*
X124330000Y-44600000D01*
X124330000Y-44600000D02*
X125130000Y-45400000D01*
X135255000Y-39370000D02*
X134620000Y-40005000D01*
X135255000Y-38245000D02*
X135255000Y-39370000D01*
X114554000Y-43942000D02*
X114046000Y-44450000D01*
X114554000Y-42672000D02*
X114554000Y-43942000D01*
D23*
X113296000Y-54610000D02*
X115246000Y-54610000D01*
X115246000Y-54610000D02*
X117348000Y-54610000D01*
D22*
X131875000Y-56525000D02*
X132500000Y-57150000D01*
X130302000Y-56525000D02*
X131875000Y-56525000D01*
X134348000Y-57150000D02*
X132500000Y-57150000D01*
X130302000Y-58148000D02*
X130320000Y-58166000D01*
X130302000Y-56525000D02*
X130302000Y-58148000D01*
X125476000Y-50800000D02*
X125130000Y-50454000D01*
X125130000Y-50454000D02*
X125130000Y-49250000D01*
X124206000Y-53594000D02*
X124714000Y-53594000D01*
X125476000Y-52832000D02*
X125476000Y-50800000D01*
X124714000Y-53594000D02*
X125476000Y-52832000D01*
D23*
X109220000Y-50800000D02*
X111760000Y-50800000D01*
X121224000Y-54036000D02*
X121666000Y-53594000D01*
X120110000Y-54036000D02*
X121224000Y-54036000D01*
D22*
X113296000Y-53467370D02*
X113296000Y-54610000D01*
X111760000Y-50800000D02*
X111760000Y-51931370D01*
X111760000Y-51931370D02*
X113296000Y-53467370D01*
X119536000Y-54610000D02*
X120110000Y-54036000D01*
X117348000Y-54610000D02*
X119536000Y-54610000D01*
X126746000Y-54102000D02*
X125476000Y-52832000D01*
X126746000Y-55118000D02*
X126746000Y-54102000D01*
X127254000Y-55626000D02*
X126746000Y-55118000D01*
X130078000Y-55626000D02*
X127254000Y-55626000D01*
X130302000Y-56525000D02*
X130302000Y-55850000D01*
X130302000Y-55850000D02*
X130078000Y-55626000D01*
X116205000Y-36195000D02*
X117475000Y-36195000D01*
X117475000Y-36195000D02*
X117602000Y-36322000D01*
X125130000Y-45400000D02*
X125156000Y-45400000D01*
X125156000Y-45400000D02*
X125984000Y-46228000D01*
X125984000Y-46228000D02*
X127254000Y-46228000D01*
X114554000Y-42672000D02*
X114554000Y-43180000D01*
X114554000Y-43180000D02*
X114046000Y-43688000D01*
X125930000Y-44904000D02*
X127254000Y-46228000D01*
X125930000Y-40750000D02*
X125930000Y-44904000D01*
X127102000Y-46228000D02*
X127254000Y-46228000D01*
X125130000Y-48200000D02*
X127102000Y-46228000D01*
X125130000Y-49250000D02*
X125130000Y-48200000D01*
G04 #@! TO.N,VCC*
X125130000Y-39700000D02*
X124800000Y-39370000D01*
X125130000Y-40750000D02*
X125130000Y-39700000D01*
X123530000Y-39700000D02*
X123530000Y-40750000D01*
X123860000Y-39370000D02*
X123530000Y-39700000D01*
X124800000Y-39370000D02*
X123860000Y-39370000D01*
D23*
X114752000Y-50548000D02*
X114500000Y-50800000D01*
X114260000Y-49802000D02*
X115802000Y-48260000D01*
X114260000Y-50800000D02*
X114260000Y-49802000D01*
X114260000Y-50800000D02*
X116078000Y-50800000D01*
X117584000Y-50800000D02*
X118092000Y-50292000D01*
X116332000Y-50800000D02*
X117584000Y-50800000D01*
X114300000Y-62162081D02*
X114300000Y-60960000D01*
X138430000Y-62162081D02*
X138332080Y-62260001D01*
X138430000Y-60960000D02*
X138430000Y-62162081D01*
X114397920Y-62260001D02*
X114300000Y-62162081D01*
X138332080Y-62260001D02*
X114397920Y-62260001D01*
D22*
X123530000Y-40750000D02*
X123530000Y-42078000D01*
X123530000Y-42078000D02*
X123190000Y-42418000D01*
G04 #@! TO.N,Net-(C4-Pad1)*
X124330000Y-51420000D02*
X124206000Y-51544000D01*
X124330000Y-49250000D02*
X124330000Y-51420000D01*
G04 #@! TO.N,Net-(C5-Pad1)*
X114231000Y-58110000D02*
X113271000Y-57150000D01*
X115246000Y-58110000D02*
X114231000Y-58110000D01*
X115898000Y-58110000D02*
X115246000Y-58110000D01*
X117348000Y-56660000D02*
X115898000Y-58110000D01*
X122936000Y-54864000D02*
X123698000Y-55626000D01*
X122936000Y-50894000D02*
X122936000Y-54864000D01*
X123530000Y-49250000D02*
X123530000Y-50300000D01*
X123530000Y-50300000D02*
X122936000Y-50894000D01*
X117838000Y-56660000D02*
X117348000Y-56660000D01*
X123698000Y-55626000D02*
X118872000Y-55626000D01*
X118872000Y-55626000D02*
X117838000Y-56660000D01*
G04 #@! TO.N,Net-(C6-Pad1)*
X133388000Y-53650000D02*
X134348000Y-54610000D01*
X132500000Y-53650000D02*
X133388000Y-53650000D01*
X131127000Y-53650000D02*
X130302000Y-54475000D01*
X132500000Y-53650000D02*
X131127000Y-53650000D01*
X128405000Y-54475000D02*
X128270000Y-54610000D01*
X130302000Y-54475000D02*
X128405000Y-54475000D01*
X125930000Y-50300000D02*
X126238000Y-50608000D01*
X125930000Y-49250000D02*
X125930000Y-50300000D01*
X126238000Y-50608000D02*
X126238000Y-52324000D01*
X126238000Y-52324000D02*
X127254000Y-53340000D01*
X127254000Y-53340000D02*
X128016000Y-53340000D01*
X128270000Y-53594000D02*
X128270000Y-54610000D01*
X128016000Y-53340000D02*
X128270000Y-53594000D01*
G04 #@! TO.N,Net-(C7-Pad1)*
X120414000Y-50292000D02*
X121666000Y-51544000D01*
X120142000Y-50292000D02*
X120414000Y-50292000D01*
X122289372Y-50920628D02*
X121666000Y-51544000D01*
X122289372Y-50740628D02*
X122289372Y-50920628D01*
X122730000Y-50300000D02*
X122289372Y-50740628D01*
X122730000Y-49250000D02*
X122730000Y-50300000D01*
G04 #@! TO.N,Net-(C8-Pad2)*
X134620000Y-43942000D02*
X130688000Y-43942000D01*
X130030000Y-44600000D02*
X128980000Y-44600000D01*
X130688000Y-43942000D02*
X130030000Y-44600000D01*
X128980000Y-44600000D02*
X127358000Y-44600000D01*
X127358000Y-44600000D02*
X127254000Y-44704000D01*
D23*
G04 #@! TO.N,Net-(D1-Pad2)*
X109220000Y-48260000D02*
X111252000Y-48260000D01*
D22*
G04 #@! TO.N,Net-(J1-Pad1)*
X111246000Y-54610000D02*
X109220000Y-54610000D01*
G04 #@! TO.N,Net-(J1-Pad2)*
X111221000Y-57150000D02*
X109220000Y-57150000D01*
G04 #@! TO.N,Net-(J2-Pad1)*
X136398000Y-57150000D02*
X138430000Y-57150000D01*
G04 #@! TO.N,Net-(J2-Pad2)*
X138430000Y-54610000D02*
X136398000Y-54610000D01*
G04 #@! TO.N,Net-(J4-Pad4)*
X133350000Y-60960000D02*
X133350000Y-60198000D01*
X133350000Y-60198000D02*
X132588000Y-59436000D01*
X121930000Y-49250000D02*
X121930000Y-49774000D01*
X121930000Y-49774000D02*
X121666000Y-50038000D01*
X121266001Y-58565999D02*
X121266001Y-59327999D01*
X121266001Y-59327999D02*
X121158000Y-59436000D01*
X121666000Y-58166000D02*
X121266001Y-58565999D01*
X132588000Y-59436000D02*
X121158000Y-59436000D01*
X117689999Y-60110001D02*
X117689999Y-59856001D01*
X116840000Y-60960000D02*
X117689999Y-60110001D01*
X118110000Y-59436000D02*
X121158000Y-59436000D01*
X117689999Y-59856001D02*
X118110000Y-59436000D01*
G04 #@! TO.N,Net-(J5-Pad1)*
X138430000Y-50970000D02*
X137752000Y-50292000D01*
X138430000Y-52070000D02*
X138430000Y-50970000D01*
X137752000Y-50292000D02*
X137414000Y-50292000D01*
X137414000Y-50292000D02*
X136652000Y-49530000D01*
X136652000Y-49530000D02*
X136652000Y-48006000D01*
X136652000Y-48006000D02*
X136144000Y-47498000D01*
X136144000Y-47498000D02*
X133096000Y-47498000D01*
X132598000Y-47000000D02*
X128980000Y-47000000D01*
X133096000Y-47498000D02*
X132598000Y-47000000D01*
G04 #@! TO.N,Net-(J6-Pad1)*
X121405000Y-40750000D02*
X121930000Y-40750000D01*
X120650000Y-39995000D02*
X121405000Y-40750000D01*
X120650000Y-36500000D02*
X120650000Y-39995000D01*
G04 #@! TO.N,Net-(J7-Pad1)*
X126730000Y-40750000D02*
X126730000Y-39640000D01*
X126730000Y-39640000D02*
X128270000Y-38100000D01*
X129540000Y-37600000D02*
X129040000Y-38100000D01*
X129540000Y-36500000D02*
X129540000Y-37600000D01*
X129040000Y-38100000D02*
X128270000Y-38100000D01*
G04 #@! TO.N,Net-(J10-Pad1)*
X133515000Y-36195000D02*
X135255000Y-36195000D01*
X132715000Y-36195000D02*
X133515000Y-36195000D01*
X137795000Y-36195000D02*
X138430000Y-36830000D01*
X135255000Y-36195000D02*
X137795000Y-36195000D01*
G04 #@! TO.N,Net-(J10-Pad2)*
X133622000Y-42055000D02*
X132842000Y-41275000D01*
X134620000Y-42055000D02*
X133622000Y-42055000D01*
X137227919Y-39370000D02*
X136652000Y-39945919D01*
X138430000Y-39370000D02*
X137227919Y-39370000D01*
X136652000Y-40023000D02*
X136398000Y-40277000D01*
X136652000Y-39945919D02*
X136652000Y-40023000D01*
X136398000Y-40277000D02*
X136398000Y-41148000D01*
X135491000Y-42055000D02*
X134620000Y-42055000D01*
X136398000Y-41148000D02*
X135491000Y-42055000D01*
G04 #@! TO.N,Net-(J10-Pad3)*
X130030000Y-43800000D02*
X130650000Y-43180000D01*
X128980000Y-43800000D02*
X130030000Y-43800000D01*
X130650000Y-43180000D02*
X135890000Y-43180000D01*
X137160000Y-41910000D02*
X138430000Y-41910000D01*
X135890000Y-43180000D02*
X137160000Y-41910000D01*
G04 #@! TO.N,Net-(J10-Pad4)*
X130030000Y-45400000D02*
X130726000Y-44704000D01*
X128980000Y-45400000D02*
X130030000Y-45400000D01*
X130726000Y-44704000D02*
X136144000Y-44704000D01*
X136398000Y-44450000D02*
X138430000Y-44450000D01*
X136144000Y-44704000D02*
X136398000Y-44450000D01*
G04 #@! TO.N,Net-(J11-Pad1)*
X123386000Y-36304000D02*
X123190000Y-36500000D01*
X125476000Y-36304000D02*
X123386000Y-36304000D01*
G04 #@! TO.N,Net-(J12-Pad1)*
X138430000Y-48260000D02*
X137414000Y-47244000D01*
X135890000Y-45974000D02*
X136652000Y-45974000D01*
X137414000Y-46736000D02*
X137414000Y-47244000D01*
X136652000Y-45974000D02*
X137414000Y-46736000D01*
G04 #@! TO.N,Net-(J13-Pad1)*
X112710000Y-37145000D02*
X112395000Y-36830000D01*
X114205000Y-37145000D02*
X112710000Y-37145000D01*
G04 #@! TO.N,Net-(J14-Pad4)*
X119430000Y-43000000D02*
X120480000Y-43000000D01*
X118364000Y-41934000D02*
X119430000Y-43000000D01*
X111506000Y-39116000D02*
X115062000Y-39116000D01*
X118364000Y-41910000D02*
X118364000Y-41934000D01*
X109220000Y-36830000D02*
X111506000Y-39116000D01*
X115062000Y-39116000D02*
X116332000Y-40386000D01*
X116332000Y-40386000D02*
X116332000Y-40894000D01*
X116332000Y-40894000D02*
X117348000Y-41910000D01*
X117348000Y-41910000D02*
X118364000Y-41910000D01*
G04 #@! TO.N,Net-(J14-Pad3)*
X111252000Y-40640000D02*
X111950000Y-40640000D01*
X109220000Y-39370000D02*
X109982000Y-39370000D01*
X109982000Y-39370000D02*
X111252000Y-40640000D01*
X112504000Y-41194000D02*
X111950000Y-40640000D01*
X112504000Y-42672000D02*
X112504000Y-41194000D01*
G04 #@! TO.N,Net-(J14-Pad2)*
X110422081Y-41910000D02*
X110930081Y-42418000D01*
X109220000Y-41910000D02*
X110422081Y-41910000D01*
X110930081Y-43384081D02*
X111996000Y-44450000D01*
X110930081Y-42418000D02*
X110930081Y-43384081D01*
X116078000Y-45466000D02*
X116078000Y-44450000D01*
X113030000Y-45720000D02*
X115824000Y-45720000D01*
X115824000Y-45720000D02*
X116078000Y-45466000D01*
X112619372Y-45309372D02*
X113030000Y-45720000D01*
X111996000Y-44450000D02*
X112619372Y-45073372D01*
X112619372Y-45073372D02*
X112619372Y-45309372D01*
G04 #@! TO.N,Net-(J14-Pad1)*
X119192000Y-45400000D02*
X120480000Y-45400000D01*
X109474000Y-44450000D02*
X111506000Y-46482000D01*
X109220000Y-44450000D02*
X109474000Y-44450000D01*
X111506000Y-46482000D02*
X117094000Y-46482000D01*
X117094000Y-46482000D02*
X117856000Y-45720000D01*
X117856000Y-45720000D02*
X118872000Y-45720000D01*
X118872000Y-45720000D02*
X119192000Y-45400000D01*
G04 #@! TO.N,Net-(Q1-Pad1)*
X116210000Y-38100000D02*
X116205000Y-38095000D01*
X118110000Y-38100000D02*
X116210000Y-38100000D01*
G04 #@! TO.N,Net-(R8-Pad2)*
X130117000Y-41275000D02*
X130792000Y-41275000D01*
X129380000Y-41275000D02*
X130117000Y-41275000D01*
X128980000Y-41675000D02*
X129380000Y-41275000D01*
X128980000Y-42200000D02*
X128980000Y-41675000D01*
G04 #@! TO.N,Net-(R9-Pad2)*
X118278000Y-44600000D02*
X118128000Y-44450000D01*
X120480000Y-44600000D02*
X118278000Y-44600000D01*
G04 #@! TO.N,Net-(R10-Pad2)*
X133614000Y-46200000D02*
X133840000Y-45974000D01*
X128980000Y-46200000D02*
X133614000Y-46200000D01*
G04 #@! TO.N,Net-(R12-Pad2)*
X127530000Y-40750000D02*
X127530000Y-40364000D01*
X127530000Y-40364000D02*
X128778000Y-39116000D01*
X131844000Y-39116000D02*
X132715000Y-38245000D01*
X128778000Y-39116000D02*
X131844000Y-39116000D01*
G04 #@! TO.N,Net-(R13-Pad2)*
X125476000Y-38354000D02*
X123444000Y-38354000D01*
X122730000Y-39068000D02*
X122730000Y-40750000D01*
X123444000Y-38354000D02*
X122730000Y-39068000D01*
G04 #@! TO.N,Net-(R16-Pad2)*
X120480000Y-41675000D02*
X120480000Y-42200000D01*
X119578372Y-40773372D02*
X120480000Y-41675000D01*
X118733372Y-40773372D02*
X119578372Y-40773372D01*
X118110000Y-40150000D02*
X118733372Y-40773372D01*
G04 #@! TO.N,Net-(R17-Pad2)*
X119238000Y-43800000D02*
X120480000Y-43800000D01*
X118364000Y-42926000D02*
X119238000Y-43800000D01*
X116961000Y-42926000D02*
X118364000Y-42926000D01*
X114000000Y-40640000D02*
X114675000Y-40640000D01*
X114675000Y-40640000D02*
X116961000Y-42926000D01*
G04 #@! TO.N,Net-(J4-Pad2)*
X121920000Y-47752000D02*
X122682000Y-47752000D01*
X121872000Y-47800000D02*
X121920000Y-47752000D01*
X120480000Y-47800000D02*
X121872000Y-47800000D01*
G04 #@! TO.N,Net-(J4-Pad1)*
X128270000Y-60960000D02*
X124460000Y-60960000D01*
X123708000Y-47000000D02*
X123952000Y-47244000D01*
X120480000Y-47000000D02*
X123708000Y-47000000D01*
G04 #@! TO.N,/TXD*
X128980000Y-43000000D02*
X127688000Y-43000000D01*
X127688000Y-43000000D02*
X127508000Y-43180000D01*
X127508000Y-43180000D02*
X127254000Y-43180000D01*
X109220000Y-60960000D02*
X109220000Y-60198000D01*
X109220000Y-60198000D02*
X109728000Y-59690000D01*
X109728000Y-59690000D02*
X116332000Y-59690000D01*
X116332000Y-59690000D02*
X117602000Y-58420000D01*
G04 #@! TO.N,Net-(J8-Pad2)*
X120480000Y-46200000D02*
X122654000Y-46200000D01*
G04 #@! TO.N,Net-(J9-Pad1)*
X131318000Y-51562000D02*
X129540000Y-51562000D01*
G04 #@! TO.N,Net-(J15-Pad1)*
X135382000Y-51054000D02*
X134874000Y-51562000D01*
X135382000Y-49530000D02*
X135382000Y-51054000D01*
G04 #@! TO.N,Net-(J16-Pad1)*
X130604000Y-47800000D02*
X131318000Y-48514000D01*
X128980000Y-47800000D02*
X130604000Y-47800000D01*
G04 #@! TO.N,Net-(C1-Pad2)*
X128270000Y-56660000D02*
X128270000Y-58166000D01*
X117874000Y-52850000D02*
X118110000Y-53086000D01*
X116332000Y-52850000D02*
X117874000Y-52850000D01*
X119126000Y-53086000D02*
X118110000Y-53086000D01*
X128034000Y-56896000D02*
X128270000Y-56660000D01*
X125730000Y-56444000D02*
X125730000Y-56896000D01*
X125748000Y-56426000D02*
X125730000Y-56444000D01*
X125748000Y-55626000D02*
X125748000Y-56426000D01*
X119126000Y-56896000D02*
X125730000Y-56896000D01*
X125730000Y-56896000D02*
X128034000Y-56896000D01*
G04 #@! TO.N,Net-(R20-Pad2)*
X126730000Y-50802000D02*
X127490000Y-51562000D01*
X126730000Y-49250000D02*
X126730000Y-50802000D01*
G04 #@! TO.N,Net-(R21-Pad2)*
X128055000Y-49250000D02*
X127530000Y-49250000D01*
X128843000Y-50038000D02*
X128055000Y-49250000D01*
X132842000Y-50038000D02*
X128843000Y-50038000D01*
X133332000Y-49530000D02*
X133332000Y-49548000D01*
X133332000Y-49548000D02*
X132842000Y-50038000D01*
G04 #@! TD*
M02*
