G04 #@! TF.GenerationSoftware,KiCad,Pcbnew,5.0.2+dfsg1-1*
G04 #@! TF.CreationDate,2019-11-26T12:32:40+03:00*
G04 #@! TF.ProjectId,clmt,636c6d74-2e6b-4696-9361-645f70636258,rev?*
G04 #@! TF.SameCoordinates,Original*
G04 #@! TF.FileFunction,Copper,L2,Bot*
G04 #@! TF.FilePolarity,Positive*
%FSLAX46Y46*%
G04 Gerber Fmt 4.6, Leading zero omitted, Abs format (unit mm)*
G04 Created by KiCad (PCBNEW 5.0.2+dfsg1-1) date Вт 26 ноя 2019 12:32:40*
%MOMM*%
%LPD*%
G01*
G04 APERTURE LIST*
G04 #@! TA.AperFunction,ComponentPad*
%ADD10C,1.600000*%
G04 #@! TD*
G04 #@! TA.AperFunction,ComponentPad*
%ADD11R,1.600000X1.600000*%
G04 #@! TD*
G04 #@! TA.AperFunction,Conductor*
%ADD12C,0.100000*%
G04 #@! TD*
G04 #@! TA.AperFunction,SMDPad,CuDef*
%ADD13C,1.150000*%
G04 #@! TD*
G04 #@! TA.AperFunction,ComponentPad*
%ADD14R,1.700000X1.700000*%
G04 #@! TD*
G04 #@! TA.AperFunction,ComponentPad*
%ADD15O,1.700000X1.700000*%
G04 #@! TD*
G04 #@! TA.AperFunction,ViaPad*
%ADD16C,0.800000*%
G04 #@! TD*
G04 #@! TA.AperFunction,Conductor*
%ADD17C,0.250000*%
G04 #@! TD*
G04 #@! TA.AperFunction,Conductor*
%ADD18C,0.500000*%
G04 #@! TD*
G04 #@! TA.AperFunction,Conductor*
%ADD19C,0.254000*%
G04 #@! TD*
G04 APERTURE END LIST*
D10*
G04 #@! TO.P,C3,2*
G04 #@! TO.N,GND*
X111760000Y-50800000D03*
D11*
G04 #@! TO.P,C3,1*
G04 #@! TO.N,VCC*
X114260000Y-50800000D03*
G04 #@! TD*
D12*
G04 #@! TO.N,Net-(C8-Pad2)*
G04 #@! TO.C,C8*
G36*
X135094505Y-43876204D02*
X135118773Y-43879804D01*
X135142572Y-43885765D01*
X135165671Y-43894030D01*
X135187850Y-43904520D01*
X135208893Y-43917132D01*
X135228599Y-43931747D01*
X135246777Y-43948223D01*
X135263253Y-43966401D01*
X135277868Y-43986107D01*
X135290480Y-44007150D01*
X135300970Y-44029329D01*
X135309235Y-44052428D01*
X135315196Y-44076227D01*
X135318796Y-44100495D01*
X135320000Y-44124999D01*
X135320000Y-44775001D01*
X135318796Y-44799505D01*
X135315196Y-44823773D01*
X135309235Y-44847572D01*
X135300970Y-44870671D01*
X135290480Y-44892850D01*
X135277868Y-44913893D01*
X135263253Y-44933599D01*
X135246777Y-44951777D01*
X135228599Y-44968253D01*
X135208893Y-44982868D01*
X135187850Y-44995480D01*
X135165671Y-45005970D01*
X135142572Y-45014235D01*
X135118773Y-45020196D01*
X135094505Y-45023796D01*
X135070001Y-45025000D01*
X134169999Y-45025000D01*
X134145495Y-45023796D01*
X134121227Y-45020196D01*
X134097428Y-45014235D01*
X134074329Y-45005970D01*
X134052150Y-44995480D01*
X134031107Y-44982868D01*
X134011401Y-44968253D01*
X133993223Y-44951777D01*
X133976747Y-44933599D01*
X133962132Y-44913893D01*
X133949520Y-44892850D01*
X133939030Y-44870671D01*
X133930765Y-44847572D01*
X133924804Y-44823773D01*
X133921204Y-44799505D01*
X133920000Y-44775001D01*
X133920000Y-44124999D01*
X133921204Y-44100495D01*
X133924804Y-44076227D01*
X133930765Y-44052428D01*
X133939030Y-44029329D01*
X133949520Y-44007150D01*
X133962132Y-43986107D01*
X133976747Y-43966401D01*
X133993223Y-43948223D01*
X134011401Y-43931747D01*
X134031107Y-43917132D01*
X134052150Y-43904520D01*
X134074329Y-43894030D01*
X134097428Y-43885765D01*
X134121227Y-43879804D01*
X134145495Y-43876204D01*
X134169999Y-43875000D01*
X135070001Y-43875000D01*
X135094505Y-43876204D01*
X135094505Y-43876204D01*
G37*
D13*
G04 #@! TD*
G04 #@! TO.P,C8,2*
G04 #@! TO.N,Net-(C8-Pad2)*
X134620000Y-44450000D03*
D12*
G04 #@! TO.N,GND*
G04 #@! TO.C,C8*
G36*
X135094505Y-41826204D02*
X135118773Y-41829804D01*
X135142572Y-41835765D01*
X135165671Y-41844030D01*
X135187850Y-41854520D01*
X135208893Y-41867132D01*
X135228599Y-41881747D01*
X135246777Y-41898223D01*
X135263253Y-41916401D01*
X135277868Y-41936107D01*
X135290480Y-41957150D01*
X135300970Y-41979329D01*
X135309235Y-42002428D01*
X135315196Y-42026227D01*
X135318796Y-42050495D01*
X135320000Y-42074999D01*
X135320000Y-42725001D01*
X135318796Y-42749505D01*
X135315196Y-42773773D01*
X135309235Y-42797572D01*
X135300970Y-42820671D01*
X135290480Y-42842850D01*
X135277868Y-42863893D01*
X135263253Y-42883599D01*
X135246777Y-42901777D01*
X135228599Y-42918253D01*
X135208893Y-42932868D01*
X135187850Y-42945480D01*
X135165671Y-42955970D01*
X135142572Y-42964235D01*
X135118773Y-42970196D01*
X135094505Y-42973796D01*
X135070001Y-42975000D01*
X134169999Y-42975000D01*
X134145495Y-42973796D01*
X134121227Y-42970196D01*
X134097428Y-42964235D01*
X134074329Y-42955970D01*
X134052150Y-42945480D01*
X134031107Y-42932868D01*
X134011401Y-42918253D01*
X133993223Y-42901777D01*
X133976747Y-42883599D01*
X133962132Y-42863893D01*
X133949520Y-42842850D01*
X133939030Y-42820671D01*
X133930765Y-42797572D01*
X133924804Y-42773773D01*
X133921204Y-42749505D01*
X133920000Y-42725001D01*
X133920000Y-42074999D01*
X133921204Y-42050495D01*
X133924804Y-42026227D01*
X133930765Y-42002428D01*
X133939030Y-41979329D01*
X133949520Y-41957150D01*
X133962132Y-41936107D01*
X133976747Y-41916401D01*
X133993223Y-41898223D01*
X134011401Y-41881747D01*
X134031107Y-41867132D01*
X134052150Y-41854520D01*
X134074329Y-41844030D01*
X134097428Y-41835765D01*
X134121227Y-41829804D01*
X134145495Y-41826204D01*
X134169999Y-41825000D01*
X135070001Y-41825000D01*
X135094505Y-41826204D01*
X135094505Y-41826204D01*
G37*
D13*
G04 #@! TD*
G04 #@! TO.P,C8,1*
G04 #@! TO.N,GND*
X134620000Y-42400000D03*
D14*
G04 #@! TO.P,J1,1*
G04 #@! TO.N,Net-(J1-Pad1)*
X109220000Y-54610000D03*
D15*
G04 #@! TO.P,J1,2*
G04 #@! TO.N,Net-(J1-Pad2)*
X109220000Y-57150000D03*
G04 #@! TD*
D14*
G04 #@! TO.P,J2,1*
G04 #@! TO.N,Net-(J2-Pad1)*
X138430000Y-57150000D03*
D15*
G04 #@! TO.P,J2,2*
G04 #@! TO.N,Net-(J2-Pad2)*
X138430000Y-54610000D03*
G04 #@! TD*
G04 #@! TO.P,J3,2*
G04 #@! TO.N,Net-(D1-Pad2)*
X109220000Y-48260000D03*
D14*
G04 #@! TO.P,J3,1*
G04 #@! TO.N,GND*
X109220000Y-50800000D03*
G04 #@! TD*
G04 #@! TO.P,J5,1*
G04 #@! TO.N,Net-(J5-Pad1)*
X138430000Y-52070000D03*
G04 #@! TD*
G04 #@! TO.P,J6,1*
G04 #@! TO.N,Net-(J6-Pad1)*
X120650000Y-36500000D03*
G04 #@! TD*
G04 #@! TO.P,J7,1*
G04 #@! TO.N,Net-(J7-Pad1)*
X129540000Y-36500000D03*
G04 #@! TD*
G04 #@! TO.P,J8,1*
G04 #@! TO.N,Net-(J4-Pad1)*
X128270000Y-60960000D03*
D15*
G04 #@! TO.P,J8,2*
G04 #@! TO.N,Net-(J8-Pad2)*
X130810000Y-60960000D03*
G04 #@! TO.P,J8,3*
G04 #@! TO.N,Net-(J4-Pad4)*
X133350000Y-60960000D03*
G04 #@! TO.P,J8,4*
G04 #@! TO.N,GND*
X135890000Y-60960000D03*
G04 #@! TO.P,J8,5*
G04 #@! TO.N,VCC*
X138430000Y-60960000D03*
G04 #@! TD*
D14*
G04 #@! TO.P,J10,1*
G04 #@! TO.N,Net-(J10-Pad1)*
X138430000Y-36830000D03*
D15*
G04 #@! TO.P,J10,2*
G04 #@! TO.N,Net-(J10-Pad2)*
X138430000Y-39370000D03*
G04 #@! TO.P,J10,3*
G04 #@! TO.N,Net-(J10-Pad3)*
X138430000Y-41910000D03*
G04 #@! TO.P,J10,4*
G04 #@! TO.N,Net-(J10-Pad4)*
X138430000Y-44450000D03*
G04 #@! TD*
D14*
G04 #@! TO.P,J11,1*
G04 #@! TO.N,Net-(J11-Pad1)*
X123190000Y-36500000D03*
G04 #@! TD*
G04 #@! TO.P,J12,1*
G04 #@! TO.N,Net-(J12-Pad1)*
X138430000Y-48260000D03*
G04 #@! TD*
G04 #@! TO.P,J13,1*
G04 #@! TO.N,Net-(J13-Pad1)*
X112395000Y-36830000D03*
G04 #@! TD*
D15*
G04 #@! TO.P,J14,4*
G04 #@! TO.N,Net-(J14-Pad4)*
X109220000Y-36830000D03*
G04 #@! TO.P,J14,3*
G04 #@! TO.N,Net-(J14-Pad3)*
X109220000Y-39370000D03*
G04 #@! TO.P,J14,2*
G04 #@! TO.N,Net-(J14-Pad2)*
X109220000Y-41910000D03*
D14*
G04 #@! TO.P,J14,1*
G04 #@! TO.N,Net-(J14-Pad1)*
X109220000Y-44450000D03*
G04 #@! TD*
D12*
G04 #@! TO.N,Net-(C8-Pad2)*
G04 #@! TO.C,R7*
G36*
X132808505Y-43876204D02*
X132832773Y-43879804D01*
X132856572Y-43885765D01*
X132879671Y-43894030D01*
X132901850Y-43904520D01*
X132922893Y-43917132D01*
X132942599Y-43931747D01*
X132960777Y-43948223D01*
X132977253Y-43966401D01*
X132991868Y-43986107D01*
X133004480Y-44007150D01*
X133014970Y-44029329D01*
X133023235Y-44052428D01*
X133029196Y-44076227D01*
X133032796Y-44100495D01*
X133034000Y-44124999D01*
X133034000Y-44775001D01*
X133032796Y-44799505D01*
X133029196Y-44823773D01*
X133023235Y-44847572D01*
X133014970Y-44870671D01*
X133004480Y-44892850D01*
X132991868Y-44913893D01*
X132977253Y-44933599D01*
X132960777Y-44951777D01*
X132942599Y-44968253D01*
X132922893Y-44982868D01*
X132901850Y-44995480D01*
X132879671Y-45005970D01*
X132856572Y-45014235D01*
X132832773Y-45020196D01*
X132808505Y-45023796D01*
X132784001Y-45025000D01*
X131883999Y-45025000D01*
X131859495Y-45023796D01*
X131835227Y-45020196D01*
X131811428Y-45014235D01*
X131788329Y-45005970D01*
X131766150Y-44995480D01*
X131745107Y-44982868D01*
X131725401Y-44968253D01*
X131707223Y-44951777D01*
X131690747Y-44933599D01*
X131676132Y-44913893D01*
X131663520Y-44892850D01*
X131653030Y-44870671D01*
X131644765Y-44847572D01*
X131638804Y-44823773D01*
X131635204Y-44799505D01*
X131634000Y-44775001D01*
X131634000Y-44124999D01*
X131635204Y-44100495D01*
X131638804Y-44076227D01*
X131644765Y-44052428D01*
X131653030Y-44029329D01*
X131663520Y-44007150D01*
X131676132Y-43986107D01*
X131690747Y-43966401D01*
X131707223Y-43948223D01*
X131725401Y-43931747D01*
X131745107Y-43917132D01*
X131766150Y-43904520D01*
X131788329Y-43894030D01*
X131811428Y-43885765D01*
X131835227Y-43879804D01*
X131859495Y-43876204D01*
X131883999Y-43875000D01*
X132784001Y-43875000D01*
X132808505Y-43876204D01*
X132808505Y-43876204D01*
G37*
D13*
G04 #@! TD*
G04 #@! TO.P,R7,1*
G04 #@! TO.N,Net-(C8-Pad2)*
X132334000Y-44450000D03*
D12*
G04 #@! TO.N,VCC*
G04 #@! TO.C,R7*
G36*
X132808505Y-41826204D02*
X132832773Y-41829804D01*
X132856572Y-41835765D01*
X132879671Y-41844030D01*
X132901850Y-41854520D01*
X132922893Y-41867132D01*
X132942599Y-41881747D01*
X132960777Y-41898223D01*
X132977253Y-41916401D01*
X132991868Y-41936107D01*
X133004480Y-41957150D01*
X133014970Y-41979329D01*
X133023235Y-42002428D01*
X133029196Y-42026227D01*
X133032796Y-42050495D01*
X133034000Y-42074999D01*
X133034000Y-42725001D01*
X133032796Y-42749505D01*
X133029196Y-42773773D01*
X133023235Y-42797572D01*
X133014970Y-42820671D01*
X133004480Y-42842850D01*
X132991868Y-42863893D01*
X132977253Y-42883599D01*
X132960777Y-42901777D01*
X132942599Y-42918253D01*
X132922893Y-42932868D01*
X132901850Y-42945480D01*
X132879671Y-42955970D01*
X132856572Y-42964235D01*
X132832773Y-42970196D01*
X132808505Y-42973796D01*
X132784001Y-42975000D01*
X131883999Y-42975000D01*
X131859495Y-42973796D01*
X131835227Y-42970196D01*
X131811428Y-42964235D01*
X131788329Y-42955970D01*
X131766150Y-42945480D01*
X131745107Y-42932868D01*
X131725401Y-42918253D01*
X131707223Y-42901777D01*
X131690747Y-42883599D01*
X131676132Y-42863893D01*
X131663520Y-42842850D01*
X131653030Y-42820671D01*
X131644765Y-42797572D01*
X131638804Y-42773773D01*
X131635204Y-42749505D01*
X131634000Y-42725001D01*
X131634000Y-42074999D01*
X131635204Y-42050495D01*
X131638804Y-42026227D01*
X131644765Y-42002428D01*
X131653030Y-41979329D01*
X131663520Y-41957150D01*
X131676132Y-41936107D01*
X131690747Y-41916401D01*
X131707223Y-41898223D01*
X131725401Y-41881747D01*
X131745107Y-41867132D01*
X131766150Y-41854520D01*
X131788329Y-41844030D01*
X131811428Y-41835765D01*
X131835227Y-41829804D01*
X131859495Y-41826204D01*
X131883999Y-41825000D01*
X132784001Y-41825000D01*
X132808505Y-41826204D01*
X132808505Y-41826204D01*
G37*
D13*
G04 #@! TD*
G04 #@! TO.P,R7,2*
G04 #@! TO.N,VCC*
X132334000Y-42400000D03*
D14*
G04 #@! TO.P,J4,1*
G04 #@! TO.N,Net-(J4-Pad1)*
X124460000Y-60960000D03*
D15*
G04 #@! TO.P,J4,2*
G04 #@! TO.N,Net-(J4-Pad2)*
X121920000Y-60960000D03*
G04 #@! TO.P,J4,3*
G04 #@! TO.N,GND*
X119380000Y-60960000D03*
G04 #@! TO.P,J4,4*
G04 #@! TO.N,Net-(J4-Pad4)*
X116840000Y-60960000D03*
G04 #@! TO.P,J4,5*
G04 #@! TO.N,VCC*
X114300000Y-60960000D03*
G04 #@! TO.P,J4,6*
G04 #@! TO.N,Net-(C8-Pad2)*
X111760000Y-60960000D03*
G04 #@! TO.P,J4,7*
G04 #@! TO.N,/TXD*
X109220000Y-60960000D03*
G04 #@! TD*
D14*
G04 #@! TO.P,J9,1*
G04 #@! TO.N,Net-(J9-Pad1)*
X131318000Y-51562000D03*
G04 #@! TD*
G04 #@! TO.P,J15,1*
G04 #@! TO.N,Net-(J15-Pad1)*
X134874000Y-51562000D03*
G04 #@! TD*
G04 #@! TO.P,J16,1*
G04 #@! TO.N,Net-(J16-Pad1)*
X131318000Y-48514000D03*
G04 #@! TD*
D16*
G04 #@! TO.N,GND*
X134620000Y-40386000D03*
X117602000Y-36322000D03*
X127254000Y-46228000D03*
X114046000Y-43688000D03*
G04 #@! TO.N,VCC*
X116586000Y-50546000D03*
X123190000Y-42418000D03*
G04 #@! TO.N,Net-(C8-Pad2)*
X134620000Y-43942000D03*
X127254000Y-44704000D03*
G04 #@! TO.N,Net-(J4-Pad4)*
X121666000Y-50038000D03*
X121666000Y-58166000D03*
G04 #@! TO.N,Net-(J4-Pad2)*
X122682000Y-47752000D03*
G04 #@! TO.N,Net-(J4-Pad1)*
X123952000Y-47244000D03*
G04 #@! TO.N,/TXD*
X127254000Y-43180000D03*
X117602000Y-58420000D03*
G04 #@! TO.N,Net-(J8-Pad2)*
X122654000Y-46200000D03*
G04 #@! TO.N,Net-(C1-Pad2)*
X119126000Y-53086000D03*
X119126000Y-56896000D03*
G04 #@! TD*
D17*
G04 #@! TO.N,GND*
X134620000Y-42400000D02*
X134620000Y-40386000D01*
D18*
X135890000Y-62162081D02*
X135822081Y-62230000D01*
X135890000Y-60960000D02*
X135890000Y-62162081D01*
X133974001Y-62260001D02*
X119410001Y-62260001D01*
X135822081Y-62230000D02*
X134004002Y-62230000D01*
X134004002Y-62230000D02*
X133974001Y-62260001D01*
X119380000Y-62230000D02*
X119380000Y-60960000D01*
X119410001Y-62260001D02*
X119380000Y-62230000D01*
D17*
G04 #@! TO.N,VCC*
X123190000Y-42418000D02*
X120650000Y-42418000D01*
X124397057Y-41776628D02*
X123755685Y-42418000D01*
X123755685Y-42418000D02*
X123190000Y-42418000D01*
X131710628Y-41776628D02*
X124397057Y-41776628D01*
X132334000Y-42400000D02*
X131710628Y-41776628D01*
D18*
X114260000Y-60920000D02*
X114300000Y-60960000D01*
X114260000Y-50800000D02*
X114260000Y-60920000D01*
D17*
X116586000Y-46482000D02*
X120650000Y-42418000D01*
X116586000Y-50546000D02*
X116586000Y-46482000D01*
G04 #@! TO.N,Net-(C8-Pad2)*
X134620000Y-44450000D02*
X132334000Y-44450000D01*
X117602000Y-62230000D02*
X111827919Y-62230000D01*
X118110000Y-61722000D02*
X117602000Y-62230000D01*
X111760000Y-62162081D02*
X111760000Y-60960000D01*
X118110000Y-59944000D02*
X118110000Y-61722000D01*
X122428000Y-44704000D02*
X120396000Y-46736000D01*
X111827919Y-62230000D02*
X111760000Y-62162081D01*
X118618000Y-59436000D02*
X118110000Y-59944000D01*
X127254000Y-44704000D02*
X122428000Y-44704000D01*
X118618000Y-59436000D02*
X120396000Y-57658000D01*
X120396000Y-46736000D02*
X120396000Y-57658000D01*
G04 #@! TO.N,Net-(D1-Pad2)*
X109040000Y-48500000D02*
X109000000Y-48460000D01*
G04 #@! TO.N,Net-(J4-Pad4)*
X121666000Y-50038000D02*
X121666000Y-57912000D01*
X121666000Y-57912000D02*
X121666000Y-58166000D01*
G04 #@! TO.N,Net-(J4-Pad2)*
X121920000Y-59757919D02*
X122682000Y-58995919D01*
X121920000Y-60960000D02*
X121920000Y-59757919D01*
X122682000Y-47752000D02*
X122682000Y-48260000D01*
X122682000Y-58995919D02*
X122682000Y-48260000D01*
X122682000Y-48260000D02*
X122682000Y-48006000D01*
G04 #@! TO.N,Net-(J4-Pad1)*
X124460000Y-60960000D02*
X124460000Y-47752000D01*
X124460000Y-47752000D02*
X123952000Y-47244000D01*
G04 #@! TO.N,/TXD*
X121412000Y-43688000D02*
X125984000Y-43688000D01*
X126492000Y-43180000D02*
X127254000Y-43180000D01*
X125984000Y-43688000D02*
X126492000Y-43180000D01*
X117602000Y-47498000D02*
X117602000Y-58420000D01*
X121412000Y-43688000D02*
X117602000Y-47498000D01*
G04 #@! TO.N,Net-(J8-Pad2)*
X130810000Y-59757919D02*
X130810000Y-60960000D01*
X125194000Y-46200000D02*
X125984000Y-46990000D01*
X122654000Y-46200000D02*
X125194000Y-46200000D01*
X125984000Y-46990000D02*
X125984000Y-57658000D01*
X125984000Y-57658000D02*
X127254000Y-58928000D01*
X129980081Y-58928000D02*
X130810000Y-59757919D01*
X127254000Y-58928000D02*
X129980081Y-58928000D01*
G04 #@! TO.N,Net-(C1-Pad2)*
X119126000Y-53086000D02*
X119126000Y-56896000D01*
G04 #@! TD*
D19*
G04 #@! TO.N,GND*
G36*
X110897560Y-37680000D02*
X110946843Y-37927765D01*
X111087191Y-38137809D01*
X111297235Y-38278157D01*
X111545000Y-38327440D01*
X113245000Y-38327440D01*
X113492765Y-38278157D01*
X113702809Y-38137809D01*
X113843157Y-37927765D01*
X113892440Y-37680000D01*
X113892440Y-36016000D01*
X119152560Y-36016000D01*
X119152560Y-37350000D01*
X119201843Y-37597765D01*
X119342191Y-37807809D01*
X119552235Y-37948157D01*
X119800000Y-37997440D01*
X121500000Y-37997440D01*
X121747765Y-37948157D01*
X121920000Y-37833072D01*
X122092235Y-37948157D01*
X122340000Y-37997440D01*
X124040000Y-37997440D01*
X124287765Y-37948157D01*
X124497809Y-37807809D01*
X124638157Y-37597765D01*
X124687440Y-37350000D01*
X124687440Y-36016000D01*
X128042560Y-36016000D01*
X128042560Y-37350000D01*
X128091843Y-37597765D01*
X128232191Y-37807809D01*
X128442235Y-37948157D01*
X128690000Y-37997440D01*
X130390000Y-37997440D01*
X130637765Y-37948157D01*
X130847809Y-37807809D01*
X130988157Y-37597765D01*
X131037440Y-37350000D01*
X131037440Y-36016000D01*
X136932560Y-36016000D01*
X136932560Y-37680000D01*
X136981843Y-37927765D01*
X137122191Y-38137809D01*
X137332235Y-38278157D01*
X137377619Y-38287184D01*
X137359375Y-38299375D01*
X137031161Y-38790582D01*
X136915908Y-39370000D01*
X137031161Y-39949418D01*
X137359375Y-40440625D01*
X137657761Y-40640000D01*
X137359375Y-40839375D01*
X137031161Y-41330582D01*
X136915908Y-41910000D01*
X137031161Y-42489418D01*
X137359375Y-42980625D01*
X137657761Y-43180000D01*
X137359375Y-43379375D01*
X137031161Y-43870582D01*
X136915908Y-44450000D01*
X137031161Y-45029418D01*
X137359375Y-45520625D01*
X137850582Y-45848839D01*
X138283744Y-45935000D01*
X138576256Y-45935000D01*
X138990001Y-45852701D01*
X138990001Y-46762560D01*
X137580000Y-46762560D01*
X137332235Y-46811843D01*
X137122191Y-46952191D01*
X136981843Y-47162235D01*
X136932560Y-47410000D01*
X136932560Y-49110000D01*
X136981843Y-49357765D01*
X137122191Y-49567809D01*
X137332235Y-49708157D01*
X137580000Y-49757440D01*
X138990000Y-49757440D01*
X138990000Y-50572560D01*
X137580000Y-50572560D01*
X137332235Y-50621843D01*
X137122191Y-50762191D01*
X136981843Y-50972235D01*
X136932560Y-51220000D01*
X136932560Y-52920000D01*
X136981843Y-53167765D01*
X137122191Y-53377809D01*
X137332235Y-53518157D01*
X137377619Y-53527184D01*
X137359375Y-53539375D01*
X137031161Y-54030582D01*
X136915908Y-54610000D01*
X137031161Y-55189418D01*
X137359375Y-55680625D01*
X137377619Y-55692816D01*
X137332235Y-55701843D01*
X137122191Y-55842191D01*
X136981843Y-56052235D01*
X136932560Y-56300000D01*
X136932560Y-58000000D01*
X136981843Y-58247765D01*
X137122191Y-58457809D01*
X137332235Y-58598157D01*
X137580000Y-58647440D01*
X138990000Y-58647440D01*
X138990000Y-59557299D01*
X138576256Y-59475000D01*
X138283744Y-59475000D01*
X137850582Y-59561161D01*
X137359375Y-59889375D01*
X137146157Y-60208478D01*
X137085183Y-60078642D01*
X136656924Y-59688355D01*
X136246890Y-59518524D01*
X136017000Y-59639845D01*
X136017000Y-60833000D01*
X136037000Y-60833000D01*
X136037000Y-61087000D01*
X136017000Y-61087000D01*
X136017000Y-61107000D01*
X135763000Y-61107000D01*
X135763000Y-61087000D01*
X135743000Y-61087000D01*
X135743000Y-60833000D01*
X135763000Y-60833000D01*
X135763000Y-59639845D01*
X135533110Y-59518524D01*
X135123076Y-59688355D01*
X134694817Y-60078642D01*
X134633843Y-60208478D01*
X134420625Y-59889375D01*
X133929418Y-59561161D01*
X133496256Y-59475000D01*
X133203744Y-59475000D01*
X132770582Y-59561161D01*
X132279375Y-59889375D01*
X132080000Y-60187761D01*
X131880625Y-59889375D01*
X131569714Y-59681631D01*
X131528613Y-59475000D01*
X131525904Y-59461381D01*
X131400329Y-59273446D01*
X131357929Y-59209990D01*
X131294473Y-59167590D01*
X130570412Y-58443530D01*
X130528010Y-58380071D01*
X130276618Y-58212096D01*
X130054933Y-58168000D01*
X130054928Y-58168000D01*
X129980081Y-58153112D01*
X129905234Y-58168000D01*
X127568802Y-58168000D01*
X126744000Y-57343199D01*
X126744000Y-50712000D01*
X129820560Y-50712000D01*
X129820560Y-52412000D01*
X129869843Y-52659765D01*
X130010191Y-52869809D01*
X130220235Y-53010157D01*
X130468000Y-53059440D01*
X132168000Y-53059440D01*
X132415765Y-53010157D01*
X132625809Y-52869809D01*
X132766157Y-52659765D01*
X132815440Y-52412000D01*
X132815440Y-50712000D01*
X133376560Y-50712000D01*
X133376560Y-52412000D01*
X133425843Y-52659765D01*
X133566191Y-52869809D01*
X133776235Y-53010157D01*
X134024000Y-53059440D01*
X135724000Y-53059440D01*
X135971765Y-53010157D01*
X136181809Y-52869809D01*
X136322157Y-52659765D01*
X136371440Y-52412000D01*
X136371440Y-50712000D01*
X136322157Y-50464235D01*
X136181809Y-50254191D01*
X135971765Y-50113843D01*
X135724000Y-50064560D01*
X134024000Y-50064560D01*
X133776235Y-50113843D01*
X133566191Y-50254191D01*
X133425843Y-50464235D01*
X133376560Y-50712000D01*
X132815440Y-50712000D01*
X132766157Y-50464235D01*
X132625809Y-50254191D01*
X132415765Y-50113843D01*
X132168000Y-50064560D01*
X130468000Y-50064560D01*
X130220235Y-50113843D01*
X130010191Y-50254191D01*
X129869843Y-50464235D01*
X129820560Y-50712000D01*
X126744000Y-50712000D01*
X126744000Y-47664000D01*
X129820560Y-47664000D01*
X129820560Y-49364000D01*
X129869843Y-49611765D01*
X130010191Y-49821809D01*
X130220235Y-49962157D01*
X130468000Y-50011440D01*
X132168000Y-50011440D01*
X132415765Y-49962157D01*
X132625809Y-49821809D01*
X132766157Y-49611765D01*
X132815440Y-49364000D01*
X132815440Y-47664000D01*
X132766157Y-47416235D01*
X132625809Y-47206191D01*
X132415765Y-47065843D01*
X132168000Y-47016560D01*
X130468000Y-47016560D01*
X130220235Y-47065843D01*
X130010191Y-47206191D01*
X129869843Y-47416235D01*
X129820560Y-47664000D01*
X126744000Y-47664000D01*
X126744000Y-47064848D01*
X126758888Y-46990000D01*
X126744000Y-46915152D01*
X126744000Y-46915148D01*
X126699904Y-46693463D01*
X126699904Y-46693462D01*
X126574329Y-46505527D01*
X126531929Y-46442071D01*
X126468473Y-46399671D01*
X125784331Y-45715530D01*
X125741929Y-45652071D01*
X125490537Y-45484096D01*
X125389508Y-45464000D01*
X126550289Y-45464000D01*
X126667720Y-45581431D01*
X127048126Y-45739000D01*
X127459874Y-45739000D01*
X127840280Y-45581431D01*
X128131431Y-45290280D01*
X128289000Y-44909874D01*
X128289000Y-44498126D01*
X128131431Y-44117720D01*
X127955711Y-43942000D01*
X128131431Y-43766280D01*
X128289000Y-43385874D01*
X128289000Y-42974126D01*
X128131431Y-42593720D01*
X128074339Y-42536628D01*
X130986560Y-42536628D01*
X130986560Y-42725001D01*
X131054873Y-43068436D01*
X131249414Y-43359586D01*
X131347313Y-43425000D01*
X131249414Y-43490414D01*
X131054873Y-43781564D01*
X130986560Y-44124999D01*
X130986560Y-44775001D01*
X131054873Y-45118436D01*
X131249414Y-45409586D01*
X131540564Y-45604127D01*
X131883999Y-45672440D01*
X132784001Y-45672440D01*
X133127436Y-45604127D01*
X133418586Y-45409586D01*
X133477000Y-45322164D01*
X133535414Y-45409586D01*
X133826564Y-45604127D01*
X134169999Y-45672440D01*
X135070001Y-45672440D01*
X135413436Y-45604127D01*
X135704586Y-45409586D01*
X135899127Y-45118436D01*
X135967440Y-44775001D01*
X135967440Y-44124999D01*
X135899127Y-43781564D01*
X135704586Y-43490414D01*
X135703403Y-43489623D01*
X135858327Y-43334698D01*
X135955000Y-43101309D01*
X135955000Y-42685750D01*
X135796250Y-42527000D01*
X134747000Y-42527000D01*
X134747000Y-42547000D01*
X134493000Y-42547000D01*
X134493000Y-42527000D01*
X134473000Y-42527000D01*
X134473000Y-42273000D01*
X134493000Y-42273000D01*
X134493000Y-41348750D01*
X134747000Y-41348750D01*
X134747000Y-42273000D01*
X135796250Y-42273000D01*
X135955000Y-42114250D01*
X135955000Y-41698691D01*
X135858327Y-41465302D01*
X135679699Y-41286673D01*
X135446310Y-41190000D01*
X134905750Y-41190000D01*
X134747000Y-41348750D01*
X134493000Y-41348750D01*
X134334250Y-41190000D01*
X133793690Y-41190000D01*
X133560301Y-41286673D01*
X133411377Y-41435597D01*
X133127436Y-41245873D01*
X132784001Y-41177560D01*
X132182022Y-41177560D01*
X132007165Y-41060724D01*
X131785480Y-41016628D01*
X131785475Y-41016628D01*
X131710628Y-41001740D01*
X131635781Y-41016628D01*
X124471904Y-41016628D01*
X124397057Y-41001740D01*
X124322210Y-41016628D01*
X124322205Y-41016628D01*
X124100520Y-41060724D01*
X123849128Y-41228699D01*
X123806728Y-41292155D01*
X123622155Y-41476728D01*
X123395874Y-41383000D01*
X122984126Y-41383000D01*
X122603720Y-41540569D01*
X122486289Y-41658000D01*
X120724847Y-41658000D01*
X120650000Y-41643112D01*
X120575153Y-41658000D01*
X120575148Y-41658000D01*
X120353463Y-41702096D01*
X120102071Y-41870071D01*
X120059671Y-41933527D01*
X116101528Y-45891671D01*
X116038072Y-45934071D01*
X115995672Y-45997527D01*
X115995671Y-45997528D01*
X115870097Y-46185463D01*
X115811112Y-46482000D01*
X115826001Y-46556852D01*
X115826000Y-49842289D01*
X115708569Y-49959720D01*
X115702393Y-49974629D01*
X115658157Y-49752235D01*
X115517809Y-49542191D01*
X115307765Y-49401843D01*
X115060000Y-49352560D01*
X113460000Y-49352560D01*
X113212235Y-49401843D01*
X113002191Y-49542191D01*
X112861843Y-49752235D01*
X112815307Y-49986187D01*
X112767745Y-49971861D01*
X111939605Y-50800000D01*
X112767745Y-51628139D01*
X112815307Y-51613813D01*
X112861843Y-51847765D01*
X113002191Y-52057809D01*
X113212235Y-52198157D01*
X113375000Y-52230533D01*
X113375001Y-59792071D01*
X113229375Y-59889375D01*
X113030000Y-60187761D01*
X112830625Y-59889375D01*
X112339418Y-59561161D01*
X111906256Y-59475000D01*
X111613744Y-59475000D01*
X111180582Y-59561161D01*
X110689375Y-59889375D01*
X110490000Y-60187761D01*
X110290625Y-59889375D01*
X109799418Y-59561161D01*
X109366256Y-59475000D01*
X109073744Y-59475000D01*
X108660000Y-59557299D01*
X108660000Y-58552701D01*
X109073744Y-58635000D01*
X109366256Y-58635000D01*
X109799418Y-58548839D01*
X110290625Y-58220625D01*
X110618839Y-57729418D01*
X110734092Y-57150000D01*
X110618839Y-56570582D01*
X110290625Y-56079375D01*
X110272381Y-56067184D01*
X110317765Y-56058157D01*
X110527809Y-55917809D01*
X110668157Y-55707765D01*
X110717440Y-55460000D01*
X110717440Y-53760000D01*
X110668157Y-53512235D01*
X110527809Y-53302191D01*
X110317765Y-53161843D01*
X110070000Y-53112560D01*
X108660000Y-53112560D01*
X108660000Y-52285000D01*
X108934250Y-52285000D01*
X109093000Y-52126250D01*
X109093000Y-50927000D01*
X109073000Y-50927000D01*
X109073000Y-50673000D01*
X109093000Y-50673000D01*
X109093000Y-50653000D01*
X109347000Y-50653000D01*
X109347000Y-50673000D01*
X109367000Y-50673000D01*
X109367000Y-50927000D01*
X109347000Y-50927000D01*
X109347000Y-52126250D01*
X109505750Y-52285000D01*
X110196309Y-52285000D01*
X110429698Y-52188327D01*
X110608327Y-52009699D01*
X110691979Y-51807745D01*
X110931861Y-51807745D01*
X111005995Y-52053864D01*
X111543223Y-52246965D01*
X112113454Y-52219778D01*
X112514005Y-52053864D01*
X112588139Y-51807745D01*
X111760000Y-50979605D01*
X110931861Y-51807745D01*
X110691979Y-51807745D01*
X110705000Y-51776310D01*
X110705000Y-51613905D01*
X110752255Y-51628139D01*
X111580395Y-50800000D01*
X110752255Y-49971861D01*
X110705000Y-49986095D01*
X110705000Y-49823690D01*
X110691980Y-49792255D01*
X110931861Y-49792255D01*
X111760000Y-50620395D01*
X112588139Y-49792255D01*
X112514005Y-49546136D01*
X111976777Y-49353035D01*
X111406546Y-49380222D01*
X111005995Y-49546136D01*
X110931861Y-49792255D01*
X110691980Y-49792255D01*
X110608327Y-49590301D01*
X110429698Y-49411673D01*
X110268967Y-49345096D01*
X110290625Y-49330625D01*
X110618839Y-48839418D01*
X110734092Y-48260000D01*
X110618839Y-47680582D01*
X110290625Y-47189375D01*
X109799418Y-46861161D01*
X109366256Y-46775000D01*
X109073744Y-46775000D01*
X108660000Y-46857299D01*
X108660000Y-45947440D01*
X110070000Y-45947440D01*
X110317765Y-45898157D01*
X110527809Y-45757809D01*
X110668157Y-45547765D01*
X110717440Y-45300000D01*
X110717440Y-43600000D01*
X110668157Y-43352235D01*
X110527809Y-43142191D01*
X110317765Y-43001843D01*
X110272381Y-42992816D01*
X110290625Y-42980625D01*
X110618839Y-42489418D01*
X110734092Y-41910000D01*
X110618839Y-41330582D01*
X110290625Y-40839375D01*
X109992239Y-40640000D01*
X110290625Y-40440625D01*
X110618839Y-39949418D01*
X110734092Y-39370000D01*
X110618839Y-38790582D01*
X110290625Y-38299375D01*
X109992239Y-38100000D01*
X110290625Y-37900625D01*
X110618839Y-37409418D01*
X110734092Y-36830000D01*
X110618839Y-36250582D01*
X110462096Y-36016000D01*
X110897560Y-36016000D01*
X110897560Y-37680000D01*
X110897560Y-37680000D01*
G37*
X110897560Y-37680000D02*
X110946843Y-37927765D01*
X111087191Y-38137809D01*
X111297235Y-38278157D01*
X111545000Y-38327440D01*
X113245000Y-38327440D01*
X113492765Y-38278157D01*
X113702809Y-38137809D01*
X113843157Y-37927765D01*
X113892440Y-37680000D01*
X113892440Y-36016000D01*
X119152560Y-36016000D01*
X119152560Y-37350000D01*
X119201843Y-37597765D01*
X119342191Y-37807809D01*
X119552235Y-37948157D01*
X119800000Y-37997440D01*
X121500000Y-37997440D01*
X121747765Y-37948157D01*
X121920000Y-37833072D01*
X122092235Y-37948157D01*
X122340000Y-37997440D01*
X124040000Y-37997440D01*
X124287765Y-37948157D01*
X124497809Y-37807809D01*
X124638157Y-37597765D01*
X124687440Y-37350000D01*
X124687440Y-36016000D01*
X128042560Y-36016000D01*
X128042560Y-37350000D01*
X128091843Y-37597765D01*
X128232191Y-37807809D01*
X128442235Y-37948157D01*
X128690000Y-37997440D01*
X130390000Y-37997440D01*
X130637765Y-37948157D01*
X130847809Y-37807809D01*
X130988157Y-37597765D01*
X131037440Y-37350000D01*
X131037440Y-36016000D01*
X136932560Y-36016000D01*
X136932560Y-37680000D01*
X136981843Y-37927765D01*
X137122191Y-38137809D01*
X137332235Y-38278157D01*
X137377619Y-38287184D01*
X137359375Y-38299375D01*
X137031161Y-38790582D01*
X136915908Y-39370000D01*
X137031161Y-39949418D01*
X137359375Y-40440625D01*
X137657761Y-40640000D01*
X137359375Y-40839375D01*
X137031161Y-41330582D01*
X136915908Y-41910000D01*
X137031161Y-42489418D01*
X137359375Y-42980625D01*
X137657761Y-43180000D01*
X137359375Y-43379375D01*
X137031161Y-43870582D01*
X136915908Y-44450000D01*
X137031161Y-45029418D01*
X137359375Y-45520625D01*
X137850582Y-45848839D01*
X138283744Y-45935000D01*
X138576256Y-45935000D01*
X138990001Y-45852701D01*
X138990001Y-46762560D01*
X137580000Y-46762560D01*
X137332235Y-46811843D01*
X137122191Y-46952191D01*
X136981843Y-47162235D01*
X136932560Y-47410000D01*
X136932560Y-49110000D01*
X136981843Y-49357765D01*
X137122191Y-49567809D01*
X137332235Y-49708157D01*
X137580000Y-49757440D01*
X138990000Y-49757440D01*
X138990000Y-50572560D01*
X137580000Y-50572560D01*
X137332235Y-50621843D01*
X137122191Y-50762191D01*
X136981843Y-50972235D01*
X136932560Y-51220000D01*
X136932560Y-52920000D01*
X136981843Y-53167765D01*
X137122191Y-53377809D01*
X137332235Y-53518157D01*
X137377619Y-53527184D01*
X137359375Y-53539375D01*
X137031161Y-54030582D01*
X136915908Y-54610000D01*
X137031161Y-55189418D01*
X137359375Y-55680625D01*
X137377619Y-55692816D01*
X137332235Y-55701843D01*
X137122191Y-55842191D01*
X136981843Y-56052235D01*
X136932560Y-56300000D01*
X136932560Y-58000000D01*
X136981843Y-58247765D01*
X137122191Y-58457809D01*
X137332235Y-58598157D01*
X137580000Y-58647440D01*
X138990000Y-58647440D01*
X138990000Y-59557299D01*
X138576256Y-59475000D01*
X138283744Y-59475000D01*
X137850582Y-59561161D01*
X137359375Y-59889375D01*
X137146157Y-60208478D01*
X137085183Y-60078642D01*
X136656924Y-59688355D01*
X136246890Y-59518524D01*
X136017000Y-59639845D01*
X136017000Y-60833000D01*
X136037000Y-60833000D01*
X136037000Y-61087000D01*
X136017000Y-61087000D01*
X136017000Y-61107000D01*
X135763000Y-61107000D01*
X135763000Y-61087000D01*
X135743000Y-61087000D01*
X135743000Y-60833000D01*
X135763000Y-60833000D01*
X135763000Y-59639845D01*
X135533110Y-59518524D01*
X135123076Y-59688355D01*
X134694817Y-60078642D01*
X134633843Y-60208478D01*
X134420625Y-59889375D01*
X133929418Y-59561161D01*
X133496256Y-59475000D01*
X133203744Y-59475000D01*
X132770582Y-59561161D01*
X132279375Y-59889375D01*
X132080000Y-60187761D01*
X131880625Y-59889375D01*
X131569714Y-59681631D01*
X131528613Y-59475000D01*
X131525904Y-59461381D01*
X131400329Y-59273446D01*
X131357929Y-59209990D01*
X131294473Y-59167590D01*
X130570412Y-58443530D01*
X130528010Y-58380071D01*
X130276618Y-58212096D01*
X130054933Y-58168000D01*
X130054928Y-58168000D01*
X129980081Y-58153112D01*
X129905234Y-58168000D01*
X127568802Y-58168000D01*
X126744000Y-57343199D01*
X126744000Y-50712000D01*
X129820560Y-50712000D01*
X129820560Y-52412000D01*
X129869843Y-52659765D01*
X130010191Y-52869809D01*
X130220235Y-53010157D01*
X130468000Y-53059440D01*
X132168000Y-53059440D01*
X132415765Y-53010157D01*
X132625809Y-52869809D01*
X132766157Y-52659765D01*
X132815440Y-52412000D01*
X132815440Y-50712000D01*
X133376560Y-50712000D01*
X133376560Y-52412000D01*
X133425843Y-52659765D01*
X133566191Y-52869809D01*
X133776235Y-53010157D01*
X134024000Y-53059440D01*
X135724000Y-53059440D01*
X135971765Y-53010157D01*
X136181809Y-52869809D01*
X136322157Y-52659765D01*
X136371440Y-52412000D01*
X136371440Y-50712000D01*
X136322157Y-50464235D01*
X136181809Y-50254191D01*
X135971765Y-50113843D01*
X135724000Y-50064560D01*
X134024000Y-50064560D01*
X133776235Y-50113843D01*
X133566191Y-50254191D01*
X133425843Y-50464235D01*
X133376560Y-50712000D01*
X132815440Y-50712000D01*
X132766157Y-50464235D01*
X132625809Y-50254191D01*
X132415765Y-50113843D01*
X132168000Y-50064560D01*
X130468000Y-50064560D01*
X130220235Y-50113843D01*
X130010191Y-50254191D01*
X129869843Y-50464235D01*
X129820560Y-50712000D01*
X126744000Y-50712000D01*
X126744000Y-47664000D01*
X129820560Y-47664000D01*
X129820560Y-49364000D01*
X129869843Y-49611765D01*
X130010191Y-49821809D01*
X130220235Y-49962157D01*
X130468000Y-50011440D01*
X132168000Y-50011440D01*
X132415765Y-49962157D01*
X132625809Y-49821809D01*
X132766157Y-49611765D01*
X132815440Y-49364000D01*
X132815440Y-47664000D01*
X132766157Y-47416235D01*
X132625809Y-47206191D01*
X132415765Y-47065843D01*
X132168000Y-47016560D01*
X130468000Y-47016560D01*
X130220235Y-47065843D01*
X130010191Y-47206191D01*
X129869843Y-47416235D01*
X129820560Y-47664000D01*
X126744000Y-47664000D01*
X126744000Y-47064848D01*
X126758888Y-46990000D01*
X126744000Y-46915152D01*
X126744000Y-46915148D01*
X126699904Y-46693463D01*
X126699904Y-46693462D01*
X126574329Y-46505527D01*
X126531929Y-46442071D01*
X126468473Y-46399671D01*
X125784331Y-45715530D01*
X125741929Y-45652071D01*
X125490537Y-45484096D01*
X125389508Y-45464000D01*
X126550289Y-45464000D01*
X126667720Y-45581431D01*
X127048126Y-45739000D01*
X127459874Y-45739000D01*
X127840280Y-45581431D01*
X128131431Y-45290280D01*
X128289000Y-44909874D01*
X128289000Y-44498126D01*
X128131431Y-44117720D01*
X127955711Y-43942000D01*
X128131431Y-43766280D01*
X128289000Y-43385874D01*
X128289000Y-42974126D01*
X128131431Y-42593720D01*
X128074339Y-42536628D01*
X130986560Y-42536628D01*
X130986560Y-42725001D01*
X131054873Y-43068436D01*
X131249414Y-43359586D01*
X131347313Y-43425000D01*
X131249414Y-43490414D01*
X131054873Y-43781564D01*
X130986560Y-44124999D01*
X130986560Y-44775001D01*
X131054873Y-45118436D01*
X131249414Y-45409586D01*
X131540564Y-45604127D01*
X131883999Y-45672440D01*
X132784001Y-45672440D01*
X133127436Y-45604127D01*
X133418586Y-45409586D01*
X133477000Y-45322164D01*
X133535414Y-45409586D01*
X133826564Y-45604127D01*
X134169999Y-45672440D01*
X135070001Y-45672440D01*
X135413436Y-45604127D01*
X135704586Y-45409586D01*
X135899127Y-45118436D01*
X135967440Y-44775001D01*
X135967440Y-44124999D01*
X135899127Y-43781564D01*
X135704586Y-43490414D01*
X135703403Y-43489623D01*
X135858327Y-43334698D01*
X135955000Y-43101309D01*
X135955000Y-42685750D01*
X135796250Y-42527000D01*
X134747000Y-42527000D01*
X134747000Y-42547000D01*
X134493000Y-42547000D01*
X134493000Y-42527000D01*
X134473000Y-42527000D01*
X134473000Y-42273000D01*
X134493000Y-42273000D01*
X134493000Y-41348750D01*
X134747000Y-41348750D01*
X134747000Y-42273000D01*
X135796250Y-42273000D01*
X135955000Y-42114250D01*
X135955000Y-41698691D01*
X135858327Y-41465302D01*
X135679699Y-41286673D01*
X135446310Y-41190000D01*
X134905750Y-41190000D01*
X134747000Y-41348750D01*
X134493000Y-41348750D01*
X134334250Y-41190000D01*
X133793690Y-41190000D01*
X133560301Y-41286673D01*
X133411377Y-41435597D01*
X133127436Y-41245873D01*
X132784001Y-41177560D01*
X132182022Y-41177560D01*
X132007165Y-41060724D01*
X131785480Y-41016628D01*
X131785475Y-41016628D01*
X131710628Y-41001740D01*
X131635781Y-41016628D01*
X124471904Y-41016628D01*
X124397057Y-41001740D01*
X124322210Y-41016628D01*
X124322205Y-41016628D01*
X124100520Y-41060724D01*
X123849128Y-41228699D01*
X123806728Y-41292155D01*
X123622155Y-41476728D01*
X123395874Y-41383000D01*
X122984126Y-41383000D01*
X122603720Y-41540569D01*
X122486289Y-41658000D01*
X120724847Y-41658000D01*
X120650000Y-41643112D01*
X120575153Y-41658000D01*
X120575148Y-41658000D01*
X120353463Y-41702096D01*
X120102071Y-41870071D01*
X120059671Y-41933527D01*
X116101528Y-45891671D01*
X116038072Y-45934071D01*
X115995672Y-45997527D01*
X115995671Y-45997528D01*
X115870097Y-46185463D01*
X115811112Y-46482000D01*
X115826001Y-46556852D01*
X115826000Y-49842289D01*
X115708569Y-49959720D01*
X115702393Y-49974629D01*
X115658157Y-49752235D01*
X115517809Y-49542191D01*
X115307765Y-49401843D01*
X115060000Y-49352560D01*
X113460000Y-49352560D01*
X113212235Y-49401843D01*
X113002191Y-49542191D01*
X112861843Y-49752235D01*
X112815307Y-49986187D01*
X112767745Y-49971861D01*
X111939605Y-50800000D01*
X112767745Y-51628139D01*
X112815307Y-51613813D01*
X112861843Y-51847765D01*
X113002191Y-52057809D01*
X113212235Y-52198157D01*
X113375000Y-52230533D01*
X113375001Y-59792071D01*
X113229375Y-59889375D01*
X113030000Y-60187761D01*
X112830625Y-59889375D01*
X112339418Y-59561161D01*
X111906256Y-59475000D01*
X111613744Y-59475000D01*
X111180582Y-59561161D01*
X110689375Y-59889375D01*
X110490000Y-60187761D01*
X110290625Y-59889375D01*
X109799418Y-59561161D01*
X109366256Y-59475000D01*
X109073744Y-59475000D01*
X108660000Y-59557299D01*
X108660000Y-58552701D01*
X109073744Y-58635000D01*
X109366256Y-58635000D01*
X109799418Y-58548839D01*
X110290625Y-58220625D01*
X110618839Y-57729418D01*
X110734092Y-57150000D01*
X110618839Y-56570582D01*
X110290625Y-56079375D01*
X110272381Y-56067184D01*
X110317765Y-56058157D01*
X110527809Y-55917809D01*
X110668157Y-55707765D01*
X110717440Y-55460000D01*
X110717440Y-53760000D01*
X110668157Y-53512235D01*
X110527809Y-53302191D01*
X110317765Y-53161843D01*
X110070000Y-53112560D01*
X108660000Y-53112560D01*
X108660000Y-52285000D01*
X108934250Y-52285000D01*
X109093000Y-52126250D01*
X109093000Y-50927000D01*
X109073000Y-50927000D01*
X109073000Y-50673000D01*
X109093000Y-50673000D01*
X109093000Y-50653000D01*
X109347000Y-50653000D01*
X109347000Y-50673000D01*
X109367000Y-50673000D01*
X109367000Y-50927000D01*
X109347000Y-50927000D01*
X109347000Y-52126250D01*
X109505750Y-52285000D01*
X110196309Y-52285000D01*
X110429698Y-52188327D01*
X110608327Y-52009699D01*
X110691979Y-51807745D01*
X110931861Y-51807745D01*
X111005995Y-52053864D01*
X111543223Y-52246965D01*
X112113454Y-52219778D01*
X112514005Y-52053864D01*
X112588139Y-51807745D01*
X111760000Y-50979605D01*
X110931861Y-51807745D01*
X110691979Y-51807745D01*
X110705000Y-51776310D01*
X110705000Y-51613905D01*
X110752255Y-51628139D01*
X111580395Y-50800000D01*
X110752255Y-49971861D01*
X110705000Y-49986095D01*
X110705000Y-49823690D01*
X110691980Y-49792255D01*
X110931861Y-49792255D01*
X111760000Y-50620395D01*
X112588139Y-49792255D01*
X112514005Y-49546136D01*
X111976777Y-49353035D01*
X111406546Y-49380222D01*
X111005995Y-49546136D01*
X110931861Y-49792255D01*
X110691980Y-49792255D01*
X110608327Y-49590301D01*
X110429698Y-49411673D01*
X110268967Y-49345096D01*
X110290625Y-49330625D01*
X110618839Y-48839418D01*
X110734092Y-48260000D01*
X110618839Y-47680582D01*
X110290625Y-47189375D01*
X109799418Y-46861161D01*
X109366256Y-46775000D01*
X109073744Y-46775000D01*
X108660000Y-46857299D01*
X108660000Y-45947440D01*
X110070000Y-45947440D01*
X110317765Y-45898157D01*
X110527809Y-45757809D01*
X110668157Y-45547765D01*
X110717440Y-45300000D01*
X110717440Y-43600000D01*
X110668157Y-43352235D01*
X110527809Y-43142191D01*
X110317765Y-43001843D01*
X110272381Y-42992816D01*
X110290625Y-42980625D01*
X110618839Y-42489418D01*
X110734092Y-41910000D01*
X110618839Y-41330582D01*
X110290625Y-40839375D01*
X109992239Y-40640000D01*
X110290625Y-40440625D01*
X110618839Y-39949418D01*
X110734092Y-39370000D01*
X110618839Y-38790582D01*
X110290625Y-38299375D01*
X109992239Y-38100000D01*
X110290625Y-37900625D01*
X110618839Y-37409418D01*
X110734092Y-36830000D01*
X110618839Y-36250582D01*
X110462096Y-36016000D01*
X110897560Y-36016000D01*
X110897560Y-37680000D01*
G36*
X119507000Y-60833000D02*
X119527000Y-60833000D01*
X119527000Y-61087000D01*
X119507000Y-61087000D01*
X119507000Y-61107000D01*
X119253000Y-61107000D01*
X119253000Y-61087000D01*
X119233000Y-61087000D01*
X119233000Y-60833000D01*
X119253000Y-60833000D01*
X119253000Y-60813000D01*
X119507000Y-60813000D01*
X119507000Y-60833000D01*
X119507000Y-60833000D01*
G37*
X119507000Y-60833000D02*
X119527000Y-60833000D01*
X119527000Y-61087000D01*
X119507000Y-61087000D01*
X119507000Y-61107000D01*
X119253000Y-61107000D01*
X119253000Y-61087000D01*
X119233000Y-61087000D01*
X119233000Y-60833000D01*
X119253000Y-60833000D01*
X119253000Y-60813000D01*
X119507000Y-60813000D01*
X119507000Y-60833000D01*
G36*
X119507000Y-60833000D02*
X119527000Y-60833000D01*
X119527000Y-61087000D01*
X119507000Y-61087000D01*
X119507000Y-61107000D01*
X119253000Y-61107000D01*
X119253000Y-61087000D01*
X119233000Y-61087000D01*
X119233000Y-60833000D01*
X119253000Y-60833000D01*
X119253000Y-60813000D01*
X119507000Y-60813000D01*
X119507000Y-60833000D01*
X119507000Y-60833000D01*
G37*
X119507000Y-60833000D02*
X119527000Y-60833000D01*
X119527000Y-61087000D01*
X119507000Y-61087000D01*
X119507000Y-61107000D01*
X119253000Y-61107000D01*
X119253000Y-61087000D01*
X119233000Y-61087000D01*
X119233000Y-60833000D01*
X119253000Y-60833000D01*
X119253000Y-60813000D01*
X119507000Y-60813000D01*
X119507000Y-60833000D01*
G36*
X110897560Y-37680000D02*
X110946843Y-37927765D01*
X111087191Y-38137809D01*
X111297235Y-38278157D01*
X111545000Y-38327440D01*
X113245000Y-38327440D01*
X113492765Y-38278157D01*
X113702809Y-38137809D01*
X113843157Y-37927765D01*
X113892440Y-37680000D01*
X113892440Y-36016000D01*
X119152560Y-36016000D01*
X119152560Y-37350000D01*
X119201843Y-37597765D01*
X119342191Y-37807809D01*
X119552235Y-37948157D01*
X119800000Y-37997440D01*
X121500000Y-37997440D01*
X121747765Y-37948157D01*
X121920000Y-37833072D01*
X122092235Y-37948157D01*
X122340000Y-37997440D01*
X124040000Y-37997440D01*
X124287765Y-37948157D01*
X124497809Y-37807809D01*
X124638157Y-37597765D01*
X124687440Y-37350000D01*
X124687440Y-36016000D01*
X128042560Y-36016000D01*
X128042560Y-37350000D01*
X128091843Y-37597765D01*
X128232191Y-37807809D01*
X128442235Y-37948157D01*
X128690000Y-37997440D01*
X130390000Y-37997440D01*
X130637765Y-37948157D01*
X130847809Y-37807809D01*
X130988157Y-37597765D01*
X131037440Y-37350000D01*
X131037440Y-36016000D01*
X136785568Y-36016000D01*
X136932560Y-51891130D01*
X136932560Y-52920000D01*
X136942552Y-52970232D01*
X136955874Y-54409075D01*
X136915908Y-54610000D01*
X136959777Y-54830544D01*
X136971567Y-56103896D01*
X136932560Y-56300000D01*
X136932560Y-58000000D01*
X136981843Y-58247765D01*
X136991552Y-58262296D01*
X137007717Y-60008044D01*
X136656924Y-59688355D01*
X136246890Y-59518524D01*
X136017000Y-59639845D01*
X136017000Y-60833000D01*
X136037000Y-60833000D01*
X136037000Y-61087000D01*
X136017000Y-61087000D01*
X136017000Y-61107000D01*
X135763000Y-61107000D01*
X135763000Y-61087000D01*
X135743000Y-61087000D01*
X135743000Y-60833000D01*
X135763000Y-60833000D01*
X135763000Y-59639845D01*
X135533110Y-59518524D01*
X135123076Y-59688355D01*
X134694817Y-60078642D01*
X134633843Y-60208478D01*
X134420625Y-59889375D01*
X133929418Y-59561161D01*
X133496256Y-59475000D01*
X133203744Y-59475000D01*
X132770582Y-59561161D01*
X132279375Y-59889375D01*
X132080000Y-60187761D01*
X131880625Y-59889375D01*
X131569714Y-59681631D01*
X131528613Y-59475000D01*
X131525904Y-59461381D01*
X131400329Y-59273446D01*
X131357929Y-59209990D01*
X131294473Y-59167590D01*
X130570412Y-58443530D01*
X130528010Y-58380071D01*
X130276618Y-58212096D01*
X130054933Y-58168000D01*
X130054928Y-58168000D01*
X129980081Y-58153112D01*
X129905234Y-58168000D01*
X127568802Y-58168000D01*
X126744000Y-57343199D01*
X126744000Y-50712000D01*
X129820560Y-50712000D01*
X129820560Y-52412000D01*
X129869843Y-52659765D01*
X130010191Y-52869809D01*
X130220235Y-53010157D01*
X130468000Y-53059440D01*
X132168000Y-53059440D01*
X132415765Y-53010157D01*
X132625809Y-52869809D01*
X132766157Y-52659765D01*
X132815440Y-52412000D01*
X132815440Y-50712000D01*
X133376560Y-50712000D01*
X133376560Y-52412000D01*
X133425843Y-52659765D01*
X133566191Y-52869809D01*
X133776235Y-53010157D01*
X134024000Y-53059440D01*
X135724000Y-53059440D01*
X135971765Y-53010157D01*
X136181809Y-52869809D01*
X136322157Y-52659765D01*
X136371440Y-52412000D01*
X136371440Y-50712000D01*
X136322157Y-50464235D01*
X136181809Y-50254191D01*
X135971765Y-50113843D01*
X135724000Y-50064560D01*
X134024000Y-50064560D01*
X133776235Y-50113843D01*
X133566191Y-50254191D01*
X133425843Y-50464235D01*
X133376560Y-50712000D01*
X132815440Y-50712000D01*
X132766157Y-50464235D01*
X132625809Y-50254191D01*
X132415765Y-50113843D01*
X132168000Y-50064560D01*
X130468000Y-50064560D01*
X130220235Y-50113843D01*
X130010191Y-50254191D01*
X129869843Y-50464235D01*
X129820560Y-50712000D01*
X126744000Y-50712000D01*
X126744000Y-47664000D01*
X129820560Y-47664000D01*
X129820560Y-49364000D01*
X129869843Y-49611765D01*
X130010191Y-49821809D01*
X130220235Y-49962157D01*
X130468000Y-50011440D01*
X132168000Y-50011440D01*
X132415765Y-49962157D01*
X132625809Y-49821809D01*
X132766157Y-49611765D01*
X132815440Y-49364000D01*
X132815440Y-47664000D01*
X132766157Y-47416235D01*
X132625809Y-47206191D01*
X132415765Y-47065843D01*
X132168000Y-47016560D01*
X130468000Y-47016560D01*
X130220235Y-47065843D01*
X130010191Y-47206191D01*
X129869843Y-47416235D01*
X129820560Y-47664000D01*
X126744000Y-47664000D01*
X126744000Y-47064848D01*
X126758888Y-46990000D01*
X126744000Y-46915152D01*
X126744000Y-46915148D01*
X126699904Y-46693463D01*
X126699904Y-46693462D01*
X126574329Y-46505527D01*
X126531929Y-46442071D01*
X126468473Y-46399671D01*
X125784331Y-45715530D01*
X125741929Y-45652071D01*
X125490537Y-45484096D01*
X125389508Y-45464000D01*
X126550289Y-45464000D01*
X126667720Y-45581431D01*
X127048126Y-45739000D01*
X127459874Y-45739000D01*
X127840280Y-45581431D01*
X128131431Y-45290280D01*
X128289000Y-44909874D01*
X128289000Y-44498126D01*
X128131431Y-44117720D01*
X127955711Y-43942000D01*
X128131431Y-43766280D01*
X128289000Y-43385874D01*
X128289000Y-42974126D01*
X128131431Y-42593720D01*
X128074339Y-42536628D01*
X130986560Y-42536628D01*
X130986560Y-42725001D01*
X131054873Y-43068436D01*
X131249414Y-43359586D01*
X131347313Y-43425000D01*
X131249414Y-43490414D01*
X131054873Y-43781564D01*
X130986560Y-44124999D01*
X130986560Y-44775001D01*
X131054873Y-45118436D01*
X131249414Y-45409586D01*
X131540564Y-45604127D01*
X131883999Y-45672440D01*
X132784001Y-45672440D01*
X133127436Y-45604127D01*
X133418586Y-45409586D01*
X133477000Y-45322164D01*
X133535414Y-45409586D01*
X133826564Y-45604127D01*
X134169999Y-45672440D01*
X135070001Y-45672440D01*
X135413436Y-45604127D01*
X135704586Y-45409586D01*
X135899127Y-45118436D01*
X135967440Y-44775001D01*
X135967440Y-44124999D01*
X135899127Y-43781564D01*
X135704586Y-43490414D01*
X135703403Y-43489623D01*
X135858327Y-43334698D01*
X135955000Y-43101309D01*
X135955000Y-42685750D01*
X135796250Y-42527000D01*
X134747000Y-42527000D01*
X134747000Y-42547000D01*
X134493000Y-42547000D01*
X134493000Y-42527000D01*
X134473000Y-42527000D01*
X134473000Y-42273000D01*
X134493000Y-42273000D01*
X134493000Y-41348750D01*
X134747000Y-41348750D01*
X134747000Y-42273000D01*
X135796250Y-42273000D01*
X135955000Y-42114250D01*
X135955000Y-41698691D01*
X135858327Y-41465302D01*
X135679699Y-41286673D01*
X135446310Y-41190000D01*
X134905750Y-41190000D01*
X134747000Y-41348750D01*
X134493000Y-41348750D01*
X134334250Y-41190000D01*
X133793690Y-41190000D01*
X133560301Y-41286673D01*
X133411377Y-41435597D01*
X133127436Y-41245873D01*
X132784001Y-41177560D01*
X132182022Y-41177560D01*
X132007165Y-41060724D01*
X131785480Y-41016628D01*
X131785475Y-41016628D01*
X131710628Y-41001740D01*
X131635781Y-41016628D01*
X124471904Y-41016628D01*
X124397057Y-41001740D01*
X124322210Y-41016628D01*
X124322205Y-41016628D01*
X124100520Y-41060724D01*
X123849128Y-41228699D01*
X123806728Y-41292155D01*
X123622155Y-41476728D01*
X123395874Y-41383000D01*
X122984126Y-41383000D01*
X122603720Y-41540569D01*
X122486289Y-41658000D01*
X120724847Y-41658000D01*
X120650000Y-41643112D01*
X120575153Y-41658000D01*
X120575148Y-41658000D01*
X120353463Y-41702096D01*
X120102071Y-41870071D01*
X120059671Y-41933527D01*
X116101528Y-45891671D01*
X116038072Y-45934071D01*
X115995672Y-45997527D01*
X115995671Y-45997528D01*
X115870097Y-46185463D01*
X115811112Y-46482000D01*
X115826001Y-46556852D01*
X115826000Y-49842289D01*
X115708569Y-49959720D01*
X115702393Y-49974629D01*
X115658157Y-49752235D01*
X115517809Y-49542191D01*
X115307765Y-49401843D01*
X115060000Y-49352560D01*
X113460000Y-49352560D01*
X113212235Y-49401843D01*
X113002191Y-49542191D01*
X112861843Y-49752235D01*
X112815307Y-49986187D01*
X112767745Y-49971861D01*
X111939605Y-50800000D01*
X112767745Y-51628139D01*
X112815307Y-51613813D01*
X112861843Y-51847765D01*
X113002191Y-52057809D01*
X113212235Y-52198157D01*
X113375000Y-52230533D01*
X113375001Y-59792071D01*
X113229375Y-59889375D01*
X113030000Y-60187761D01*
X112830625Y-59889375D01*
X112339418Y-59561161D01*
X111906256Y-59475000D01*
X111613744Y-59475000D01*
X111180582Y-59561161D01*
X110689375Y-59889375D01*
X110642736Y-59959175D01*
X110665556Y-57494553D01*
X110734092Y-57150000D01*
X110671653Y-56836098D01*
X110682782Y-55634242D01*
X110717440Y-55460000D01*
X110717440Y-53760000D01*
X110700905Y-53676874D01*
X110718211Y-51807745D01*
X110931861Y-51807745D01*
X111005995Y-52053864D01*
X111543223Y-52246965D01*
X112113454Y-52219778D01*
X112514005Y-52053864D01*
X112588139Y-51807745D01*
X111760000Y-50979605D01*
X110931861Y-51807745D01*
X110718211Y-51807745D01*
X110719965Y-51618413D01*
X110752255Y-51628139D01*
X111580395Y-50800000D01*
X111566252Y-50785858D01*
X111745858Y-50606252D01*
X111760000Y-50620395D01*
X112588139Y-49792255D01*
X112514005Y-49546136D01*
X111976777Y-49353035D01*
X111406546Y-49380222D01*
X111005995Y-49546136D01*
X110931861Y-49792253D01*
X110816986Y-49677378D01*
X110737199Y-49757165D01*
X110864432Y-36016000D01*
X110897560Y-36016000D01*
X110897560Y-37680000D01*
X110897560Y-37680000D01*
G37*
X110897560Y-37680000D02*
X110946843Y-37927765D01*
X111087191Y-38137809D01*
X111297235Y-38278157D01*
X111545000Y-38327440D01*
X113245000Y-38327440D01*
X113492765Y-38278157D01*
X113702809Y-38137809D01*
X113843157Y-37927765D01*
X113892440Y-37680000D01*
X113892440Y-36016000D01*
X119152560Y-36016000D01*
X119152560Y-37350000D01*
X119201843Y-37597765D01*
X119342191Y-37807809D01*
X119552235Y-37948157D01*
X119800000Y-37997440D01*
X121500000Y-37997440D01*
X121747765Y-37948157D01*
X121920000Y-37833072D01*
X122092235Y-37948157D01*
X122340000Y-37997440D01*
X124040000Y-37997440D01*
X124287765Y-37948157D01*
X124497809Y-37807809D01*
X124638157Y-37597765D01*
X124687440Y-37350000D01*
X124687440Y-36016000D01*
X128042560Y-36016000D01*
X128042560Y-37350000D01*
X128091843Y-37597765D01*
X128232191Y-37807809D01*
X128442235Y-37948157D01*
X128690000Y-37997440D01*
X130390000Y-37997440D01*
X130637765Y-37948157D01*
X130847809Y-37807809D01*
X130988157Y-37597765D01*
X131037440Y-37350000D01*
X131037440Y-36016000D01*
X136785568Y-36016000D01*
X136932560Y-51891130D01*
X136932560Y-52920000D01*
X136942552Y-52970232D01*
X136955874Y-54409075D01*
X136915908Y-54610000D01*
X136959777Y-54830544D01*
X136971567Y-56103896D01*
X136932560Y-56300000D01*
X136932560Y-58000000D01*
X136981843Y-58247765D01*
X136991552Y-58262296D01*
X137007717Y-60008044D01*
X136656924Y-59688355D01*
X136246890Y-59518524D01*
X136017000Y-59639845D01*
X136017000Y-60833000D01*
X136037000Y-60833000D01*
X136037000Y-61087000D01*
X136017000Y-61087000D01*
X136017000Y-61107000D01*
X135763000Y-61107000D01*
X135763000Y-61087000D01*
X135743000Y-61087000D01*
X135743000Y-60833000D01*
X135763000Y-60833000D01*
X135763000Y-59639845D01*
X135533110Y-59518524D01*
X135123076Y-59688355D01*
X134694817Y-60078642D01*
X134633843Y-60208478D01*
X134420625Y-59889375D01*
X133929418Y-59561161D01*
X133496256Y-59475000D01*
X133203744Y-59475000D01*
X132770582Y-59561161D01*
X132279375Y-59889375D01*
X132080000Y-60187761D01*
X131880625Y-59889375D01*
X131569714Y-59681631D01*
X131528613Y-59475000D01*
X131525904Y-59461381D01*
X131400329Y-59273446D01*
X131357929Y-59209990D01*
X131294473Y-59167590D01*
X130570412Y-58443530D01*
X130528010Y-58380071D01*
X130276618Y-58212096D01*
X130054933Y-58168000D01*
X130054928Y-58168000D01*
X129980081Y-58153112D01*
X129905234Y-58168000D01*
X127568802Y-58168000D01*
X126744000Y-57343199D01*
X126744000Y-50712000D01*
X129820560Y-50712000D01*
X129820560Y-52412000D01*
X129869843Y-52659765D01*
X130010191Y-52869809D01*
X130220235Y-53010157D01*
X130468000Y-53059440D01*
X132168000Y-53059440D01*
X132415765Y-53010157D01*
X132625809Y-52869809D01*
X132766157Y-52659765D01*
X132815440Y-52412000D01*
X132815440Y-50712000D01*
X133376560Y-50712000D01*
X133376560Y-52412000D01*
X133425843Y-52659765D01*
X133566191Y-52869809D01*
X133776235Y-53010157D01*
X134024000Y-53059440D01*
X135724000Y-53059440D01*
X135971765Y-53010157D01*
X136181809Y-52869809D01*
X136322157Y-52659765D01*
X136371440Y-52412000D01*
X136371440Y-50712000D01*
X136322157Y-50464235D01*
X136181809Y-50254191D01*
X135971765Y-50113843D01*
X135724000Y-50064560D01*
X134024000Y-50064560D01*
X133776235Y-50113843D01*
X133566191Y-50254191D01*
X133425843Y-50464235D01*
X133376560Y-50712000D01*
X132815440Y-50712000D01*
X132766157Y-50464235D01*
X132625809Y-50254191D01*
X132415765Y-50113843D01*
X132168000Y-50064560D01*
X130468000Y-50064560D01*
X130220235Y-50113843D01*
X130010191Y-50254191D01*
X129869843Y-50464235D01*
X129820560Y-50712000D01*
X126744000Y-50712000D01*
X126744000Y-47664000D01*
X129820560Y-47664000D01*
X129820560Y-49364000D01*
X129869843Y-49611765D01*
X130010191Y-49821809D01*
X130220235Y-49962157D01*
X130468000Y-50011440D01*
X132168000Y-50011440D01*
X132415765Y-49962157D01*
X132625809Y-49821809D01*
X132766157Y-49611765D01*
X132815440Y-49364000D01*
X132815440Y-47664000D01*
X132766157Y-47416235D01*
X132625809Y-47206191D01*
X132415765Y-47065843D01*
X132168000Y-47016560D01*
X130468000Y-47016560D01*
X130220235Y-47065843D01*
X130010191Y-47206191D01*
X129869843Y-47416235D01*
X129820560Y-47664000D01*
X126744000Y-47664000D01*
X126744000Y-47064848D01*
X126758888Y-46990000D01*
X126744000Y-46915152D01*
X126744000Y-46915148D01*
X126699904Y-46693463D01*
X126699904Y-46693462D01*
X126574329Y-46505527D01*
X126531929Y-46442071D01*
X126468473Y-46399671D01*
X125784331Y-45715530D01*
X125741929Y-45652071D01*
X125490537Y-45484096D01*
X125389508Y-45464000D01*
X126550289Y-45464000D01*
X126667720Y-45581431D01*
X127048126Y-45739000D01*
X127459874Y-45739000D01*
X127840280Y-45581431D01*
X128131431Y-45290280D01*
X128289000Y-44909874D01*
X128289000Y-44498126D01*
X128131431Y-44117720D01*
X127955711Y-43942000D01*
X128131431Y-43766280D01*
X128289000Y-43385874D01*
X128289000Y-42974126D01*
X128131431Y-42593720D01*
X128074339Y-42536628D01*
X130986560Y-42536628D01*
X130986560Y-42725001D01*
X131054873Y-43068436D01*
X131249414Y-43359586D01*
X131347313Y-43425000D01*
X131249414Y-43490414D01*
X131054873Y-43781564D01*
X130986560Y-44124999D01*
X130986560Y-44775001D01*
X131054873Y-45118436D01*
X131249414Y-45409586D01*
X131540564Y-45604127D01*
X131883999Y-45672440D01*
X132784001Y-45672440D01*
X133127436Y-45604127D01*
X133418586Y-45409586D01*
X133477000Y-45322164D01*
X133535414Y-45409586D01*
X133826564Y-45604127D01*
X134169999Y-45672440D01*
X135070001Y-45672440D01*
X135413436Y-45604127D01*
X135704586Y-45409586D01*
X135899127Y-45118436D01*
X135967440Y-44775001D01*
X135967440Y-44124999D01*
X135899127Y-43781564D01*
X135704586Y-43490414D01*
X135703403Y-43489623D01*
X135858327Y-43334698D01*
X135955000Y-43101309D01*
X135955000Y-42685750D01*
X135796250Y-42527000D01*
X134747000Y-42527000D01*
X134747000Y-42547000D01*
X134493000Y-42547000D01*
X134493000Y-42527000D01*
X134473000Y-42527000D01*
X134473000Y-42273000D01*
X134493000Y-42273000D01*
X134493000Y-41348750D01*
X134747000Y-41348750D01*
X134747000Y-42273000D01*
X135796250Y-42273000D01*
X135955000Y-42114250D01*
X135955000Y-41698691D01*
X135858327Y-41465302D01*
X135679699Y-41286673D01*
X135446310Y-41190000D01*
X134905750Y-41190000D01*
X134747000Y-41348750D01*
X134493000Y-41348750D01*
X134334250Y-41190000D01*
X133793690Y-41190000D01*
X133560301Y-41286673D01*
X133411377Y-41435597D01*
X133127436Y-41245873D01*
X132784001Y-41177560D01*
X132182022Y-41177560D01*
X132007165Y-41060724D01*
X131785480Y-41016628D01*
X131785475Y-41016628D01*
X131710628Y-41001740D01*
X131635781Y-41016628D01*
X124471904Y-41016628D01*
X124397057Y-41001740D01*
X124322210Y-41016628D01*
X124322205Y-41016628D01*
X124100520Y-41060724D01*
X123849128Y-41228699D01*
X123806728Y-41292155D01*
X123622155Y-41476728D01*
X123395874Y-41383000D01*
X122984126Y-41383000D01*
X122603720Y-41540569D01*
X122486289Y-41658000D01*
X120724847Y-41658000D01*
X120650000Y-41643112D01*
X120575153Y-41658000D01*
X120575148Y-41658000D01*
X120353463Y-41702096D01*
X120102071Y-41870071D01*
X120059671Y-41933527D01*
X116101528Y-45891671D01*
X116038072Y-45934071D01*
X115995672Y-45997527D01*
X115995671Y-45997528D01*
X115870097Y-46185463D01*
X115811112Y-46482000D01*
X115826001Y-46556852D01*
X115826000Y-49842289D01*
X115708569Y-49959720D01*
X115702393Y-49974629D01*
X115658157Y-49752235D01*
X115517809Y-49542191D01*
X115307765Y-49401843D01*
X115060000Y-49352560D01*
X113460000Y-49352560D01*
X113212235Y-49401843D01*
X113002191Y-49542191D01*
X112861843Y-49752235D01*
X112815307Y-49986187D01*
X112767745Y-49971861D01*
X111939605Y-50800000D01*
X112767745Y-51628139D01*
X112815307Y-51613813D01*
X112861843Y-51847765D01*
X113002191Y-52057809D01*
X113212235Y-52198157D01*
X113375000Y-52230533D01*
X113375001Y-59792071D01*
X113229375Y-59889375D01*
X113030000Y-60187761D01*
X112830625Y-59889375D01*
X112339418Y-59561161D01*
X111906256Y-59475000D01*
X111613744Y-59475000D01*
X111180582Y-59561161D01*
X110689375Y-59889375D01*
X110642736Y-59959175D01*
X110665556Y-57494553D01*
X110734092Y-57150000D01*
X110671653Y-56836098D01*
X110682782Y-55634242D01*
X110717440Y-55460000D01*
X110717440Y-53760000D01*
X110700905Y-53676874D01*
X110718211Y-51807745D01*
X110931861Y-51807745D01*
X111005995Y-52053864D01*
X111543223Y-52246965D01*
X112113454Y-52219778D01*
X112514005Y-52053864D01*
X112588139Y-51807745D01*
X111760000Y-50979605D01*
X110931861Y-51807745D01*
X110718211Y-51807745D01*
X110719965Y-51618413D01*
X110752255Y-51628139D01*
X111580395Y-50800000D01*
X111566252Y-50785858D01*
X111745858Y-50606252D01*
X111760000Y-50620395D01*
X112588139Y-49792255D01*
X112514005Y-49546136D01*
X111976777Y-49353035D01*
X111406546Y-49380222D01*
X111005995Y-49546136D01*
X110931861Y-49792253D01*
X110816986Y-49677378D01*
X110737199Y-49757165D01*
X110864432Y-36016000D01*
X110897560Y-36016000D01*
X110897560Y-37680000D01*
G36*
X110752253Y-49971861D02*
X110735163Y-49977009D01*
X110735367Y-49954975D01*
X110752253Y-49971861D01*
X110752253Y-49971861D01*
G37*
X110752253Y-49971861D02*
X110735163Y-49977009D01*
X110735367Y-49954975D01*
X110752253Y-49971861D01*
G04 #@! TD*
M02*
