M48
;DRILL file {KiCad 5.0.2+dfsg1-1} date Вт 26 ноя 2019 12:32:45
;FORMAT={3:3/ absolute / metric / suppress leading zeros}
FMAT,2
METRIC,TZ
T1C0.400
T2C0.800
T3C1.000
%
G90
G05
T1
X114046Y-43688
X116586Y-50546
X117602Y-36322
X117602Y-58420
X119126Y-53086
X119126Y-56896
X121666Y-50038
X121666Y-58166
X122654Y-46200
X122682Y-47752
X123190Y-42418
X123952Y-47244
X127254Y-43180
X127254Y-44704
X127254Y-46228
X134620Y-40386
X134620Y-43942
T2
X111760Y-50800
X114260Y-50800
T3
X138430Y-54610
X138430Y-57150
X134874Y-51562
X120650Y-36500
X131318Y-51562
X138430Y-48260
X123190Y-36500
X109220Y-54610
X109220Y-57150
X128270Y-60960
X130810Y-60960
X133350Y-60960
X135890Y-60960
X138430Y-60960
X109220Y-60960
X111760Y-60960
X114300Y-60960
X116840Y-60960
X119380Y-60960
X121920Y-60960
X124460Y-60960
X109220Y-48260
X109220Y-50800
X131318Y-48514
X129540Y-36500
X138430Y-52070
X138430Y-36830
X138430Y-39370
X138430Y-41910
X138430Y-44450
X112395Y-36830
X109220Y-36830
X109220Y-39370
X109220Y-41910
X109220Y-44450
T0
M30
