G04 #@! TF.GenerationSoftware,KiCad,Pcbnew,5.0.2+dfsg1-1*
G04 #@! TF.CreationDate,2019-11-26T12:32:40+03:00*
G04 #@! TF.ProjectId,clmt,636c6d74-2e6b-4696-9361-645f70636258,rev?*
G04 #@! TF.SameCoordinates,Original*
G04 #@! TF.FileFunction,Soldermask,Bot*
G04 #@! TF.FilePolarity,Negative*
%FSLAX46Y46*%
G04 Gerber Fmt 4.6, Leading zero omitted, Abs format (unit mm)*
G04 Created by KiCad (PCBNEW 5.0.2+dfsg1-1) date Вт 26 ноя 2019 12:32:40*
%MOMM*%
%LPD*%
G01*
G04 APERTURE LIST*
%ADD10C,0.100000*%
G04 APERTURE END LIST*
D10*
G36*
X111870442Y-60065518D02*
X111936627Y-60072037D01*
X112049853Y-60106384D01*
X112106467Y-60123557D01*
X112245087Y-60197652D01*
X112262991Y-60207222D01*
X112298729Y-60236552D01*
X112400186Y-60319814D01*
X112483448Y-60421271D01*
X112512778Y-60457009D01*
X112512779Y-60457011D01*
X112596443Y-60613533D01*
X112596443Y-60613534D01*
X112647963Y-60783373D01*
X112665359Y-60960000D01*
X112647963Y-61136627D01*
X112613616Y-61249853D01*
X112596443Y-61306467D01*
X112522348Y-61445087D01*
X112512778Y-61462991D01*
X112483448Y-61498729D01*
X112400186Y-61600186D01*
X112298729Y-61683448D01*
X112262991Y-61712778D01*
X112262989Y-61712779D01*
X112106467Y-61796443D01*
X112049853Y-61813616D01*
X111936627Y-61847963D01*
X111870443Y-61854481D01*
X111804260Y-61861000D01*
X111715740Y-61861000D01*
X111649557Y-61854481D01*
X111583373Y-61847963D01*
X111470147Y-61813616D01*
X111413533Y-61796443D01*
X111257011Y-61712779D01*
X111257009Y-61712778D01*
X111221271Y-61683448D01*
X111119814Y-61600186D01*
X111036552Y-61498729D01*
X111007222Y-61462991D01*
X110997652Y-61445087D01*
X110923557Y-61306467D01*
X110906384Y-61249853D01*
X110872037Y-61136627D01*
X110854641Y-60960000D01*
X110872037Y-60783373D01*
X110923557Y-60613534D01*
X110923557Y-60613533D01*
X111007221Y-60457011D01*
X111007222Y-60457009D01*
X111036552Y-60421271D01*
X111119814Y-60319814D01*
X111221271Y-60236552D01*
X111257009Y-60207222D01*
X111274913Y-60197652D01*
X111413533Y-60123557D01*
X111470147Y-60106384D01*
X111583373Y-60072037D01*
X111649558Y-60065518D01*
X111715740Y-60059000D01*
X111804260Y-60059000D01*
X111870442Y-60065518D01*
X111870442Y-60065518D01*
G37*
G36*
X136000442Y-60065518D02*
X136066627Y-60072037D01*
X136179853Y-60106384D01*
X136236467Y-60123557D01*
X136375087Y-60197652D01*
X136392991Y-60207222D01*
X136428729Y-60236552D01*
X136530186Y-60319814D01*
X136613448Y-60421271D01*
X136642778Y-60457009D01*
X136642779Y-60457011D01*
X136726443Y-60613533D01*
X136726443Y-60613534D01*
X136777963Y-60783373D01*
X136795359Y-60960000D01*
X136777963Y-61136627D01*
X136743616Y-61249853D01*
X136726443Y-61306467D01*
X136652348Y-61445087D01*
X136642778Y-61462991D01*
X136613448Y-61498729D01*
X136530186Y-61600186D01*
X136428729Y-61683448D01*
X136392991Y-61712778D01*
X136392989Y-61712779D01*
X136236467Y-61796443D01*
X136179853Y-61813616D01*
X136066627Y-61847963D01*
X136000443Y-61854481D01*
X135934260Y-61861000D01*
X135845740Y-61861000D01*
X135779557Y-61854481D01*
X135713373Y-61847963D01*
X135600147Y-61813616D01*
X135543533Y-61796443D01*
X135387011Y-61712779D01*
X135387009Y-61712778D01*
X135351271Y-61683448D01*
X135249814Y-61600186D01*
X135166552Y-61498729D01*
X135137222Y-61462991D01*
X135127652Y-61445087D01*
X135053557Y-61306467D01*
X135036384Y-61249853D01*
X135002037Y-61136627D01*
X134984641Y-60960000D01*
X135002037Y-60783373D01*
X135053557Y-60613534D01*
X135053557Y-60613533D01*
X135137221Y-60457011D01*
X135137222Y-60457009D01*
X135166552Y-60421271D01*
X135249814Y-60319814D01*
X135351271Y-60236552D01*
X135387009Y-60207222D01*
X135404913Y-60197652D01*
X135543533Y-60123557D01*
X135600147Y-60106384D01*
X135713373Y-60072037D01*
X135779558Y-60065518D01*
X135845740Y-60059000D01*
X135934260Y-60059000D01*
X136000442Y-60065518D01*
X136000442Y-60065518D01*
G37*
G36*
X109330442Y-60065518D02*
X109396627Y-60072037D01*
X109509853Y-60106384D01*
X109566467Y-60123557D01*
X109705087Y-60197652D01*
X109722991Y-60207222D01*
X109758729Y-60236552D01*
X109860186Y-60319814D01*
X109943448Y-60421271D01*
X109972778Y-60457009D01*
X109972779Y-60457011D01*
X110056443Y-60613533D01*
X110056443Y-60613534D01*
X110107963Y-60783373D01*
X110125359Y-60960000D01*
X110107963Y-61136627D01*
X110073616Y-61249853D01*
X110056443Y-61306467D01*
X109982348Y-61445087D01*
X109972778Y-61462991D01*
X109943448Y-61498729D01*
X109860186Y-61600186D01*
X109758729Y-61683448D01*
X109722991Y-61712778D01*
X109722989Y-61712779D01*
X109566467Y-61796443D01*
X109509853Y-61813616D01*
X109396627Y-61847963D01*
X109330443Y-61854481D01*
X109264260Y-61861000D01*
X109175740Y-61861000D01*
X109109557Y-61854481D01*
X109043373Y-61847963D01*
X108930147Y-61813616D01*
X108873533Y-61796443D01*
X108717011Y-61712779D01*
X108717009Y-61712778D01*
X108681271Y-61683448D01*
X108579814Y-61600186D01*
X108496552Y-61498729D01*
X108467222Y-61462991D01*
X108457652Y-61445087D01*
X108383557Y-61306467D01*
X108366384Y-61249853D01*
X108332037Y-61136627D01*
X108314641Y-60960000D01*
X108332037Y-60783373D01*
X108383557Y-60613534D01*
X108383557Y-60613533D01*
X108467221Y-60457011D01*
X108467222Y-60457009D01*
X108496552Y-60421271D01*
X108579814Y-60319814D01*
X108681271Y-60236552D01*
X108717009Y-60207222D01*
X108734913Y-60197652D01*
X108873533Y-60123557D01*
X108930147Y-60106384D01*
X109043373Y-60072037D01*
X109109558Y-60065518D01*
X109175740Y-60059000D01*
X109264260Y-60059000D01*
X109330442Y-60065518D01*
X109330442Y-60065518D01*
G37*
G36*
X114410442Y-60065518D02*
X114476627Y-60072037D01*
X114589853Y-60106384D01*
X114646467Y-60123557D01*
X114785087Y-60197652D01*
X114802991Y-60207222D01*
X114838729Y-60236552D01*
X114940186Y-60319814D01*
X115023448Y-60421271D01*
X115052778Y-60457009D01*
X115052779Y-60457011D01*
X115136443Y-60613533D01*
X115136443Y-60613534D01*
X115187963Y-60783373D01*
X115205359Y-60960000D01*
X115187963Y-61136627D01*
X115153616Y-61249853D01*
X115136443Y-61306467D01*
X115062348Y-61445087D01*
X115052778Y-61462991D01*
X115023448Y-61498729D01*
X114940186Y-61600186D01*
X114838729Y-61683448D01*
X114802991Y-61712778D01*
X114802989Y-61712779D01*
X114646467Y-61796443D01*
X114589853Y-61813616D01*
X114476627Y-61847963D01*
X114410443Y-61854481D01*
X114344260Y-61861000D01*
X114255740Y-61861000D01*
X114189557Y-61854481D01*
X114123373Y-61847963D01*
X114010147Y-61813616D01*
X113953533Y-61796443D01*
X113797011Y-61712779D01*
X113797009Y-61712778D01*
X113761271Y-61683448D01*
X113659814Y-61600186D01*
X113576552Y-61498729D01*
X113547222Y-61462991D01*
X113537652Y-61445087D01*
X113463557Y-61306467D01*
X113446384Y-61249853D01*
X113412037Y-61136627D01*
X113394641Y-60960000D01*
X113412037Y-60783373D01*
X113463557Y-60613534D01*
X113463557Y-60613533D01*
X113547221Y-60457011D01*
X113547222Y-60457009D01*
X113576552Y-60421271D01*
X113659814Y-60319814D01*
X113761271Y-60236552D01*
X113797009Y-60207222D01*
X113814913Y-60197652D01*
X113953533Y-60123557D01*
X114010147Y-60106384D01*
X114123373Y-60072037D01*
X114189558Y-60065518D01*
X114255740Y-60059000D01*
X114344260Y-60059000D01*
X114410442Y-60065518D01*
X114410442Y-60065518D01*
G37*
G36*
X116950442Y-60065518D02*
X117016627Y-60072037D01*
X117129853Y-60106384D01*
X117186467Y-60123557D01*
X117325087Y-60197652D01*
X117342991Y-60207222D01*
X117378729Y-60236552D01*
X117480186Y-60319814D01*
X117563448Y-60421271D01*
X117592778Y-60457009D01*
X117592779Y-60457011D01*
X117676443Y-60613533D01*
X117676443Y-60613534D01*
X117727963Y-60783373D01*
X117745359Y-60960000D01*
X117727963Y-61136627D01*
X117693616Y-61249853D01*
X117676443Y-61306467D01*
X117602348Y-61445087D01*
X117592778Y-61462991D01*
X117563448Y-61498729D01*
X117480186Y-61600186D01*
X117378729Y-61683448D01*
X117342991Y-61712778D01*
X117342989Y-61712779D01*
X117186467Y-61796443D01*
X117129853Y-61813616D01*
X117016627Y-61847963D01*
X116950443Y-61854481D01*
X116884260Y-61861000D01*
X116795740Y-61861000D01*
X116729557Y-61854481D01*
X116663373Y-61847963D01*
X116550147Y-61813616D01*
X116493533Y-61796443D01*
X116337011Y-61712779D01*
X116337009Y-61712778D01*
X116301271Y-61683448D01*
X116199814Y-61600186D01*
X116116552Y-61498729D01*
X116087222Y-61462991D01*
X116077652Y-61445087D01*
X116003557Y-61306467D01*
X115986384Y-61249853D01*
X115952037Y-61136627D01*
X115934641Y-60960000D01*
X115952037Y-60783373D01*
X116003557Y-60613534D01*
X116003557Y-60613533D01*
X116087221Y-60457011D01*
X116087222Y-60457009D01*
X116116552Y-60421271D01*
X116199814Y-60319814D01*
X116301271Y-60236552D01*
X116337009Y-60207222D01*
X116354913Y-60197652D01*
X116493533Y-60123557D01*
X116550147Y-60106384D01*
X116663373Y-60072037D01*
X116729558Y-60065518D01*
X116795740Y-60059000D01*
X116884260Y-60059000D01*
X116950442Y-60065518D01*
X116950442Y-60065518D01*
G37*
G36*
X119490442Y-60065518D02*
X119556627Y-60072037D01*
X119669853Y-60106384D01*
X119726467Y-60123557D01*
X119865087Y-60197652D01*
X119882991Y-60207222D01*
X119918729Y-60236552D01*
X120020186Y-60319814D01*
X120103448Y-60421271D01*
X120132778Y-60457009D01*
X120132779Y-60457011D01*
X120216443Y-60613533D01*
X120216443Y-60613534D01*
X120267963Y-60783373D01*
X120285359Y-60960000D01*
X120267963Y-61136627D01*
X120233616Y-61249853D01*
X120216443Y-61306467D01*
X120142348Y-61445087D01*
X120132778Y-61462991D01*
X120103448Y-61498729D01*
X120020186Y-61600186D01*
X119918729Y-61683448D01*
X119882991Y-61712778D01*
X119882989Y-61712779D01*
X119726467Y-61796443D01*
X119669853Y-61813616D01*
X119556627Y-61847963D01*
X119490443Y-61854481D01*
X119424260Y-61861000D01*
X119335740Y-61861000D01*
X119269557Y-61854481D01*
X119203373Y-61847963D01*
X119090147Y-61813616D01*
X119033533Y-61796443D01*
X118877011Y-61712779D01*
X118877009Y-61712778D01*
X118841271Y-61683448D01*
X118739814Y-61600186D01*
X118656552Y-61498729D01*
X118627222Y-61462991D01*
X118617652Y-61445087D01*
X118543557Y-61306467D01*
X118526384Y-61249853D01*
X118492037Y-61136627D01*
X118474641Y-60960000D01*
X118492037Y-60783373D01*
X118543557Y-60613534D01*
X118543557Y-60613533D01*
X118627221Y-60457011D01*
X118627222Y-60457009D01*
X118656552Y-60421271D01*
X118739814Y-60319814D01*
X118841271Y-60236552D01*
X118877009Y-60207222D01*
X118894913Y-60197652D01*
X119033533Y-60123557D01*
X119090147Y-60106384D01*
X119203373Y-60072037D01*
X119269558Y-60065518D01*
X119335740Y-60059000D01*
X119424260Y-60059000D01*
X119490442Y-60065518D01*
X119490442Y-60065518D01*
G37*
G36*
X122030442Y-60065518D02*
X122096627Y-60072037D01*
X122209853Y-60106384D01*
X122266467Y-60123557D01*
X122405087Y-60197652D01*
X122422991Y-60207222D01*
X122458729Y-60236552D01*
X122560186Y-60319814D01*
X122643448Y-60421271D01*
X122672778Y-60457009D01*
X122672779Y-60457011D01*
X122756443Y-60613533D01*
X122756443Y-60613534D01*
X122807963Y-60783373D01*
X122825359Y-60960000D01*
X122807963Y-61136627D01*
X122773616Y-61249853D01*
X122756443Y-61306467D01*
X122682348Y-61445087D01*
X122672778Y-61462991D01*
X122643448Y-61498729D01*
X122560186Y-61600186D01*
X122458729Y-61683448D01*
X122422991Y-61712778D01*
X122422989Y-61712779D01*
X122266467Y-61796443D01*
X122209853Y-61813616D01*
X122096627Y-61847963D01*
X122030443Y-61854481D01*
X121964260Y-61861000D01*
X121875740Y-61861000D01*
X121809557Y-61854481D01*
X121743373Y-61847963D01*
X121630147Y-61813616D01*
X121573533Y-61796443D01*
X121417011Y-61712779D01*
X121417009Y-61712778D01*
X121381271Y-61683448D01*
X121279814Y-61600186D01*
X121196552Y-61498729D01*
X121167222Y-61462991D01*
X121157652Y-61445087D01*
X121083557Y-61306467D01*
X121066384Y-61249853D01*
X121032037Y-61136627D01*
X121014641Y-60960000D01*
X121032037Y-60783373D01*
X121083557Y-60613534D01*
X121083557Y-60613533D01*
X121167221Y-60457011D01*
X121167222Y-60457009D01*
X121196552Y-60421271D01*
X121279814Y-60319814D01*
X121381271Y-60236552D01*
X121417009Y-60207222D01*
X121434913Y-60197652D01*
X121573533Y-60123557D01*
X121630147Y-60106384D01*
X121743373Y-60072037D01*
X121809558Y-60065518D01*
X121875740Y-60059000D01*
X121964260Y-60059000D01*
X122030442Y-60065518D01*
X122030442Y-60065518D01*
G37*
G36*
X125361000Y-61861000D02*
X123559000Y-61861000D01*
X123559000Y-60059000D01*
X125361000Y-60059000D01*
X125361000Y-61861000D01*
X125361000Y-61861000D01*
G37*
G36*
X133460442Y-60065518D02*
X133526627Y-60072037D01*
X133639853Y-60106384D01*
X133696467Y-60123557D01*
X133835087Y-60197652D01*
X133852991Y-60207222D01*
X133888729Y-60236552D01*
X133990186Y-60319814D01*
X134073448Y-60421271D01*
X134102778Y-60457009D01*
X134102779Y-60457011D01*
X134186443Y-60613533D01*
X134186443Y-60613534D01*
X134237963Y-60783373D01*
X134255359Y-60960000D01*
X134237963Y-61136627D01*
X134203616Y-61249853D01*
X134186443Y-61306467D01*
X134112348Y-61445087D01*
X134102778Y-61462991D01*
X134073448Y-61498729D01*
X133990186Y-61600186D01*
X133888729Y-61683448D01*
X133852991Y-61712778D01*
X133852989Y-61712779D01*
X133696467Y-61796443D01*
X133639853Y-61813616D01*
X133526627Y-61847963D01*
X133460443Y-61854481D01*
X133394260Y-61861000D01*
X133305740Y-61861000D01*
X133239557Y-61854481D01*
X133173373Y-61847963D01*
X133060147Y-61813616D01*
X133003533Y-61796443D01*
X132847011Y-61712779D01*
X132847009Y-61712778D01*
X132811271Y-61683448D01*
X132709814Y-61600186D01*
X132626552Y-61498729D01*
X132597222Y-61462991D01*
X132587652Y-61445087D01*
X132513557Y-61306467D01*
X132496384Y-61249853D01*
X132462037Y-61136627D01*
X132444641Y-60960000D01*
X132462037Y-60783373D01*
X132513557Y-60613534D01*
X132513557Y-60613533D01*
X132597221Y-60457011D01*
X132597222Y-60457009D01*
X132626552Y-60421271D01*
X132709814Y-60319814D01*
X132811271Y-60236552D01*
X132847009Y-60207222D01*
X132864913Y-60197652D01*
X133003533Y-60123557D01*
X133060147Y-60106384D01*
X133173373Y-60072037D01*
X133239558Y-60065518D01*
X133305740Y-60059000D01*
X133394260Y-60059000D01*
X133460442Y-60065518D01*
X133460442Y-60065518D01*
G37*
G36*
X130920442Y-60065518D02*
X130986627Y-60072037D01*
X131099853Y-60106384D01*
X131156467Y-60123557D01*
X131295087Y-60197652D01*
X131312991Y-60207222D01*
X131348729Y-60236552D01*
X131450186Y-60319814D01*
X131533448Y-60421271D01*
X131562778Y-60457009D01*
X131562779Y-60457011D01*
X131646443Y-60613533D01*
X131646443Y-60613534D01*
X131697963Y-60783373D01*
X131715359Y-60960000D01*
X131697963Y-61136627D01*
X131663616Y-61249853D01*
X131646443Y-61306467D01*
X131572348Y-61445087D01*
X131562778Y-61462991D01*
X131533448Y-61498729D01*
X131450186Y-61600186D01*
X131348729Y-61683448D01*
X131312991Y-61712778D01*
X131312989Y-61712779D01*
X131156467Y-61796443D01*
X131099853Y-61813616D01*
X130986627Y-61847963D01*
X130920443Y-61854481D01*
X130854260Y-61861000D01*
X130765740Y-61861000D01*
X130699557Y-61854481D01*
X130633373Y-61847963D01*
X130520147Y-61813616D01*
X130463533Y-61796443D01*
X130307011Y-61712779D01*
X130307009Y-61712778D01*
X130271271Y-61683448D01*
X130169814Y-61600186D01*
X130086552Y-61498729D01*
X130057222Y-61462991D01*
X130047652Y-61445087D01*
X129973557Y-61306467D01*
X129956384Y-61249853D01*
X129922037Y-61136627D01*
X129904641Y-60960000D01*
X129922037Y-60783373D01*
X129973557Y-60613534D01*
X129973557Y-60613533D01*
X130057221Y-60457011D01*
X130057222Y-60457009D01*
X130086552Y-60421271D01*
X130169814Y-60319814D01*
X130271271Y-60236552D01*
X130307009Y-60207222D01*
X130324913Y-60197652D01*
X130463533Y-60123557D01*
X130520147Y-60106384D01*
X130633373Y-60072037D01*
X130699558Y-60065518D01*
X130765740Y-60059000D01*
X130854260Y-60059000D01*
X130920442Y-60065518D01*
X130920442Y-60065518D01*
G37*
G36*
X129171000Y-61861000D02*
X127369000Y-61861000D01*
X127369000Y-60059000D01*
X129171000Y-60059000D01*
X129171000Y-61861000D01*
X129171000Y-61861000D01*
G37*
G36*
X138540442Y-60065518D02*
X138606627Y-60072037D01*
X138719853Y-60106384D01*
X138776467Y-60123557D01*
X138915087Y-60197652D01*
X138932991Y-60207222D01*
X138968729Y-60236552D01*
X139070186Y-60319814D01*
X139153448Y-60421271D01*
X139182778Y-60457009D01*
X139182779Y-60457011D01*
X139266443Y-60613533D01*
X139266443Y-60613534D01*
X139317963Y-60783373D01*
X139335359Y-60960000D01*
X139317963Y-61136627D01*
X139283616Y-61249853D01*
X139266443Y-61306467D01*
X139192348Y-61445087D01*
X139182778Y-61462991D01*
X139153448Y-61498729D01*
X139070186Y-61600186D01*
X138968729Y-61683448D01*
X138932991Y-61712778D01*
X138932989Y-61712779D01*
X138776467Y-61796443D01*
X138719853Y-61813616D01*
X138606627Y-61847963D01*
X138540443Y-61854481D01*
X138474260Y-61861000D01*
X138385740Y-61861000D01*
X138319557Y-61854481D01*
X138253373Y-61847963D01*
X138140147Y-61813616D01*
X138083533Y-61796443D01*
X137927011Y-61712779D01*
X137927009Y-61712778D01*
X137891271Y-61683448D01*
X137789814Y-61600186D01*
X137706552Y-61498729D01*
X137677222Y-61462991D01*
X137667652Y-61445087D01*
X137593557Y-61306467D01*
X137576384Y-61249853D01*
X137542037Y-61136627D01*
X137524641Y-60960000D01*
X137542037Y-60783373D01*
X137593557Y-60613534D01*
X137593557Y-60613533D01*
X137677221Y-60457011D01*
X137677222Y-60457009D01*
X137706552Y-60421271D01*
X137789814Y-60319814D01*
X137891271Y-60236552D01*
X137927009Y-60207222D01*
X137944913Y-60197652D01*
X138083533Y-60123557D01*
X138140147Y-60106384D01*
X138253373Y-60072037D01*
X138319558Y-60065518D01*
X138385740Y-60059000D01*
X138474260Y-60059000D01*
X138540442Y-60065518D01*
X138540442Y-60065518D01*
G37*
G36*
X109330443Y-56255519D02*
X109396627Y-56262037D01*
X109509853Y-56296384D01*
X109566467Y-56313557D01*
X109705087Y-56387652D01*
X109722991Y-56397222D01*
X109758729Y-56426552D01*
X109860186Y-56509814D01*
X109943448Y-56611271D01*
X109972778Y-56647009D01*
X109972779Y-56647011D01*
X110056443Y-56803533D01*
X110056443Y-56803534D01*
X110107963Y-56973373D01*
X110125359Y-57150000D01*
X110107963Y-57326627D01*
X110073616Y-57439853D01*
X110056443Y-57496467D01*
X109982348Y-57635087D01*
X109972778Y-57652991D01*
X109943448Y-57688729D01*
X109860186Y-57790186D01*
X109758729Y-57873448D01*
X109722991Y-57902778D01*
X109722989Y-57902779D01*
X109566467Y-57986443D01*
X109509853Y-58003616D01*
X109396627Y-58037963D01*
X109330442Y-58044482D01*
X109264260Y-58051000D01*
X109175740Y-58051000D01*
X109109558Y-58044482D01*
X109043373Y-58037963D01*
X108930147Y-58003616D01*
X108873533Y-57986443D01*
X108717011Y-57902779D01*
X108717009Y-57902778D01*
X108681271Y-57873448D01*
X108579814Y-57790186D01*
X108496552Y-57688729D01*
X108467222Y-57652991D01*
X108457652Y-57635087D01*
X108383557Y-57496467D01*
X108366384Y-57439853D01*
X108332037Y-57326627D01*
X108314641Y-57150000D01*
X108332037Y-56973373D01*
X108383557Y-56803534D01*
X108383557Y-56803533D01*
X108467221Y-56647011D01*
X108467222Y-56647009D01*
X108496552Y-56611271D01*
X108579814Y-56509814D01*
X108681271Y-56426552D01*
X108717009Y-56397222D01*
X108734913Y-56387652D01*
X108873533Y-56313557D01*
X108930147Y-56296384D01*
X109043373Y-56262037D01*
X109109557Y-56255519D01*
X109175740Y-56249000D01*
X109264260Y-56249000D01*
X109330443Y-56255519D01*
X109330443Y-56255519D01*
G37*
G36*
X139331000Y-58051000D02*
X137529000Y-58051000D01*
X137529000Y-56249000D01*
X139331000Y-56249000D01*
X139331000Y-58051000D01*
X139331000Y-58051000D01*
G37*
G36*
X110121000Y-55511000D02*
X108319000Y-55511000D01*
X108319000Y-53709000D01*
X110121000Y-53709000D01*
X110121000Y-55511000D01*
X110121000Y-55511000D01*
G37*
G36*
X138540442Y-53715518D02*
X138606627Y-53722037D01*
X138719853Y-53756384D01*
X138776467Y-53773557D01*
X138915087Y-53847652D01*
X138932991Y-53857222D01*
X138968729Y-53886552D01*
X139070186Y-53969814D01*
X139153448Y-54071271D01*
X139182778Y-54107009D01*
X139182779Y-54107011D01*
X139266443Y-54263533D01*
X139266443Y-54263534D01*
X139317963Y-54433373D01*
X139335359Y-54610000D01*
X139317963Y-54786627D01*
X139283616Y-54899853D01*
X139266443Y-54956467D01*
X139192348Y-55095087D01*
X139182778Y-55112991D01*
X139153448Y-55148729D01*
X139070186Y-55250186D01*
X138968729Y-55333448D01*
X138932991Y-55362778D01*
X138932989Y-55362779D01*
X138776467Y-55446443D01*
X138719853Y-55463616D01*
X138606627Y-55497963D01*
X138540442Y-55504482D01*
X138474260Y-55511000D01*
X138385740Y-55511000D01*
X138319558Y-55504482D01*
X138253373Y-55497963D01*
X138140147Y-55463616D01*
X138083533Y-55446443D01*
X137927011Y-55362779D01*
X137927009Y-55362778D01*
X137891271Y-55333448D01*
X137789814Y-55250186D01*
X137706552Y-55148729D01*
X137677222Y-55112991D01*
X137667652Y-55095087D01*
X137593557Y-54956467D01*
X137576384Y-54899853D01*
X137542037Y-54786627D01*
X137524641Y-54610000D01*
X137542037Y-54433373D01*
X137593557Y-54263534D01*
X137593557Y-54263533D01*
X137677221Y-54107011D01*
X137677222Y-54107009D01*
X137706552Y-54071271D01*
X137789814Y-53969814D01*
X137891271Y-53886552D01*
X137927009Y-53857222D01*
X137944913Y-53847652D01*
X138083533Y-53773557D01*
X138140147Y-53756384D01*
X138253373Y-53722037D01*
X138319558Y-53715518D01*
X138385740Y-53709000D01*
X138474260Y-53709000D01*
X138540442Y-53715518D01*
X138540442Y-53715518D01*
G37*
G36*
X139331000Y-52971000D02*
X137529000Y-52971000D01*
X137529000Y-51169000D01*
X139331000Y-51169000D01*
X139331000Y-52971000D01*
X139331000Y-52971000D01*
G37*
G36*
X132219000Y-52463000D02*
X130417000Y-52463000D01*
X130417000Y-50661000D01*
X132219000Y-50661000D01*
X132219000Y-52463000D01*
X132219000Y-52463000D01*
G37*
G36*
X135775000Y-52463000D02*
X133973000Y-52463000D01*
X133973000Y-50661000D01*
X135775000Y-50661000D01*
X135775000Y-52463000D01*
X135775000Y-52463000D01*
G37*
G36*
X110121000Y-51701000D02*
X108319000Y-51701000D01*
X108319000Y-49899000D01*
X110121000Y-49899000D01*
X110121000Y-51701000D01*
X110121000Y-51701000D01*
G37*
G36*
X115111000Y-51651000D02*
X113409000Y-51651000D01*
X113409000Y-49949000D01*
X115111000Y-49949000D01*
X115111000Y-51651000D01*
X115111000Y-51651000D01*
G37*
G36*
X112008228Y-49981703D02*
X112163100Y-50045853D01*
X112302481Y-50138985D01*
X112421015Y-50257519D01*
X112514147Y-50396900D01*
X112578297Y-50551772D01*
X112611000Y-50716184D01*
X112611000Y-50883816D01*
X112578297Y-51048228D01*
X112514147Y-51203100D01*
X112421015Y-51342481D01*
X112302481Y-51461015D01*
X112163100Y-51554147D01*
X112008228Y-51618297D01*
X111843816Y-51651000D01*
X111676184Y-51651000D01*
X111511772Y-51618297D01*
X111356900Y-51554147D01*
X111217519Y-51461015D01*
X111098985Y-51342481D01*
X111005853Y-51203100D01*
X110941703Y-51048228D01*
X110909000Y-50883816D01*
X110909000Y-50716184D01*
X110941703Y-50551772D01*
X111005853Y-50396900D01*
X111098985Y-50257519D01*
X111217519Y-50138985D01*
X111356900Y-50045853D01*
X111511772Y-49981703D01*
X111676184Y-49949000D01*
X111843816Y-49949000D01*
X112008228Y-49981703D01*
X112008228Y-49981703D01*
G37*
G36*
X132219000Y-49415000D02*
X130417000Y-49415000D01*
X130417000Y-47613000D01*
X132219000Y-47613000D01*
X132219000Y-49415000D01*
X132219000Y-49415000D01*
G37*
G36*
X139331000Y-49161000D02*
X137529000Y-49161000D01*
X137529000Y-47359000D01*
X139331000Y-47359000D01*
X139331000Y-49161000D01*
X139331000Y-49161000D01*
G37*
G36*
X109330443Y-47365519D02*
X109396627Y-47372037D01*
X109509853Y-47406384D01*
X109566467Y-47423557D01*
X109705087Y-47497652D01*
X109722991Y-47507222D01*
X109758729Y-47536552D01*
X109860186Y-47619814D01*
X109943448Y-47721271D01*
X109972778Y-47757009D01*
X109972779Y-47757011D01*
X110056443Y-47913533D01*
X110056443Y-47913534D01*
X110107963Y-48083373D01*
X110125359Y-48260000D01*
X110107963Y-48436627D01*
X110073616Y-48549853D01*
X110056443Y-48606467D01*
X109982348Y-48745087D01*
X109972778Y-48762991D01*
X109943448Y-48798729D01*
X109860186Y-48900186D01*
X109758729Y-48983448D01*
X109722991Y-49012778D01*
X109722989Y-49012779D01*
X109566467Y-49096443D01*
X109509853Y-49113616D01*
X109396627Y-49147963D01*
X109330443Y-49154481D01*
X109264260Y-49161000D01*
X109175740Y-49161000D01*
X109109557Y-49154481D01*
X109043373Y-49147963D01*
X108930147Y-49113616D01*
X108873533Y-49096443D01*
X108717011Y-49012779D01*
X108717009Y-49012778D01*
X108681271Y-48983448D01*
X108579814Y-48900186D01*
X108496552Y-48798729D01*
X108467222Y-48762991D01*
X108457652Y-48745087D01*
X108383557Y-48606467D01*
X108366384Y-48549853D01*
X108332037Y-48436627D01*
X108314641Y-48260000D01*
X108332037Y-48083373D01*
X108383557Y-47913534D01*
X108383557Y-47913533D01*
X108467221Y-47757011D01*
X108467222Y-47757009D01*
X108496552Y-47721271D01*
X108579814Y-47619814D01*
X108681271Y-47536552D01*
X108717009Y-47507222D01*
X108734913Y-47497652D01*
X108873533Y-47423557D01*
X108930147Y-47406384D01*
X109043373Y-47372037D01*
X109109557Y-47365519D01*
X109175740Y-47359000D01*
X109264260Y-47359000D01*
X109330443Y-47365519D01*
X109330443Y-47365519D01*
G37*
G36*
X138540443Y-43555519D02*
X138606627Y-43562037D01*
X138719853Y-43596384D01*
X138776467Y-43613557D01*
X138915087Y-43687652D01*
X138932991Y-43697222D01*
X138968729Y-43726552D01*
X139070186Y-43809814D01*
X139130618Y-43883452D01*
X139182778Y-43947009D01*
X139182779Y-43947011D01*
X139266443Y-44103533D01*
X139266443Y-44103534D01*
X139317963Y-44273373D01*
X139335359Y-44450000D01*
X139317963Y-44626627D01*
X139283616Y-44739853D01*
X139266443Y-44796467D01*
X139203792Y-44913677D01*
X139182778Y-44952991D01*
X139155603Y-44986103D01*
X139070186Y-45090186D01*
X138968729Y-45173448D01*
X138932991Y-45202778D01*
X138932989Y-45202779D01*
X138776467Y-45286443D01*
X138719853Y-45303616D01*
X138606627Y-45337963D01*
X138540442Y-45344482D01*
X138474260Y-45351000D01*
X138385740Y-45351000D01*
X138319558Y-45344482D01*
X138253373Y-45337963D01*
X138140147Y-45303616D01*
X138083533Y-45286443D01*
X137927011Y-45202779D01*
X137927009Y-45202778D01*
X137891271Y-45173448D01*
X137789814Y-45090186D01*
X137704397Y-44986103D01*
X137677222Y-44952991D01*
X137656208Y-44913677D01*
X137593557Y-44796467D01*
X137576384Y-44739853D01*
X137542037Y-44626627D01*
X137524641Y-44450000D01*
X137542037Y-44273373D01*
X137593557Y-44103534D01*
X137593557Y-44103533D01*
X137677221Y-43947011D01*
X137677222Y-43947009D01*
X137729382Y-43883452D01*
X137789814Y-43809814D01*
X137891271Y-43726552D01*
X137927009Y-43697222D01*
X137944913Y-43687652D01*
X138083533Y-43613557D01*
X138140147Y-43596384D01*
X138253373Y-43562037D01*
X138319558Y-43555518D01*
X138385740Y-43549000D01*
X138474260Y-43549000D01*
X138540443Y-43555519D01*
X138540443Y-43555519D01*
G37*
G36*
X110121000Y-45351000D02*
X108319000Y-45351000D01*
X108319000Y-43549000D01*
X110121000Y-43549000D01*
X110121000Y-45351000D01*
X110121000Y-45351000D01*
G37*
G36*
X135208677Y-43828465D02*
X135246364Y-43839898D01*
X135281103Y-43858466D01*
X135311548Y-43883452D01*
X135336534Y-43913897D01*
X135355102Y-43948636D01*
X135366535Y-43986323D01*
X135371000Y-44031661D01*
X135371000Y-44868339D01*
X135366535Y-44913677D01*
X135355102Y-44951364D01*
X135336534Y-44986103D01*
X135311548Y-45016548D01*
X135281103Y-45041534D01*
X135246364Y-45060102D01*
X135208677Y-45071535D01*
X135163339Y-45076000D01*
X134076661Y-45076000D01*
X134031323Y-45071535D01*
X133993636Y-45060102D01*
X133958897Y-45041534D01*
X133928452Y-45016548D01*
X133903466Y-44986103D01*
X133884898Y-44951364D01*
X133873465Y-44913677D01*
X133869000Y-44868339D01*
X133869000Y-44031661D01*
X133873465Y-43986323D01*
X133884898Y-43948636D01*
X133903466Y-43913897D01*
X133928452Y-43883452D01*
X133958897Y-43858466D01*
X133993636Y-43839898D01*
X134031323Y-43828465D01*
X134076661Y-43824000D01*
X135163339Y-43824000D01*
X135208677Y-43828465D01*
X135208677Y-43828465D01*
G37*
G36*
X132922677Y-43828465D02*
X132960364Y-43839898D01*
X132995103Y-43858466D01*
X133025548Y-43883452D01*
X133050534Y-43913897D01*
X133069102Y-43948636D01*
X133080535Y-43986323D01*
X133085000Y-44031661D01*
X133085000Y-44868339D01*
X133080535Y-44913677D01*
X133069102Y-44951364D01*
X133050534Y-44986103D01*
X133025548Y-45016548D01*
X132995103Y-45041534D01*
X132960364Y-45060102D01*
X132922677Y-45071535D01*
X132877339Y-45076000D01*
X131790661Y-45076000D01*
X131745323Y-45071535D01*
X131707636Y-45060102D01*
X131672897Y-45041534D01*
X131642452Y-45016548D01*
X131617466Y-44986103D01*
X131598898Y-44951364D01*
X131587465Y-44913677D01*
X131583000Y-44868339D01*
X131583000Y-44031661D01*
X131587465Y-43986323D01*
X131598898Y-43948636D01*
X131617466Y-43913897D01*
X131642452Y-43883452D01*
X131672897Y-43858466D01*
X131707636Y-43839898D01*
X131745323Y-43828465D01*
X131790661Y-43824000D01*
X132877339Y-43824000D01*
X132922677Y-43828465D01*
X132922677Y-43828465D01*
G37*
G36*
X135208677Y-41778465D02*
X135246364Y-41789898D01*
X135281103Y-41808466D01*
X135311548Y-41833452D01*
X135336534Y-41863897D01*
X135355102Y-41898636D01*
X135366535Y-41936323D01*
X135371000Y-41981661D01*
X135371000Y-42818339D01*
X135366535Y-42863677D01*
X135355102Y-42901364D01*
X135336534Y-42936103D01*
X135311548Y-42966548D01*
X135281103Y-42991534D01*
X135246364Y-43010102D01*
X135208677Y-43021535D01*
X135163339Y-43026000D01*
X134076661Y-43026000D01*
X134031323Y-43021535D01*
X133993636Y-43010102D01*
X133958897Y-42991534D01*
X133928452Y-42966548D01*
X133903466Y-42936103D01*
X133884898Y-42901364D01*
X133873465Y-42863677D01*
X133869000Y-42818339D01*
X133869000Y-41981661D01*
X133873465Y-41936323D01*
X133884898Y-41898636D01*
X133903466Y-41863897D01*
X133928452Y-41833452D01*
X133958897Y-41808466D01*
X133993636Y-41789898D01*
X134031323Y-41778465D01*
X134076661Y-41774000D01*
X135163339Y-41774000D01*
X135208677Y-41778465D01*
X135208677Y-41778465D01*
G37*
G36*
X132922677Y-41778465D02*
X132960364Y-41789898D01*
X132995103Y-41808466D01*
X133025548Y-41833452D01*
X133050534Y-41863897D01*
X133069102Y-41898636D01*
X133080535Y-41936323D01*
X133085000Y-41981661D01*
X133085000Y-42818339D01*
X133080535Y-42863677D01*
X133069102Y-42901364D01*
X133050534Y-42936103D01*
X133025548Y-42966548D01*
X132995103Y-42991534D01*
X132960364Y-43010102D01*
X132922677Y-43021535D01*
X132877339Y-43026000D01*
X131790661Y-43026000D01*
X131745323Y-43021535D01*
X131707636Y-43010102D01*
X131672897Y-42991534D01*
X131642452Y-42966548D01*
X131617466Y-42936103D01*
X131598898Y-42901364D01*
X131587465Y-42863677D01*
X131583000Y-42818339D01*
X131583000Y-41981661D01*
X131587465Y-41936323D01*
X131598898Y-41898636D01*
X131617466Y-41863897D01*
X131642452Y-41833452D01*
X131672897Y-41808466D01*
X131707636Y-41789898D01*
X131745323Y-41778465D01*
X131790661Y-41774000D01*
X132877339Y-41774000D01*
X132922677Y-41778465D01*
X132922677Y-41778465D01*
G37*
G36*
X109330442Y-41015518D02*
X109396627Y-41022037D01*
X109509853Y-41056384D01*
X109566467Y-41073557D01*
X109705087Y-41147652D01*
X109722991Y-41157222D01*
X109758729Y-41186552D01*
X109860186Y-41269814D01*
X109943448Y-41371271D01*
X109972778Y-41407009D01*
X109972779Y-41407011D01*
X110056443Y-41563533D01*
X110056443Y-41563534D01*
X110107963Y-41733373D01*
X110125359Y-41910000D01*
X110107963Y-42086627D01*
X110073616Y-42199853D01*
X110056443Y-42256467D01*
X109982348Y-42395087D01*
X109972778Y-42412991D01*
X109943448Y-42448729D01*
X109860186Y-42550186D01*
X109758729Y-42633448D01*
X109722991Y-42662778D01*
X109722989Y-42662779D01*
X109566467Y-42746443D01*
X109509853Y-42763616D01*
X109396627Y-42797963D01*
X109330442Y-42804482D01*
X109264260Y-42811000D01*
X109175740Y-42811000D01*
X109109557Y-42804481D01*
X109043373Y-42797963D01*
X108930147Y-42763616D01*
X108873533Y-42746443D01*
X108717011Y-42662779D01*
X108717009Y-42662778D01*
X108681271Y-42633448D01*
X108579814Y-42550186D01*
X108496552Y-42448729D01*
X108467222Y-42412991D01*
X108457652Y-42395087D01*
X108383557Y-42256467D01*
X108366384Y-42199853D01*
X108332037Y-42086627D01*
X108314641Y-41910000D01*
X108332037Y-41733373D01*
X108383557Y-41563534D01*
X108383557Y-41563533D01*
X108467221Y-41407011D01*
X108467222Y-41407009D01*
X108496552Y-41371271D01*
X108579814Y-41269814D01*
X108681271Y-41186552D01*
X108717009Y-41157222D01*
X108734913Y-41147652D01*
X108873533Y-41073557D01*
X108930147Y-41056384D01*
X109043373Y-41022037D01*
X109109558Y-41015518D01*
X109175740Y-41009000D01*
X109264260Y-41009000D01*
X109330442Y-41015518D01*
X109330442Y-41015518D01*
G37*
G36*
X138540442Y-41015518D02*
X138606627Y-41022037D01*
X138719853Y-41056384D01*
X138776467Y-41073557D01*
X138915087Y-41147652D01*
X138932991Y-41157222D01*
X138968729Y-41186552D01*
X139070186Y-41269814D01*
X139153448Y-41371271D01*
X139182778Y-41407009D01*
X139182779Y-41407011D01*
X139266443Y-41563533D01*
X139266443Y-41563534D01*
X139317963Y-41733373D01*
X139335359Y-41910000D01*
X139317963Y-42086627D01*
X139283616Y-42199853D01*
X139266443Y-42256467D01*
X139192348Y-42395087D01*
X139182778Y-42412991D01*
X139153448Y-42448729D01*
X139070186Y-42550186D01*
X138968729Y-42633448D01*
X138932991Y-42662778D01*
X138932989Y-42662779D01*
X138776467Y-42746443D01*
X138719853Y-42763616D01*
X138606627Y-42797963D01*
X138540442Y-42804482D01*
X138474260Y-42811000D01*
X138385740Y-42811000D01*
X138319557Y-42804481D01*
X138253373Y-42797963D01*
X138140147Y-42763616D01*
X138083533Y-42746443D01*
X137927011Y-42662779D01*
X137927009Y-42662778D01*
X137891271Y-42633448D01*
X137789814Y-42550186D01*
X137706552Y-42448729D01*
X137677222Y-42412991D01*
X137667652Y-42395087D01*
X137593557Y-42256467D01*
X137576384Y-42199853D01*
X137542037Y-42086627D01*
X137524641Y-41910000D01*
X137542037Y-41733373D01*
X137593557Y-41563534D01*
X137593557Y-41563533D01*
X137677221Y-41407011D01*
X137677222Y-41407009D01*
X137706552Y-41371271D01*
X137789814Y-41269814D01*
X137891271Y-41186552D01*
X137927009Y-41157222D01*
X137944913Y-41147652D01*
X138083533Y-41073557D01*
X138140147Y-41056384D01*
X138253373Y-41022037D01*
X138319558Y-41015518D01*
X138385740Y-41009000D01*
X138474260Y-41009000D01*
X138540442Y-41015518D01*
X138540442Y-41015518D01*
G37*
G36*
X138540443Y-38475519D02*
X138606627Y-38482037D01*
X138719853Y-38516384D01*
X138776467Y-38533557D01*
X138915087Y-38607652D01*
X138932991Y-38617222D01*
X138968729Y-38646552D01*
X139070186Y-38729814D01*
X139153448Y-38831271D01*
X139182778Y-38867009D01*
X139182779Y-38867011D01*
X139266443Y-39023533D01*
X139266443Y-39023534D01*
X139317963Y-39193373D01*
X139335359Y-39370000D01*
X139317963Y-39546627D01*
X139283616Y-39659853D01*
X139266443Y-39716467D01*
X139192348Y-39855087D01*
X139182778Y-39872991D01*
X139153448Y-39908729D01*
X139070186Y-40010186D01*
X138968729Y-40093448D01*
X138932991Y-40122778D01*
X138932989Y-40122779D01*
X138776467Y-40206443D01*
X138719853Y-40223616D01*
X138606627Y-40257963D01*
X138540442Y-40264482D01*
X138474260Y-40271000D01*
X138385740Y-40271000D01*
X138319557Y-40264481D01*
X138253373Y-40257963D01*
X138140147Y-40223616D01*
X138083533Y-40206443D01*
X137927011Y-40122779D01*
X137927009Y-40122778D01*
X137891271Y-40093448D01*
X137789814Y-40010186D01*
X137706552Y-39908729D01*
X137677222Y-39872991D01*
X137667652Y-39855087D01*
X137593557Y-39716467D01*
X137576384Y-39659853D01*
X137542037Y-39546627D01*
X137524641Y-39370000D01*
X137542037Y-39193373D01*
X137593557Y-39023534D01*
X137593557Y-39023533D01*
X137677221Y-38867011D01*
X137677222Y-38867009D01*
X137706552Y-38831271D01*
X137789814Y-38729814D01*
X137891271Y-38646552D01*
X137927009Y-38617222D01*
X137944913Y-38607652D01*
X138083533Y-38533557D01*
X138140147Y-38516384D01*
X138253373Y-38482037D01*
X138319557Y-38475519D01*
X138385740Y-38469000D01*
X138474260Y-38469000D01*
X138540443Y-38475519D01*
X138540443Y-38475519D01*
G37*
G36*
X109330443Y-38475519D02*
X109396627Y-38482037D01*
X109509853Y-38516384D01*
X109566467Y-38533557D01*
X109705087Y-38607652D01*
X109722991Y-38617222D01*
X109758729Y-38646552D01*
X109860186Y-38729814D01*
X109943448Y-38831271D01*
X109972778Y-38867009D01*
X109972779Y-38867011D01*
X110056443Y-39023533D01*
X110056443Y-39023534D01*
X110107963Y-39193373D01*
X110125359Y-39370000D01*
X110107963Y-39546627D01*
X110073616Y-39659853D01*
X110056443Y-39716467D01*
X109982348Y-39855087D01*
X109972778Y-39872991D01*
X109943448Y-39908729D01*
X109860186Y-40010186D01*
X109758729Y-40093448D01*
X109722991Y-40122778D01*
X109722989Y-40122779D01*
X109566467Y-40206443D01*
X109509853Y-40223616D01*
X109396627Y-40257963D01*
X109330443Y-40264481D01*
X109264260Y-40271000D01*
X109175740Y-40271000D01*
X109109557Y-40264481D01*
X109043373Y-40257963D01*
X108930147Y-40223616D01*
X108873533Y-40206443D01*
X108717011Y-40122779D01*
X108717009Y-40122778D01*
X108681271Y-40093448D01*
X108579814Y-40010186D01*
X108496552Y-39908729D01*
X108467222Y-39872991D01*
X108457652Y-39855087D01*
X108383557Y-39716467D01*
X108366384Y-39659853D01*
X108332037Y-39546627D01*
X108314641Y-39370000D01*
X108332037Y-39193373D01*
X108383557Y-39023534D01*
X108383557Y-39023533D01*
X108467221Y-38867011D01*
X108467222Y-38867009D01*
X108496552Y-38831271D01*
X108579814Y-38729814D01*
X108681271Y-38646552D01*
X108717009Y-38617222D01*
X108734913Y-38607652D01*
X108873533Y-38533557D01*
X108930147Y-38516384D01*
X109043373Y-38482037D01*
X109109557Y-38475519D01*
X109175740Y-38469000D01*
X109264260Y-38469000D01*
X109330443Y-38475519D01*
X109330443Y-38475519D01*
G37*
G36*
X139331000Y-37731000D02*
X137529000Y-37731000D01*
X137529000Y-35929000D01*
X139331000Y-35929000D01*
X139331000Y-37731000D01*
X139331000Y-37731000D01*
G37*
G36*
X109330442Y-35935518D02*
X109396627Y-35942037D01*
X109509853Y-35976384D01*
X109566467Y-35993557D01*
X109705087Y-36067652D01*
X109722991Y-36077222D01*
X109758729Y-36106552D01*
X109860186Y-36189814D01*
X109943448Y-36291271D01*
X109972778Y-36327009D01*
X109972779Y-36327011D01*
X110056443Y-36483533D01*
X110056443Y-36483534D01*
X110107963Y-36653373D01*
X110125359Y-36830000D01*
X110107963Y-37006627D01*
X110073616Y-37119853D01*
X110056443Y-37176467D01*
X109982348Y-37315087D01*
X109972778Y-37332991D01*
X109943448Y-37368729D01*
X109860186Y-37470186D01*
X109758729Y-37553448D01*
X109722991Y-37582778D01*
X109722989Y-37582779D01*
X109566467Y-37666443D01*
X109509853Y-37683616D01*
X109396627Y-37717963D01*
X109330443Y-37724481D01*
X109264260Y-37731000D01*
X109175740Y-37731000D01*
X109109557Y-37724481D01*
X109043373Y-37717963D01*
X108930147Y-37683616D01*
X108873533Y-37666443D01*
X108717011Y-37582779D01*
X108717009Y-37582778D01*
X108681271Y-37553448D01*
X108579814Y-37470186D01*
X108496552Y-37368729D01*
X108467222Y-37332991D01*
X108457652Y-37315087D01*
X108383557Y-37176467D01*
X108366384Y-37119853D01*
X108332037Y-37006627D01*
X108314641Y-36830000D01*
X108332037Y-36653373D01*
X108383557Y-36483534D01*
X108383557Y-36483533D01*
X108467221Y-36327011D01*
X108467222Y-36327009D01*
X108496552Y-36291271D01*
X108579814Y-36189814D01*
X108681271Y-36106552D01*
X108717009Y-36077222D01*
X108734913Y-36067652D01*
X108873533Y-35993557D01*
X108930147Y-35976384D01*
X109043373Y-35942037D01*
X109109558Y-35935518D01*
X109175740Y-35929000D01*
X109264260Y-35929000D01*
X109330442Y-35935518D01*
X109330442Y-35935518D01*
G37*
G36*
X113296000Y-37731000D02*
X111494000Y-37731000D01*
X111494000Y-35929000D01*
X113296000Y-35929000D01*
X113296000Y-37731000D01*
X113296000Y-37731000D01*
G37*
G36*
X121551000Y-37401000D02*
X119749000Y-37401000D01*
X119749000Y-35599000D01*
X121551000Y-35599000D01*
X121551000Y-37401000D01*
X121551000Y-37401000D01*
G37*
G36*
X124091000Y-37401000D02*
X122289000Y-37401000D01*
X122289000Y-35599000D01*
X124091000Y-35599000D01*
X124091000Y-37401000D01*
X124091000Y-37401000D01*
G37*
G36*
X130441000Y-37401000D02*
X128639000Y-37401000D01*
X128639000Y-35599000D01*
X130441000Y-35599000D01*
X130441000Y-37401000D01*
X130441000Y-37401000D01*
G37*
M02*
