M48
;DRILL file {KiCad 5.0.2+dfsg1-1} date Вт 26 ноя 2019 12:37:53
;FORMAT={3:3/ absolute / metric / suppress leading zeros}
FMAT,2
METRIC,TZ
T1C0.800
T2C0.914
T3C1.000
%
G90
G05
T1
X128905Y-69850
X128905Y-77470
X131445Y-69850
X131445Y-77470
X133985Y-69850
X133985Y-77470
X136525Y-69850
X136525Y-77470
X139065Y-69850
X139065Y-77470
X141605Y-69850
X141605Y-77470
X144145Y-69850
X144145Y-77470
X146685Y-69850
X146685Y-77470
X149225Y-69850
X149225Y-77470
X151765Y-69850
X151765Y-77470
X154305Y-69850
X154305Y-77470
X156845Y-69850
X156845Y-77470
X160020Y-70485
X160020Y-80645
X162520Y-80645
X162560Y-70485
X165020Y-80645
X165100Y-70485
X167520Y-80645
X167640Y-70485
X170180Y-70485
X170180Y-80645
T2
X133350Y-73025
X133350Y-80645
X135890Y-73025
X135890Y-80645
X138430Y-73025
X138430Y-80645
X140970Y-73025
X140970Y-80645
X143510Y-73025
X143510Y-80645
X146050Y-73025
X146050Y-80645
X148590Y-73025
X148590Y-80645
X151130Y-73025
X151130Y-80645
X153670Y-73025
X153670Y-80645
X156210Y-73025
X156210Y-80645
T3
X125476Y-72136
X125476Y-74676
X125476Y-77216
X125476Y-79756
X125476Y-82296
T0
M30
