G04 #@! TF.GenerationSoftware,KiCad,Pcbnew,5.0.2+dfsg1-1*
G04 #@! TF.CreationDate,2019-11-26T12:37:51+03:00*
G04 #@! TF.ProjectId,disp,64697370-2e6b-4696-9361-645f70636258,rev?*
G04 #@! TF.SameCoordinates,Original*
G04 #@! TF.FileFunction,Legend,Top*
G04 #@! TF.FilePolarity,Positive*
%FSLAX46Y46*%
G04 Gerber Fmt 4.6, Leading zero omitted, Abs format (unit mm)*
G04 Created by KiCad (PCBNEW 5.0.2+dfsg1-1) date Вт 26 ноя 2019 12:37:51*
%MOMM*%
%LPD*%
G01*
G04 APERTURE LIST*
%ADD10C,0.120000*%
%ADD11C,0.150000*%
G04 APERTURE END LIST*
D10*
G04 #@! TO.C,J1*
X126806000Y-70806000D02*
X124146000Y-70806000D01*
X126806000Y-81026000D02*
X126806000Y-70806000D01*
X124146000Y-81026000D02*
X124146000Y-70806000D01*
X126806000Y-81026000D02*
X124146000Y-81026000D01*
X126806000Y-82296000D02*
X126806000Y-83626000D01*
X126806000Y-83626000D02*
X125476000Y-83626000D01*
G04 #@! TO.C,R2*
X142368748Y-67489000D02*
X142891252Y-67489000D01*
X142368748Y-68909000D02*
X142891252Y-68909000D01*
G04 #@! TO.C,U1*
X127575000Y-72660000D02*
G75*
G02X127575000Y-74660000I0J-1000000D01*
G01*
X127575000Y-74660000D02*
X127575000Y-76310000D01*
X127575000Y-76310000D02*
X158175000Y-76310000D01*
X158175000Y-76310000D02*
X158175000Y-71010000D01*
X158175000Y-71010000D02*
X127575000Y-71010000D01*
X127575000Y-71010000D02*
X127575000Y-72660000D01*
G04 #@! TO.C,J1*
D11*
X125269666Y-69048380D02*
X125269666Y-69762666D01*
X125222047Y-69905523D01*
X125126809Y-70000761D01*
X124983952Y-70048380D01*
X124888714Y-70048380D01*
X126269666Y-70048380D02*
X125698238Y-70048380D01*
X125983952Y-70048380D02*
X125983952Y-69048380D01*
X125888714Y-69191238D01*
X125793476Y-69286476D01*
X125698238Y-69334095D01*
G04 #@! TO.C,R2*
X145375333Y-68651380D02*
X145042000Y-68175190D01*
X144803904Y-68651380D02*
X144803904Y-67651380D01*
X145184857Y-67651380D01*
X145280095Y-67699000D01*
X145327714Y-67746619D01*
X145375333Y-67841857D01*
X145375333Y-67984714D01*
X145327714Y-68079952D01*
X145280095Y-68127571D01*
X145184857Y-68175190D01*
X144803904Y-68175190D01*
X145756285Y-67746619D02*
X145803904Y-67699000D01*
X145899142Y-67651380D01*
X146137238Y-67651380D01*
X146232476Y-67699000D01*
X146280095Y-67746619D01*
X146327714Y-67841857D01*
X146327714Y-67937095D01*
X146280095Y-68079952D01*
X145708666Y-68651380D01*
X146327714Y-68651380D01*
G04 #@! TO.C,U1*
X128992380Y-74040904D02*
X129801904Y-74040904D01*
X129897142Y-73993285D01*
X129944761Y-73945666D01*
X129992380Y-73850428D01*
X129992380Y-73659952D01*
X129944761Y-73564714D01*
X129897142Y-73517095D01*
X129801904Y-73469476D01*
X128992380Y-73469476D01*
X129992380Y-72469476D02*
X129992380Y-73040904D01*
X129992380Y-72755190D02*
X128992380Y-72755190D01*
X129135238Y-72850428D01*
X129230476Y-72945666D01*
X129278095Y-73040904D01*
G04 #@! TD*
M02*
