G04 #@! TF.GenerationSoftware,KiCad,Pcbnew,5.0.2+dfsg1-1*
G04 #@! TF.CreationDate,2019-11-26T12:37:51+03:00*
G04 #@! TF.ProjectId,disp,64697370-2e6b-4696-9361-645f70636258,rev?*
G04 #@! TF.SameCoordinates,Original*
G04 #@! TF.FileFunction,Copper,L2,Bot*
G04 #@! TF.FilePolarity,Positive*
%FSLAX46Y46*%
G04 Gerber Fmt 4.6, Leading zero omitted, Abs format (unit mm)*
G04 Created by KiCad (PCBNEW 5.0.2+dfsg1-1) date Вт 26 ноя 2019 12:37:51*
%MOMM*%
%LPD*%
G01*
G04 APERTURE LIST*
G04 #@! TA.AperFunction,ComponentPad*
%ADD10R,1.700000X1.700000*%
G04 #@! TD*
G04 #@! TA.AperFunction,ComponentPad*
%ADD11O,1.700000X1.700000*%
G04 #@! TD*
G04 #@! TA.AperFunction,ComponentPad*
%ADD12R,2.032000X2.032000*%
G04 #@! TD*
G04 #@! TA.AperFunction,ComponentPad*
%ADD13C,2.032000*%
G04 #@! TD*
G04 #@! TA.AperFunction,Conductor*
%ADD14C,0.100000*%
G04 #@! TD*
G04 #@! TA.AperFunction,SMDPad,CuDef*
%ADD15C,1.150000*%
G04 #@! TD*
G04 #@! TA.AperFunction,ComponentPad*
%ADD16R,1.600000X1.600000*%
G04 #@! TD*
G04 #@! TA.AperFunction,ComponentPad*
%ADD17O,1.600000X1.600000*%
G04 #@! TD*
G04 #@! TA.AperFunction,ComponentPad*
%ADD18R,1.500000X1.500000*%
G04 #@! TD*
G04 #@! TA.AperFunction,ComponentPad*
%ADD19C,1.500000*%
G04 #@! TD*
G04 #@! TA.AperFunction,Conductor*
%ADD20C,0.250000*%
G04 #@! TD*
G04 APERTURE END LIST*
D10*
G04 #@! TO.P,J1,1*
G04 #@! TO.N,Net-(J1-Pad1)*
X125476000Y-82296000D03*
D11*
G04 #@! TO.P,J1,2*
G04 #@! TO.N,Net-(J1-Pad2)*
X125476000Y-79756000D03*
G04 #@! TO.P,J1,3*
G04 #@! TO.N,Net-(J1-Pad3)*
X125476000Y-77216000D03*
G04 #@! TO.P,J1,4*
G04 #@! TO.N,Net-(C1-Pad1)*
X125476000Y-74676000D03*
G04 #@! TO.P,J1,5*
G04 #@! TO.N,Net-(C1-Pad2)*
X125476000Y-72136000D03*
G04 #@! TD*
D12*
G04 #@! TO.P,BAR1,1*
G04 #@! TO.N,Net-(BAR1-Pad1)*
X133350000Y-73025000D03*
D13*
G04 #@! TO.P,BAR1,2*
G04 #@! TO.N,Net-(BAR1-Pad10)*
X135890000Y-73025000D03*
G04 #@! TO.P,BAR1,3*
G04 #@! TO.N,Net-(BAR1-Pad3)*
X138430000Y-73025000D03*
G04 #@! TO.P,BAR1,4*
G04 #@! TO.N,Net-(BAR1-Pad4)*
X140970000Y-73025000D03*
G04 #@! TO.P,BAR1,13*
G04 #@! TO.N,Net-(BAR1-Pad13)*
X151130000Y-80645000D03*
G04 #@! TO.P,BAR1,14*
X148590000Y-80645000D03*
G04 #@! TO.P,BAR1,15*
X146050000Y-80645000D03*
G04 #@! TO.P,BAR1,16*
X143510000Y-80645000D03*
G04 #@! TO.P,BAR1,5*
G04 #@! TO.N,Net-(BAR1-Pad5)*
X143510000Y-73025000D03*
G04 #@! TO.P,BAR1,6*
G04 #@! TO.N,Net-(BAR1-Pad6)*
X146050000Y-73025000D03*
G04 #@! TO.P,BAR1,7*
G04 #@! TO.N,Net-(BAR1-Pad7)*
X148590000Y-73025000D03*
G04 #@! TO.P,BAR1,8*
G04 #@! TO.N,Net-(BAR1-Pad8)*
X151130000Y-73025000D03*
G04 #@! TO.P,BAR1,12*
G04 #@! TO.N,Net-(BAR1-Pad11)*
X153670000Y-80645000D03*
G04 #@! TO.P,BAR1,11*
X156210000Y-80645000D03*
G04 #@! TO.P,BAR1,10*
G04 #@! TO.N,Net-(BAR1-Pad10)*
X156210000Y-73025000D03*
G04 #@! TO.P,BAR1,9*
G04 #@! TO.N,Net-(BAR1-Pad1)*
X153670000Y-73025000D03*
G04 #@! TO.P,BAR1,17*
G04 #@! TO.N,Net-(BAR1-Pad13)*
X140970000Y-80645000D03*
G04 #@! TO.P,BAR1,18*
X138430000Y-80645000D03*
G04 #@! TO.P,BAR1,19*
X135890000Y-80645000D03*
G04 #@! TO.P,BAR1,20*
X133350000Y-80645000D03*
G04 #@! TD*
D14*
G04 #@! TO.N,Net-(C1-Pad1)*
G04 #@! TO.C,C1*
G36*
X128363505Y-73730204D02*
X128387773Y-73733804D01*
X128411572Y-73739765D01*
X128434671Y-73748030D01*
X128456850Y-73758520D01*
X128477893Y-73771132D01*
X128497599Y-73785747D01*
X128515777Y-73802223D01*
X128532253Y-73820401D01*
X128546868Y-73840107D01*
X128559480Y-73861150D01*
X128569970Y-73883329D01*
X128578235Y-73906428D01*
X128584196Y-73930227D01*
X128587796Y-73954495D01*
X128589000Y-73978999D01*
X128589000Y-74629001D01*
X128587796Y-74653505D01*
X128584196Y-74677773D01*
X128578235Y-74701572D01*
X128569970Y-74724671D01*
X128559480Y-74746850D01*
X128546868Y-74767893D01*
X128532253Y-74787599D01*
X128515777Y-74805777D01*
X128497599Y-74822253D01*
X128477893Y-74836868D01*
X128456850Y-74849480D01*
X128434671Y-74859970D01*
X128411572Y-74868235D01*
X128387773Y-74874196D01*
X128363505Y-74877796D01*
X128339001Y-74879000D01*
X127438999Y-74879000D01*
X127414495Y-74877796D01*
X127390227Y-74874196D01*
X127366428Y-74868235D01*
X127343329Y-74859970D01*
X127321150Y-74849480D01*
X127300107Y-74836868D01*
X127280401Y-74822253D01*
X127262223Y-74805777D01*
X127245747Y-74787599D01*
X127231132Y-74767893D01*
X127218520Y-74746850D01*
X127208030Y-74724671D01*
X127199765Y-74701572D01*
X127193804Y-74677773D01*
X127190204Y-74653505D01*
X127189000Y-74629001D01*
X127189000Y-73978999D01*
X127190204Y-73954495D01*
X127193804Y-73930227D01*
X127199765Y-73906428D01*
X127208030Y-73883329D01*
X127218520Y-73861150D01*
X127231132Y-73840107D01*
X127245747Y-73820401D01*
X127262223Y-73802223D01*
X127280401Y-73785747D01*
X127300107Y-73771132D01*
X127321150Y-73758520D01*
X127343329Y-73748030D01*
X127366428Y-73739765D01*
X127390227Y-73733804D01*
X127414495Y-73730204D01*
X127438999Y-73729000D01*
X128339001Y-73729000D01*
X128363505Y-73730204D01*
X128363505Y-73730204D01*
G37*
D15*
G04 #@! TD*
G04 #@! TO.P,C1,1*
G04 #@! TO.N,Net-(C1-Pad1)*
X127889000Y-74304000D03*
D14*
G04 #@! TO.N,Net-(C1-Pad2)*
G04 #@! TO.C,C1*
G36*
X128363505Y-71680204D02*
X128387773Y-71683804D01*
X128411572Y-71689765D01*
X128434671Y-71698030D01*
X128456850Y-71708520D01*
X128477893Y-71721132D01*
X128497599Y-71735747D01*
X128515777Y-71752223D01*
X128532253Y-71770401D01*
X128546868Y-71790107D01*
X128559480Y-71811150D01*
X128569970Y-71833329D01*
X128578235Y-71856428D01*
X128584196Y-71880227D01*
X128587796Y-71904495D01*
X128589000Y-71928999D01*
X128589000Y-72579001D01*
X128587796Y-72603505D01*
X128584196Y-72627773D01*
X128578235Y-72651572D01*
X128569970Y-72674671D01*
X128559480Y-72696850D01*
X128546868Y-72717893D01*
X128532253Y-72737599D01*
X128515777Y-72755777D01*
X128497599Y-72772253D01*
X128477893Y-72786868D01*
X128456850Y-72799480D01*
X128434671Y-72809970D01*
X128411572Y-72818235D01*
X128387773Y-72824196D01*
X128363505Y-72827796D01*
X128339001Y-72829000D01*
X127438999Y-72829000D01*
X127414495Y-72827796D01*
X127390227Y-72824196D01*
X127366428Y-72818235D01*
X127343329Y-72809970D01*
X127321150Y-72799480D01*
X127300107Y-72786868D01*
X127280401Y-72772253D01*
X127262223Y-72755777D01*
X127245747Y-72737599D01*
X127231132Y-72717893D01*
X127218520Y-72696850D01*
X127208030Y-72674671D01*
X127199765Y-72651572D01*
X127193804Y-72627773D01*
X127190204Y-72603505D01*
X127189000Y-72579001D01*
X127189000Y-71928999D01*
X127190204Y-71904495D01*
X127193804Y-71880227D01*
X127199765Y-71856428D01*
X127208030Y-71833329D01*
X127218520Y-71811150D01*
X127231132Y-71790107D01*
X127245747Y-71770401D01*
X127262223Y-71752223D01*
X127280401Y-71735747D01*
X127300107Y-71721132D01*
X127321150Y-71708520D01*
X127343329Y-71698030D01*
X127366428Y-71689765D01*
X127390227Y-71683804D01*
X127414495Y-71680204D01*
X127438999Y-71679000D01*
X128339001Y-71679000D01*
X128363505Y-71680204D01*
X128363505Y-71680204D01*
G37*
D15*
G04 #@! TD*
G04 #@! TO.P,C1,2*
G04 #@! TO.N,Net-(C1-Pad2)*
X127889000Y-72254000D03*
D14*
G04 #@! TO.N,Net-(R1-Pad2)*
G04 #@! TO.C,R1*
G36*
X129633505Y-79182204D02*
X129657773Y-79185804D01*
X129681572Y-79191765D01*
X129704671Y-79200030D01*
X129726850Y-79210520D01*
X129747893Y-79223132D01*
X129767599Y-79237747D01*
X129785777Y-79254223D01*
X129802253Y-79272401D01*
X129816868Y-79292107D01*
X129829480Y-79313150D01*
X129839970Y-79335329D01*
X129848235Y-79358428D01*
X129854196Y-79382227D01*
X129857796Y-79406495D01*
X129859000Y-79430999D01*
X129859000Y-80081001D01*
X129857796Y-80105505D01*
X129854196Y-80129773D01*
X129848235Y-80153572D01*
X129839970Y-80176671D01*
X129829480Y-80198850D01*
X129816868Y-80219893D01*
X129802253Y-80239599D01*
X129785777Y-80257777D01*
X129767599Y-80274253D01*
X129747893Y-80288868D01*
X129726850Y-80301480D01*
X129704671Y-80311970D01*
X129681572Y-80320235D01*
X129657773Y-80326196D01*
X129633505Y-80329796D01*
X129609001Y-80331000D01*
X128708999Y-80331000D01*
X128684495Y-80329796D01*
X128660227Y-80326196D01*
X128636428Y-80320235D01*
X128613329Y-80311970D01*
X128591150Y-80301480D01*
X128570107Y-80288868D01*
X128550401Y-80274253D01*
X128532223Y-80257777D01*
X128515747Y-80239599D01*
X128501132Y-80219893D01*
X128488520Y-80198850D01*
X128478030Y-80176671D01*
X128469765Y-80153572D01*
X128463804Y-80129773D01*
X128460204Y-80105505D01*
X128459000Y-80081001D01*
X128459000Y-79430999D01*
X128460204Y-79406495D01*
X128463804Y-79382227D01*
X128469765Y-79358428D01*
X128478030Y-79335329D01*
X128488520Y-79313150D01*
X128501132Y-79292107D01*
X128515747Y-79272401D01*
X128532223Y-79254223D01*
X128550401Y-79237747D01*
X128570107Y-79223132D01*
X128591150Y-79210520D01*
X128613329Y-79200030D01*
X128636428Y-79191765D01*
X128660227Y-79185804D01*
X128684495Y-79182204D01*
X128708999Y-79181000D01*
X129609001Y-79181000D01*
X129633505Y-79182204D01*
X129633505Y-79182204D01*
G37*
D15*
G04 #@! TD*
G04 #@! TO.P,R1,2*
G04 #@! TO.N,Net-(R1-Pad2)*
X129159000Y-79756000D03*
D14*
G04 #@! TO.N,Net-(BAR1-Pad13)*
G04 #@! TO.C,R1*
G36*
X129633505Y-81232204D02*
X129657773Y-81235804D01*
X129681572Y-81241765D01*
X129704671Y-81250030D01*
X129726850Y-81260520D01*
X129747893Y-81273132D01*
X129767599Y-81287747D01*
X129785777Y-81304223D01*
X129802253Y-81322401D01*
X129816868Y-81342107D01*
X129829480Y-81363150D01*
X129839970Y-81385329D01*
X129848235Y-81408428D01*
X129854196Y-81432227D01*
X129857796Y-81456495D01*
X129859000Y-81480999D01*
X129859000Y-82131001D01*
X129857796Y-82155505D01*
X129854196Y-82179773D01*
X129848235Y-82203572D01*
X129839970Y-82226671D01*
X129829480Y-82248850D01*
X129816868Y-82269893D01*
X129802253Y-82289599D01*
X129785777Y-82307777D01*
X129767599Y-82324253D01*
X129747893Y-82338868D01*
X129726850Y-82351480D01*
X129704671Y-82361970D01*
X129681572Y-82370235D01*
X129657773Y-82376196D01*
X129633505Y-82379796D01*
X129609001Y-82381000D01*
X128708999Y-82381000D01*
X128684495Y-82379796D01*
X128660227Y-82376196D01*
X128636428Y-82370235D01*
X128613329Y-82361970D01*
X128591150Y-82351480D01*
X128570107Y-82338868D01*
X128550401Y-82324253D01*
X128532223Y-82307777D01*
X128515747Y-82289599D01*
X128501132Y-82269893D01*
X128488520Y-82248850D01*
X128478030Y-82226671D01*
X128469765Y-82203572D01*
X128463804Y-82179773D01*
X128460204Y-82155505D01*
X128459000Y-82131001D01*
X128459000Y-81480999D01*
X128460204Y-81456495D01*
X128463804Y-81432227D01*
X128469765Y-81408428D01*
X128478030Y-81385329D01*
X128488520Y-81363150D01*
X128501132Y-81342107D01*
X128515747Y-81322401D01*
X128532223Y-81304223D01*
X128550401Y-81287747D01*
X128570107Y-81273132D01*
X128591150Y-81260520D01*
X128613329Y-81250030D01*
X128636428Y-81241765D01*
X128660227Y-81235804D01*
X128684495Y-81232204D01*
X128708999Y-81231000D01*
X129609001Y-81231000D01*
X129633505Y-81232204D01*
X129633505Y-81232204D01*
G37*
D15*
G04 #@! TD*
G04 #@! TO.P,R1,1*
G04 #@! TO.N,Net-(BAR1-Pad13)*
X129159000Y-81806000D03*
D16*
G04 #@! TO.P,U1,1*
G04 #@! TO.N,Net-(J1-Pad1)*
X128905000Y-77470000D03*
D17*
G04 #@! TO.P,U1,13*
G04 #@! TO.N,Net-(J1-Pad3)*
X156845000Y-69850000D03*
G04 #@! TO.P,U1,2*
G04 #@! TO.N,Net-(R1-Pad2)*
X131445000Y-77470000D03*
G04 #@! TO.P,U1,14*
G04 #@! TO.N,Net-(BAR1-Pad8)*
X154305000Y-69850000D03*
G04 #@! TO.P,U1,3*
G04 #@! TO.N,N/C*
X133985000Y-77470000D03*
G04 #@! TO.P,U1,15*
G04 #@! TO.N,Net-(BAR1-Pad7)*
X151765000Y-69850000D03*
G04 #@! TO.P,U1,4*
G04 #@! TO.N,Net-(C1-Pad1)*
X136525000Y-77470000D03*
G04 #@! TO.P,U1,16*
G04 #@! TO.N,Net-(BAR1-Pad6)*
X149225000Y-69850000D03*
G04 #@! TO.P,U1,5*
G04 #@! TO.N,N/C*
X139065000Y-77470000D03*
G04 #@! TO.P,U1,17*
G04 #@! TO.N,Net-(BAR1-Pad5)*
X146685000Y-69850000D03*
G04 #@! TO.P,U1,6*
G04 #@! TO.N,Net-(U1-Pad6)*
X141605000Y-77470000D03*
G04 #@! TO.P,U1,18*
G04 #@! TO.N,Net-(R2-Pad2)*
X144145000Y-69850000D03*
G04 #@! TO.P,U1,7*
G04 #@! TO.N,Net-(U1-Pad7)*
X144145000Y-77470000D03*
G04 #@! TO.P,U1,19*
G04 #@! TO.N,Net-(C1-Pad2)*
X141605000Y-69850000D03*
G04 #@! TO.P,U1,8*
G04 #@! TO.N,N/C*
X146685000Y-77470000D03*
G04 #@! TO.P,U1,20*
G04 #@! TO.N,Net-(BAR1-Pad4)*
X139065000Y-69850000D03*
G04 #@! TO.P,U1,9*
G04 #@! TO.N,Net-(C1-Pad1)*
X149225000Y-77470000D03*
G04 #@! TO.P,U1,21*
G04 #@! TO.N,Net-(BAR1-Pad3)*
X136525000Y-69850000D03*
G04 #@! TO.P,U1,10*
G04 #@! TO.N,N/C*
X151765000Y-77470000D03*
G04 #@! TO.P,U1,22*
G04 #@! TO.N,Net-(BAR1-Pad10)*
X133985000Y-69850000D03*
G04 #@! TO.P,U1,11*
G04 #@! TO.N,Net-(BAR1-Pad11)*
X154305000Y-77470000D03*
G04 #@! TO.P,U1,23*
G04 #@! TO.N,Net-(BAR1-Pad1)*
X131445000Y-69850000D03*
G04 #@! TO.P,U1,12*
G04 #@! TO.N,Net-(J1-Pad2)*
X156845000Y-77470000D03*
G04 #@! TO.P,U1,24*
G04 #@! TO.N,N/C*
X128905000Y-69850000D03*
G04 #@! TD*
D18*
G04 #@! TO.P,U2,1*
G04 #@! TO.N,Net-(BAR1-Pad7)*
X160020000Y-70485000D03*
D19*
G04 #@! TO.P,U2,2*
G04 #@! TO.N,Net-(BAR1-Pad6)*
X162560000Y-70485000D03*
G04 #@! TO.P,U2,3*
G04 #@! TO.N,Net-(BAR1-Pad5)*
X165100000Y-70485000D03*
G04 #@! TO.P,U2,4*
G04 #@! TO.N,Net-(BAR1-Pad8)*
X167640000Y-70485000D03*
G04 #@! TO.P,U2,5*
G04 #@! TO.N,Net-(U1-Pad6)*
X170180000Y-70485000D03*
G04 #@! TO.P,U2,6*
G04 #@! TO.N,Net-(BAR1-Pad1)*
X170180000Y-80645000D03*
G04 #@! TO.P,U2,7*
G04 #@! TO.N,Net-(BAR1-Pad10)*
X167520000Y-80645000D03*
G04 #@! TO.P,U2,8*
G04 #@! TO.N,Net-(BAR1-Pad4)*
X165020000Y-80645000D03*
G04 #@! TO.P,U2,9*
G04 #@! TO.N,Net-(BAR1-Pad3)*
X162520000Y-80645000D03*
G04 #@! TO.P,U2,10*
G04 #@! TO.N,Net-(U1-Pad7)*
X160020000Y-80645000D03*
G04 #@! TD*
D20*
G04 #@! TO.N,Net-(BAR1-Pad10)*
X133985000Y-69850000D02*
X133985000Y-70485000D01*
X134874000Y-71374000D02*
X135128000Y-71374000D01*
X133985000Y-70485000D02*
X134874000Y-71374000D01*
X135890000Y-71588160D02*
X135890000Y-71374000D01*
X135128000Y-71374000D02*
X135890000Y-71374000D01*
X135890000Y-73025000D02*
X135890000Y-71588160D01*
X156210000Y-71588160D02*
X156210000Y-73025000D01*
X155995840Y-71374000D02*
X156210000Y-71588160D01*
X135890000Y-71374000D02*
X155995840Y-71374000D01*
X167520000Y-80645000D02*
X167520000Y-75191000D01*
X165354000Y-73025000D02*
X156210000Y-73025000D01*
X167520000Y-75191000D02*
X165354000Y-73025000D01*
G04 #@! TO.N,Net-(BAR1-Pad3)*
X162520000Y-77938000D02*
X162520000Y-80645000D01*
X160147000Y-75565000D02*
X162520000Y-77938000D01*
X139533160Y-75565000D02*
X139700000Y-75565000D01*
X138430000Y-73025000D02*
X138430000Y-74461840D01*
X138430000Y-74461840D02*
X139533160Y-75565000D01*
X139700000Y-75565000D02*
X160147000Y-75565000D01*
G04 #@! TO.N,Net-(BAR1-Pad4)*
X165020000Y-75485000D02*
X165020000Y-80645000D01*
X164211000Y-74676000D02*
X165020000Y-75485000D01*
X141184160Y-74676000D02*
X141224000Y-74676000D01*
X140970000Y-74461840D02*
X141184160Y-74676000D01*
X140970000Y-73025000D02*
X140970000Y-74461840D01*
X141224000Y-74676000D02*
X164211000Y-74676000D01*
G04 #@! TO.N,Net-(BAR1-Pad13)*
X132189000Y-81806000D02*
X133350000Y-80645000D01*
X129159000Y-81806000D02*
X132189000Y-81806000D01*
X134786840Y-80645000D02*
X135890000Y-80645000D01*
X133350000Y-80645000D02*
X134786840Y-80645000D01*
X137326840Y-80645000D02*
X138430000Y-80645000D01*
X135890000Y-80645000D02*
X137326840Y-80645000D01*
X138430000Y-80645000D02*
X140970000Y-80645000D01*
X142406840Y-80645000D02*
X143510000Y-80645000D01*
X140970000Y-80645000D02*
X142406840Y-80645000D01*
X144946840Y-80645000D02*
X146050000Y-80645000D01*
X143510000Y-80645000D02*
X144946840Y-80645000D01*
X146050000Y-80645000D02*
X148590000Y-80645000D01*
X150026840Y-80645000D02*
X151130000Y-80645000D01*
X148590000Y-80645000D02*
X150026840Y-80645000D01*
G04 #@! TO.N,Net-(C1-Pad2)*
X125594000Y-72254000D02*
X125476000Y-72136000D01*
X127889000Y-72254000D02*
X125594000Y-72254000D01*
G04 #@! TO.N,Net-(J1-Pad1)*
X127855000Y-77470000D02*
X128905000Y-77470000D01*
X127508000Y-77817000D02*
X127855000Y-77470000D01*
X127508000Y-81364000D02*
X127508000Y-77817000D01*
X126576000Y-82296000D02*
X127508000Y-81364000D01*
X125476000Y-82296000D02*
X126576000Y-82296000D01*
G04 #@! TO.N,Net-(J1-Pad3)*
X156845000Y-68961000D02*
X156845000Y-69850000D01*
X155956000Y-68072000D02*
X156845000Y-68961000D01*
X125476000Y-77216000D02*
X127000000Y-75692000D01*
X127000000Y-75692000D02*
X129667000Y-75692000D01*
X129667000Y-75692000D02*
X129921000Y-75438000D01*
X129921000Y-75438000D02*
X129921000Y-71374000D01*
X129921000Y-71374000D02*
X130175000Y-71120000D01*
X130175000Y-68707000D02*
X130810000Y-68072000D01*
X130175000Y-71120000D02*
X130175000Y-68707000D01*
X130810000Y-68072000D02*
X155956000Y-68072000D01*
G04 #@! TO.N,Net-(U1-Pad6)*
X171831000Y-70485000D02*
X170180000Y-70485000D01*
X172212000Y-81915000D02*
X172212000Y-70866000D01*
X171577000Y-82550000D02*
X172212000Y-81915000D01*
X159258000Y-82550000D02*
X171577000Y-82550000D01*
X141605000Y-78601370D02*
X141997630Y-78994000D01*
X172212000Y-70866000D02*
X171831000Y-70485000D01*
X141605000Y-77470000D02*
X141605000Y-78601370D01*
X141997630Y-78994000D02*
X157734000Y-78994000D01*
X158242000Y-81534000D02*
X159258000Y-82550000D01*
X157734000Y-78994000D02*
X158242000Y-79502000D01*
X158242000Y-79502000D02*
X158242000Y-81534000D01*
G04 #@! TO.N,Net-(C1-Pad1)*
X125848000Y-74304000D02*
X125476000Y-74676000D01*
X127889000Y-74304000D02*
X125848000Y-74304000D01*
G04 #@! TO.N,Net-(R1-Pad2)*
X129782372Y-79132628D02*
X129159000Y-79756000D01*
X130671372Y-79132628D02*
X129782372Y-79132628D01*
X131445000Y-77470000D02*
X131445000Y-78359000D01*
X131445000Y-78359000D02*
X130671372Y-79132628D01*
G04 #@! TD*
M02*
