G04 #@! TF.GenerationSoftware,KiCad,Pcbnew,5.0.2+dfsg1-1*
G04 #@! TF.CreationDate,2019-11-26T12:37:51+03:00*
G04 #@! TF.ProjectId,disp,64697370-2e6b-4696-9361-645f70636258,rev?*
G04 #@! TF.SameCoordinates,Original*
G04 #@! TF.FileFunction,Soldermask,Bot*
G04 #@! TF.FilePolarity,Negative*
%FSLAX46Y46*%
G04 Gerber Fmt 4.6, Leading zero omitted, Abs format (unit mm)*
G04 Created by KiCad (PCBNEW 5.0.2+dfsg1-1) date Вт 26 ноя 2019 12:37:51*
%MOMM*%
%LPD*%
G01*
G04 APERTURE LIST*
%ADD10C,0.100000*%
G04 APERTURE END LIST*
D10*
G36*
X126326000Y-83146000D02*
X124626000Y-83146000D01*
X124626000Y-81446000D01*
X126326000Y-81446000D01*
X126326000Y-83146000D01*
X126326000Y-83146000D01*
G37*
G36*
X129714522Y-81235039D02*
X129748053Y-81245211D01*
X129778960Y-81261731D01*
X129806043Y-81283957D01*
X129828269Y-81311040D01*
X129844789Y-81341947D01*
X129854961Y-81375478D01*
X129859000Y-81416487D01*
X129859000Y-82195513D01*
X129854961Y-82236522D01*
X129844789Y-82270053D01*
X129828269Y-82300960D01*
X129806043Y-82328043D01*
X129778960Y-82350269D01*
X129748053Y-82366789D01*
X129714522Y-82376961D01*
X129673513Y-82381000D01*
X128644487Y-82381000D01*
X128603478Y-82376961D01*
X128569947Y-82366789D01*
X128539040Y-82350269D01*
X128511957Y-82328043D01*
X128489731Y-82300960D01*
X128473211Y-82270053D01*
X128463039Y-82236522D01*
X128459000Y-82195513D01*
X128459000Y-81416487D01*
X128463039Y-81375478D01*
X128473211Y-81341947D01*
X128489731Y-81311040D01*
X128511957Y-81283957D01*
X128539040Y-81261731D01*
X128569947Y-81245211D01*
X128603478Y-81235039D01*
X128644487Y-81231000D01*
X129673513Y-81231000D01*
X129714522Y-81235039D01*
X129714522Y-81235039D01*
G37*
G36*
X153900926Y-79655029D02*
X153966356Y-79668044D01*
X154151256Y-79744632D01*
X154317665Y-79855823D01*
X154459177Y-79997335D01*
X154459179Y-79997338D01*
X154570368Y-80163744D01*
X154639648Y-80331000D01*
X154646956Y-80348645D01*
X154686000Y-80544931D01*
X154686000Y-80745069D01*
X154646956Y-80941355D01*
X154570368Y-81126256D01*
X154459177Y-81292665D01*
X154317665Y-81434177D01*
X154317662Y-81434179D01*
X154151256Y-81545368D01*
X153966356Y-81621956D01*
X153900926Y-81634971D01*
X153770069Y-81661000D01*
X153569931Y-81661000D01*
X153439074Y-81634971D01*
X153373644Y-81621956D01*
X153188744Y-81545368D01*
X153022338Y-81434179D01*
X153022335Y-81434177D01*
X152880823Y-81292665D01*
X152769632Y-81126256D01*
X152693044Y-80941355D01*
X152654000Y-80745069D01*
X152654000Y-80544931D01*
X152693044Y-80348645D01*
X152700353Y-80331000D01*
X152769632Y-80163744D01*
X152880821Y-79997338D01*
X152880823Y-79997335D01*
X153022335Y-79855823D01*
X153188744Y-79744632D01*
X153373644Y-79668044D01*
X153439074Y-79655029D01*
X153569931Y-79629000D01*
X153770069Y-79629000D01*
X153900926Y-79655029D01*
X153900926Y-79655029D01*
G37*
G36*
X151360926Y-79655029D02*
X151426356Y-79668044D01*
X151611256Y-79744632D01*
X151777665Y-79855823D01*
X151919177Y-79997335D01*
X151919179Y-79997338D01*
X152030368Y-80163744D01*
X152099648Y-80331000D01*
X152106956Y-80348645D01*
X152146000Y-80544931D01*
X152146000Y-80745069D01*
X152106956Y-80941355D01*
X152030368Y-81126256D01*
X151919177Y-81292665D01*
X151777665Y-81434177D01*
X151777662Y-81434179D01*
X151611256Y-81545368D01*
X151426356Y-81621956D01*
X151360926Y-81634971D01*
X151230069Y-81661000D01*
X151029931Y-81661000D01*
X150899074Y-81634971D01*
X150833644Y-81621956D01*
X150648744Y-81545368D01*
X150482338Y-81434179D01*
X150482335Y-81434177D01*
X150340823Y-81292665D01*
X150229632Y-81126256D01*
X150153044Y-80941355D01*
X150114000Y-80745069D01*
X150114000Y-80544931D01*
X150153044Y-80348645D01*
X150160353Y-80331000D01*
X150229632Y-80163744D01*
X150340821Y-79997338D01*
X150340823Y-79997335D01*
X150482335Y-79855823D01*
X150648744Y-79744632D01*
X150833644Y-79668044D01*
X150899074Y-79655029D01*
X151029931Y-79629000D01*
X151230069Y-79629000D01*
X151360926Y-79655029D01*
X151360926Y-79655029D01*
G37*
G36*
X146280926Y-79655029D02*
X146346356Y-79668044D01*
X146531256Y-79744632D01*
X146697665Y-79855823D01*
X146839177Y-79997335D01*
X146839179Y-79997338D01*
X146950368Y-80163744D01*
X147019648Y-80331000D01*
X147026956Y-80348645D01*
X147066000Y-80544931D01*
X147066000Y-80745069D01*
X147026956Y-80941355D01*
X146950368Y-81126256D01*
X146839177Y-81292665D01*
X146697665Y-81434177D01*
X146697662Y-81434179D01*
X146531256Y-81545368D01*
X146346356Y-81621956D01*
X146280926Y-81634971D01*
X146150069Y-81661000D01*
X145949931Y-81661000D01*
X145819074Y-81634971D01*
X145753644Y-81621956D01*
X145568744Y-81545368D01*
X145402338Y-81434179D01*
X145402335Y-81434177D01*
X145260823Y-81292665D01*
X145149632Y-81126256D01*
X145073044Y-80941355D01*
X145034000Y-80745069D01*
X145034000Y-80544931D01*
X145073044Y-80348645D01*
X145080353Y-80331000D01*
X145149632Y-80163744D01*
X145260821Y-79997338D01*
X145260823Y-79997335D01*
X145402335Y-79855823D01*
X145568744Y-79744632D01*
X145753644Y-79668044D01*
X145819074Y-79655029D01*
X145949931Y-79629000D01*
X146150069Y-79629000D01*
X146280926Y-79655029D01*
X146280926Y-79655029D01*
G37*
G36*
X143740926Y-79655029D02*
X143806356Y-79668044D01*
X143991256Y-79744632D01*
X144157665Y-79855823D01*
X144299177Y-79997335D01*
X144299179Y-79997338D01*
X144410368Y-80163744D01*
X144479648Y-80331000D01*
X144486956Y-80348645D01*
X144526000Y-80544931D01*
X144526000Y-80745069D01*
X144486956Y-80941355D01*
X144410368Y-81126256D01*
X144299177Y-81292665D01*
X144157665Y-81434177D01*
X144157662Y-81434179D01*
X143991256Y-81545368D01*
X143806356Y-81621956D01*
X143740926Y-81634971D01*
X143610069Y-81661000D01*
X143409931Y-81661000D01*
X143279074Y-81634971D01*
X143213644Y-81621956D01*
X143028744Y-81545368D01*
X142862338Y-81434179D01*
X142862335Y-81434177D01*
X142720823Y-81292665D01*
X142609632Y-81126256D01*
X142533044Y-80941355D01*
X142494000Y-80745069D01*
X142494000Y-80544931D01*
X142533044Y-80348645D01*
X142540353Y-80331000D01*
X142609632Y-80163744D01*
X142720821Y-79997338D01*
X142720823Y-79997335D01*
X142862335Y-79855823D01*
X143028744Y-79744632D01*
X143213644Y-79668044D01*
X143279074Y-79655029D01*
X143409931Y-79629000D01*
X143610069Y-79629000D01*
X143740926Y-79655029D01*
X143740926Y-79655029D01*
G37*
G36*
X156440926Y-79655029D02*
X156506356Y-79668044D01*
X156691256Y-79744632D01*
X156857665Y-79855823D01*
X156999177Y-79997335D01*
X156999179Y-79997338D01*
X157110368Y-80163744D01*
X157179648Y-80331000D01*
X157186956Y-80348645D01*
X157226000Y-80544931D01*
X157226000Y-80745069D01*
X157186956Y-80941355D01*
X157110368Y-81126256D01*
X156999177Y-81292665D01*
X156857665Y-81434177D01*
X156857662Y-81434179D01*
X156691256Y-81545368D01*
X156506356Y-81621956D01*
X156440926Y-81634971D01*
X156310069Y-81661000D01*
X156109931Y-81661000D01*
X155979074Y-81634971D01*
X155913644Y-81621956D01*
X155728744Y-81545368D01*
X155562338Y-81434179D01*
X155562335Y-81434177D01*
X155420823Y-81292665D01*
X155309632Y-81126256D01*
X155233044Y-80941355D01*
X155194000Y-80745069D01*
X155194000Y-80544931D01*
X155233044Y-80348645D01*
X155240353Y-80331000D01*
X155309632Y-80163744D01*
X155420821Y-79997338D01*
X155420823Y-79997335D01*
X155562335Y-79855823D01*
X155728744Y-79744632D01*
X155913644Y-79668044D01*
X155979074Y-79655029D01*
X156109931Y-79629000D01*
X156310069Y-79629000D01*
X156440926Y-79655029D01*
X156440926Y-79655029D01*
G37*
G36*
X141200926Y-79655029D02*
X141266356Y-79668044D01*
X141451256Y-79744632D01*
X141617665Y-79855823D01*
X141759177Y-79997335D01*
X141759179Y-79997338D01*
X141870368Y-80163744D01*
X141939648Y-80331000D01*
X141946956Y-80348645D01*
X141986000Y-80544931D01*
X141986000Y-80745069D01*
X141946956Y-80941355D01*
X141870368Y-81126256D01*
X141759177Y-81292665D01*
X141617665Y-81434177D01*
X141617662Y-81434179D01*
X141451256Y-81545368D01*
X141266356Y-81621956D01*
X141200926Y-81634971D01*
X141070069Y-81661000D01*
X140869931Y-81661000D01*
X140739074Y-81634971D01*
X140673644Y-81621956D01*
X140488744Y-81545368D01*
X140322338Y-81434179D01*
X140322335Y-81434177D01*
X140180823Y-81292665D01*
X140069632Y-81126256D01*
X139993044Y-80941355D01*
X139954000Y-80745069D01*
X139954000Y-80544931D01*
X139993044Y-80348645D01*
X140000353Y-80331000D01*
X140069632Y-80163744D01*
X140180821Y-79997338D01*
X140180823Y-79997335D01*
X140322335Y-79855823D01*
X140488744Y-79744632D01*
X140673644Y-79668044D01*
X140739074Y-79655029D01*
X140869931Y-79629000D01*
X141070069Y-79629000D01*
X141200926Y-79655029D01*
X141200926Y-79655029D01*
G37*
G36*
X138660926Y-79655029D02*
X138726356Y-79668044D01*
X138911256Y-79744632D01*
X139077665Y-79855823D01*
X139219177Y-79997335D01*
X139219179Y-79997338D01*
X139330368Y-80163744D01*
X139399648Y-80331000D01*
X139406956Y-80348645D01*
X139446000Y-80544931D01*
X139446000Y-80745069D01*
X139406956Y-80941355D01*
X139330368Y-81126256D01*
X139219177Y-81292665D01*
X139077665Y-81434177D01*
X139077662Y-81434179D01*
X138911256Y-81545368D01*
X138726356Y-81621956D01*
X138660926Y-81634971D01*
X138530069Y-81661000D01*
X138329931Y-81661000D01*
X138199074Y-81634971D01*
X138133644Y-81621956D01*
X137948744Y-81545368D01*
X137782338Y-81434179D01*
X137782335Y-81434177D01*
X137640823Y-81292665D01*
X137529632Y-81126256D01*
X137453044Y-80941355D01*
X137414000Y-80745069D01*
X137414000Y-80544931D01*
X137453044Y-80348645D01*
X137460353Y-80331000D01*
X137529632Y-80163744D01*
X137640821Y-79997338D01*
X137640823Y-79997335D01*
X137782335Y-79855823D01*
X137948744Y-79744632D01*
X138133644Y-79668044D01*
X138199074Y-79655029D01*
X138329931Y-79629000D01*
X138530069Y-79629000D01*
X138660926Y-79655029D01*
X138660926Y-79655029D01*
G37*
G36*
X136120926Y-79655029D02*
X136186356Y-79668044D01*
X136371256Y-79744632D01*
X136537665Y-79855823D01*
X136679177Y-79997335D01*
X136679179Y-79997338D01*
X136790368Y-80163744D01*
X136859648Y-80331000D01*
X136866956Y-80348645D01*
X136906000Y-80544931D01*
X136906000Y-80745069D01*
X136866956Y-80941355D01*
X136790368Y-81126256D01*
X136679177Y-81292665D01*
X136537665Y-81434177D01*
X136537662Y-81434179D01*
X136371256Y-81545368D01*
X136186356Y-81621956D01*
X136120926Y-81634971D01*
X135990069Y-81661000D01*
X135789931Y-81661000D01*
X135659074Y-81634971D01*
X135593644Y-81621956D01*
X135408744Y-81545368D01*
X135242338Y-81434179D01*
X135242335Y-81434177D01*
X135100823Y-81292665D01*
X134989632Y-81126256D01*
X134913044Y-80941355D01*
X134874000Y-80745069D01*
X134874000Y-80544931D01*
X134913044Y-80348645D01*
X134920353Y-80331000D01*
X134989632Y-80163744D01*
X135100821Y-79997338D01*
X135100823Y-79997335D01*
X135242335Y-79855823D01*
X135408744Y-79744632D01*
X135593644Y-79668044D01*
X135659074Y-79655029D01*
X135789931Y-79629000D01*
X135990069Y-79629000D01*
X136120926Y-79655029D01*
X136120926Y-79655029D01*
G37*
G36*
X133580926Y-79655029D02*
X133646356Y-79668044D01*
X133831256Y-79744632D01*
X133997665Y-79855823D01*
X134139177Y-79997335D01*
X134139179Y-79997338D01*
X134250368Y-80163744D01*
X134319648Y-80331000D01*
X134326956Y-80348645D01*
X134366000Y-80544931D01*
X134366000Y-80745069D01*
X134326956Y-80941355D01*
X134250368Y-81126256D01*
X134139177Y-81292665D01*
X133997665Y-81434177D01*
X133997662Y-81434179D01*
X133831256Y-81545368D01*
X133646356Y-81621956D01*
X133580926Y-81634971D01*
X133450069Y-81661000D01*
X133249931Y-81661000D01*
X133119074Y-81634971D01*
X133053644Y-81621956D01*
X132868744Y-81545368D01*
X132702338Y-81434179D01*
X132702335Y-81434177D01*
X132560823Y-81292665D01*
X132449632Y-81126256D01*
X132373044Y-80941355D01*
X132334000Y-80745069D01*
X132334000Y-80544931D01*
X132373044Y-80348645D01*
X132380353Y-80331000D01*
X132449632Y-80163744D01*
X132560821Y-79997338D01*
X132560823Y-79997335D01*
X132702335Y-79855823D01*
X132868744Y-79744632D01*
X133053644Y-79668044D01*
X133119074Y-79655029D01*
X133249931Y-79629000D01*
X133450069Y-79629000D01*
X133580926Y-79655029D01*
X133580926Y-79655029D01*
G37*
G36*
X148820926Y-79655029D02*
X148886356Y-79668044D01*
X149071256Y-79744632D01*
X149237665Y-79855823D01*
X149379177Y-79997335D01*
X149379179Y-79997338D01*
X149490368Y-80163744D01*
X149559648Y-80331000D01*
X149566956Y-80348645D01*
X149606000Y-80544931D01*
X149606000Y-80745069D01*
X149566956Y-80941355D01*
X149490368Y-81126256D01*
X149379177Y-81292665D01*
X149237665Y-81434177D01*
X149237662Y-81434179D01*
X149071256Y-81545368D01*
X148886356Y-81621956D01*
X148820926Y-81634971D01*
X148690069Y-81661000D01*
X148489931Y-81661000D01*
X148359074Y-81634971D01*
X148293644Y-81621956D01*
X148108744Y-81545368D01*
X147942338Y-81434179D01*
X147942335Y-81434177D01*
X147800823Y-81292665D01*
X147689632Y-81126256D01*
X147613044Y-80941355D01*
X147574000Y-80745069D01*
X147574000Y-80544931D01*
X147613044Y-80348645D01*
X147620353Y-80331000D01*
X147689632Y-80163744D01*
X147800821Y-79997338D01*
X147800823Y-79997335D01*
X147942335Y-79855823D01*
X148108744Y-79744632D01*
X148293644Y-79668044D01*
X148359074Y-79655029D01*
X148489931Y-79629000D01*
X148690069Y-79629000D01*
X148820926Y-79655029D01*
X148820926Y-79655029D01*
G37*
G36*
X170326318Y-79909411D02*
X170398767Y-79923822D01*
X170455303Y-79947240D01*
X170535257Y-79980358D01*
X170658100Y-80062439D01*
X170762561Y-80166900D01*
X170844642Y-80289743D01*
X170859741Y-80326196D01*
X170901178Y-80426233D01*
X170909122Y-80466169D01*
X170930000Y-80571130D01*
X170930000Y-80718870D01*
X170901178Y-80863766D01*
X170844642Y-81000257D01*
X170762561Y-81123100D01*
X170658100Y-81227561D01*
X170535257Y-81309642D01*
X170457265Y-81341947D01*
X170398767Y-81366178D01*
X170326318Y-81380589D01*
X170253870Y-81395000D01*
X170106130Y-81395000D01*
X170033682Y-81380589D01*
X169961233Y-81366178D01*
X169902735Y-81341947D01*
X169824743Y-81309642D01*
X169701900Y-81227561D01*
X169597439Y-81123100D01*
X169515358Y-81000257D01*
X169458822Y-80863766D01*
X169430000Y-80718870D01*
X169430000Y-80571130D01*
X169450878Y-80466169D01*
X169458822Y-80426233D01*
X169500259Y-80326196D01*
X169515358Y-80289743D01*
X169597439Y-80166900D01*
X169701900Y-80062439D01*
X169824743Y-79980358D01*
X169904697Y-79947240D01*
X169961233Y-79923822D01*
X170033682Y-79909411D01*
X170106130Y-79895000D01*
X170253870Y-79895000D01*
X170326318Y-79909411D01*
X170326318Y-79909411D01*
G37*
G36*
X167666318Y-79909411D02*
X167738767Y-79923822D01*
X167795303Y-79947240D01*
X167875257Y-79980358D01*
X167998100Y-80062439D01*
X168102561Y-80166900D01*
X168184642Y-80289743D01*
X168199741Y-80326196D01*
X168241178Y-80426233D01*
X168249122Y-80466169D01*
X168270000Y-80571130D01*
X168270000Y-80718870D01*
X168241178Y-80863766D01*
X168184642Y-81000257D01*
X168102561Y-81123100D01*
X167998100Y-81227561D01*
X167875257Y-81309642D01*
X167797265Y-81341947D01*
X167738767Y-81366178D01*
X167666318Y-81380589D01*
X167593870Y-81395000D01*
X167446130Y-81395000D01*
X167373682Y-81380589D01*
X167301233Y-81366178D01*
X167242735Y-81341947D01*
X167164743Y-81309642D01*
X167041900Y-81227561D01*
X166937439Y-81123100D01*
X166855358Y-81000257D01*
X166798822Y-80863766D01*
X166770000Y-80718870D01*
X166770000Y-80571130D01*
X166790878Y-80466169D01*
X166798822Y-80426233D01*
X166840259Y-80326196D01*
X166855358Y-80289743D01*
X166937439Y-80166900D01*
X167041900Y-80062439D01*
X167164743Y-79980358D01*
X167244697Y-79947240D01*
X167301233Y-79923822D01*
X167373682Y-79909411D01*
X167446130Y-79895000D01*
X167593870Y-79895000D01*
X167666318Y-79909411D01*
X167666318Y-79909411D01*
G37*
G36*
X165166318Y-79909411D02*
X165238767Y-79923822D01*
X165295303Y-79947240D01*
X165375257Y-79980358D01*
X165498100Y-80062439D01*
X165602561Y-80166900D01*
X165684642Y-80289743D01*
X165699741Y-80326196D01*
X165741178Y-80426233D01*
X165749122Y-80466169D01*
X165770000Y-80571130D01*
X165770000Y-80718870D01*
X165741178Y-80863766D01*
X165684642Y-81000257D01*
X165602561Y-81123100D01*
X165498100Y-81227561D01*
X165375257Y-81309642D01*
X165297265Y-81341947D01*
X165238767Y-81366178D01*
X165166318Y-81380589D01*
X165093870Y-81395000D01*
X164946130Y-81395000D01*
X164873682Y-81380589D01*
X164801233Y-81366178D01*
X164742735Y-81341947D01*
X164664743Y-81309642D01*
X164541900Y-81227561D01*
X164437439Y-81123100D01*
X164355358Y-81000257D01*
X164298822Y-80863766D01*
X164270000Y-80718870D01*
X164270000Y-80571130D01*
X164290878Y-80466169D01*
X164298822Y-80426233D01*
X164340259Y-80326196D01*
X164355358Y-80289743D01*
X164437439Y-80166900D01*
X164541900Y-80062439D01*
X164664743Y-79980358D01*
X164744697Y-79947240D01*
X164801233Y-79923822D01*
X164873682Y-79909411D01*
X164946130Y-79895000D01*
X165093870Y-79895000D01*
X165166318Y-79909411D01*
X165166318Y-79909411D01*
G37*
G36*
X162666318Y-79909411D02*
X162738767Y-79923822D01*
X162795303Y-79947240D01*
X162875257Y-79980358D01*
X162998100Y-80062439D01*
X163102561Y-80166900D01*
X163184642Y-80289743D01*
X163199741Y-80326196D01*
X163241178Y-80426233D01*
X163249122Y-80466169D01*
X163270000Y-80571130D01*
X163270000Y-80718870D01*
X163241178Y-80863766D01*
X163184642Y-81000257D01*
X163102561Y-81123100D01*
X162998100Y-81227561D01*
X162875257Y-81309642D01*
X162797265Y-81341947D01*
X162738767Y-81366178D01*
X162666318Y-81380589D01*
X162593870Y-81395000D01*
X162446130Y-81395000D01*
X162373682Y-81380589D01*
X162301233Y-81366178D01*
X162242735Y-81341947D01*
X162164743Y-81309642D01*
X162041900Y-81227561D01*
X161937439Y-81123100D01*
X161855358Y-81000257D01*
X161798822Y-80863766D01*
X161770000Y-80718870D01*
X161770000Y-80571130D01*
X161790878Y-80466169D01*
X161798822Y-80426233D01*
X161840259Y-80326196D01*
X161855358Y-80289743D01*
X161937439Y-80166900D01*
X162041900Y-80062439D01*
X162164743Y-79980358D01*
X162244697Y-79947240D01*
X162301233Y-79923822D01*
X162373682Y-79909411D01*
X162446130Y-79895000D01*
X162593870Y-79895000D01*
X162666318Y-79909411D01*
X162666318Y-79909411D01*
G37*
G36*
X160166318Y-79909411D02*
X160238767Y-79923822D01*
X160295303Y-79947240D01*
X160375257Y-79980358D01*
X160498100Y-80062439D01*
X160602561Y-80166900D01*
X160684642Y-80289743D01*
X160699741Y-80326196D01*
X160741178Y-80426233D01*
X160749122Y-80466169D01*
X160770000Y-80571130D01*
X160770000Y-80718870D01*
X160741178Y-80863766D01*
X160684642Y-81000257D01*
X160602561Y-81123100D01*
X160498100Y-81227561D01*
X160375257Y-81309642D01*
X160297265Y-81341947D01*
X160238767Y-81366178D01*
X160166318Y-81380589D01*
X160093870Y-81395000D01*
X159946130Y-81395000D01*
X159873682Y-81380589D01*
X159801233Y-81366178D01*
X159742735Y-81341947D01*
X159664743Y-81309642D01*
X159541900Y-81227561D01*
X159437439Y-81123100D01*
X159355358Y-81000257D01*
X159298822Y-80863766D01*
X159270000Y-80718870D01*
X159270000Y-80571130D01*
X159290878Y-80466169D01*
X159298822Y-80426233D01*
X159340259Y-80326196D01*
X159355358Y-80289743D01*
X159437439Y-80166900D01*
X159541900Y-80062439D01*
X159664743Y-79980358D01*
X159744697Y-79947240D01*
X159801233Y-79923822D01*
X159873682Y-79909411D01*
X159946130Y-79895000D01*
X160093870Y-79895000D01*
X160166318Y-79909411D01*
X160166318Y-79909411D01*
G37*
G36*
X125642630Y-78918299D02*
X125802855Y-78966903D01*
X125950520Y-79045831D01*
X126079949Y-79152051D01*
X126186169Y-79281480D01*
X126265097Y-79429145D01*
X126313701Y-79589370D01*
X126330112Y-79756000D01*
X126313701Y-79922630D01*
X126265097Y-80082855D01*
X126186169Y-80230520D01*
X126079949Y-80359949D01*
X125950520Y-80466169D01*
X125802855Y-80545097D01*
X125642630Y-80593701D01*
X125517752Y-80606000D01*
X125434248Y-80606000D01*
X125309370Y-80593701D01*
X125149145Y-80545097D01*
X125001480Y-80466169D01*
X124872051Y-80359949D01*
X124765831Y-80230520D01*
X124686903Y-80082855D01*
X124638299Y-79922630D01*
X124621888Y-79756000D01*
X124638299Y-79589370D01*
X124686903Y-79429145D01*
X124765831Y-79281480D01*
X124872051Y-79152051D01*
X125001480Y-79045831D01*
X125149145Y-78966903D01*
X125309370Y-78918299D01*
X125434248Y-78906000D01*
X125517752Y-78906000D01*
X125642630Y-78918299D01*
X125642630Y-78918299D01*
G37*
G36*
X129714522Y-79185039D02*
X129748053Y-79195211D01*
X129778960Y-79211731D01*
X129806043Y-79233957D01*
X129828269Y-79261040D01*
X129844789Y-79291947D01*
X129854961Y-79325478D01*
X129859000Y-79366487D01*
X129859000Y-80145513D01*
X129854961Y-80186522D01*
X129844789Y-80220053D01*
X129828269Y-80250960D01*
X129806043Y-80278043D01*
X129778960Y-80300269D01*
X129748053Y-80316789D01*
X129714522Y-80326961D01*
X129673513Y-80331000D01*
X128644487Y-80331000D01*
X128603478Y-80326961D01*
X128569947Y-80316789D01*
X128539040Y-80300269D01*
X128511957Y-80278043D01*
X128489731Y-80250960D01*
X128473211Y-80220053D01*
X128463039Y-80186522D01*
X128459000Y-80145513D01*
X128459000Y-79366487D01*
X128463039Y-79325478D01*
X128473211Y-79291947D01*
X128489731Y-79261040D01*
X128511957Y-79233957D01*
X128539040Y-79211731D01*
X128569947Y-79195211D01*
X128603478Y-79185039D01*
X128644487Y-79181000D01*
X129673513Y-79181000D01*
X129714522Y-79185039D01*
X129714522Y-79185039D01*
G37*
G36*
X139182649Y-76677717D02*
X139221827Y-76681576D01*
X139297228Y-76704449D01*
X139372629Y-76727321D01*
X139511608Y-76801608D01*
X139633422Y-76901578D01*
X139733392Y-77023392D01*
X139807679Y-77162371D01*
X139853424Y-77313174D01*
X139868870Y-77470000D01*
X139853424Y-77626826D01*
X139807679Y-77777629D01*
X139733392Y-77916608D01*
X139633422Y-78038422D01*
X139511608Y-78138392D01*
X139372629Y-78212679D01*
X139297228Y-78235551D01*
X139221827Y-78258424D01*
X139182649Y-78262283D01*
X139104295Y-78270000D01*
X139025705Y-78270000D01*
X138947351Y-78262283D01*
X138908173Y-78258424D01*
X138832772Y-78235551D01*
X138757371Y-78212679D01*
X138618392Y-78138392D01*
X138496578Y-78038422D01*
X138396608Y-77916608D01*
X138322321Y-77777629D01*
X138276576Y-77626826D01*
X138261130Y-77470000D01*
X138276576Y-77313174D01*
X138322321Y-77162371D01*
X138396608Y-77023392D01*
X138496578Y-76901578D01*
X138618392Y-76801608D01*
X138757371Y-76727321D01*
X138832772Y-76704449D01*
X138908173Y-76681576D01*
X138947351Y-76677717D01*
X139025705Y-76670000D01*
X139104295Y-76670000D01*
X139182649Y-76677717D01*
X139182649Y-76677717D01*
G37*
G36*
X141722649Y-76677717D02*
X141761827Y-76681576D01*
X141837228Y-76704449D01*
X141912629Y-76727321D01*
X142051608Y-76801608D01*
X142173422Y-76901578D01*
X142273392Y-77023392D01*
X142347679Y-77162371D01*
X142393424Y-77313174D01*
X142408870Y-77470000D01*
X142393424Y-77626826D01*
X142347679Y-77777629D01*
X142273392Y-77916608D01*
X142173422Y-78038422D01*
X142051608Y-78138392D01*
X141912629Y-78212679D01*
X141837228Y-78235551D01*
X141761827Y-78258424D01*
X141722649Y-78262283D01*
X141644295Y-78270000D01*
X141565705Y-78270000D01*
X141487351Y-78262283D01*
X141448173Y-78258424D01*
X141372772Y-78235551D01*
X141297371Y-78212679D01*
X141158392Y-78138392D01*
X141036578Y-78038422D01*
X140936608Y-77916608D01*
X140862321Y-77777629D01*
X140816576Y-77626826D01*
X140801130Y-77470000D01*
X140816576Y-77313174D01*
X140862321Y-77162371D01*
X140936608Y-77023392D01*
X141036578Y-76901578D01*
X141158392Y-76801608D01*
X141297371Y-76727321D01*
X141372772Y-76704449D01*
X141448173Y-76681576D01*
X141487351Y-76677717D01*
X141565705Y-76670000D01*
X141644295Y-76670000D01*
X141722649Y-76677717D01*
X141722649Y-76677717D01*
G37*
G36*
X144262649Y-76677717D02*
X144301827Y-76681576D01*
X144377228Y-76704449D01*
X144452629Y-76727321D01*
X144591608Y-76801608D01*
X144713422Y-76901578D01*
X144813392Y-77023392D01*
X144887679Y-77162371D01*
X144933424Y-77313174D01*
X144948870Y-77470000D01*
X144933424Y-77626826D01*
X144887679Y-77777629D01*
X144813392Y-77916608D01*
X144713422Y-78038422D01*
X144591608Y-78138392D01*
X144452629Y-78212679D01*
X144377228Y-78235551D01*
X144301827Y-78258424D01*
X144262649Y-78262283D01*
X144184295Y-78270000D01*
X144105705Y-78270000D01*
X144027351Y-78262283D01*
X143988173Y-78258424D01*
X143912772Y-78235551D01*
X143837371Y-78212679D01*
X143698392Y-78138392D01*
X143576578Y-78038422D01*
X143476608Y-77916608D01*
X143402321Y-77777629D01*
X143356576Y-77626826D01*
X143341130Y-77470000D01*
X143356576Y-77313174D01*
X143402321Y-77162371D01*
X143476608Y-77023392D01*
X143576578Y-76901578D01*
X143698392Y-76801608D01*
X143837371Y-76727321D01*
X143912772Y-76704449D01*
X143988173Y-76681576D01*
X144027351Y-76677717D01*
X144105705Y-76670000D01*
X144184295Y-76670000D01*
X144262649Y-76677717D01*
X144262649Y-76677717D01*
G37*
G36*
X146802649Y-76677717D02*
X146841827Y-76681576D01*
X146917228Y-76704449D01*
X146992629Y-76727321D01*
X147131608Y-76801608D01*
X147253422Y-76901578D01*
X147353392Y-77023392D01*
X147427679Y-77162371D01*
X147473424Y-77313174D01*
X147488870Y-77470000D01*
X147473424Y-77626826D01*
X147427679Y-77777629D01*
X147353392Y-77916608D01*
X147253422Y-78038422D01*
X147131608Y-78138392D01*
X146992629Y-78212679D01*
X146917228Y-78235551D01*
X146841827Y-78258424D01*
X146802649Y-78262283D01*
X146724295Y-78270000D01*
X146645705Y-78270000D01*
X146567351Y-78262283D01*
X146528173Y-78258424D01*
X146452772Y-78235551D01*
X146377371Y-78212679D01*
X146238392Y-78138392D01*
X146116578Y-78038422D01*
X146016608Y-77916608D01*
X145942321Y-77777629D01*
X145896576Y-77626826D01*
X145881130Y-77470000D01*
X145896576Y-77313174D01*
X145942321Y-77162371D01*
X146016608Y-77023392D01*
X146116578Y-76901578D01*
X146238392Y-76801608D01*
X146377371Y-76727321D01*
X146452772Y-76704449D01*
X146528173Y-76681576D01*
X146567351Y-76677717D01*
X146645705Y-76670000D01*
X146724295Y-76670000D01*
X146802649Y-76677717D01*
X146802649Y-76677717D01*
G37*
G36*
X149342649Y-76677717D02*
X149381827Y-76681576D01*
X149457228Y-76704449D01*
X149532629Y-76727321D01*
X149671608Y-76801608D01*
X149793422Y-76901578D01*
X149893392Y-77023392D01*
X149967679Y-77162371D01*
X150013424Y-77313174D01*
X150028870Y-77470000D01*
X150013424Y-77626826D01*
X149967679Y-77777629D01*
X149893392Y-77916608D01*
X149793422Y-78038422D01*
X149671608Y-78138392D01*
X149532629Y-78212679D01*
X149457228Y-78235551D01*
X149381827Y-78258424D01*
X149342649Y-78262283D01*
X149264295Y-78270000D01*
X149185705Y-78270000D01*
X149107351Y-78262283D01*
X149068173Y-78258424D01*
X148992772Y-78235551D01*
X148917371Y-78212679D01*
X148778392Y-78138392D01*
X148656578Y-78038422D01*
X148556608Y-77916608D01*
X148482321Y-77777629D01*
X148436576Y-77626826D01*
X148421130Y-77470000D01*
X148436576Y-77313174D01*
X148482321Y-77162371D01*
X148556608Y-77023392D01*
X148656578Y-76901578D01*
X148778392Y-76801608D01*
X148917371Y-76727321D01*
X148992772Y-76704449D01*
X149068173Y-76681576D01*
X149107351Y-76677717D01*
X149185705Y-76670000D01*
X149264295Y-76670000D01*
X149342649Y-76677717D01*
X149342649Y-76677717D01*
G37*
G36*
X151882649Y-76677717D02*
X151921827Y-76681576D01*
X151997228Y-76704449D01*
X152072629Y-76727321D01*
X152211608Y-76801608D01*
X152333422Y-76901578D01*
X152433392Y-77023392D01*
X152507679Y-77162371D01*
X152553424Y-77313174D01*
X152568870Y-77470000D01*
X152553424Y-77626826D01*
X152507679Y-77777629D01*
X152433392Y-77916608D01*
X152333422Y-78038422D01*
X152211608Y-78138392D01*
X152072629Y-78212679D01*
X151997228Y-78235551D01*
X151921827Y-78258424D01*
X151882649Y-78262283D01*
X151804295Y-78270000D01*
X151725705Y-78270000D01*
X151647351Y-78262283D01*
X151608173Y-78258424D01*
X151532772Y-78235551D01*
X151457371Y-78212679D01*
X151318392Y-78138392D01*
X151196578Y-78038422D01*
X151096608Y-77916608D01*
X151022321Y-77777629D01*
X150976576Y-77626826D01*
X150961130Y-77470000D01*
X150976576Y-77313174D01*
X151022321Y-77162371D01*
X151096608Y-77023392D01*
X151196578Y-76901578D01*
X151318392Y-76801608D01*
X151457371Y-76727321D01*
X151532772Y-76704449D01*
X151608173Y-76681576D01*
X151647351Y-76677717D01*
X151725705Y-76670000D01*
X151804295Y-76670000D01*
X151882649Y-76677717D01*
X151882649Y-76677717D01*
G37*
G36*
X154422649Y-76677717D02*
X154461827Y-76681576D01*
X154537228Y-76704449D01*
X154612629Y-76727321D01*
X154751608Y-76801608D01*
X154873422Y-76901578D01*
X154973392Y-77023392D01*
X155047679Y-77162371D01*
X155093424Y-77313174D01*
X155108870Y-77470000D01*
X155093424Y-77626826D01*
X155047679Y-77777629D01*
X154973392Y-77916608D01*
X154873422Y-78038422D01*
X154751608Y-78138392D01*
X154612629Y-78212679D01*
X154537228Y-78235551D01*
X154461827Y-78258424D01*
X154422649Y-78262283D01*
X154344295Y-78270000D01*
X154265705Y-78270000D01*
X154187351Y-78262283D01*
X154148173Y-78258424D01*
X154072772Y-78235551D01*
X153997371Y-78212679D01*
X153858392Y-78138392D01*
X153736578Y-78038422D01*
X153636608Y-77916608D01*
X153562321Y-77777629D01*
X153516576Y-77626826D01*
X153501130Y-77470000D01*
X153516576Y-77313174D01*
X153562321Y-77162371D01*
X153636608Y-77023392D01*
X153736578Y-76901578D01*
X153858392Y-76801608D01*
X153997371Y-76727321D01*
X154072772Y-76704449D01*
X154148173Y-76681576D01*
X154187351Y-76677717D01*
X154265705Y-76670000D01*
X154344295Y-76670000D01*
X154422649Y-76677717D01*
X154422649Y-76677717D01*
G37*
G36*
X156962649Y-76677717D02*
X157001827Y-76681576D01*
X157077228Y-76704449D01*
X157152629Y-76727321D01*
X157291608Y-76801608D01*
X157413422Y-76901578D01*
X157513392Y-77023392D01*
X157587679Y-77162371D01*
X157633424Y-77313174D01*
X157648870Y-77470000D01*
X157633424Y-77626826D01*
X157587679Y-77777629D01*
X157513392Y-77916608D01*
X157413422Y-78038422D01*
X157291608Y-78138392D01*
X157152629Y-78212679D01*
X157077228Y-78235551D01*
X157001827Y-78258424D01*
X156962649Y-78262283D01*
X156884295Y-78270000D01*
X156805705Y-78270000D01*
X156727351Y-78262283D01*
X156688173Y-78258424D01*
X156612772Y-78235551D01*
X156537371Y-78212679D01*
X156398392Y-78138392D01*
X156276578Y-78038422D01*
X156176608Y-77916608D01*
X156102321Y-77777629D01*
X156056576Y-77626826D01*
X156041130Y-77470000D01*
X156056576Y-77313174D01*
X156102321Y-77162371D01*
X156176608Y-77023392D01*
X156276578Y-76901578D01*
X156398392Y-76801608D01*
X156537371Y-76727321D01*
X156612772Y-76704449D01*
X156688173Y-76681576D01*
X156727351Y-76677717D01*
X156805705Y-76670000D01*
X156884295Y-76670000D01*
X156962649Y-76677717D01*
X156962649Y-76677717D01*
G37*
G36*
X136642649Y-76677717D02*
X136681827Y-76681576D01*
X136757228Y-76704449D01*
X136832629Y-76727321D01*
X136971608Y-76801608D01*
X137093422Y-76901578D01*
X137193392Y-77023392D01*
X137267679Y-77162371D01*
X137313424Y-77313174D01*
X137328870Y-77470000D01*
X137313424Y-77626826D01*
X137267679Y-77777629D01*
X137193392Y-77916608D01*
X137093422Y-78038422D01*
X136971608Y-78138392D01*
X136832629Y-78212679D01*
X136757228Y-78235551D01*
X136681827Y-78258424D01*
X136642649Y-78262283D01*
X136564295Y-78270000D01*
X136485705Y-78270000D01*
X136407351Y-78262283D01*
X136368173Y-78258424D01*
X136292772Y-78235551D01*
X136217371Y-78212679D01*
X136078392Y-78138392D01*
X135956578Y-78038422D01*
X135856608Y-77916608D01*
X135782321Y-77777629D01*
X135736576Y-77626826D01*
X135721130Y-77470000D01*
X135736576Y-77313174D01*
X135782321Y-77162371D01*
X135856608Y-77023392D01*
X135956578Y-76901578D01*
X136078392Y-76801608D01*
X136217371Y-76727321D01*
X136292772Y-76704449D01*
X136368173Y-76681576D01*
X136407351Y-76677717D01*
X136485705Y-76670000D01*
X136564295Y-76670000D01*
X136642649Y-76677717D01*
X136642649Y-76677717D01*
G37*
G36*
X129705000Y-78270000D02*
X128105000Y-78270000D01*
X128105000Y-76670000D01*
X129705000Y-76670000D01*
X129705000Y-78270000D01*
X129705000Y-78270000D01*
G37*
G36*
X134102649Y-76677717D02*
X134141827Y-76681576D01*
X134217228Y-76704449D01*
X134292629Y-76727321D01*
X134431608Y-76801608D01*
X134553422Y-76901578D01*
X134653392Y-77023392D01*
X134727679Y-77162371D01*
X134773424Y-77313174D01*
X134788870Y-77470000D01*
X134773424Y-77626826D01*
X134727679Y-77777629D01*
X134653392Y-77916608D01*
X134553422Y-78038422D01*
X134431608Y-78138392D01*
X134292629Y-78212679D01*
X134217228Y-78235551D01*
X134141827Y-78258424D01*
X134102649Y-78262283D01*
X134024295Y-78270000D01*
X133945705Y-78270000D01*
X133867351Y-78262283D01*
X133828173Y-78258424D01*
X133752772Y-78235551D01*
X133677371Y-78212679D01*
X133538392Y-78138392D01*
X133416578Y-78038422D01*
X133316608Y-77916608D01*
X133242321Y-77777629D01*
X133196576Y-77626826D01*
X133181130Y-77470000D01*
X133196576Y-77313174D01*
X133242321Y-77162371D01*
X133316608Y-77023392D01*
X133416578Y-76901578D01*
X133538392Y-76801608D01*
X133677371Y-76727321D01*
X133752772Y-76704449D01*
X133828173Y-76681576D01*
X133867351Y-76677717D01*
X133945705Y-76670000D01*
X134024295Y-76670000D01*
X134102649Y-76677717D01*
X134102649Y-76677717D01*
G37*
G36*
X131562649Y-76677717D02*
X131601827Y-76681576D01*
X131677228Y-76704449D01*
X131752629Y-76727321D01*
X131891608Y-76801608D01*
X132013422Y-76901578D01*
X132113392Y-77023392D01*
X132187679Y-77162371D01*
X132233424Y-77313174D01*
X132248870Y-77470000D01*
X132233424Y-77626826D01*
X132187679Y-77777629D01*
X132113392Y-77916608D01*
X132013422Y-78038422D01*
X131891608Y-78138392D01*
X131752629Y-78212679D01*
X131677228Y-78235551D01*
X131601827Y-78258424D01*
X131562649Y-78262283D01*
X131484295Y-78270000D01*
X131405705Y-78270000D01*
X131327351Y-78262283D01*
X131288173Y-78258424D01*
X131212772Y-78235551D01*
X131137371Y-78212679D01*
X130998392Y-78138392D01*
X130876578Y-78038422D01*
X130776608Y-77916608D01*
X130702321Y-77777629D01*
X130656576Y-77626826D01*
X130641130Y-77470000D01*
X130656576Y-77313174D01*
X130702321Y-77162371D01*
X130776608Y-77023392D01*
X130876578Y-76901578D01*
X130998392Y-76801608D01*
X131137371Y-76727321D01*
X131212772Y-76704449D01*
X131288173Y-76681576D01*
X131327351Y-76677717D01*
X131405705Y-76670000D01*
X131484295Y-76670000D01*
X131562649Y-76677717D01*
X131562649Y-76677717D01*
G37*
G36*
X125642630Y-76378299D02*
X125802855Y-76426903D01*
X125950520Y-76505831D01*
X126079949Y-76612051D01*
X126186169Y-76741480D01*
X126265097Y-76889145D01*
X126313701Y-77049370D01*
X126330112Y-77216000D01*
X126313701Y-77382630D01*
X126265097Y-77542855D01*
X126186169Y-77690520D01*
X126079949Y-77819949D01*
X125950520Y-77926169D01*
X125802855Y-78005097D01*
X125642630Y-78053701D01*
X125517752Y-78066000D01*
X125434248Y-78066000D01*
X125309370Y-78053701D01*
X125149145Y-78005097D01*
X125001480Y-77926169D01*
X124872051Y-77819949D01*
X124765831Y-77690520D01*
X124686903Y-77542855D01*
X124638299Y-77382630D01*
X124621888Y-77216000D01*
X124638299Y-77049370D01*
X124686903Y-76889145D01*
X124765831Y-76741480D01*
X124872051Y-76612051D01*
X125001480Y-76505831D01*
X125149145Y-76426903D01*
X125309370Y-76378299D01*
X125434248Y-76366000D01*
X125517752Y-76366000D01*
X125642630Y-76378299D01*
X125642630Y-76378299D01*
G37*
G36*
X125642630Y-73838299D02*
X125802855Y-73886903D01*
X125950520Y-73965831D01*
X126079949Y-74072051D01*
X126186169Y-74201480D01*
X126265097Y-74349145D01*
X126313701Y-74509370D01*
X126330112Y-74676000D01*
X126313701Y-74842630D01*
X126265097Y-75002855D01*
X126186169Y-75150520D01*
X126079949Y-75279949D01*
X125950520Y-75386169D01*
X125802855Y-75465097D01*
X125642630Y-75513701D01*
X125517752Y-75526000D01*
X125434248Y-75526000D01*
X125309370Y-75513701D01*
X125149145Y-75465097D01*
X125001480Y-75386169D01*
X124872051Y-75279949D01*
X124765831Y-75150520D01*
X124686903Y-75002855D01*
X124638299Y-74842630D01*
X124621888Y-74676000D01*
X124638299Y-74509370D01*
X124686903Y-74349145D01*
X124765831Y-74201480D01*
X124872051Y-74072051D01*
X125001480Y-73965831D01*
X125149145Y-73886903D01*
X125309370Y-73838299D01*
X125434248Y-73826000D01*
X125517752Y-73826000D01*
X125642630Y-73838299D01*
X125642630Y-73838299D01*
G37*
G36*
X128444522Y-73733039D02*
X128478053Y-73743211D01*
X128508960Y-73759731D01*
X128536043Y-73781957D01*
X128558269Y-73809040D01*
X128574789Y-73839947D01*
X128584961Y-73873478D01*
X128589000Y-73914487D01*
X128589000Y-74693513D01*
X128584961Y-74734522D01*
X128574789Y-74768053D01*
X128558269Y-74798960D01*
X128536043Y-74826043D01*
X128508960Y-74848269D01*
X128478053Y-74864789D01*
X128444522Y-74874961D01*
X128403513Y-74879000D01*
X127374487Y-74879000D01*
X127333478Y-74874961D01*
X127299947Y-74864789D01*
X127269040Y-74848269D01*
X127241957Y-74826043D01*
X127219731Y-74798960D01*
X127203211Y-74768053D01*
X127193039Y-74734522D01*
X127189000Y-74693513D01*
X127189000Y-73914487D01*
X127193039Y-73873478D01*
X127203211Y-73839947D01*
X127219731Y-73809040D01*
X127241957Y-73781957D01*
X127269040Y-73759731D01*
X127299947Y-73743211D01*
X127333478Y-73733039D01*
X127374487Y-73729000D01*
X128403513Y-73729000D01*
X128444522Y-73733039D01*
X128444522Y-73733039D01*
G37*
G36*
X148820926Y-72035029D02*
X148886356Y-72048044D01*
X149071256Y-72124632D01*
X149237665Y-72235823D01*
X149379177Y-72377335D01*
X149379179Y-72377338D01*
X149490368Y-72543744D01*
X149562503Y-72717893D01*
X149566956Y-72728645D01*
X149606000Y-72924931D01*
X149606000Y-73125069D01*
X149566956Y-73321355D01*
X149490368Y-73506256D01*
X149379177Y-73672665D01*
X149237665Y-73814177D01*
X149237662Y-73814179D01*
X149071256Y-73925368D01*
X148886356Y-74001956D01*
X148820926Y-74014971D01*
X148690069Y-74041000D01*
X148489931Y-74041000D01*
X148359074Y-74014971D01*
X148293644Y-74001956D01*
X148108744Y-73925368D01*
X147942338Y-73814179D01*
X147942335Y-73814177D01*
X147800823Y-73672665D01*
X147689632Y-73506256D01*
X147613044Y-73321355D01*
X147574000Y-73125069D01*
X147574000Y-72924931D01*
X147613044Y-72728645D01*
X147617498Y-72717893D01*
X147689632Y-72543744D01*
X147800821Y-72377338D01*
X147800823Y-72377335D01*
X147942335Y-72235823D01*
X148108744Y-72124632D01*
X148293644Y-72048044D01*
X148359074Y-72035029D01*
X148489931Y-72009000D01*
X148690069Y-72009000D01*
X148820926Y-72035029D01*
X148820926Y-72035029D01*
G37*
G36*
X146280926Y-72035029D02*
X146346356Y-72048044D01*
X146531256Y-72124632D01*
X146697665Y-72235823D01*
X146839177Y-72377335D01*
X146839179Y-72377338D01*
X146950368Y-72543744D01*
X147022503Y-72717893D01*
X147026956Y-72728645D01*
X147066000Y-72924931D01*
X147066000Y-73125069D01*
X147026956Y-73321355D01*
X146950368Y-73506256D01*
X146839177Y-73672665D01*
X146697665Y-73814177D01*
X146697662Y-73814179D01*
X146531256Y-73925368D01*
X146346356Y-74001956D01*
X146280926Y-74014971D01*
X146150069Y-74041000D01*
X145949931Y-74041000D01*
X145819074Y-74014971D01*
X145753644Y-74001956D01*
X145568744Y-73925368D01*
X145402338Y-73814179D01*
X145402335Y-73814177D01*
X145260823Y-73672665D01*
X145149632Y-73506256D01*
X145073044Y-73321355D01*
X145034000Y-73125069D01*
X145034000Y-72924931D01*
X145073044Y-72728645D01*
X145077498Y-72717893D01*
X145149632Y-72543744D01*
X145260821Y-72377338D01*
X145260823Y-72377335D01*
X145402335Y-72235823D01*
X145568744Y-72124632D01*
X145753644Y-72048044D01*
X145819074Y-72035029D01*
X145949931Y-72009000D01*
X146150069Y-72009000D01*
X146280926Y-72035029D01*
X146280926Y-72035029D01*
G37*
G36*
X141200926Y-72035029D02*
X141266356Y-72048044D01*
X141451256Y-72124632D01*
X141617665Y-72235823D01*
X141759177Y-72377335D01*
X141759179Y-72377338D01*
X141870368Y-72543744D01*
X141942503Y-72717893D01*
X141946956Y-72728645D01*
X141986000Y-72924931D01*
X141986000Y-73125069D01*
X141946956Y-73321355D01*
X141870368Y-73506256D01*
X141759177Y-73672665D01*
X141617665Y-73814177D01*
X141617662Y-73814179D01*
X141451256Y-73925368D01*
X141266356Y-74001956D01*
X141200926Y-74014971D01*
X141070069Y-74041000D01*
X140869931Y-74041000D01*
X140739074Y-74014971D01*
X140673644Y-74001956D01*
X140488744Y-73925368D01*
X140322338Y-73814179D01*
X140322335Y-73814177D01*
X140180823Y-73672665D01*
X140069632Y-73506256D01*
X139993044Y-73321355D01*
X139954000Y-73125069D01*
X139954000Y-72924931D01*
X139993044Y-72728645D01*
X139997498Y-72717893D01*
X140069632Y-72543744D01*
X140180821Y-72377338D01*
X140180823Y-72377335D01*
X140322335Y-72235823D01*
X140488744Y-72124632D01*
X140673644Y-72048044D01*
X140739074Y-72035029D01*
X140869931Y-72009000D01*
X141070069Y-72009000D01*
X141200926Y-72035029D01*
X141200926Y-72035029D01*
G37*
G36*
X138660926Y-72035029D02*
X138726356Y-72048044D01*
X138911256Y-72124632D01*
X139077665Y-72235823D01*
X139219177Y-72377335D01*
X139219179Y-72377338D01*
X139330368Y-72543744D01*
X139402503Y-72717893D01*
X139406956Y-72728645D01*
X139446000Y-72924931D01*
X139446000Y-73125069D01*
X139406956Y-73321355D01*
X139330368Y-73506256D01*
X139219177Y-73672665D01*
X139077665Y-73814177D01*
X139077662Y-73814179D01*
X138911256Y-73925368D01*
X138726356Y-74001956D01*
X138660926Y-74014971D01*
X138530069Y-74041000D01*
X138329931Y-74041000D01*
X138199074Y-74014971D01*
X138133644Y-74001956D01*
X137948744Y-73925368D01*
X137782338Y-73814179D01*
X137782335Y-73814177D01*
X137640823Y-73672665D01*
X137529632Y-73506256D01*
X137453044Y-73321355D01*
X137414000Y-73125069D01*
X137414000Y-72924931D01*
X137453044Y-72728645D01*
X137457498Y-72717893D01*
X137529632Y-72543744D01*
X137640821Y-72377338D01*
X137640823Y-72377335D01*
X137782335Y-72235823D01*
X137948744Y-72124632D01*
X138133644Y-72048044D01*
X138199074Y-72035029D01*
X138329931Y-72009000D01*
X138530069Y-72009000D01*
X138660926Y-72035029D01*
X138660926Y-72035029D01*
G37*
G36*
X136120926Y-72035029D02*
X136186356Y-72048044D01*
X136371256Y-72124632D01*
X136537665Y-72235823D01*
X136679177Y-72377335D01*
X136679179Y-72377338D01*
X136790368Y-72543744D01*
X136862503Y-72717893D01*
X136866956Y-72728645D01*
X136906000Y-72924931D01*
X136906000Y-73125069D01*
X136866956Y-73321355D01*
X136790368Y-73506256D01*
X136679177Y-73672665D01*
X136537665Y-73814177D01*
X136537662Y-73814179D01*
X136371256Y-73925368D01*
X136186356Y-74001956D01*
X136120926Y-74014971D01*
X135990069Y-74041000D01*
X135789931Y-74041000D01*
X135659074Y-74014971D01*
X135593644Y-74001956D01*
X135408744Y-73925368D01*
X135242338Y-73814179D01*
X135242335Y-73814177D01*
X135100823Y-73672665D01*
X134989632Y-73506256D01*
X134913044Y-73321355D01*
X134874000Y-73125069D01*
X134874000Y-72924931D01*
X134913044Y-72728645D01*
X134917498Y-72717893D01*
X134989632Y-72543744D01*
X135100821Y-72377338D01*
X135100823Y-72377335D01*
X135242335Y-72235823D01*
X135408744Y-72124632D01*
X135593644Y-72048044D01*
X135659074Y-72035029D01*
X135789931Y-72009000D01*
X135990069Y-72009000D01*
X136120926Y-72035029D01*
X136120926Y-72035029D01*
G37*
G36*
X134366000Y-74041000D02*
X132334000Y-74041000D01*
X132334000Y-72009000D01*
X134366000Y-72009000D01*
X134366000Y-74041000D01*
X134366000Y-74041000D01*
G37*
G36*
X151360926Y-72035029D02*
X151426356Y-72048044D01*
X151611256Y-72124632D01*
X151777665Y-72235823D01*
X151919177Y-72377335D01*
X151919179Y-72377338D01*
X152030368Y-72543744D01*
X152102503Y-72717893D01*
X152106956Y-72728645D01*
X152146000Y-72924931D01*
X152146000Y-73125069D01*
X152106956Y-73321355D01*
X152030368Y-73506256D01*
X151919177Y-73672665D01*
X151777665Y-73814177D01*
X151777662Y-73814179D01*
X151611256Y-73925368D01*
X151426356Y-74001956D01*
X151360926Y-74014971D01*
X151230069Y-74041000D01*
X151029931Y-74041000D01*
X150899074Y-74014971D01*
X150833644Y-74001956D01*
X150648744Y-73925368D01*
X150482338Y-73814179D01*
X150482335Y-73814177D01*
X150340823Y-73672665D01*
X150229632Y-73506256D01*
X150153044Y-73321355D01*
X150114000Y-73125069D01*
X150114000Y-72924931D01*
X150153044Y-72728645D01*
X150157498Y-72717893D01*
X150229632Y-72543744D01*
X150340821Y-72377338D01*
X150340823Y-72377335D01*
X150482335Y-72235823D01*
X150648744Y-72124632D01*
X150833644Y-72048044D01*
X150899074Y-72035029D01*
X151029931Y-72009000D01*
X151230069Y-72009000D01*
X151360926Y-72035029D01*
X151360926Y-72035029D01*
G37*
G36*
X153900926Y-72035029D02*
X153966356Y-72048044D01*
X154151256Y-72124632D01*
X154317665Y-72235823D01*
X154459177Y-72377335D01*
X154459179Y-72377338D01*
X154570368Y-72543744D01*
X154642503Y-72717893D01*
X154646956Y-72728645D01*
X154686000Y-72924931D01*
X154686000Y-73125069D01*
X154646956Y-73321355D01*
X154570368Y-73506256D01*
X154459177Y-73672665D01*
X154317665Y-73814177D01*
X154317662Y-73814179D01*
X154151256Y-73925368D01*
X153966356Y-74001956D01*
X153900926Y-74014971D01*
X153770069Y-74041000D01*
X153569931Y-74041000D01*
X153439074Y-74014971D01*
X153373644Y-74001956D01*
X153188744Y-73925368D01*
X153022338Y-73814179D01*
X153022335Y-73814177D01*
X152880823Y-73672665D01*
X152769632Y-73506256D01*
X152693044Y-73321355D01*
X152654000Y-73125069D01*
X152654000Y-72924931D01*
X152693044Y-72728645D01*
X152697498Y-72717893D01*
X152769632Y-72543744D01*
X152880821Y-72377338D01*
X152880823Y-72377335D01*
X153022335Y-72235823D01*
X153188744Y-72124632D01*
X153373644Y-72048044D01*
X153439074Y-72035029D01*
X153569931Y-72009000D01*
X153770069Y-72009000D01*
X153900926Y-72035029D01*
X153900926Y-72035029D01*
G37*
G36*
X143740926Y-72035029D02*
X143806356Y-72048044D01*
X143991256Y-72124632D01*
X144157665Y-72235823D01*
X144299177Y-72377335D01*
X144299179Y-72377338D01*
X144410368Y-72543744D01*
X144482503Y-72717893D01*
X144486956Y-72728645D01*
X144526000Y-72924931D01*
X144526000Y-73125069D01*
X144486956Y-73321355D01*
X144410368Y-73506256D01*
X144299177Y-73672665D01*
X144157665Y-73814177D01*
X144157662Y-73814179D01*
X143991256Y-73925368D01*
X143806356Y-74001956D01*
X143740926Y-74014971D01*
X143610069Y-74041000D01*
X143409931Y-74041000D01*
X143279074Y-74014971D01*
X143213644Y-74001956D01*
X143028744Y-73925368D01*
X142862338Y-73814179D01*
X142862335Y-73814177D01*
X142720823Y-73672665D01*
X142609632Y-73506256D01*
X142533044Y-73321355D01*
X142494000Y-73125069D01*
X142494000Y-72924931D01*
X142533044Y-72728645D01*
X142537498Y-72717893D01*
X142609632Y-72543744D01*
X142720821Y-72377338D01*
X142720823Y-72377335D01*
X142862335Y-72235823D01*
X143028744Y-72124632D01*
X143213644Y-72048044D01*
X143279074Y-72035029D01*
X143409931Y-72009000D01*
X143610069Y-72009000D01*
X143740926Y-72035029D01*
X143740926Y-72035029D01*
G37*
G36*
X156440926Y-72035029D02*
X156506356Y-72048044D01*
X156691256Y-72124632D01*
X156857665Y-72235823D01*
X156999177Y-72377335D01*
X156999179Y-72377338D01*
X157110368Y-72543744D01*
X157182503Y-72717893D01*
X157186956Y-72728645D01*
X157226000Y-72924931D01*
X157226000Y-73125069D01*
X157186956Y-73321355D01*
X157110368Y-73506256D01*
X156999177Y-73672665D01*
X156857665Y-73814177D01*
X156857662Y-73814179D01*
X156691256Y-73925368D01*
X156506356Y-74001956D01*
X156440926Y-74014971D01*
X156310069Y-74041000D01*
X156109931Y-74041000D01*
X155979074Y-74014971D01*
X155913644Y-74001956D01*
X155728744Y-73925368D01*
X155562338Y-73814179D01*
X155562335Y-73814177D01*
X155420823Y-73672665D01*
X155309632Y-73506256D01*
X155233044Y-73321355D01*
X155194000Y-73125069D01*
X155194000Y-72924931D01*
X155233044Y-72728645D01*
X155237498Y-72717893D01*
X155309632Y-72543744D01*
X155420821Y-72377338D01*
X155420823Y-72377335D01*
X155562335Y-72235823D01*
X155728744Y-72124632D01*
X155913644Y-72048044D01*
X155979074Y-72035029D01*
X156109931Y-72009000D01*
X156310069Y-72009000D01*
X156440926Y-72035029D01*
X156440926Y-72035029D01*
G37*
G36*
X125642630Y-71298299D02*
X125802855Y-71346903D01*
X125950520Y-71425831D01*
X126079949Y-71532051D01*
X126186169Y-71661480D01*
X126265097Y-71809145D01*
X126313701Y-71969370D01*
X126330112Y-72136000D01*
X126313701Y-72302630D01*
X126265097Y-72462855D01*
X126186169Y-72610520D01*
X126079949Y-72739949D01*
X125950520Y-72846169D01*
X125802855Y-72925097D01*
X125642630Y-72973701D01*
X125517752Y-72986000D01*
X125434248Y-72986000D01*
X125309370Y-72973701D01*
X125149145Y-72925097D01*
X125001480Y-72846169D01*
X124872051Y-72739949D01*
X124765831Y-72610520D01*
X124686903Y-72462855D01*
X124638299Y-72302630D01*
X124621888Y-72136000D01*
X124638299Y-71969370D01*
X124686903Y-71809145D01*
X124765831Y-71661480D01*
X124872051Y-71532051D01*
X125001480Y-71425831D01*
X125149145Y-71346903D01*
X125309370Y-71298299D01*
X125434248Y-71286000D01*
X125517752Y-71286000D01*
X125642630Y-71298299D01*
X125642630Y-71298299D01*
G37*
G36*
X128444522Y-71683039D02*
X128478053Y-71693211D01*
X128508960Y-71709731D01*
X128536043Y-71731957D01*
X128558269Y-71759040D01*
X128574789Y-71789947D01*
X128584961Y-71823478D01*
X128589000Y-71864487D01*
X128589000Y-72643513D01*
X128584961Y-72684522D01*
X128574789Y-72718053D01*
X128558269Y-72748960D01*
X128536043Y-72776043D01*
X128508960Y-72798269D01*
X128478053Y-72814789D01*
X128444522Y-72824961D01*
X128403513Y-72829000D01*
X127374487Y-72829000D01*
X127333478Y-72824961D01*
X127299947Y-72814789D01*
X127269040Y-72798269D01*
X127241957Y-72776043D01*
X127219731Y-72748960D01*
X127203211Y-72718053D01*
X127193039Y-72684522D01*
X127189000Y-72643513D01*
X127189000Y-71864487D01*
X127193039Y-71823478D01*
X127203211Y-71789947D01*
X127219731Y-71759040D01*
X127241957Y-71731957D01*
X127269040Y-71709731D01*
X127299947Y-71693211D01*
X127333478Y-71683039D01*
X127374487Y-71679000D01*
X128403513Y-71679000D01*
X128444522Y-71683039D01*
X128444522Y-71683039D01*
G37*
G36*
X170326318Y-69749411D02*
X170398767Y-69763822D01*
X170455303Y-69787240D01*
X170535257Y-69820358D01*
X170658100Y-69902439D01*
X170762561Y-70006900D01*
X170844642Y-70129743D01*
X170877760Y-70209697D01*
X170901178Y-70266233D01*
X170907220Y-70296608D01*
X170930000Y-70411130D01*
X170930000Y-70558870D01*
X170901178Y-70703766D01*
X170844642Y-70840257D01*
X170762561Y-70963100D01*
X170658100Y-71067561D01*
X170535257Y-71149642D01*
X170455303Y-71182760D01*
X170398767Y-71206178D01*
X170326318Y-71220589D01*
X170253870Y-71235000D01*
X170106130Y-71235000D01*
X170033682Y-71220589D01*
X169961233Y-71206178D01*
X169904697Y-71182760D01*
X169824743Y-71149642D01*
X169701900Y-71067561D01*
X169597439Y-70963100D01*
X169515358Y-70840257D01*
X169458822Y-70703766D01*
X169430000Y-70558870D01*
X169430000Y-70411130D01*
X169452780Y-70296608D01*
X169458822Y-70266233D01*
X169482240Y-70209697D01*
X169515358Y-70129743D01*
X169597439Y-70006900D01*
X169701900Y-69902439D01*
X169824743Y-69820358D01*
X169904697Y-69787240D01*
X169961233Y-69763822D01*
X170033682Y-69749411D01*
X170106130Y-69735000D01*
X170253870Y-69735000D01*
X170326318Y-69749411D01*
X170326318Y-69749411D01*
G37*
G36*
X160770000Y-71235000D02*
X159270000Y-71235000D01*
X159270000Y-69735000D01*
X160770000Y-69735000D01*
X160770000Y-71235000D01*
X160770000Y-71235000D01*
G37*
G36*
X162706318Y-69749411D02*
X162778767Y-69763822D01*
X162835303Y-69787240D01*
X162915257Y-69820358D01*
X163038100Y-69902439D01*
X163142561Y-70006900D01*
X163224642Y-70129743D01*
X163257760Y-70209697D01*
X163281178Y-70266233D01*
X163287220Y-70296608D01*
X163310000Y-70411130D01*
X163310000Y-70558870D01*
X163281178Y-70703766D01*
X163224642Y-70840257D01*
X163142561Y-70963100D01*
X163038100Y-71067561D01*
X162915257Y-71149642D01*
X162835303Y-71182760D01*
X162778767Y-71206178D01*
X162706318Y-71220589D01*
X162633870Y-71235000D01*
X162486130Y-71235000D01*
X162413682Y-71220589D01*
X162341233Y-71206178D01*
X162284697Y-71182760D01*
X162204743Y-71149642D01*
X162081900Y-71067561D01*
X161977439Y-70963100D01*
X161895358Y-70840257D01*
X161838822Y-70703766D01*
X161810000Y-70558870D01*
X161810000Y-70411130D01*
X161832780Y-70296608D01*
X161838822Y-70266233D01*
X161862240Y-70209697D01*
X161895358Y-70129743D01*
X161977439Y-70006900D01*
X162081900Y-69902439D01*
X162204743Y-69820358D01*
X162284697Y-69787240D01*
X162341233Y-69763822D01*
X162413682Y-69749411D01*
X162486130Y-69735000D01*
X162633870Y-69735000D01*
X162706318Y-69749411D01*
X162706318Y-69749411D01*
G37*
G36*
X167786318Y-69749411D02*
X167858767Y-69763822D01*
X167915303Y-69787240D01*
X167995257Y-69820358D01*
X168118100Y-69902439D01*
X168222561Y-70006900D01*
X168304642Y-70129743D01*
X168337760Y-70209697D01*
X168361178Y-70266233D01*
X168367220Y-70296608D01*
X168390000Y-70411130D01*
X168390000Y-70558870D01*
X168361178Y-70703766D01*
X168304642Y-70840257D01*
X168222561Y-70963100D01*
X168118100Y-71067561D01*
X167995257Y-71149642D01*
X167915303Y-71182760D01*
X167858767Y-71206178D01*
X167786318Y-71220589D01*
X167713870Y-71235000D01*
X167566130Y-71235000D01*
X167493682Y-71220589D01*
X167421233Y-71206178D01*
X167364697Y-71182760D01*
X167284743Y-71149642D01*
X167161900Y-71067561D01*
X167057439Y-70963100D01*
X166975358Y-70840257D01*
X166918822Y-70703766D01*
X166890000Y-70558870D01*
X166890000Y-70411130D01*
X166912780Y-70296608D01*
X166918822Y-70266233D01*
X166942240Y-70209697D01*
X166975358Y-70129743D01*
X167057439Y-70006900D01*
X167161900Y-69902439D01*
X167284743Y-69820358D01*
X167364697Y-69787240D01*
X167421233Y-69763822D01*
X167493682Y-69749411D01*
X167566130Y-69735000D01*
X167713870Y-69735000D01*
X167786318Y-69749411D01*
X167786318Y-69749411D01*
G37*
G36*
X165246318Y-69749411D02*
X165318767Y-69763822D01*
X165375303Y-69787240D01*
X165455257Y-69820358D01*
X165578100Y-69902439D01*
X165682561Y-70006900D01*
X165764642Y-70129743D01*
X165797760Y-70209697D01*
X165821178Y-70266233D01*
X165827220Y-70296608D01*
X165850000Y-70411130D01*
X165850000Y-70558870D01*
X165821178Y-70703766D01*
X165764642Y-70840257D01*
X165682561Y-70963100D01*
X165578100Y-71067561D01*
X165455257Y-71149642D01*
X165375303Y-71182760D01*
X165318767Y-71206178D01*
X165246318Y-71220589D01*
X165173870Y-71235000D01*
X165026130Y-71235000D01*
X164953682Y-71220589D01*
X164881233Y-71206178D01*
X164824697Y-71182760D01*
X164744743Y-71149642D01*
X164621900Y-71067561D01*
X164517439Y-70963100D01*
X164435358Y-70840257D01*
X164378822Y-70703766D01*
X164350000Y-70558870D01*
X164350000Y-70411130D01*
X164372780Y-70296608D01*
X164378822Y-70266233D01*
X164402240Y-70209697D01*
X164435358Y-70129743D01*
X164517439Y-70006900D01*
X164621900Y-69902439D01*
X164744743Y-69820358D01*
X164824697Y-69787240D01*
X164881233Y-69763822D01*
X164953682Y-69749411D01*
X165026130Y-69735000D01*
X165173870Y-69735000D01*
X165246318Y-69749411D01*
X165246318Y-69749411D01*
G37*
G36*
X131562649Y-69057717D02*
X131601827Y-69061576D01*
X131677228Y-69084449D01*
X131752629Y-69107321D01*
X131891608Y-69181608D01*
X132013422Y-69281578D01*
X132113392Y-69403392D01*
X132187679Y-69542371D01*
X132187679Y-69542372D01*
X132233424Y-69693173D01*
X132240382Y-69763822D01*
X132248870Y-69850000D01*
X132233424Y-70006826D01*
X132187679Y-70157629D01*
X132113392Y-70296608D01*
X132013422Y-70418422D01*
X131891608Y-70518392D01*
X131752629Y-70592679D01*
X131677228Y-70615551D01*
X131601827Y-70638424D01*
X131562649Y-70642283D01*
X131484295Y-70650000D01*
X131405705Y-70650000D01*
X131327351Y-70642283D01*
X131288173Y-70638424D01*
X131212772Y-70615551D01*
X131137371Y-70592679D01*
X130998392Y-70518392D01*
X130876578Y-70418422D01*
X130776608Y-70296608D01*
X130702321Y-70157629D01*
X130656576Y-70006826D01*
X130641130Y-69850000D01*
X130649618Y-69763822D01*
X130656576Y-69693173D01*
X130702321Y-69542372D01*
X130702321Y-69542371D01*
X130776608Y-69403392D01*
X130876578Y-69281578D01*
X130998392Y-69181608D01*
X131137371Y-69107321D01*
X131212772Y-69084449D01*
X131288173Y-69061576D01*
X131327351Y-69057717D01*
X131405705Y-69050000D01*
X131484295Y-69050000D01*
X131562649Y-69057717D01*
X131562649Y-69057717D01*
G37*
G36*
X134102649Y-69057717D02*
X134141827Y-69061576D01*
X134217228Y-69084449D01*
X134292629Y-69107321D01*
X134431608Y-69181608D01*
X134553422Y-69281578D01*
X134653392Y-69403392D01*
X134727679Y-69542371D01*
X134727679Y-69542372D01*
X134773424Y-69693173D01*
X134780382Y-69763822D01*
X134788870Y-69850000D01*
X134773424Y-70006826D01*
X134727679Y-70157629D01*
X134653392Y-70296608D01*
X134553422Y-70418422D01*
X134431608Y-70518392D01*
X134292629Y-70592679D01*
X134217228Y-70615551D01*
X134141827Y-70638424D01*
X134102649Y-70642283D01*
X134024295Y-70650000D01*
X133945705Y-70650000D01*
X133867351Y-70642283D01*
X133828173Y-70638424D01*
X133752772Y-70615551D01*
X133677371Y-70592679D01*
X133538392Y-70518392D01*
X133416578Y-70418422D01*
X133316608Y-70296608D01*
X133242321Y-70157629D01*
X133196576Y-70006826D01*
X133181130Y-69850000D01*
X133189618Y-69763822D01*
X133196576Y-69693173D01*
X133242321Y-69542372D01*
X133242321Y-69542371D01*
X133316608Y-69403392D01*
X133416578Y-69281578D01*
X133538392Y-69181608D01*
X133677371Y-69107321D01*
X133752772Y-69084449D01*
X133828173Y-69061576D01*
X133867351Y-69057717D01*
X133945705Y-69050000D01*
X134024295Y-69050000D01*
X134102649Y-69057717D01*
X134102649Y-69057717D01*
G37*
G36*
X129022649Y-69057717D02*
X129061827Y-69061576D01*
X129137228Y-69084449D01*
X129212629Y-69107321D01*
X129351608Y-69181608D01*
X129473422Y-69281578D01*
X129573392Y-69403392D01*
X129647679Y-69542371D01*
X129647679Y-69542372D01*
X129693424Y-69693173D01*
X129700382Y-69763822D01*
X129708870Y-69850000D01*
X129693424Y-70006826D01*
X129647679Y-70157629D01*
X129573392Y-70296608D01*
X129473422Y-70418422D01*
X129351608Y-70518392D01*
X129212629Y-70592679D01*
X129137228Y-70615551D01*
X129061827Y-70638424D01*
X129022649Y-70642283D01*
X128944295Y-70650000D01*
X128865705Y-70650000D01*
X128787351Y-70642283D01*
X128748173Y-70638424D01*
X128672772Y-70615551D01*
X128597371Y-70592679D01*
X128458392Y-70518392D01*
X128336578Y-70418422D01*
X128236608Y-70296608D01*
X128162321Y-70157629D01*
X128116576Y-70006826D01*
X128101130Y-69850000D01*
X128109618Y-69763822D01*
X128116576Y-69693173D01*
X128162321Y-69542372D01*
X128162321Y-69542371D01*
X128236608Y-69403392D01*
X128336578Y-69281578D01*
X128458392Y-69181608D01*
X128597371Y-69107321D01*
X128672772Y-69084449D01*
X128748173Y-69061576D01*
X128787351Y-69057717D01*
X128865705Y-69050000D01*
X128944295Y-69050000D01*
X129022649Y-69057717D01*
X129022649Y-69057717D01*
G37*
G36*
X136642649Y-69057717D02*
X136681827Y-69061576D01*
X136757228Y-69084449D01*
X136832629Y-69107321D01*
X136971608Y-69181608D01*
X137093422Y-69281578D01*
X137193392Y-69403392D01*
X137267679Y-69542371D01*
X137267679Y-69542372D01*
X137313424Y-69693173D01*
X137320382Y-69763822D01*
X137328870Y-69850000D01*
X137313424Y-70006826D01*
X137267679Y-70157629D01*
X137193392Y-70296608D01*
X137093422Y-70418422D01*
X136971608Y-70518392D01*
X136832629Y-70592679D01*
X136757228Y-70615551D01*
X136681827Y-70638424D01*
X136642649Y-70642283D01*
X136564295Y-70650000D01*
X136485705Y-70650000D01*
X136407351Y-70642283D01*
X136368173Y-70638424D01*
X136292772Y-70615551D01*
X136217371Y-70592679D01*
X136078392Y-70518392D01*
X135956578Y-70418422D01*
X135856608Y-70296608D01*
X135782321Y-70157629D01*
X135736576Y-70006826D01*
X135721130Y-69850000D01*
X135729618Y-69763822D01*
X135736576Y-69693173D01*
X135782321Y-69542372D01*
X135782321Y-69542371D01*
X135856608Y-69403392D01*
X135956578Y-69281578D01*
X136078392Y-69181608D01*
X136217371Y-69107321D01*
X136292772Y-69084449D01*
X136368173Y-69061576D01*
X136407351Y-69057717D01*
X136485705Y-69050000D01*
X136564295Y-69050000D01*
X136642649Y-69057717D01*
X136642649Y-69057717D01*
G37*
G36*
X156962649Y-69057717D02*
X157001827Y-69061576D01*
X157077228Y-69084449D01*
X157152629Y-69107321D01*
X157291608Y-69181608D01*
X157413422Y-69281578D01*
X157513392Y-69403392D01*
X157587679Y-69542371D01*
X157587679Y-69542372D01*
X157633424Y-69693173D01*
X157640382Y-69763822D01*
X157648870Y-69850000D01*
X157633424Y-70006826D01*
X157587679Y-70157629D01*
X157513392Y-70296608D01*
X157413422Y-70418422D01*
X157291608Y-70518392D01*
X157152629Y-70592679D01*
X157077228Y-70615551D01*
X157001827Y-70638424D01*
X156962649Y-70642283D01*
X156884295Y-70650000D01*
X156805705Y-70650000D01*
X156727351Y-70642283D01*
X156688173Y-70638424D01*
X156612772Y-70615551D01*
X156537371Y-70592679D01*
X156398392Y-70518392D01*
X156276578Y-70418422D01*
X156176608Y-70296608D01*
X156102321Y-70157629D01*
X156056576Y-70006826D01*
X156041130Y-69850000D01*
X156049618Y-69763822D01*
X156056576Y-69693173D01*
X156102321Y-69542372D01*
X156102321Y-69542371D01*
X156176608Y-69403392D01*
X156276578Y-69281578D01*
X156398392Y-69181608D01*
X156537371Y-69107321D01*
X156612772Y-69084449D01*
X156688173Y-69061576D01*
X156727351Y-69057717D01*
X156805705Y-69050000D01*
X156884295Y-69050000D01*
X156962649Y-69057717D01*
X156962649Y-69057717D01*
G37*
G36*
X154422649Y-69057717D02*
X154461827Y-69061576D01*
X154537228Y-69084449D01*
X154612629Y-69107321D01*
X154751608Y-69181608D01*
X154873422Y-69281578D01*
X154973392Y-69403392D01*
X155047679Y-69542371D01*
X155047679Y-69542372D01*
X155093424Y-69693173D01*
X155100382Y-69763822D01*
X155108870Y-69850000D01*
X155093424Y-70006826D01*
X155047679Y-70157629D01*
X154973392Y-70296608D01*
X154873422Y-70418422D01*
X154751608Y-70518392D01*
X154612629Y-70592679D01*
X154537228Y-70615551D01*
X154461827Y-70638424D01*
X154422649Y-70642283D01*
X154344295Y-70650000D01*
X154265705Y-70650000D01*
X154187351Y-70642283D01*
X154148173Y-70638424D01*
X154072772Y-70615551D01*
X153997371Y-70592679D01*
X153858392Y-70518392D01*
X153736578Y-70418422D01*
X153636608Y-70296608D01*
X153562321Y-70157629D01*
X153516576Y-70006826D01*
X153501130Y-69850000D01*
X153509618Y-69763822D01*
X153516576Y-69693173D01*
X153562321Y-69542372D01*
X153562321Y-69542371D01*
X153636608Y-69403392D01*
X153736578Y-69281578D01*
X153858392Y-69181608D01*
X153997371Y-69107321D01*
X154072772Y-69084449D01*
X154148173Y-69061576D01*
X154187351Y-69057717D01*
X154265705Y-69050000D01*
X154344295Y-69050000D01*
X154422649Y-69057717D01*
X154422649Y-69057717D01*
G37*
G36*
X139182649Y-69057717D02*
X139221827Y-69061576D01*
X139297228Y-69084449D01*
X139372629Y-69107321D01*
X139511608Y-69181608D01*
X139633422Y-69281578D01*
X139733392Y-69403392D01*
X139807679Y-69542371D01*
X139807679Y-69542372D01*
X139853424Y-69693173D01*
X139860382Y-69763822D01*
X139868870Y-69850000D01*
X139853424Y-70006826D01*
X139807679Y-70157629D01*
X139733392Y-70296608D01*
X139633422Y-70418422D01*
X139511608Y-70518392D01*
X139372629Y-70592679D01*
X139297228Y-70615551D01*
X139221827Y-70638424D01*
X139182649Y-70642283D01*
X139104295Y-70650000D01*
X139025705Y-70650000D01*
X138947351Y-70642283D01*
X138908173Y-70638424D01*
X138832772Y-70615551D01*
X138757371Y-70592679D01*
X138618392Y-70518392D01*
X138496578Y-70418422D01*
X138396608Y-70296608D01*
X138322321Y-70157629D01*
X138276576Y-70006826D01*
X138261130Y-69850000D01*
X138269618Y-69763822D01*
X138276576Y-69693173D01*
X138322321Y-69542372D01*
X138322321Y-69542371D01*
X138396608Y-69403392D01*
X138496578Y-69281578D01*
X138618392Y-69181608D01*
X138757371Y-69107321D01*
X138832772Y-69084449D01*
X138908173Y-69061576D01*
X138947351Y-69057717D01*
X139025705Y-69050000D01*
X139104295Y-69050000D01*
X139182649Y-69057717D01*
X139182649Y-69057717D01*
G37*
G36*
X141722649Y-69057717D02*
X141761827Y-69061576D01*
X141837228Y-69084449D01*
X141912629Y-69107321D01*
X142051608Y-69181608D01*
X142173422Y-69281578D01*
X142273392Y-69403392D01*
X142347679Y-69542371D01*
X142347679Y-69542372D01*
X142393424Y-69693173D01*
X142400382Y-69763822D01*
X142408870Y-69850000D01*
X142393424Y-70006826D01*
X142347679Y-70157629D01*
X142273392Y-70296608D01*
X142173422Y-70418422D01*
X142051608Y-70518392D01*
X141912629Y-70592679D01*
X141837228Y-70615551D01*
X141761827Y-70638424D01*
X141722649Y-70642283D01*
X141644295Y-70650000D01*
X141565705Y-70650000D01*
X141487351Y-70642283D01*
X141448173Y-70638424D01*
X141372772Y-70615551D01*
X141297371Y-70592679D01*
X141158392Y-70518392D01*
X141036578Y-70418422D01*
X140936608Y-70296608D01*
X140862321Y-70157629D01*
X140816576Y-70006826D01*
X140801130Y-69850000D01*
X140809618Y-69763822D01*
X140816576Y-69693173D01*
X140862321Y-69542372D01*
X140862321Y-69542371D01*
X140936608Y-69403392D01*
X141036578Y-69281578D01*
X141158392Y-69181608D01*
X141297371Y-69107321D01*
X141372772Y-69084449D01*
X141448173Y-69061576D01*
X141487351Y-69057717D01*
X141565705Y-69050000D01*
X141644295Y-69050000D01*
X141722649Y-69057717D01*
X141722649Y-69057717D01*
G37*
G36*
X144262649Y-69057717D02*
X144301827Y-69061576D01*
X144377228Y-69084449D01*
X144452629Y-69107321D01*
X144591608Y-69181608D01*
X144713422Y-69281578D01*
X144813392Y-69403392D01*
X144887679Y-69542371D01*
X144887679Y-69542372D01*
X144933424Y-69693173D01*
X144940382Y-69763822D01*
X144948870Y-69850000D01*
X144933424Y-70006826D01*
X144887679Y-70157629D01*
X144813392Y-70296608D01*
X144713422Y-70418422D01*
X144591608Y-70518392D01*
X144452629Y-70592679D01*
X144377228Y-70615551D01*
X144301827Y-70638424D01*
X144262649Y-70642283D01*
X144184295Y-70650000D01*
X144105705Y-70650000D01*
X144027351Y-70642283D01*
X143988173Y-70638424D01*
X143912772Y-70615551D01*
X143837371Y-70592679D01*
X143698392Y-70518392D01*
X143576578Y-70418422D01*
X143476608Y-70296608D01*
X143402321Y-70157629D01*
X143356576Y-70006826D01*
X143341130Y-69850000D01*
X143349618Y-69763822D01*
X143356576Y-69693173D01*
X143402321Y-69542372D01*
X143402321Y-69542371D01*
X143476608Y-69403392D01*
X143576578Y-69281578D01*
X143698392Y-69181608D01*
X143837371Y-69107321D01*
X143912772Y-69084449D01*
X143988173Y-69061576D01*
X144027351Y-69057717D01*
X144105705Y-69050000D01*
X144184295Y-69050000D01*
X144262649Y-69057717D01*
X144262649Y-69057717D01*
G37*
G36*
X146802649Y-69057717D02*
X146841827Y-69061576D01*
X146917228Y-69084449D01*
X146992629Y-69107321D01*
X147131608Y-69181608D01*
X147253422Y-69281578D01*
X147353392Y-69403392D01*
X147427679Y-69542371D01*
X147427679Y-69542372D01*
X147473424Y-69693173D01*
X147480382Y-69763822D01*
X147488870Y-69850000D01*
X147473424Y-70006826D01*
X147427679Y-70157629D01*
X147353392Y-70296608D01*
X147253422Y-70418422D01*
X147131608Y-70518392D01*
X146992629Y-70592679D01*
X146917228Y-70615551D01*
X146841827Y-70638424D01*
X146802649Y-70642283D01*
X146724295Y-70650000D01*
X146645705Y-70650000D01*
X146567351Y-70642283D01*
X146528173Y-70638424D01*
X146452772Y-70615551D01*
X146377371Y-70592679D01*
X146238392Y-70518392D01*
X146116578Y-70418422D01*
X146016608Y-70296608D01*
X145942321Y-70157629D01*
X145896576Y-70006826D01*
X145881130Y-69850000D01*
X145889618Y-69763822D01*
X145896576Y-69693173D01*
X145942321Y-69542372D01*
X145942321Y-69542371D01*
X146016608Y-69403392D01*
X146116578Y-69281578D01*
X146238392Y-69181608D01*
X146377371Y-69107321D01*
X146452772Y-69084449D01*
X146528173Y-69061576D01*
X146567351Y-69057717D01*
X146645705Y-69050000D01*
X146724295Y-69050000D01*
X146802649Y-69057717D01*
X146802649Y-69057717D01*
G37*
G36*
X149342649Y-69057717D02*
X149381827Y-69061576D01*
X149457228Y-69084449D01*
X149532629Y-69107321D01*
X149671608Y-69181608D01*
X149793422Y-69281578D01*
X149893392Y-69403392D01*
X149967679Y-69542371D01*
X149967679Y-69542372D01*
X150013424Y-69693173D01*
X150020382Y-69763822D01*
X150028870Y-69850000D01*
X150013424Y-70006826D01*
X149967679Y-70157629D01*
X149893392Y-70296608D01*
X149793422Y-70418422D01*
X149671608Y-70518392D01*
X149532629Y-70592679D01*
X149457228Y-70615551D01*
X149381827Y-70638424D01*
X149342649Y-70642283D01*
X149264295Y-70650000D01*
X149185705Y-70650000D01*
X149107351Y-70642283D01*
X149068173Y-70638424D01*
X148992772Y-70615551D01*
X148917371Y-70592679D01*
X148778392Y-70518392D01*
X148656578Y-70418422D01*
X148556608Y-70296608D01*
X148482321Y-70157629D01*
X148436576Y-70006826D01*
X148421130Y-69850000D01*
X148429618Y-69763822D01*
X148436576Y-69693173D01*
X148482321Y-69542372D01*
X148482321Y-69542371D01*
X148556608Y-69403392D01*
X148656578Y-69281578D01*
X148778392Y-69181608D01*
X148917371Y-69107321D01*
X148992772Y-69084449D01*
X149068173Y-69061576D01*
X149107351Y-69057717D01*
X149185705Y-69050000D01*
X149264295Y-69050000D01*
X149342649Y-69057717D01*
X149342649Y-69057717D01*
G37*
G36*
X151882649Y-69057717D02*
X151921827Y-69061576D01*
X151997228Y-69084449D01*
X152072629Y-69107321D01*
X152211608Y-69181608D01*
X152333422Y-69281578D01*
X152433392Y-69403392D01*
X152507679Y-69542371D01*
X152507679Y-69542372D01*
X152553424Y-69693173D01*
X152560382Y-69763822D01*
X152568870Y-69850000D01*
X152553424Y-70006826D01*
X152507679Y-70157629D01*
X152433392Y-70296608D01*
X152333422Y-70418422D01*
X152211608Y-70518392D01*
X152072629Y-70592679D01*
X151997228Y-70615551D01*
X151921827Y-70638424D01*
X151882649Y-70642283D01*
X151804295Y-70650000D01*
X151725705Y-70650000D01*
X151647351Y-70642283D01*
X151608173Y-70638424D01*
X151532772Y-70615551D01*
X151457371Y-70592679D01*
X151318392Y-70518392D01*
X151196578Y-70418422D01*
X151096608Y-70296608D01*
X151022321Y-70157629D01*
X150976576Y-70006826D01*
X150961130Y-69850000D01*
X150969618Y-69763822D01*
X150976576Y-69693173D01*
X151022321Y-69542372D01*
X151022321Y-69542371D01*
X151096608Y-69403392D01*
X151196578Y-69281578D01*
X151318392Y-69181608D01*
X151457371Y-69107321D01*
X151532772Y-69084449D01*
X151608173Y-69061576D01*
X151647351Y-69057717D01*
X151725705Y-69050000D01*
X151804295Y-69050000D01*
X151882649Y-69057717D01*
X151882649Y-69057717D01*
G37*
M02*
